<?xml version="1.0" encoding="utf-8"?>
<!-- Generator: Adobe Illustrator 27.5.0, SVG Export Plug-In . SVG Version: 6.00 Build 0)  -->
<svg version="1.1" id="Layer_1" xmlns="http://www.w3.org/2000/svg" xmlns:xlink="http://www.w3.org/1999/xlink" x="0px" y="0px"
	 viewBox="0 0 3000 2000" style="enable-background:new 0 0 3000 2000;" xml:space="preserve">
<g>
	<rect style="fill:#FFFFFF;" width="3000" height="2000"/>
	<g>
		<g>
			<path style="fill:none;stroke:#F6F0E4;stroke-width:6;stroke-miterlimit:10;" d="M2232.011,1677.033
				c130.288-53.694,245.374-155.393,324.289-286.565c59.024-98.109,98.209-225.207,61.361-336.825
				c-25.828-78.235-84.881-135.767-147.61-177.787c-133.321-89.307-293.953-122.946-445.951-93.391
				c-277.876,54.032-516.044,307.502-797.77,300.553c-228.762-5.643-426.741-182.807-649.529-243.036
				c-73.742-19.936-159.088-23.848-217.115,32.341c-43.148,41.781-61.776,108.344-70.395,172.592
				c-31.731,236.539,52.942,489.315,214.27,639.668L2232.011,1677.033z"/>
			<path style="fill:#F6F0E4;" d="M682.676,1678.043c-130.288-46.512-245.374-134.606-324.289-248.232
				c-59.024-84.985-98.21-195.081-61.361-291.768c25.828-67.77,84.881-117.605,147.61-154.004
				c133.32-77.36,293.953-106.5,445.951-80.898c277.876,46.804,516.044,266.368,797.77,260.348
				c228.762-4.888,426.741-158.353,649.529-210.525c73.742-17.269,159.088-20.658,217.115,28.015
				c43.148,36.192,61.776,93.851,70.395,149.505c31.731,204.897-52.942,423.859-214.27,554.1L682.676,1678.043z"/>
		</g>
		<g>
			<g>
				<path style="fill:#C6EAE9;" d="M1866.22,554.667h-237.774c-28.597,0-51.78-23.183-51.78-51.78V396.116
					c0-28.597,23.182-51.78,51.78-51.78h237.774c28.597,0,51.78,23.183,51.78,51.78v106.771
					C1918,531.484,1894.817,554.667,1866.22,554.667z"/>
				<g>
					<rect x="1632.333" y="393.501" style="fill:#FFFFFF;" width="230" height="20"/>
					<rect x="1632.333" y="439.501" style="fill:#FFFFFF;" width="230" height="20"/>
					<rect x="1632.333" y="485.501" style="fill:#FFFFFF;" width="230" height="20"/>
				</g>
			</g>
			<polygon style="fill:#C6EAE9;" points="1806.237,537.956 1859.333,602.667 1859.333,528 			"/>
		</g>
		<g>
			<g>
				<rect x="2663.63" y="523.391" style="fill:#F6F0E4;" width="22.074" height="40.662"/>
				
					<rect x="2631.92" y="536.525" transform="matrix(0.7071 -0.7071 0.7071 0.7071 380.3472 2031.9523)" style="fill:#F6F0E4;" width="22.074" height="40.662"/>
				<rect x="2609.491" y="577.529" style="fill:#F6F0E4;" width="40.662" height="22.074"/>
				
					<rect x="2622.626" y="609.239" transform="matrix(0.7071 -0.7071 0.7071 0.7071 335.503 2050.5273)" style="fill:#F6F0E4;" width="40.662" height="22.074"/>
				<rect x="2663.63" y="613.079" style="fill:#F6F0E4;" width="22.074" height="40.662"/>
				
					<rect x="2695.339" y="599.945" transform="matrix(0.7071 -0.7071 0.7071 0.7071 354.0733 2095.364)" style="fill:#F6F0E4;" width="22.074" height="40.662"/>
				<rect x="2699.18" y="577.529" style="fill:#F6F0E4;" width="40.662" height="22.074"/>
				
					<rect x="2686.045" y="545.82" transform="matrix(0.7071 -0.7071 0.7071 0.7071 398.9272 2076.804)" style="fill:#F6F0E4;" width="40.662" height="22.074"/>
				<rect x="2663.63" y="523.391" style="fill:#F6F0E4;" width="22.074" height="40.662"/>
			</g>
			<circle style="fill:#F6F0E4;" cx="2674.667" cy="588.566" r="48.28"/>
			<circle style="fill:#FFFFFF;" cx="2674.667" cy="588.566" r="32.767"/>
		</g>
		<g>
			<g>
				<rect x="333.407" y="611.568" style="fill:#F6F0E4;" width="17.106" height="31.512"/>
				
					<rect x="308.833" y="621.746" transform="matrix(0.7071 -0.7071 0.7071 0.7071 -357.8218 411.1463)" style="fill:#F6F0E4;" width="17.106" height="31.512"/>
				<rect x="291.452" y="653.523" style="fill:#F6F0E4;" width="31.512" height="17.107"/>
				
					<rect x="301.631" y="678.097" transform="matrix(0.7071 -0.7071 0.7071 0.7071 -392.5745 425.5414)" style="fill:#F6F0E4;" width="31.512" height="17.106"/>
				<rect x="333.407" y="681.073" style="fill:#F6F0E4;" width="17.106" height="31.512"/>
				
					<rect x="357.981" y="670.894" transform="matrix(0.7071 -0.7071 0.7071 0.7071 -378.1795 460.2941)" style="fill:#F6F0E4;" width="17.106" height="31.512"/>
				<rect x="360.957" y="653.523" style="fill:#F6F0E4;" width="31.512" height="17.107"/>
				
					<rect x="350.778" y="628.949" transform="matrix(0.7071 -0.7071 0.7071 0.7071 -343.4267 445.899)" style="fill:#F6F0E4;" width="31.512" height="17.106"/>
				<rect x="333.407" y="611.568" style="fill:#F6F0E4;" width="17.106" height="31.512"/>
			</g>
			
				<ellipse transform="matrix(0.9239 -0.3827 0.3827 0.9239 -227.3355 181.2603)" style="fill:#F6F0E4;" cx="341.961" cy="662.076" rx="37.415" ry="37.415"/>
			
				<ellipse transform="matrix(0.1546 -0.988 0.988 0.1546 -365.0134 897.5963)" style="fill:#FFFFFF;" cx="341.961" cy="662.076" rx="25.393" ry="25.394"/>
		</g>
		<g>
			<g>
				<rect x="2548.78" y="377.431" style="fill:#F6F0E4;" width="17.107" height="31.512"/>
				
					<rect x="2524.206" y="387.61" transform="matrix(0.7071 -0.7071 0.7071 0.7071 456.6053 1909.0745)" style="fill:#F6F0E4;" width="17.106" height="31.512"/>
				<rect x="2506.825" y="419.387" style="fill:#F6F0E4;" width="31.512" height="17.106"/>
				
					<rect x="2517.003" y="443.961" transform="matrix(0.7071 -0.7071 0.7071 0.7071 421.8465 1923.4609)" style="fill:#F6F0E4;" width="31.512" height="17.106"/>
				<rect x="2548.78" y="446.937" style="fill:#F6F0E4;" width="17.107" height="31.512"/>
				
					<rect x="2573.354" y="436.758" transform="matrix(0.7071 -0.7071 0.7071 0.7071 436.2476 1958.2223)" style="fill:#F6F0E4;" width="17.106" height="31.512"/>
				<rect x="2576.33" y="419.387" style="fill:#F6F0E4;" width="31.512" height="17.106"/>
				
					<rect x="2566.151" y="394.813" transform="matrix(0.7071 -0.7071 0.7071 0.7071 471.0003 1943.8273)" style="fill:#F6F0E4;" width="31.512" height="17.106"/>
				<rect x="2548.78" y="377.431" style="fill:#F6F0E4;" width="17.107" height="31.512"/>
			</g>
			
				<ellipse transform="matrix(0.1621 -0.9868 0.9868 0.1621 1720.5861 2882.1077)" style="fill:#F6F0E4;" cx="2557.333" cy="427.94" rx="37.415" ry="37.415"/>
			
				<ellipse transform="matrix(0.9263 -0.3768 0.3768 0.9263 27.2563 995.2111)" style="fill:#FFFFFF;" cx="2557.333" cy="427.94" rx="25.394" ry="25.393"/>
		</g>
		<g>
			<g>
				<rect x="463.475" y="451.252" style="fill:#F6F0E4;" width="25.049" height="46.143"/>
				
					<rect x="427.492" y="466.157" transform="matrix(0.7071 -0.7071 0.7071 0.7071 -217.0593 454.4301)" style="fill:#F6F0E4;" width="25.049" height="46.143"/>
				<rect x="402.039" y="512.688" style="fill:#F6F0E4;" width="46.143" height="25.049"/>
				
					<rect x="416.945" y="548.672" transform="matrix(0.7071 -0.7071 0.7071 0.7071 -267.9484 475.5111)" style="fill:#F6F0E4;" width="46.143" height="25.049"/>
				<rect x="463.475" y="553.03" style="fill:#F6F0E4;" width="25.049" height="46.143"/>
				
					<rect x="499.459" y="538.125" transform="matrix(0.7071 -0.7071 0.7071 0.7071 -246.8692 526.3958)" style="fill:#F6F0E4;" width="25.049" height="46.143"/>
				<rect x="503.817" y="512.688" style="fill:#F6F0E4;" width="46.143" height="25.049"/>
				
					<rect x="488.912" y="476.704" transform="matrix(0.7071 -0.7071 0.7071 0.7071 -195.9804 505.3192)" style="fill:#F6F0E4;" width="46.143" height="25.049"/>
				<rect x="463.475" y="451.252" style="fill:#F6F0E4;" width="25.049" height="46.143"/>
			</g>
			<circle style="fill:#F6F0E4;" cx="476" cy="525.213" r="54.787"/>
			<circle style="fill:#FFFFFF;" cx="476" cy="525.213" r="37.184"/>
		</g>
		<g>
			<path style="fill:#1F242E;" d="M680.667,1188c55.772,11.951,111.981-12.115,128.4-69.452c6.37-22.246,5.936-46.992-3.207-68.423
				c-8.87-20.793-25.533-35.168-47.051-41.55c-21.805-6.467-45.633-6.929-65.651-18.71c-25.041-14.736-43.344-35.397-52.696-63.381
				c-7.405-22.157-12.473-43.467-24.28-64.096c-49.995-87.356-174.975-86.7-241.313-18.987
				c-80.151,81.813-48.479,225.877,7.018,312.024c13.466,20.903,29.199,40.328,46.779,57.909L680.667,1188z"/>
			<g>
				<path style="fill:#F9B384;" d="M1003.2,1238.2c0,0-2.24,6.8-6.52,17.96l-0.32,0.8c-14,36.56-48.64,117.6-94.64,161.32
					c-11.4,10.88-23.52,19.44-36.16,24.44c-13.4,5.32-28.56,3.68-44.4-2.68c-12.4-4.92-25.24-12.76-38-22.4
					c-45.32-34.08-90.2-90.8-113.48-122.36c-10.28-13.96-16.36-23-16.36-23l29.84-1.92l23.92-1.52l88.92-5.68l46,54.16l63.12-94.36
					l0.04-0.04l20.72-31L1003.2,1238.2z"/>
				<path style="fill:#F9B384;" d="M990.038,1271.638l27.674-64.572c31.114-27.982,61.207-80.474,53.484-101.795
					c-2.494-6.884-10.702-2.88-10.702-2.88s17.708-23.232,17.082-30.199c-0.627-6.968-13.305-6.962-13.305-6.962
					c3.569-3.855,7.743-15.093,0.325-18.751c-8.208-4.048-18.828,10.158-18.828,10.158c2.031-16.878-8.62-13.374-8.62-13.374
					c-32.731,21.191-40.043,37.032-67.5,68.273c-1.381,1.235-3.346-0.128-3.337-2.092c0.306-66.111-21.194-56.626-21.194-56.626
					c-12.987,49.976-18.171,92.183-10.195,121.288l-29.817,48.852L990.038,1271.638z"/>
			</g>
			<path style="fill:#EE6F57;" d="M796,1263l-62.72,86.4c-5.36-29-18.84-60.92-41.28-95.4l-28.48-121.48
				c20.96,7.92,39.84,21.08,54.64,38.56L796,1263z"/>
			<path style="opacity:0.3;fill:#6F3428;" d="M783.16,1417.64c-45.32-34.08-90.2-90.8-113.48-122.36l13.48-24.92L692,1254
				c0,0,6.04,5.16,15.08,14.84C729.84,1293.2,771.64,1346.32,783.16,1417.64z"/>
			<path style="fill:#EE6F57;" d="M776,1666.667L440,1670l-55.64-305.04L376,1319l-32.36-142.84c13.36-8.24,27.68-14.84,42.6-19.8
				l39.24-13.12l77.52-25.92l102.28,5.8L621,1124c14.68,0.52,29.04,3.44,42.52,8.52L692,1254c22.44,34.48,35.92,66.4,41.28,95.4
				c6.6,35.76-15.28,93.6-15.28,93.6S758.667,1600,776,1666.667z"/>
			<g>
				<path style="fill:#F9B384;" d="M600,1585.32v0.04l-3.16,58.36l-0.08,1.2L319,1646c-1.2,0-2.36,0-3.52-0.04
					c-36.96-0.72-62.12-21.8-72.76-53.16c-3-8.8-4.84-18.4-5.48-28.6c-0.4-6.2-0.12-12.44,0.4-18.64L250,1402l78.84-58.48L378,1404
					l-18,137L600,1585.32z"/>
				<path style="fill:#F9B384;" d="M599.967,1585.37l39.459-7.251c11.073-2.035,22.527,1.009,30.734,8.166l65.841,57.419H562.686
					L599.967,1585.37z"/>
			</g>
			
				<rect x="460.695" y="1033.053" transform="matrix(0.9987 -0.0501 0.0501 0.9987 -54.21 27.0365)" style="fill:#F9B384;" width="102.667" height="122.93"/>
			<path style="fill:#E28B6D;" d="M561.667,1063c-29.333,57.667-83.667,37-103-1.333l61.667-11.333L561.667,1063z"/>
			<path style="fill:#F9B384;" d="M597.92,980.68c-2.32,14.6-5.68,28.48-10.16,40.88c-9.52,26.48-24.2,46.12-45.08,51.76
				c-59.44,16.08-103.16-2.32-131.16-102.84l-13.68-97.16l150.48-20.48l52.6,40.92C603.12,922,602.4,952.68,597.92,980.68z"/>
			<path style="fill:#1F242E;" d="M413,969.167c31.923-10.894,54.532-31.225,54-75c62.999-15.379,111.215,2.924,140,65.5l7-71.5
				c0,0-84.5-67.5-86-67.5s-151.5,39-151.5,39l-5.5,63.5L413,969.167z"/>
			<path style="fill:#EE6F57;" d="M384.36,1364.96l-5.68,39.04l-129.36-2l20.36-119.76c5.4-31.76,20.64-61.16,44.08-83.28
				c0.36-0.32,0.72-0.64,1.08-1c8.88-8.24,18.56-15.52,28.8-21.8L376,1319L384.36,1364.96z"/>
			<path style="fill:#F9B384;" d="M605.28,1123.12C590,1205.333,472,1216,425.48,1143.24l77.52-25.92L605.28,1123.12z"/>
			<path style="fill:#F9B384;" d="M435.25,980.614c0,17.126-3.818,27.06-16.292,30.098C402.105,1014.817,386,991.356,386,974.23
				s10.125-28.73,22.846-28.73C421.567,945.5,435.25,963.488,435.25,980.614z"/>
			
				<line style="fill:none;stroke:#6F3428;stroke-width:4;stroke-miterlimit:10;" x1="387.454" y1="1323.425" x2="376.162" y2="1404.978"/>
			<g style="opacity:0.3;">
				<path style="fill:#6F3428;" d="M462.158,1217.338c5.922,2.781,12.154,5.297,18.508,7.123c3.146,1.016,6.373,1.77,9.543,2.668
					c3.237,0.648,6.461,1.331,9.696,1.904c12.987,2.056,26.208,2.316,39.064,0.187c1.607-0.255,3.238-0.385,4.827-0.73l4.743-1.17
					c3.129-0.888,6.411-1.286,9.405-2.625l9.208-3.345c3.033-1.213,5.859-2.905,8.839-4.277c2.955-1.432,5.948-2.816,8.627-4.754
					l8.366-5.323c5.536-3.65,10.439-8.18,15.917-12.106l2.201,2.222c-2.354,2.46-4.761,4.892-7.213,7.29l-3.663,3.627
					c-1.198,1.242-2.447,2.426-3.855,3.422c-5.553,4.05-10.77,8.711-17.026,11.797c-11.835,7.324-25.45,11.616-39.185,13.846
					c-13.799,2.147-28.005,1.677-41.522-1.424c-13.545-2.998-26.518-8.053-38.128-15.673L462.158,1217.338z"/>
			</g>
			<path style="fill:#E28B6D;" d="M526.755,965.846c0.525,4.613,0.973,9.168,2.411,13.076c0.733,1.943,1.687,3.703,2.98,5.159
				c1.257,1.45,2.983,2.848,4.807,4.51c1.76,1.645,3.837,3.861,4.551,7.096c0.676,3.302-0.708,6.541-2.639,8.555
				c-1.94,2.141-4.517,3.363-6.911,4.025c-2.446,0.659-4.827,0.911-7.174,1.002l-0.432-2.102c4.335-1.584,8.773-3.092,10.826-6.028
				c2.233-3.109,1.344-5.545-1.971-8.577c-1.532-1.521-3.492-3-5.135-5.18c-1.653-2.132-2.788-4.602-3.382-7.095
				c-1.259-5.009-0.774-9.877-0.076-14.489L526.755,965.846z"/>
			<path style="fill:#1F242E;" d="M496.726,961.466c0.577,5.577-2.063,10.42-5.897,10.816c-3.834,0.397-7.41-3.802-7.987-9.379
				c-0.577-5.577,2.063-10.42,5.897-10.816C492.573,951.689,496.149,955.889,496.726,961.466z"/>
			<path style="fill:#1F242E;" d="M565.942,958.281c0.577,5.577-2.063,10.42-5.897,10.817c-3.834,0.397-7.41-3.803-7.987-9.38
				c-0.577-5.577,2.063-10.42,5.897-10.817C561.789,948.505,565.365,952.705,565.942,958.281z"/>
			<path style="fill:#FFFFFF;" d="M499.733,1025.014C500,1025,529,1028,544.195,1025.518c0,0-7.862,17.815-26.862,14.815
				C504.701,1038.339,499.733,1025.014,499.733,1025.014z"/>
			<path style="fill:#1F242E;" d="M464.183,947.239c1.862-4.154,4.923-7.732,8.799-10.531c3.892-2.748,8.759-4.508,13.753-4.733
				c4.995-0.236,9.939,1.063,14.055,3.376c4.128,2.314,7.567,5.508,9.911,9.447l-1.401,1.738c-4.233-1.311-7.974-2.675-11.638-3.572
				c-3.654-0.894-7.128-1.414-10.566-1.334c-3.434,0.108-6.842,0.808-10.337,2.079c-3.538,1.21-7.026,3.091-10.942,5.052
				L464.183,947.239z"/>
			<path style="fill:#1F242E;" d="M537.728,943.396c1.149-3.884,3.866-7.379,7.375-9.793c3.501-2.45,7.764-3.812,12.033-4.029
				c4.28-0.248,8.598,0.727,12.344,2.727c3.731,1.979,6.924,5.146,8.394,9.004l-1.748,1.388c-3.152-1.955-6.171-3.243-9.274-4.103
				c-3.096-0.848-6.252-1.161-9.37-1.085c-6.315,0.185-12.193,2.404-17.876,7.097L537.728,943.396z"/>
			
				<ellipse transform="matrix(0.2961 -0.9552 0.9552 0.2961 -626.1024 1154.2831)" style="opacity:0.4;fill:#FC8879;" cx="470.115" cy="1001.944" rx="22.892" ry="22.891"/>
			<path style="opacity:0.4;fill:#FC8879;" d="M597.92,980.68c-2.32,14.6-5.68,28.48-10.16,40.88c-2.92,0.48-5.96,0.36-9-0.36
				c-12.32-2.96-19.88-15.32-16.88-27.64c2.96-12.28,15.32-19.84,27.6-16.88C592.64,977.44,595.48,978.84,597.92,980.68z"/>
			<path style="fill:#E28B6D;" d="M418.932,981.393c-0.759-6.212-4.173-11.501-8.786-14.725c-2.295-1.565-4.866-2.436-7.12-2.066
				c-2.242,0.44-4.289,2.5-6.008,5.237l-2.036-0.679c0.428-3.417,2.368-7.529,6.627-9.167c4.247-1.456,8.556,0.018,11.628,2.168
				c3.134,2.213,5.524,5.243,6.945,8.672c1.455,3.402,1.836,7.293,0.885,10.772L418.932,981.393z"/>
			<path style="opacity:0.4;fill:#FC8879;" d="M315.48,1645.96c-36.96-0.72-62.12-21.8-72.76-53.16
				C274.44,1584.48,302.88,1599.8,315.48,1645.96z"/>
			<path style="opacity:0.4;fill:#FC8879;" d="M901.72,1418.28c-11.4,10.88-23.52,19.44-36.16,24.44
				c-13.4,5.32-28.56,3.68-44.4-2.68C828.24,1404.84,867.12,1394.04,901.72,1418.28z"/>
			<g>
				<path style="fill:#E28B6D;" d="M1040.792,1133.547c-5.667-6.744-11.6-13.207-18.068-18.945
					c-3.201-2.919-6.643-5.509-10.147-8.019c-3.537-2.483-7.268-4.622-11.163-6.739l0.648-1.927
					c4.467,0.961,8.915,2.476,12.917,4.781c4.011,2.268,7.822,4.929,11.194,8.044c6.772,6.195,12.525,13.431,16.37,21.771
					L1040.792,1133.547z"/>
				<path style="fill:#E28B6D;" d="M971.536,1119.566c3.497,2.353,6.362,5.587,8.605,9.127c2.275,3.538,3.965,7.415,5.192,11.419
					c1.195,4.016,1.892,8.192,1.919,12.407c0.056,4.199-0.643,8.489-2.38,12.342l-1.954-0.559c0.415-3.886,0.2-7.711-0.224-11.502
					c-0.472-3.788-1.26-7.542-2.323-11.219c-2.19-7.337-5.336-14.403-10.185-20.496L971.536,1119.566z"/>
			</g>
		</g>
		<g>
			<path style="fill:#FFFFFF;stroke:#708CD5;stroke-width:4;stroke-miterlimit:10;" d="M1593.333,910.667l-36.974-66.026
				c20.516-25.293,32.828-57.511,32.828-92.617c0-81.269-65.882-147.151-147.151-147.151s-147.151,65.882-147.151,147.151
				s65.882,147.151,147.151,147.151c28.903,0,55.837-8.366,78.576-22.76C1552.411,891.5,1593.333,910.667,1593.333,910.667z"/>
			<g>
				<path style="fill:#FBC343;" d="M1473.375,801.24v3.822c0,15.698-12.74,28.438-28.483,28.438h-6.779
					c-15.743,0-28.438-12.74-28.438-28.438v-3.822H1473.375z"/>
				<path style="fill:#FBC343;" d="M1493.258,719.727c0,9.691-2.639,18.7-7.28,26.435c-7.781,13.013-12.604,27.527-12.604,42.679
					v1.592h-63.7v-1.592c0-14.833-4.323-29.256-12.148-41.86c-5.005-8.008-7.872-17.517-7.781-27.71
					c0.227-27.209,22.477-50.186,49.686-51.233C1468.961,666.902,1493.258,690.471,1493.258,719.727z"/>
				<ellipse style="opacity:0.6;fill:#FFFFFF;" cx="1417.046" cy="711.219" rx="10.806" ry="16.494"/>
			</g>
		</g>
		<g>
			<path style="fill:#FFFFFF;stroke:#708CD5;stroke-width:4;stroke-miterlimit:10;" d="M801.552,414.969
				c-81.269,0-147.151,65.882-147.151,147.151c0,61.022,37.145,113.364,90.057,135.66l-7.41,73.348c0,0,31.298-35.471,54.652-62.221
				c3.26,0.216,6.537,0.365,9.852,0.365c81.269,0,147.151-65.882,147.151-147.151S882.821,414.969,801.552,414.969z"/>
			<g>
				<rect x="750.687" y="541.207" style="fill:#1F3C88;" width="23.136" height="58.222"/>
				<path style="fill:#708CD5;" d="M839.22,541.207h-28.785c18.461-23.599,22.522-36.678,19.791-43.617
					c-1.235-3.139-5.446-3.755-7.713-1.258l-40.717,44.875h-0.01v52.79c0,3,2.432,5.432,5.432,5.432h52.001
					c7.289,0,13.197-5.909,13.197-13.197v-31.828C852.417,547.116,846.508,541.207,839.22,541.207z"/>
			</g>
		</g>
		<g>
			<path style="fill:#FFFFFF;stroke:#708CD5;stroke-width:4;stroke-miterlimit:10;" d="M2348.324,705.892
				c34.311-26.94,56.379-68.766,56.379-115.773c0-81.269-65.882-147.151-147.151-147.151s-147.151,65.882-147.151,147.151
				s65.882,147.151,147.151,147.151c19.04,0,37.215-3.656,53.916-10.239c25.674,21.142,54.652,44.814,54.652,44.814
				L2348.324,705.892z"/>
			<g>
				
					<rect x="2285.281" y="570.54" transform="matrix(-1 -1.224647e-16 1.224647e-16 -1 4593.6982 1199.3031)" style="fill:#1F3C88;" width="23.136" height="58.222"/>
				<path style="fill:#708CD5;" d="M2219.885,570.54h28.785c-18.461-23.599-22.522-36.679-19.791-43.617
					c1.235-3.138,5.446-3.755,7.712-1.258l40.717,44.875h0.01v52.79c0,3-2.432,5.432-5.432,5.432h-52.001
					c-7.289,0-13.197-5.909-13.197-13.197v-31.828C2206.687,576.449,2212.596,570.54,2219.885,570.54z"/>
			</g>
		</g>
		<g>
			<g>
				<g>
					<rect x="1104.963" y="754.057" style="fill:#F6F0E4;" width="22.074" height="40.662"/>
					
						<rect x="1073.253" y="767.192" transform="matrix(0.7071 -0.7071 0.7071 0.7071 -239.2816 997.3693)" style="fill:#F6F0E4;" width="22.074" height="40.662"/>
					<rect x="1050.825" y="808.196" style="fill:#F6F0E4;" width="40.662" height="22.074"/>
					
						<rect x="1063.959" y="839.906" transform="matrix(0.7071 -0.7071 0.7071 0.7071 -284.1264 1015.9399)" style="fill:#F6F0E4;" width="40.662" height="22.074"/>
					<rect x="1104.963" y="843.746" style="fill:#F6F0E4;" width="22.074" height="40.662"/>
					
						<rect x="1136.673" y="830.611" transform="matrix(0.7071 -0.7071 0.7071 0.7071 -265.5501 1060.7931)" style="fill:#F6F0E4;" width="22.074" height="40.662"/>
					<rect x="1140.513" y="808.196" style="fill:#F6F0E4;" width="40.662" height="22.074"/>
					
						<rect x="1127.379" y="776.486" transform="matrix(0.7071 -0.7071 0.7071 0.7071 -220.7066 1042.2135)" style="fill:#F6F0E4;" width="40.662" height="22.074"/>
					<rect x="1104.963" y="754.057" style="fill:#F6F0E4;" width="22.074" height="40.662"/>
				</g>
				
					<ellipse transform="matrix(0.9239 -0.3827 0.3827 0.9239 -228.5564 489.4352)" style="fill:#F6F0E4;" cx="1116" cy="819.233" rx="48.279" ry="48.28"/>
				
					<ellipse transform="matrix(0.9239 -0.3827 0.3827 0.9239 -228.5564 489.4354)" style="fill:#FFFFFF;" cx="1116" cy="819.233" rx="32.767" ry="32.767"/>
			</g>
			<g>
				<polygon style="fill:#C6C6C6;" points="1464,1615.952 1064,1615.952 925.333,1273.599 1325.333,1273.599 				"/>
				<polygon style="fill:#FFFFFF;" points="1439,1617.072 1092.465,1617.072 961.333,1296.479 1307.868,1296.479 				"/>
				<g style="opacity:0.6;">
					<g>
						<polygon style="fill:#FBC343;" points="1144.667,1561.072 1109.089,1561.072 1088.667,1510.651 1124.244,1510.651 						"/>
					</g>
					<g>
						<polygon style="fill:#FBC343;" points="1200,1561.072 1164.422,1561.072 1126,1465.318 1161.578,1465.318 						"/>
					</g>
					<g>
						<polygon style="fill:#FBC343;" points="1255.333,1561.072 1219.756,1561.072 1165.333,1423.318 1200.911,1423.318 						"/>
					</g>
					<g>
						<polygon style="fill:#FBC343;" points="1310.667,1561.072 1275.089,1561.072 1207.333,1395.318 1242.911,1395.318 						"/>
					</g>
					<g>
						<polygon style="fill:#FBC343;" points="1366,1561.072 1330.422,1561.072 1247.333,1353.318 1282.911,1353.318 						"/>
					</g>
					<g>
						<polygon style="fill:#FBC343;" points="1097.896,1491.16 1094.104,1489.895 1119.414,1413.961 1174.801,1394.824 
							1214.898,1344.859 1264.898,1311.859 1267.102,1315.195 1217.365,1348.023 1177.199,1398.23 1122.586,1417.094 						"/>
					</g>
				</g>
				<path style="fill:#1F242E;" d="M1591.369,1649.952l-474.204,2.381c-23.566,0.118-44.741-14.372-53.165-36.381l0,0h527.369
					V1649.952z"/>
			</g>
			<path style="fill:#F9B384;" d="M1724.68,1372c0,0-7.32,148.36-49.88,219.88c-11.96,20.08-26.68,34.12-44.8,37.12
				c-14.08,2.32-29.6,1.04-45.72-2.76c-81.8-19.12-178.96-102.24-178.96-102.24l42.68-80l137.32,64.68L1612,1341L1724.68,1372z"/>
			<rect x="2068" y="1239" style="fill:#E28B6D;" width="109" height="353"/>
			<path style="fill:#1F3C88;" d="M1914.667,1098.667L2048,1087c61-8,109,25,125,80l30,116l-161,28L1914.667,1098.667z"/>
			<path style="fill:#1F3C88;" d="M1890,1103l-158,39c-34.626,7.773-82,35-104,98l-32,123l138,11l20-110L1890,1103z"/>
			<path style="fill:#1F3C88;" d="M2120,1672l-368,2c0,0-2.64-23.24-6.6-58.4c-12.32-108.4-37.4-330.24-37.4-334.28l-26.68-80
				L1892,1124l226.68,50.68c0.76,79.36,1.12,168.92,1.32,249.92C2120.28,1560.24,2120,1672,2120,1672z"/>
			<path style="fill:#1F242E;" d="M1956.667,897.333c27.333-27.333,12.628-71.889-2.339-91.843C1909.428,745.629,1798,712,1734,848
				c-49,15-36.667,138,31.333,155.333L1956.667,897.333z"/>
			<path style="fill:#F9B384;" d="M1897.08,1169.08c-30.88,2.48-57.92-20.52-60.4-51.4l-8.32-103.6l111.8-9l1.12,14.12l1.2,14.96
				l3.4,42.24l0.48,6.04l2.12,26.24C1950.96,1139.56,1927.96,1166.6,1897.08,1169.08z"/>
			<path style="fill:#E28B6D;" d="M1946.36,1082.44c-55.6,8.44-79.84-15.84-92.4-23.2l87.72-30.72l0.8,5.64l3.4,42.24
				L1946.36,1082.44z"/>
			<path style="fill:#F9B384;" d="M1968.6,991.52c-2.84,34.52-16.44,64.92-52.6,73.48c-47.8,11.28-119.68-0.16-151-81.48
				c-31.32-81.36,5.68-106.2,5.68-106.2l109.32-42l69.32,32c0,0,10.52,29.6,16.24,66C1968.52,951.96,1970.2,972.36,1968.6,991.52z"
				/>
			<path style="fill:#1F242E;" d="M1766,958.5c15-2,16.72-0.627,24,2.5c7.28,3.127-16.489-27.31,16.333-58.667
				c37.333-35.667,94.333,27,143-35L1917,822.5L1781,840l-48.5,74l17.5,50.5L1766,958.5z"/>
			<path style="fill:#F9B384;" d="M1796.22,962.873c0,0-46.98-30.355-57.834,11.935c-4.564,17.781,11.787,32.873,20.49,35.674
				c24.054,7.74,44.67-8.782,44.67-8.782L1796.22,962.873z"/>
			<line style="fill:none;stroke:#1F242E;stroke-width:4;stroke-miterlimit:10;" x1="1708" y1="1281.333" x2="1726" y2="1454"/>
			<g style="opacity:0.3;">
				<path style="fill:#1F242E;" d="M1848.234,1193.249c8.196,8.581,19.369,13.505,30.85,15.577
					c11.542,1.983,23.529,1.619,34.958-1.125c11.454-2.59,22.446-7.317,32.016-14.123c9.632-6.714,17.706-15.648,23.548-26.079
					l2.12,1.003c-2.274,5.753-5.501,11.135-9.268,16.107c-3.868,4.898-8.354,9.321-13.285,13.184
					c-9.95,7.625-21.628,12.895-33.815,15.705c-12.212,2.598-25.021,3.128-37.289,0.292c-6.108-1.429-12.084-3.592-17.544-6.736
					c-5.403-3.202-10.369-7.269-14.094-12.303L1848.234,1193.249z"/>
			</g>
			<line style="fill:none;stroke:#1F242E;stroke-width:4;stroke-miterlimit:10;" x1="2118" y1="1298" x2="2118" y2="1214"/>
			<path style="opacity:0.4;fill:#FC8879;" d="M1674.8,1591.88c-11.96,20.08-26.68,34.12-44.8,37.12
				c-14.08,2.32-29.6,1.04-45.72-2.76C1593,1584,1650,1572,1674.8,1591.88z"/>
			<path style="fill:#E28B6D;" d="M1781.395,976.552c-2.68-1.706-5.526-3.035-8.428-4.122c-2.905-1.053-5.886-1.874-8.753-2.111
				c-2.862-0.261-5.553,0.047-7.408,1.4c-1.929,1.299-3.197,3.929-4.134,7.062l-2.344-0.063c-0.617-3.436-0.163-7.81,3.028-10.981
				c0.693-0.866,1.714-1.296,2.608-1.916c0.945-0.473,1.945-0.797,2.942-1.127c2-0.379,3.974-0.521,5.871-0.319
				c3.778,0.408,7.252,1.634,10.368,3.422c3.097,1.782,5.982,4.068,7.961,7.151L1781.395,976.552z"/>
			<path style="fill:#E28B6D;" d="M1901.854,941.748c1.677,4.837,3.247,9.636,5.631,13.608c1.233,1.944,2.596,3.712,4.291,5.014
				c1.618,1.309,3.768,2.406,6.112,3.786c2.276,1.361,5.014,3.338,6.494,6.594c1.462,3.306,0.94,6.976-0.448,9.698
				c-1.35,2.835-3.687,4.973-6.033,6.418c-2.427,1.411-4.865,2.424-7.334,3.2l-1.06-2.092c4.206-2.885,8.319-5.856,9.6-9.642
				c1.435-4.042-0.108-6.627-4.335-9.081c-1.991-1.292-4.486-2.453-6.725-4.52c-2.236-1.978-3.9-4.438-5.086-6.972
				c-2.382-5.107-3.039-10.412-3.407-15.543L1901.854,941.748z"/>
			<path style="fill:#1F242E;" d="M1865.58,947.221c1.965,5.554,0.462,11.151-3.356,12.502s-8.506-2.057-10.471-7.61
				c-1.965-5.554-0.462-11.151,3.356-12.502C1858.928,938.26,1863.616,941.667,1865.58,947.221z"/>
			<path style="fill:#1F242E;" d="M1939.247,924.554c1.965,5.554,0.462,11.151-3.356,12.502c-3.818,1.351-8.506-2.057-10.471-7.61
				c-1.965-5.554-0.462-11.151,3.356-12.502C1932.594,915.593,1937.282,919.001,1939.247,924.554z"/>
			<path style="fill:#FFFFFF;" d="M1889.368,1006.925c8.124,0.886,31.509,0.29,45.537-10.449c0,0-8.823,22.96-22.255,22.589
				C1899.218,1018.695,1889.368,1006.925,1889.368,1006.925z"/>
			<path style="fill:#1F242E;" d="M1830.978,940.424c0.798-4.558,2.756-8.813,5.607-12.676c2.886-3.801,6.927-7.114,11.767-8.972
				c4.818-1.926,10.254-2.068,14.978-0.835c4.752,1.231,8.933,3.621,12.171,6.998l-1.002,2.12c-4.52-0.231-8.536-0.649-12.285-0.543
				c-3.74,0.116-7.124,0.577-10.314,1.77c-3.193,1.165-6.268,2.97-9.335,5.299c-3.128,2.28-6.085,5.121-9.542,7.989
				L1830.978,940.424z"/>
			<path style="fill:#1F242E;" d="M1908.986,913.744c0.725-3.59,2.351-6.965,4.729-9.941c2.358-2.976,5.616-5.513,9.426-6.959
				c3.797-1.48,8.049-1.698,11.82-0.799c3.792,0.843,7.183,2.638,9.847,5.215l-0.948,2.145c-3.543-0.126-6.7-0.356-9.652-0.237
				c-2.951,0.169-5.637,0.567-8.187,1.505c-2.556,0.91-5.002,2.292-7.459,4.066c-2.454,1.779-4.831,3.942-7.546,6.183
				L1908.986,913.744z"/>
			<path style="opacity:0.4;fill:#FC8879;" d="M1968.6,991.52c-13.6-2.96-23.76-15.04-23.76-29.52c0-13.4,8.68-24.72,20.72-28.68
				C1968.52,951.96,1970.2,972.36,1968.6,991.52z"/>
			<circle style="opacity:0.4;fill:#FC8879;" cx="1844.586" cy="1003" r="30.247"/>
			<path style="opacity:0.2;fill:#1F242E;" d="M2120,1672l-368,2c0,0-2.64-23.24-6.6-58.4c155.933,25.733,322.6-60.933,374.6-191
				C2120.28,1560.24,2120,1672,2120,1672z"/>
			<path style="fill:#F9B384;" d="M1434,1546l-57.333-41.333c-41.333-8-94.49-37.663-98.883-60.051
				c-1.418-7.229,7.735-8.031,7.735-8.031s-27.311-10.853-30.383-17.186c-3.071-6.333,7.864-12.899,7.864-12.899
				c-5.076-1.474-14.5-9-10-16c4.979-7.746,21.5-1,21.5-1c-10.5-13.5,0.5-16,0.5-16c39.208,1.306,57.432,6.753,97.302,19.458
				c1.831,0.349,3.005-1.973,1.793-3.533c-36.998-47.626-14.787-55.39-14.787-55.39c37.103,36.36,63.451,70.067,71.66,99.297
				L1482,1460L1434,1546z"/>
			<path style="fill:#E28B6D;" d="M1316.829,1451.559c-0.858-4.572-0.957-9.129-0.703-13.706c0.252-4.573,1.011-9.121,2.137-13.591
				c1.1-4.477,2.834-8.818,4.974-12.927c2.133-4.119,5.011-7.873,8.339-11.056l1.849,1.443c-1.954,3.994-3.887,7.795-5.406,11.826
				c-1.498,4.019-2.923,8.057-3.982,12.237c-2.24,8.31-3.657,16.932-4.865,25.656L1316.829,1451.559z"/>
			<path style="fill:#E28B6D;" d="M1370.879,1406.234c-0.411,6.988,0.27,13.601,2.288,19.913c2.003,6.32,5.165,12.099,9.38,17.714
				l-1.526,1.781c-6.63-3.675-11.346-10.442-13.557-17.726c-2.204-7.289-2.127-15.478,1.149-22.287L1370.879,1406.234z"/>
		</g>
		<g>
			<polygon style="fill:#F9B384;" points="2695.32,1105.32 2586.68,1122.68 2576.2,1078.76 2559.36,1008.44 2558,1002.68 
				2663.32,964.68 			"/>
			<path style="fill:#E28B6D;" d="M2639,994.48c0,0-10.787,23.413-68.667,60.853l-10.973-46.893L2639,994.48z"/>
			<path style="fill:#1F242E;" d="M2366.68,1344c0,0,62.987,43.667,174.653,1.333L2453,1303L2366.68,1344z"/>
			<path style="fill:#E28B6D;" d="M2477.921,912.011c-16.05,34.569-27.358,63.733-16.921,70.989c13.45,9.35,44-4,44-4
				L2477.921,912.011z"/>
			<path style="fill:#6F3428;" d="M2486.5,797.5c14.327-26.995,37.955-42.632,69.163-49.202c20.796-4.378,42.419-3.752,63.095,1.162
				c35.929,8.538,59.523,25.928,73.242,54.54l-105.333,46.667L2486.5,797.5z"/>
			<path style="fill:#F9B384;" d="M2461,867c2,3,32.653,162.997,63,170c26,6,132-19,151-75l-90-140l-119,21L2461,867z"/>
			<path style="fill:#6F3428;" d="M2596,942c0,0,50,49.333,85.333,32.667c35.333-16.667,72.833-111.917,0.167-187.917l-195,10.75
				c-23.988-14.281-43.595-14.106-58.607,1.23c-8.462,8.644-12.848,20.443-13.564,32.518c-2.022,34.084,19.633,47.869,51.671,52.752
				c50.5-64.5,98,46,98,46L2596,942z"/>
			<path style="fill:#708CD5;" d="M2638.68,1680.013h-292L2512,1345.32l83.2-282.96c50.2-15.08,105-2.12,132.8,19.64
				C2820,1155.36,2741.56,1409.693,2638.68,1680.013z"/>
			<path style="opacity:0.3;fill:#1F3C88;" d="M2571.333,1243.333l-43.953,334.353c-5.015,40.205-33.867,70.085-68.013,70.437
				l-117.629,1.213L2550.667,1314L2571.333,1243.333z"/>
			<g>
				<path style="fill:#F9B384;" d="M2539,1346l-61,206c-1.48,5.48-4.04,11.48-7.24,17.64c-8.8,16.8-20.64,31.36-34.6,43.28
					c-25.92,22.16-59.28,35.2-94.44,36.4c-4.36,0.16-8.48,0.24-12.2,0.28h-0.28l-185.24,1.08l-0.16-1.68l-7.84-79.68l219-38.32
					l52-186l46-42L2539,1346z"/>
				<path style="fill:#F9B384;" d="M2136,1569.333l-49.747-9.903c-13.959-2.779-28.4,1.377-38.747,11.152L1964.5,1649H2183
					L2136,1569.333z"/>
			</g>
			<path style="fill:#708CD5;" d="M2595.2,1062.36l-53.867,282.973L2366.68,1344l71.28-180.64c6.52-16.44,17.44-30.84,31.84-41.04
				C2501.08,1100.12,2548.48,1076.36,2595.2,1062.36z"/>
			<path style="opacity:0.3;fill:#6F3428;" d="M2589,964.5c22.333,2.833,41-43.5,12.333-69.833L2585.75,943L2589,964.5z"/>
			<path style="fill:#F9B384;" d="M2554,937.5c3.5-31.5,15.208-48.353,29.5-51c27-5,39,51.5,5.5,78L2554,937.5z"/>
			
				<line style="fill:none;stroke:#1F3C88;stroke-width:4;stroke-miterlimit:10;" x1="2541.333" y1="1345.333" x2="2589.333" y2="1180"/>
			<path style="opacity:0.4;fill:#FC8879;" d="M2436.16,1612.92c-25.92,22.16-59.28,35.2-94.44,36.4c-4.36,0.16-8.48,0.24-12.2,0.28
				h-0.28c1.427-34.933,42.56-61.56,78.76-52.28C2418.2,1599.92,2427.6,1605.56,2436.16,1612.92z"/>
			<g>
				<path style="fill:#E28B6D;" d="M2573.533,933.632c-1.718-3.877-1.986-8.181-1.551-12.315c0.454-4.153,1.704-8.286,4.083-12.027
					c1.196-1.859,2.727-3.612,4.673-4.994c1.934-1.375,4.336-2.318,6.775-2.451c2.443-0.172,4.775,0.469,6.742,1.43
					c1.965,1.005,3.65,2.292,5.072,3.787l-1.363,1.909c-1.775-0.708-3.462-1.401-5.145-1.752c-1.664-0.398-3.278-0.423-4.701-0.124
					c-2.837,0.603-5.184,2.656-7.036,5.461c-1.844,2.801-3.134,6.179-4.057,9.655c-0.876,3.499-1.387,7.139-1.223,10.824
					L2573.533,933.632z"/>
			</g>
		</g>
		<g>
			<rect x="226.667" y="1646.333" style="fill:#D3DFFF;" width="2517.332" height="64.737"/>
			
				<line style="fill:none;stroke:#1F242E;stroke-width:6;stroke-miterlimit:10;" x1="226.667" y1="1649.333" x2="2744" y2="1649.333"/>
		</g>
	</g>
</g>
</svg>
