<svg version="1.1" id="Layer_1" xmlns="http://www.w3.org/2000/svg" xmlns:xlink="http://www.w3.org/1999/xlink" x="0px" y="0px"
	 width="100%" viewBox="0 0 512 512" enable-background="new 0 0 512 512" xml:space="preserve">
<path fill="#FFFFFF" opacity="1.000000" stroke="none" 
	d="
M299.000000,513.000000 
	C199.357529,513.000000 100.215050,513.000000 1.036289,513.000000 
	C1.036289,342.399170 1.036289,171.798325 1.036289,1.098744 
	C171.559158,1.098744 342.118378,1.098744 512.838806,1.098744 
	C512.838806,171.666550 512.838806,342.333252 512.838806,513.000000 
	C441.798309,513.000000 370.649139,513.000000 299.000000,513.000000 
M243.185623,317.080811 
	C242.799576,316.712555 242.413528,316.344269 241.686920,315.404816 
	C238.362473,312.397095 235.106689,309.309174 231.701584,306.395721 
	C217.794724,294.496887 203.367355,283.363403 186.040283,276.747986 
	C175.378708,272.677429 164.458008,270.475464 152.150177,272.895966 
	C150.825134,272.987244 149.467361,272.922607 148.179855,273.192841 
	C120.716103,278.956390 100.514114,294.279388 88.590958,319.718292 
	C81.087105,335.728271 78.781189,352.622009 83.110123,370.847626 
	C83.383583,371.973541 83.649216,373.101410 83.931610,374.225098 
	C95.892616,421.817780 156.254059,457.488800 209.627060,417.700562 
	C227.111877,405.797089 242.479523,391.480988 257.607086,376.539825 
	C263.397583,382.273285 268.831573,388.432739 275.058777,393.644440 
	C285.471741,402.359314 296.391266,410.468964 307.540131,419.344452 
	C338.629150,440.397644 370.929077,440.129425 400.555420,418.019196 
	C412.153442,409.363556 421.294769,398.460388 426.525635,384.108093 
	C433.036835,368.769348 434.511719,352.874512 430.872192,336.699707 
	C425.821075,314.251495 413.855896,296.501343 393.317719,284.221436 
	C376.417480,273.700317 358.187683,269.517365 338.575287,273.698364 
	C320.920441,277.462067 306.312622,287.344238 292.393829,298.289917 
	C289.572571,300.508545 287.128387,303.206635 283.888367,305.797455 
	C275.086060,314.279938 266.283752,322.762421 256.959259,330.719727 
	C252.475510,326.326569 247.991745,321.933411 243.185623,317.080811 
M311.135834,206.645676 
	C314.085510,204.017517 317.035156,201.389359 320.007538,198.740952 
	C318.271576,196.337921 317.487061,194.819809 316.317780,193.705399 
	C310.027466,187.710342 308.285553,181.117325 313.669098,173.697586 
	C314.767242,172.184097 316.481842,170.560944 318.189606,170.154999 
	C322.647827,169.095276 327.259735,168.682007 331.763245,168.017899 
	C331.763245,158.682190 331.763245,149.936813 331.763245,140.965469 
	C327.718964,140.319382 323.964996,139.326370 320.186493,139.221863 
	C316.049622,139.107468 314.694763,137.015671 312.707947,133.616760 
	C308.640991,126.659195 310.386688,121.584801 315.437317,116.525017 
	C316.484985,115.475471 317.557556,114.256752 318.051727,112.908241 
	C318.470520,111.765579 318.617798,109.805603 317.946014,109.094131 
	C312.366577,103.184914 306.568970,97.481674 300.749054,91.627388 
	C296.600220,94.727280 292.949066,97.623459 289.101562,100.229744 
	C287.914764,101.033669 285.966888,101.719482 284.752411,101.312050 
	C277.489410,98.875427 270.193573,96.246147 271.468536,86.192818 
	C271.568420,85.404877 271.022308,84.540245 271.101471,83.743553 
	C271.526093,79.470299 269.154053,78.876144 265.605896,79.034317 
	C260.452179,79.264076 255.239685,79.497627 250.127899,78.981033 
	C244.871033,78.449776 242.471130,79.989799 242.618164,85.493362 
	C242.828705,93.373314 239.802338,98.755981 231.330536,100.660614 
	C228.494873,101.298126 226.580322,101.862038 224.200592,99.866852 
	C220.797195,97.013382 217.106491,94.502602 213.606277,91.895973 
	C212.855286,92.404549 212.391754,92.623993 212.048935,92.964844 
	C207.324081,97.662750 202.761200,102.536156 197.851166,107.030670 
	C194.706665,109.909050 194.429565,112.309250 197.585144,115.197792 
	C203.993805,121.064148 205.714279,127.724991 200.354294,135.148315 
	C199.186371,136.765854 197.290497,138.395157 195.435440,138.870926 
	C191.144150,139.971451 186.672562,140.368942 182.217407,141.060349 
	C182.217407,150.246033 182.217407,158.996475 182.217407,167.814499 
	C184.292755,168.211624 186.099625,168.900696 187.880646,168.839310 
	C195.982925,168.560120 201.102417,171.702774 203.194748,180.021820 
	C203.964401,183.081924 204.328293,185.135925 202.194626,187.649765 
	C199.432480,190.904053 197.095367,194.519089 194.886368,197.551727 
	C201.510284,204.155487 207.721970,210.348267 214.128479,216.735260 
	C217.533157,214.175323 221.168121,211.262131 225.013184,208.659302 
	C226.190948,207.862030 228.157288,207.270996 229.401703,207.680893 
	C240.445389,211.318848 240.423477,211.391144 242.524475,222.909119 
	C242.703400,223.889984 242.990250,224.886307 242.953171,225.865067 
	C242.823944,229.275879 244.652725,230.001419 247.675949,229.913010 
	C253.501282,229.742676 259.351562,229.595947 265.159943,229.952911 
	C269.405640,230.213821 271.348877,228.975754 271.180847,224.529022 
	C270.850586,215.788681 274.305817,209.657410 283.547394,208.177734 
	C285.375641,207.885010 287.714508,207.949738 289.194458,208.861588 
	C293.130798,211.286911 296.726868,214.264496 300.857239,217.317383 
	C304.206543,213.833282 307.419983,210.490540 311.135834,206.645676 
M395.707825,184.789398 
	C381.703033,162.433929 356.060883,152.162674 345.487793,158.400818 
	C370.734436,159.887802 386.849731,173.073059 396.779449,193.757767 
	C406.745789,214.518768 405.474121,235.342896 393.740356,255.498032 
	C393.158020,251.629791 392.575684,247.761536 391.993347,243.893295 
	C391.236847,243.984695 390.480316,244.076080 389.723785,244.167480 
	C389.367035,250.727432 390.046173,257.230896 391.471161,264.448334 
	C398.527466,261.828949 404.866211,259.475922 411.204926,257.122894 
	C410.981537,256.323730 410.758118,255.524551 410.534729,254.725372 
	C406.420135,255.821289 402.305542,256.917206 397.392090,258.225922 
	C409.948120,233.251526 410.167664,209.129532 395.707825,184.789398 
M159.589249,161.107498 
	C161.058319,159.183334 162.527374,157.259186 164.413300,154.789017 
	C157.553818,151.602219 151.745377,147.770721 144.998947,146.358505 
	C144.702637,146.986038 144.406311,147.613586 144.110001,148.241135 
	C147.406372,150.042755 150.702744,151.844360 153.837463,153.557632 
	C148.224686,156.283875 142.477661,158.244843 137.654663,161.552979 
	C106.781792,182.728836 97.836342,229.091599 118.376106,260.446259 
	C119.127388,261.593140 120.695419,262.205017 121.882835,263.066223 
	C121.611809,261.613464 121.722824,259.932495 121.011993,258.742432 
	C111.543701,242.890686 108.603035,225.858429 111.983673,207.812180 
	C115.309776,190.057053 124.354965,175.651871 138.713852,164.707611 
	C143.982147,160.692139 149.913086,158.060425 157.519226,157.698227 
	C154.543991,161.963364 152.099472,165.467697 149.654953,168.972031 
	C150.318253,169.461685 150.981552,169.951355 151.644852,170.441010 
	C154.143295,167.513260 156.641724,164.585510 159.589249,161.107498 
M384.207397,107.288437 
	C380.832672,112.109879 377.457977,116.931313 373.525940,122.548988 
	C379.253113,122.548988 385.457153,124.433197 388.160278,122.158012 
	C393.842865,117.375000 397.687561,110.408417 402.286682,104.338135 
	C398.281708,98.636200 394.289246,92.925331 390.236450,87.257607 
	C390.024994,86.961884 389.300598,86.948952 388.814331,86.946732 
	C384.058319,86.925056 379.302185,86.933678 373.647675,86.933678 
	C377.469849,92.407059 380.895416,97.053352 383.983490,101.914078 
	C384.770477,103.152794 384.486847,105.071701 384.207397,107.288437 
M137.744324,86.923203 
	C134.580276,86.921852 131.393753,87.155579 128.258255,86.855698 
	C124.847992,86.529549 122.646957,87.711174 120.978317,90.670670 
	C118.114464,95.749977 112.454391,100.842575 112.723961,105.663681 
	C113.008934,110.760208 118.807518,115.576164 122.301842,120.439819 
	C122.926941,121.309883 124.036911,122.362083 124.960075,122.398819 
	C129.846527,122.593292 134.744812,122.490120 140.450348,122.490120 
	C136.703751,117.140762 133.716415,112.533897 130.359711,108.214050 
	C128.422592,105.721115 128.193283,103.837776 130.229065,101.278336 
	C133.228577,97.507278 135.904404,93.472237 138.581467,89.458527 
	C138.965210,88.883186 138.585190,87.798431 137.744324,86.923203 
M105.381218,120.032471 
	C102.786880,116.365456 100.390236,112.535278 97.538895,109.080368 
	C95.025108,106.034462 94.781410,103.654320 97.429634,100.443855 
	C100.716942,96.458618 103.391068,91.967598 106.855118,86.931717 
	C101.387848,86.931717 97.219635,86.721413 93.092194,87.039749 
	C91.536659,87.159721 89.592812,88.133583 88.656258,89.354889 
	C84.919434,94.227806 81.509476,99.351372 77.800095,104.636391 
	C81.634460,110.118340 85.367767,115.600166 89.299339,120.935898 
	C89.961586,121.834671 91.458626,122.527542 92.606583,122.585106 
	C96.591675,122.784927 100.595390,122.727013 104.584427,122.571953 
	C105.019905,122.555023 105.406235,121.273582 105.381218,120.032471 
M429.050873,94.409248 
	C423.562653,86.672638 417.464844,84.756668 407.793121,87.975967 
	C410.874664,92.411049 413.645752,96.961678 416.999634,101.032089 
	C419.301605,103.825806 418.946320,105.764442 416.940826,108.388123 
	C413.581085,112.783493 410.549133,117.429413 406.896118,122.661903 
	C412.437042,122.661903 416.910919,122.771950 421.372498,122.586510 
	C422.524811,122.538612 424.043549,121.861214 424.703522,120.964706 
	C428.635590,115.623398 432.365234,110.133064 436.192993,104.649590 
	C433.833191,101.269432 431.646881,98.137733 429.050873,94.409248 
M361.457703,116.002609 
	C363.285889,113.424393 365.168640,110.882439 366.917938,108.251755 
	C367.722107,107.042343 369.182251,105.045486 368.783752,104.449402 
	C364.835541,98.543564 360.565491,92.852524 356.353119,87.125259 
	C356.214569,86.936890 355.720734,86.967987 355.392395,86.967346 
	C350.684082,86.958122 345.975739,86.961052 340.251160,86.961052 
	C344.059753,92.425102 347.032776,96.998528 350.341431,101.314667 
	C352.152191,103.676857 352.316101,105.405518 350.430267,107.855537 
	C347.024292,112.280540 344.002319,117.001129 340.722870,121.738548 
	C351.048157,124.517693 356.453430,123.077408 361.457703,116.002609 
M152.110519,115.420570 
	C157.478729,123.082001 162.725876,124.712532 173.274048,121.706383 
	C170.090714,117.114220 167.193985,112.488022 163.825363,108.235619 
	C161.632767,105.467781 161.892654,103.482414 163.947006,100.847107 
	C167.242859,96.619217 170.168121,92.102448 173.528610,87.310448 
	C157.814941,85.892601 157.814926,85.892593 151.762894,94.509804 
	C144.688232,104.583038 144.688248,104.583046 152.110519,115.420570 
M259.361023,408.288116 
	C258.773102,407.362457 258.185211,406.436829 257.978546,406.111420 
	C254.259674,409.804413 250.624283,413.414490 247.528061,416.489166 
	C250.711517,419.704102 254.333237,423.361633 257.423248,426.482208 
	C260.607697,423.318268 264.256439,419.693085 267.499542,416.470917 
	C265.230499,414.257141 262.479340,411.573029 259.361023,408.288116 
z"/>
<path fill="#7777FF" opacity="1.000000" stroke="none" 
	d="
M310.884644,206.896729 
	C307.419983,210.490540 304.206543,213.833282 300.857239,217.317383 
	C296.726868,214.264496 293.130798,211.286911 289.194458,208.861588 
	C287.714508,207.949738 285.375641,207.885010 283.547394,208.177734 
	C274.305817,209.657410 270.850586,215.788681 271.180847,224.529022 
	C271.348877,228.975754 269.405640,230.213821 265.159943,229.952911 
	C259.351562,229.595947 253.501282,229.742676 247.675949,229.913010 
	C244.652725,230.001419 242.823944,229.275879 242.953171,225.865067 
	C242.990250,224.886307 242.703400,223.889984 242.524475,222.909119 
	C240.423477,211.391144 240.445389,211.318848 229.401703,207.680893 
	C228.157288,207.270996 226.190948,207.862030 225.013184,208.659302 
	C221.168121,211.262131 217.533157,214.175323 214.128479,216.735260 
	C207.721970,210.348267 201.510284,204.155487 194.886368,197.551727 
	C197.095367,194.519089 199.432480,190.904053 202.194626,187.649765 
	C204.328293,185.135925 203.964401,183.081924 203.194748,180.021820 
	C201.102417,171.702774 195.982925,168.560120 187.880646,168.839310 
	C186.099625,168.900696 184.292755,168.211624 182.217407,167.814499 
	C182.217407,158.996475 182.217407,150.246033 182.217407,141.060349 
	C186.672562,140.368942 191.144150,139.971451 195.435440,138.870926 
	C197.290497,138.395157 199.186371,136.765854 200.354294,135.148315 
	C205.714279,127.724991 203.993805,121.064148 197.585144,115.197792 
	C194.429565,112.309250 194.706665,109.909050 197.851166,107.030670 
	C202.761200,102.536156 207.324081,97.662750 212.048935,92.964844 
	C212.391754,92.623993 212.855286,92.404549 213.606277,91.895973 
	C217.106491,94.502602 220.797195,97.013382 224.200592,99.866852 
	C226.580322,101.862038 228.494873,101.298126 231.330536,100.660614 
	C239.802338,98.755981 242.828705,93.373314 242.618164,85.493362 
	C242.471130,79.989799 244.871033,78.449776 250.127899,78.981033 
	C255.239685,79.497627 260.452179,79.264076 265.605896,79.034317 
	C269.154053,78.876144 271.526093,79.470299 271.101471,83.743553 
	C271.022308,84.540245 271.568420,85.404877 271.468536,86.192818 
	C270.193573,96.246147 277.489410,98.875427 284.752411,101.312050 
	C285.966888,101.719482 287.914764,101.033669 289.101562,100.229744 
	C292.949066,97.623459 296.600220,94.727280 300.749054,91.627388 
	C306.568970,97.481674 312.366577,103.184914 317.946014,109.094131 
	C318.617798,109.805603 318.470520,111.765579 318.051727,112.908241 
	C317.557556,114.256752 316.484985,115.475471 315.437317,116.525017 
	C310.386688,121.584801 308.640991,126.659195 312.707947,133.616760 
	C314.694763,137.015671 316.049622,139.107468 320.186493,139.221863 
	C323.964996,139.326370 327.718964,140.319382 331.763245,140.965469 
	C331.763245,149.936813 331.763245,158.682190 331.763245,168.017899 
	C327.259735,168.682007 322.647827,169.095276 318.189606,170.154999 
	C316.481842,170.560944 314.767242,172.184097 313.669098,173.697586 
	C308.285553,181.117325 310.027466,187.710342 316.317780,193.705399 
	C317.487061,194.819809 318.271576,196.337921 320.007538,198.740952 
	C317.035156,201.389359 314.085510,204.017517 310.884644,206.896729 
M258.331818,111.076683 
	C257.894073,111.121490 257.456360,111.166298 256.359680,111.116013 
	C255.918472,111.150574 255.477264,111.185135 254.196442,111.073006 
	C251.106537,111.608109 247.933746,111.856987 244.940018,112.724144 
	C223.299484,118.992439 210.271545,140.157471 214.126038,162.579163 
	C217.426163,181.776047 236.676178,198.332565 255.692673,197.871643 
	C256.133789,197.841049 256.574890,197.810455 257.664154,197.921844 
	C258.099304,197.864014 258.534424,197.806168 259.771759,197.825928 
	C260.915070,197.622437 262.057678,197.414703 263.201843,197.216049 
	C286.913757,193.099228 301.312988,174.772675 300.042480,150.325851 
	C298.981689,129.914536 281.082245,112.876350 258.331818,111.076683 
z"/>
<path fill="#FF5B97" opacity="1.000000" stroke="none" 
	d="
M425.991974,384.392792 
	C421.294769,398.460388 412.153442,409.363556 400.555420,418.019196 
	C370.929077,440.129425 338.629150,440.397644 307.288269,418.697113 
	C305.254578,410.885468 303.472748,403.721161 301.649048,396.388458 
	C304.189972,396.042603 306.293945,395.756195 308.698059,395.555298 
	C310.316925,395.528534 311.635590,395.416290 313.019836,395.628021 
	C317.745972,399.525543 322.127594,403.559448 327.120331,406.584869 
	C341.146637,415.084167 355.989777,416.134918 371.333984,410.300537 
	C384.486603,405.299438 394.428528,396.461823 402.229340,384.866943 
	C402.416992,384.929474 402.803040,385.015930 402.826599,385.415771 
	C403.296021,387.990601 403.741913,390.165649 404.214905,392.472870 
	C411.819702,389.651215 418.905853,387.022003 425.991974,384.392792 
z"/>
<path fill="#0FCCFE" opacity="1.000000" stroke="none" 
	d="
M308.397919,395.469818 
	C306.293945,395.756195 304.189972,396.042603 301.649048,396.388458 
	C303.472748,403.721161 305.254578,410.885468 307.066956,418.441589 
	C296.391266,410.468964 285.471741,402.359314 275.058777,393.644440 
	C268.831573,388.432739 263.397583,382.273285 257.188904,376.090820 
	C254.575256,373.316528 252.379761,370.991241 250.072113,368.357574 
	C245.422668,363.231354 240.885361,358.413544 236.179840,353.312317 
	C232.120239,348.704559 228.228867,344.380188 224.256287,339.659821 
	C222.118225,332.347717 220.061340,325.431610 217.770081,317.727448 
	C222.153015,317.727448 226.061722,317.727448 230.308075,317.803345 
	C231.101273,317.936249 231.556824,317.993256 232.165894,318.345337 
	C236.587128,322.304230 241.203583,325.636597 245.058319,329.692841 
	C257.511017,342.796631 269.401245,356.444153 282.067657,369.332336 
	C289.943848,377.346375 298.868134,384.326050 307.207581,391.896027 
	C308.017975,392.631622 308.020447,394.257294 308.397919,395.469818 
z"/>
<path fill="#10CCFE" opacity="1.000000" stroke="none" 
	d="
M284.510376,305.683716 
	C287.128387,303.206635 289.572571,300.508545 292.393829,298.289917 
	C306.312622,287.344238 320.920441,277.462067 338.575287,273.698364 
	C358.187683,269.517365 376.417480,273.700317 393.591858,284.853088 
	C395.335327,292.558624 396.804688,299.632568 398.336945,307.009460 
	C394.867859,307.424072 391.933838,307.774719 388.754944,308.042786 
	C388.345459,307.909210 388.180847,307.858185 387.844421,307.529022 
	C378.574097,297.181091 366.503754,293.747894 353.679688,293.145264 
	C338.996216,292.455261 326.879883,299.419250 315.505463,307.916840 
	C313.210541,309.631348 310.468018,310.746704 307.976379,311.748047 
	C308.296265,310.436401 308.571594,309.515015 308.947327,308.257599 
	C300.612549,307.379730 292.561462,306.531708 284.510376,305.683716 
z"/>
<path fill="#FCC929" opacity="1.000000" stroke="none" 
	d="
M388.999786,308.125366 
	C391.933838,307.774719 394.867859,307.424072 398.336945,307.009460 
	C396.804688,299.632568 395.335327,292.558624 393.851807,285.033386 
	C413.855896,296.501343 425.821075,314.251495 430.872192,336.699707 
	C434.511719,352.874512 433.036835,368.769348 426.258789,384.250427 
	C418.905853,387.022003 411.819702,389.651215 404.214905,392.472870 
	C403.741913,390.165649 403.296021,387.990601 402.894073,385.044769 
	C403.660370,382.434418 404.213959,380.505798 405.130890,378.768951 
	C415.802673,358.554016 413.545166,339.213928 400.803070,320.878723 
	C397.529541,316.168304 392.969025,312.352295 388.999786,308.125366 
z"/>
<path fill="#FF2889" opacity="1.000000" stroke="none" 
	d="
M208.960449,417.798309 
	C156.254059,457.488800 95.892616,421.817780 83.931610,374.225098 
	C83.649216,373.101410 83.383583,371.973541 83.457756,370.569733 
	C86.875488,372.179291 89.945580,374.066772 93.170334,376.188934 
	C93.856445,376.931671 94.387894,377.439728 94.938995,378.328949 
	C98.025185,387.823456 103.298798,395.431519 109.805000,402.523346 
	C131.486496,426.156525 167.106125,433.132050 195.704941,414.865051 
	C201.516449,411.153076 207.459488,407.647064 213.256454,404.427612 
	C211.767487,409.138855 210.363968,413.468567 208.960449,417.798309 
z"/>
<path fill="#FCAC1D" opacity="1.000000" stroke="none" 
	d="
M93.015671,375.954224 
	C89.945580,374.066772 86.875488,372.179291 83.495880,370.181915 
	C78.781189,352.622009 81.087105,335.728271 88.590958,319.718292 
	C100.514114,294.279388 120.716103,278.956390 148.179855,273.192841 
	C149.467361,272.922607 150.825134,272.987244 152.472565,273.245911 
	C150.387039,276.702423 147.979126,279.808990 145.342285,283.060425 
	C144.405792,283.795410 143.698242,284.385559 142.580994,284.975952 
	C140.862747,285.125977 139.473495,285.042267 138.258392,285.462311 
	C127.916504,289.037506 118.733871,294.806976 111.198067,302.526550 
	C97.224045,316.841339 89.852821,334.304840 90.147949,354.440338 
	C90.253235,361.624084 92.011772,368.783630 93.015671,375.954224 
z"/>
<path fill="#FF2889" opacity="1.000000" stroke="none" 
	d="
M145.571228,282.915588 
	C147.979126,279.808990 150.387039,276.702423 152.908737,273.275513 
	C164.458008,270.475464 175.378708,272.677429 186.040283,276.747986 
	C203.367355,283.363403 217.794724,294.496887 231.701584,306.395721 
	C235.106689,309.309174 238.362473,312.397095 241.603714,315.978638 
	C239.056351,316.881226 236.592194,317.210052 233.783157,317.657043 
	C232.962982,317.866882 232.487671,317.958557 232.012375,318.050232 
	C231.556824,317.993256 231.101273,317.936249 230.091705,317.569946 
	C218.987839,309.275726 208.775742,300.785522 197.794495,293.446106 
	C186.495468,285.894257 174.027496,280.883911 159.911377,281.958160 
	C155.134705,282.321655 150.351471,282.598907 145.571228,282.915588 
z"/>
<path fill="#FBC929" opacity="1.000000" stroke="none" 
	d="
M284.199371,305.740601 
	C292.561462,306.531708 300.612549,307.379730 308.947327,308.257599 
	C308.571594,309.515015 308.296265,310.436401 307.727844,311.939941 
	C306.653137,314.023071 305.871552,315.524078 304.734497,317.045410 
	C298.053436,322.077332 291.559601,326.893799 285.454742,332.161133 
	C280.440918,336.487152 275.889374,341.348907 270.829163,345.824585 
	C266.177429,340.865601 261.829437,336.055267 257.481445,331.244904 
	C266.283752,322.762421 275.086060,314.279938 284.199371,305.740601 
z"/>
<path fill="#10BAD7" opacity="1.000000" stroke="none" 
	d="
M257.220337,330.982300 
	C261.829437,336.055267 266.177429,340.865601 270.938324,346.132080 
	C273.518250,348.775848 275.685242,350.963531 277.986664,353.456970 
	C291.627258,368.895874 306.940491,382.000763 322.872375,394.148743 
	C319.308777,394.647858 316.131531,394.975983 312.954285,395.304077 
	C311.635590,395.416290 310.316925,395.528534 308.698059,395.555298 
	C308.020447,394.257294 308.017975,392.631622 307.207581,391.896027 
	C298.868134,384.326050 289.943848,377.346375 282.067657,369.332336 
	C269.401245,356.444153 257.511017,342.796631 245.058319,329.692841 
	C241.203583,325.636597 236.587128,322.304230 232.165894,318.345337 
	C232.487671,317.958557 232.962982,317.866882 234.224091,317.750977 
	C237.842590,317.664581 240.675293,317.602417 243.507980,317.540283 
	C247.991745,321.933411 252.475510,326.326569 257.220337,330.982300 
z"/>
<path fill="#6969FF" opacity="1.000000" stroke="none" 
	d="
M395.884857,185.103958 
	C410.167664,209.129532 409.948120,233.251526 397.392090,258.225922 
	C402.305542,256.917206 406.420135,255.821289 410.534729,254.725372 
	C410.758118,255.524551 410.981537,256.323730 411.204926,257.122894 
	C404.866211,259.475922 398.527466,261.828949 391.471161,264.448334 
	C390.046173,257.230896 389.367035,250.727432 389.723785,244.167480 
	C390.480316,244.076080 391.236847,243.984695 391.993347,243.893295 
	C392.575684,247.761536 393.158020,251.629791 393.740356,255.498032 
	C405.474121,235.342896 406.745789,214.518768 396.779449,193.757767 
	C386.849731,173.073059 370.734436,159.887802 345.487793,158.400818 
	C356.060883,152.162674 381.703033,162.433929 395.884857,185.103958 
z"/>
<path fill="#6969FF" opacity="1.000000" stroke="none" 
	d="
M159.364700,161.382629 
	C156.641724,164.585510 154.143295,167.513260 151.644852,170.441010 
	C150.981552,169.951355 150.318253,169.461685 149.654953,168.972031 
	C152.099472,165.467697 154.543991,161.963364 157.519226,157.698227 
	C149.913086,158.060425 143.982147,160.692139 138.713852,164.707611 
	C124.354965,175.651871 115.309776,190.057053 111.983673,207.812180 
	C108.603035,225.858429 111.543701,242.890686 121.011993,258.742432 
	C121.722824,259.932495 121.611809,261.613464 121.882828,263.066223 
	C120.695419,262.205017 119.127388,261.593140 118.376106,260.446259 
	C97.836342,229.091599 106.781792,182.728836 137.654663,161.552979 
	C142.477661,158.244843 148.224686,156.283875 153.837463,153.557632 
	C150.702744,151.844360 147.406372,150.042755 144.110001,148.241135 
	C144.406311,147.613586 144.702637,146.986038 144.998947,146.358505 
	C151.745377,147.770721 157.553818,151.602219 164.413300,154.789017 
	C162.527374,157.259186 161.058319,159.183334 159.364700,161.382629 
z"/>
<path fill="#11CDFF" opacity="1.000000" stroke="none" 
	d="
M384.451263,106.983261 
	C384.486847,105.071701 384.770477,103.152794 383.983490,101.914078 
	C380.895416,97.053352 377.469849,92.407059 373.647675,86.933678 
	C379.302185,86.933678 384.058319,86.925056 388.814331,86.946732 
	C389.300598,86.948952 390.024994,86.961884 390.236450,87.257607 
	C394.289246,92.925331 398.281708,98.636200 402.286682,104.338135 
	C397.687561,110.408417 393.842865,117.375000 388.160278,122.158012 
	C385.457153,124.433197 379.253113,122.548988 373.525940,122.548988 
	C377.457977,116.931313 380.832672,112.109879 384.451263,106.983261 
z"/>
<path fill="#11CDFF" opacity="1.000000" stroke="none" 
	d="
M138.151474,86.936317 
	C138.585190,87.798431 138.965210,88.883186 138.581467,89.458527 
	C135.904404,93.472237 133.228577,97.507278 130.229065,101.278336 
	C128.193283,103.837776 128.422592,105.721115 130.359711,108.214050 
	C133.716415,112.533897 136.703751,117.140762 140.450348,122.490120 
	C134.744812,122.490120 129.846527,122.593292 124.960075,122.398819 
	C124.036911,122.362083 122.926941,121.309883 122.301842,120.439819 
	C118.807518,115.576164 113.008934,110.760208 112.723961,105.663681 
	C112.454391,100.842575 118.114464,95.749977 120.978317,90.670670 
	C122.646957,87.711174 124.847992,86.529549 128.258255,86.855698 
	C131.393753,87.155579 134.580276,86.921852 138.151474,86.936317 
z"/>
<path fill="#FF5D98" opacity="1.000000" stroke="none" 
	d="
M105.598282,120.305565 
	C105.406235,121.273582 105.019905,122.555023 104.584427,122.571953 
	C100.595390,122.727013 96.591675,122.784927 92.606583,122.585106 
	C91.458626,122.527542 89.961586,121.834671 89.299339,120.935898 
	C85.367767,115.600166 81.634460,110.118340 77.800095,104.636391 
	C81.509476,99.351372 84.919434,94.227806 88.656258,89.354889 
	C89.592812,88.133583 91.536659,87.159721 93.092194,87.039749 
	C97.219635,86.721413 101.387848,86.931717 106.855118,86.931717 
	C103.391068,91.967598 100.716942,96.458618 97.429634,100.443855 
	C94.781410,103.654320 95.025108,106.034462 97.538895,109.080368 
	C100.390236,112.535278 102.786880,116.365456 105.598282,120.305565 
z"/>
<path fill="#FF5D98" opacity="1.000000" stroke="none" 
	d="
M429.255707,94.707642 
	C431.646881,98.137733 433.833191,101.269432 436.192993,104.649590 
	C432.365234,110.133064 428.635590,115.623398 424.703522,120.964706 
	C424.043549,121.861214 422.524811,122.538612 421.372498,122.586510 
	C416.910919,122.771950 412.437042,122.661903 406.896118,122.661903 
	C410.549133,117.429413 413.581085,112.783493 416.940826,108.388123 
	C418.946320,105.764442 419.301605,103.825806 416.999634,101.032089 
	C413.645752,96.961678 410.874664,92.411049 407.793121,87.975967 
	C417.464844,84.756668 423.562653,86.672638 429.255707,94.707642 
z"/>
<path fill="#FF5D98" opacity="1.000000" stroke="none" 
	d="
M361.252014,116.302399 
	C356.453430,123.077408 351.048157,124.517693 340.722870,121.738548 
	C344.002319,117.001129 347.024292,112.280540 350.430267,107.855537 
	C352.316101,105.405518 352.152191,103.676857 350.341431,101.314667 
	C347.032776,96.998528 344.059753,92.425102 340.251160,86.961052 
	C345.975739,86.961052 350.684082,86.958122 355.392395,86.967346 
	C355.720734,86.967987 356.214569,86.936890 356.353119,87.125259 
	C360.565491,92.852524 364.835541,98.543564 368.783752,104.449402 
	C369.182251,105.045486 367.722107,107.042343 366.917938,108.251755 
	C365.168640,110.882439 363.285889,113.424393 361.252014,116.302399 
z"/>
<path fill="#FF5D98" opacity="1.000000" stroke="none" 
	d="
M151.907150,115.122818 
	C144.688248,104.583046 144.688232,104.583038 151.762894,94.509804 
	C157.814926,85.892593 157.814941,85.892601 173.528610,87.310448 
	C170.168121,92.102448 167.242859,96.619217 163.947006,100.847107 
	C161.892654,103.482414 161.632767,105.467781 163.825363,108.235619 
	C167.193985,112.488022 170.090714,117.114220 173.274048,121.706383 
	C162.725876,124.712532 157.478729,123.082001 151.907150,115.122818 
z"/>
<path fill="#FCAC1D" opacity="1.000000" stroke="none" 
	d="
M209.293762,417.749451 
	C210.363968,413.468567 211.767487,409.138855 213.457535,404.217285 
	C214.150574,402.770386 214.557114,401.915283 215.312576,401.011536 
	C228.655502,391.786102 239.694901,380.520020 250.184265,368.665985 
	C252.379761,370.991241 254.575256,373.316528 256.867859,375.900696 
	C242.479523,391.480988 227.111877,405.797089 209.293762,417.749451 
z"/>
<path fill="#FF5D98" opacity="1.000000" stroke="none" 
	d="
M259.544617,408.588501 
	C262.479340,411.573029 265.230499,414.257141 267.499542,416.470917 
	C264.256439,419.693085 260.607697,423.318268 257.423248,426.482208 
	C254.333237,423.361633 250.711517,419.704102 247.528061,416.489166 
	C250.624283,413.414490 254.259674,409.804413 257.978546,406.111420 
	C258.185211,406.436829 258.773102,407.362457 259.544617,408.588501 
z"/>
<path fill="#FE5B97" opacity="1.000000" stroke="none" 
	d="
M243.346802,317.310547 
	C240.675293,317.602417 237.842590,317.664581 234.568970,317.632782 
	C236.592194,317.210052 239.056351,316.881226 241.773987,316.264221 
	C242.413528,316.344269 242.799576,316.712555 243.346802,317.310547 
z"/>
<path fill="#F4F4F5" opacity="1.000000" stroke="none" 
	d="
M257.015991,197.779861 
	C256.574890,197.810455 256.133789,197.841049 255.280075,197.487549 
	C252.988968,196.131577 251.181458,194.975006 249.219345,194.220566 
	C241.694427,191.327194 235.687698,186.390701 231.062531,179.990738 
	C214.133469,156.565521 224.319839,123.054214 252.099487,113.400261 
	C253.198242,113.018433 254.062515,111.961861 255.036057,111.219681 
	C255.477264,111.185135 255.918472,111.150574 256.844086,111.348694 
	C257.877838,111.466187 258.427155,111.350990 258.976501,111.235794 
	C281.082245,112.876350 298.981689,129.914536 300.042480,150.325851 
	C301.312988,174.772675 286.913757,193.099228 263.201843,197.216049 
	C262.057678,197.414703 260.915070,197.622437 259.211639,197.608154 
	C258.106354,197.520203 257.561157,197.650040 257.015991,197.779861 
M258.722961,133.982544 
	C258.318695,132.617508 257.914429,131.252457 257.510162,129.887421 
	C255.967163,131.029343 255.342773,132.045120 255.328400,133.069427 
	C255.237457,139.560883 255.252899,146.054489 255.312271,152.546661 
	C255.320984,153.499039 255.452499,154.717896 256.031525,155.355347 
	C260.952301,160.772598 265.965820,166.106888 271.036621,171.384323 
	C271.458008,171.822891 272.502838,171.662445 273.258057,171.780319 
	C273.279510,170.912460 273.569153,169.926971 273.253357,169.207031 
	C272.873230,168.340378 272.078583,167.564331 271.291443,166.981171 
	C260.383148,158.899445 256.428040,148.118790 258.722961,133.982544 
z"/>
<path fill="#E3E3E6" opacity="1.000000" stroke="none" 
	d="
M254.616241,111.146347 
	C254.062515,111.961861 253.198242,113.018433 252.099487,113.400261 
	C224.319839,123.054214 214.133469,156.565521 231.062531,179.990738 
	C235.687698,186.390701 241.694427,191.327194 249.219345,194.220566 
	C251.181458,194.975006 252.988968,196.131577 254.951813,197.434265 
	C236.676178,198.332565 217.426163,181.776047 214.126038,162.579163 
	C210.271545,140.157471 223.299484,118.992439 244.940018,112.724144 
	C247.933746,111.856987 251.106537,111.608109 254.616241,111.146347 
z"/>
<path fill="#E3E3E6" opacity="1.000000" stroke="none" 
	d="
M257.340088,197.850861 
	C257.561157,197.650040 258.106354,197.520203 258.810547,197.569351 
	C258.534424,197.806168 258.099304,197.864014 257.340088,197.850861 
z"/>
<path fill="#E3E3E6" opacity="1.000000" stroke="none" 
	d="
M258.654175,111.156235 
	C258.427155,111.350990 257.877838,111.466187 257.173553,111.396240 
	C257.456360,111.166298 257.894073,111.121490 258.654175,111.156235 
z"/>
<path fill="#FF2889" opacity="1.000000" stroke="none" 
	d="
M313.019836,395.628052 
	C316.131531,394.975983 319.308777,394.647858 323.200348,394.231323 
	C325.646179,395.124969 327.420776,396.038696 329.102631,397.099518 
	C352.195343,411.665100 376.608582,401.932129 389.093750,387.410065 
	C393.061554,382.794952 395.949341,377.251343 399.507141,372.439392 
	C400.469208,376.765594 401.255463,380.784973 402.041687,384.804382 
	C394.428528,396.461823 384.486603,405.299438 371.333984,410.300537 
	C355.989777,416.134918 341.146637,415.084167 327.120331,406.584869 
	C322.127594,403.559448 317.745972,399.525543 313.019836,395.628052 
z"/>
<path fill="#FCAC1D" opacity="1.000000" stroke="none" 
	d="
M402.229340,384.866943 
	C401.255463,380.784973 400.469208,376.765594 399.440643,372.040863 
	C403.926117,356.414764 403.880341,341.549347 395.240875,328.270020 
	C390.476074,320.946228 383.188477,315.263763 377.417206,308.701294 
	C381.202881,308.309906 384.609528,308.058533 388.016205,307.807190 
	C388.180847,307.858185 388.345459,307.909210 388.754944,308.042786 
	C392.969025,312.352295 397.529541,316.168304 400.803070,320.878723 
	C413.545166,339.213928 415.802673,358.554016 405.130890,378.768951 
	C404.213959,380.505798 403.660370,382.434418 402.870544,384.644958 
	C402.803040,385.015930 402.416992,384.929474 402.229340,384.866943 
z"/>
<path fill="#FEFEFE" opacity="1.000000" stroke="none" 
	d="
M224.337494,340.055847 
	C228.228867,344.380188 232.120239,348.704559 235.925201,353.581482 
	C225.334915,363.960693 214.864777,373.823730 204.307495,383.592590 
	C200.952118,386.697388 197.364822,389.551575 193.511169,392.571899 
	C191.256577,393.669373 189.355942,394.683594 187.495605,395.766968 
	C179.539185,400.400452 171.440689,404.610657 161.852448,404.338440 
	C141.348480,403.756409 126.501984,394.015259 117.052834,376.076019 
	C114.685326,371.581268 113.472954,366.478088 111.816528,361.225769 
	C111.864113,357.803802 111.726303,354.808075 111.801453,351.817719 
	C112.326614,330.921173 125.650627,312.378113 145.392731,305.486420 
	C150.031601,303.867065 154.997940,303.185822 160.237366,302.129913 
	C168.788483,302.460632 176.477692,304.572937 183.309433,308.873047 
	C191.011993,313.721313 198.534286,318.907318 205.782883,324.410156 
	C212.218155,329.295563 218.171448,334.815826 224.337494,340.055847 
M186.011230,372.264404 
	C183.331161,373.290009 180.651093,374.315643 177.456879,375.538025 
	C183.927750,378.952393 190.016785,376.137512 190.452164,369.646729 
	C190.844513,363.797607 190.363586,357.986755 197.120438,354.057770 
	C190.536560,350.244110 190.771011,344.682068 190.534454,338.938080 
	C190.253510,332.116364 184.407318,329.154419 177.562302,332.454681 
	C178.852615,333.103210 179.740250,333.946533 180.594818,333.914276 
	C186.063614,333.707825 187.080383,336.811890 187.355347,341.526764 
	C187.606049,345.825775 189.044678,350.055511 190.192505,355.399597 
	C186.791840,357.471466 186.952118,362.287170 187.169418,367.187836 
	C187.233917,368.642029 186.769760,370.119659 186.011230,372.264404 
M154.582809,376.929169 
	C156.232468,373.983337 154.032913,374.053589 152.227707,374.057220 
	C147.634659,374.066437 146.137558,371.378998 146.143188,367.307037 
	C146.149994,362.389160 147.089783,357.199280 140.690842,353.779877 
	C146.677261,351.048096 146.194107,346.599487 146.161301,342.229095 
	C146.112335,335.701324 146.658859,335.190979 153.201340,333.879852 
	C154.016739,333.716431 154.682877,332.808167 155.845154,331.918060 
	C147.622238,329.701416 143.128693,332.807037 143.077682,340.166626 
	C143.046280,344.697296 143.415009,349.135071 138.961273,352.232544 
	C138.378647,352.637726 138.571518,355.652191 139.343979,356.254761 
	C142.829285,358.973755 143.170380,362.452728 143.092789,366.451660 
	C142.935120,374.580048 145.618637,377.090576 154.582809,376.929169 
M168.673706,350.705383 
	C166.891510,351.318573 164.791641,351.574097 163.490952,352.729401 
	C163.003433,353.162445 163.955994,356.185669 165.036896,357.095612 
	C165.838562,357.770508 169.010681,357.300293 169.203201,356.711365 
	C169.755737,355.021027 169.330612,353.011108 168.673706,350.705383 
z"/>
<path fill="#FE5B97" opacity="1.000000" stroke="none" 
	d="
M224.256287,339.659821 
	C218.171448,334.815826 212.218155,329.295563 205.782883,324.410156 
	C198.534286,318.907318 191.011993,313.721313 183.309433,308.873047 
	C176.477692,304.572937 168.788483,302.460632 159.939240,301.963501 
	C152.103226,298.616913 144.989044,295.493622 137.608276,292.253326 
	C139.691666,289.436371 141.341187,287.206055 142.990723,284.975739 
	C143.698242,284.385559 144.405792,283.795410 145.342285,283.060394 
	C150.351471,282.598907 155.134705,282.321655 159.911377,281.958160 
	C174.027496,280.883911 186.495468,285.894257 197.794495,293.446106 
	C208.775742,300.785522 218.987839,309.275726 229.754044,317.494019 
	C226.061722,317.727448 222.153015,317.727448 217.770081,317.727448 
	C220.061340,325.431610 222.118225,332.347717 224.256287,339.659821 
z"/>
<path fill="#FCC929" opacity="1.000000" stroke="none" 
	d="
M193.883667,392.520447 
	C197.364822,389.551575 200.952118,386.697388 204.307495,383.592590 
	C214.864777,373.823730 225.334915,363.960693 236.093445,353.864929 
	C240.885361,358.413544 245.422668,363.231354 250.072113,368.357574 
	C239.694901,380.520020 228.655502,391.786102 215.337448,400.624329 
	C215.283585,399.070282 215.553802,397.854767 215.888000,396.351349 
	C208.319885,395.033783 201.101776,393.777100 193.883667,392.520447 
z"/>
<path fill="#10BAD7" opacity="1.000000" stroke="none" 
	d="
M387.844421,307.529022 
	C384.609528,308.058533 381.202881,308.309906 377.054596,308.658173 
	C375.106598,308.243408 373.895325,307.742859 372.694550,307.218292 
	C359.025757,301.247162 345.434662,300.685272 332.184479,308.266510 
	C326.450409,311.547302 320.985748,315.306854 315.462616,318.945862 
	C310.942474,321.924072 306.517059,325.046021 301.976807,327.771912 
	C302.965973,323.968048 304.027985,320.496552 305.089966,317.025055 
	C305.871552,315.524078 306.653137,314.023071 307.683289,312.330200 
	C310.468018,310.746704 313.210541,309.631348 315.505463,307.916840 
	C326.879883,299.419250 338.996216,292.455261 353.679688,293.145264 
	C366.503754,293.747894 378.574097,297.181091 387.844421,307.529022 
z"/>
<path fill="#FF5B97" opacity="1.000000" stroke="none" 
	d="
M193.511169,392.571899 
	C201.101776,393.777100 208.319885,395.033783 215.888000,396.351349 
	C215.553802,397.854767 215.283585,399.070282 214.988510,400.672974 
	C214.557114,401.915283 214.150574,402.770386 213.542969,403.835785 
	C207.459488,407.647064 201.516449,411.153076 195.704941,414.865051 
	C167.106125,433.132050 131.486496,426.156525 109.805000,402.523346 
	C103.298798,395.431519 98.025185,387.823456 95.276550,378.437134 
	C98.518723,380.002228 101.442986,381.840302 104.511696,383.769165 
	C107.003242,376.135529 109.366463,368.895020 111.729691,361.654541 
	C113.472954,366.478088 114.685326,371.581268 117.052834,376.076019 
	C126.501984,394.015259 141.348480,403.756409 161.852448,404.338440 
	C171.440689,404.610657 179.539185,400.400452 187.495605,395.766968 
	C189.355942,394.683594 191.256577,393.669373 193.511169,392.571899 
z"/>
<path fill="#FCC929" opacity="1.000000" stroke="none" 
	d="
M111.816521,361.225769 
	C109.366463,368.895020 107.003242,376.135529 104.511696,383.769165 
	C101.442986,381.840302 98.518723,380.002228 95.256897,378.055969 
	C94.387894,377.439728 93.856445,376.931671 93.170334,376.188934 
	C92.011772,368.783630 90.253235,361.624084 90.147949,354.440338 
	C89.852821,334.304840 97.224045,316.841339 111.198067,302.526550 
	C118.733871,294.806976 127.916504,289.037506 138.258392,285.462311 
	C139.473495,285.042267 140.862747,285.125977 142.580994,284.975952 
	C141.341187,287.206055 139.691666,289.436371 137.608276,292.253326 
	C144.989044,295.493622 152.103226,298.616913 159.515503,301.906616 
	C154.997940,303.185822 150.031601,303.867065 145.392731,305.486420 
	C125.650627,312.378113 112.326614,330.921173 111.801453,351.817719 
	C111.726303,354.808075 111.864113,357.803802 111.816521,361.225769 
z"/>
<path fill="#FCAC1D" opacity="1.000000" stroke="none" 
	d="
M304.734497,317.045410 
	C304.027985,320.496552 302.965973,323.968048 301.770142,328.031494 
	C293.708252,336.799377 285.780243,344.975281 277.852264,353.151215 
	C275.685242,350.963531 273.518250,348.775848 271.242065,346.280701 
	C275.889374,341.348907 280.440918,336.487152 285.454742,332.161133 
	C291.559601,326.893799 298.053436,322.077332 304.734497,317.045410 
z"/>
<path fill="#FEFEFF" opacity="1.000000" stroke="none" 
	d="
M277.986664,353.456970 
	C285.780243,344.975281 293.708252,336.799377 301.842957,328.363861 
	C306.517059,325.046021 310.942474,321.924072 315.462616,318.945862 
	C320.985748,315.306854 326.450409,311.547302 332.184479,308.266510 
	C345.434662,300.685272 359.025757,301.247162 372.694550,307.218292 
	C373.895325,307.742859 375.106598,308.243408 376.675598,308.798218 
	C383.188477,315.263763 390.476074,320.946228 395.240875,328.270020 
	C403.880341,341.549347 403.926117,356.414764 399.264832,371.734070 
	C395.949341,377.251343 393.061554,382.794952 389.093750,387.410065 
	C376.608582,401.932129 352.195343,411.665100 329.102631,397.099518 
	C327.420776,396.038696 325.646179,395.124969 323.586670,394.060303 
	C306.940491,382.000763 291.627258,368.895874 277.986664,353.456970 
M331.948090,363.564819 
	C327.569641,360.093628 323.191162,356.622437 318.553162,352.945496 
	C324.101349,348.449860 329.181763,344.333282 334.262146,340.216705 
	C333.719696,339.558807 333.177246,338.900879 332.634796,338.242981 
	C325.912109,342.273163 320.113220,347.581055 313.334534,353.073120 
	C319.437347,357.844055 324.994537,362.249298 330.653839,366.519196 
	C331.224548,366.949768 332.412292,366.562531 333.313690,366.554840 
	C333.041077,365.709564 332.768494,364.864288 331.948090,363.564819 
M374.167511,347.369263 
	C370.080261,344.284668 365.992981,341.200073 361.905731,338.115479 
	C361.469421,338.657654 361.033142,339.199860 360.596832,339.742035 
	C364.229187,345.404968 371.289612,347.721649 375.528564,353.258820 
	C372.684418,355.509338 370.051788,357.497681 367.528625,359.616364 
	C365.128082,361.632141 362.841888,363.784088 360.505432,365.876160 
	C361.071960,366.520294 361.638519,367.164459 362.205078,367.808594 
	C368.281097,363.046021 374.357147,358.283447 381.099945,352.998260 
	C378.492249,350.871368 376.614532,349.339874 374.167511,347.369263 
M345.509705,352.910370 
	C344.576019,357.547607 343.642303,362.184814 342.708618,366.822052 
	C347.189819,364.481323 352.167511,341.794342 349.200653,336.920441 
	C347.858856,342.822418 346.803589,347.464081 345.509705,352.910370 
z"/>
<path fill="#293A63" opacity="1.000000" stroke="none" 
	d="
M258.723145,134.431076 
	C256.428040,148.118790 260.383148,158.899445 271.291443,166.981171 
	C272.078583,167.564331 272.873230,168.340378 273.253357,169.207031 
	C273.569153,169.926971 273.279510,170.912460 273.258057,171.780319 
	C272.502838,171.662445 271.458008,171.822891 271.036621,171.384323 
	C265.965820,166.106888 260.952301,160.772598 256.031525,155.355347 
	C255.452499,154.717896 255.320984,153.499039 255.312271,152.546661 
	C255.252899,146.054489 255.237457,139.560883 255.328400,133.069427 
	C255.342773,132.045120 255.967163,131.029343 257.510162,129.887421 
	C257.914429,131.252457 258.318695,132.617508 258.723145,134.431076 
z"/>
<path fill="#6E6EFF" opacity="1.000000" stroke="none" 
	d="
M186.279541,371.925476 
	C186.769760,370.119659 187.233917,368.642029 187.169418,367.187836 
	C186.952118,362.287170 186.791840,357.471466 190.192505,355.399597 
	C189.044678,350.055511 187.606049,345.825775 187.355347,341.526764 
	C187.080383,336.811890 186.063614,333.707825 180.594818,333.914276 
	C179.740250,333.946533 178.852615,333.103210 177.562302,332.454681 
	C184.407318,329.154419 190.253510,332.116364 190.534454,338.938080 
	C190.771011,344.682068 190.536560,350.244110 197.120438,354.057770 
	C190.363586,357.986755 190.844513,363.797607 190.452164,369.646729 
	C190.016785,376.137512 183.927750,378.952393 177.456879,375.538025 
	C180.651093,374.315643 183.331161,373.290009 186.279541,371.925476 
z"/>
<path fill="#6666FF" opacity="1.000000" stroke="none" 
	d="
M154.199890,377.011261 
	C145.618637,377.090576 142.935120,374.580048 143.092789,366.451660 
	C143.170380,362.452728 142.829285,358.973755 139.343979,356.254761 
	C138.571518,355.652191 138.378647,352.637726 138.961273,352.232544 
	C143.415009,349.135071 143.046280,344.697296 143.077682,340.166626 
	C143.128693,332.807037 147.622238,329.701416 155.845154,331.918060 
	C154.682877,332.808167 154.016739,333.716431 153.201340,333.879852 
	C146.658859,335.190979 146.112335,335.701324 146.161301,342.229095 
	C146.194107,346.599487 146.677261,351.048096 140.690842,353.779877 
	C147.089783,357.199280 146.149994,362.389160 146.143188,367.307037 
	C146.137558,371.378998 147.634659,374.066437 152.227707,374.057220 
	C154.032913,374.053589 156.232468,373.983337 154.199890,377.011261 
z"/>
<path fill="#6969FF" opacity="1.000000" stroke="none" 
	d="
M168.981735,350.916077 
	C169.330612,353.011108 169.755737,355.021027 169.203201,356.711365 
	C169.010681,357.300293 165.838562,357.770508 165.036896,357.095612 
	C163.955994,356.185669 163.003433,353.162445 163.490952,352.729401 
	C164.791641,351.574097 166.891510,351.318573 168.981735,350.916077 
z"/>
<path fill="#6969FF" opacity="1.000000" stroke="none" 
	d="
M332.221985,363.791931 
	C332.768494,364.864288 333.041077,365.709564 333.313660,366.554810 
	C332.412292,366.562531 331.224548,366.949768 330.653839,366.519196 
	C324.994537,362.249298 319.437347,357.844055 313.334534,353.073120 
	C320.113220,347.581055 325.912109,342.273163 332.634796,338.242981 
	C333.177246,338.900879 333.719696,339.558807 334.262146,340.216705 
	C329.181763,344.333282 324.101349,348.449860 318.553162,352.945496 
	C323.191162,356.622437 327.569641,360.093628 332.221985,363.791931 
z"/>
<path fill="#6666FF" opacity="1.000000" stroke="none" 
	d="
M374.452148,347.588806 
	C376.614532,349.339874 378.492249,350.871368 381.099945,352.998260 
	C374.357147,358.283447 368.281097,363.046021 362.205078,367.808594 
	C361.638519,367.164459 361.071960,366.520294 360.505432,365.876160 
	C362.841888,363.784088 365.128082,361.632141 367.528625,359.616364 
	C370.051788,357.497681 372.684418,355.509338 375.528564,353.258820 
	C371.289612,347.721649 364.229187,345.404968 360.596832,339.742035 
	C361.033142,339.199860 361.469421,338.657654 361.905731,338.115479 
	C365.992981,341.200073 370.080261,344.284668 374.452148,347.588806 
z"/>
<path fill="#6969FF" opacity="1.000000" stroke="none" 
	d="
M345.629028,352.508057 
	C346.803589,347.464081 347.858856,342.822418 349.200653,336.920441 
	C352.167511,341.794342 347.189819,364.481323 342.708618,366.822052 
	C343.642303,362.184814 344.576019,357.547607 345.629028,352.508057 
z"/>
</svg>