<?xml version="1.0" encoding="utf-8"?>
<!-- Generator: Adobe Illustrator 27.5.0, SVG Export Plug-In . SVG Version: 6.00 Build 0)  -->
<svg version="1.1" xmlns="http://www.w3.org/2000/svg" xmlns:xlink="http://www.w3.org/1999/xlink" x="0px" y="0px"
	 viewBox="0 0 500 500" style="enable-background:new 0 0 500 500;" xml:space="preserve">
<g id="BACKGROUND">
	<rect style="fill:#FFFFFF;" width="500" height="500"/>
</g>
<g id="OBJECTS">
	<g>
		<linearGradient id="SVGID_1_" gradientUnits="userSpaceOnUse" x1="247.8491" y1="76.5598" x2="250.0017" y2="389.1914">
			<stop  offset="0" style="stop-color:#F5F0FF"/>
			<stop  offset="0.9959" style="stop-color:#D2C1F7"/>
		</linearGradient>
		<path style="fill:url(#SVGID_1_);" d="M66.956,407.495c0,0-19.956-25.021-3.522-44.911c16.435-19.89,32.233-12.142,41.73-31.685
			s-29.991-49.248-26.469-71.553c3.522-22.304,54.261-39.039,62.739-59.824c8.478-20.785-26.852-58.606,8.617-87.043
			s81.388,8.22,108.774-6.655c45.148-24.522,97.78-13.847,113.702,21.035c20.096,44.028-23.013,81.289-15.14,109.953
			s61.09,39.479,73.09,66.419c12,26.94-5.773,34.021-4.174,49.864c2.087,20.675,23.478,33.112,14.609,54.398H66.956z"/>
		<g>
			
				<linearGradient id="SVGID_00000134946041167934219750000011568456908150736528_" gradientUnits="userSpaceOnUse" x1="234.4111" y1="382.4039" x2="271.6891" y2="381.0091">
				<stop  offset="0" style="stop-color:#263681"/>
				<stop  offset="0.9959" style="stop-color:#1A1248"/>
			</linearGradient>
			<path style="fill:url(#SVGID_00000134946041167934219750000011568456908150736528_);" d="M266.699,407.495h-26.182
				c-2.927,0-5.301-2.373-5.301-5.301v-41.018c0-2.927,2.373-5.301,5.301-5.301h26.182c2.927,0,5.301,2.373,5.301,5.301v41.018
				C272,405.122,269.627,407.495,266.699,407.495z"/>
			
				<radialGradient id="SVGID_00000136404756941760138010000002798666872947062449_" cx="246.5651" cy="154.8687" r="183.2012" gradientUnits="userSpaceOnUse">
				<stop  offset="0" style="stop-color:#FFD042"/>
				<stop  offset="1" style="stop-color:#F2830B"/>
			</radialGradient>
			<path style="fill:url(#SVGID_00000136404756941760138010000002798666872947062449_);" d="M342.302,219.088
				c0-49.778-40.941-89.993-90.986-88.81c-47.641,1.126-86.269,40.371-86.681,88.024c-0.253,29.158,13.55,55.094,35.038,71.466
				c11.475,8.743,18.163,22.379,18.163,36.806v23.816h71.264v-23.816c0-14.465,6.755-28.092,18.251-36.873
				C328.592,273.472,342.302,247.886,342.302,219.088z"/>
			
				<linearGradient id="SVGID_00000173151731651942311720000002396521498863294875_" gradientUnits="userSpaceOnUse" x1="214.1548" y1="375.0998" x2="291.0426" y2="372.2231">
				<stop  offset="0" style="stop-color:#5A32B0"/>
				<stop  offset="0.2805" style="stop-color:#8968BB"/>
				<stop  offset="0.7459" style="stop-color:#623CB2"/>
				<stop  offset="1" style="stop-color:#7855B7"/>
			</linearGradient>
			<path style="fill:url(#SVGID_00000173151731651942311720000002396521498863294875_);" d="M284.161,402.173h-61.105
				c-4.449,0-8.056-3.607-8.056-8.056V345.37h77.217v48.747C292.217,398.566,288.611,402.173,284.161,402.173z"/>
		</g>
		<g>
			<path style="fill:#50448C;" d="M87.174,406.978c-0.203,0-0.394-0.124-0.469-0.326c-0.489-1.316-0.864-2.636-1.115-3.921
				c-0.053-0.271,0.124-0.533,0.395-0.587c0.268-0.053,0.533,0.124,0.586,0.396c0.241,1.231,0.601,2.498,1.071,3.765
				c0.096,0.259-0.036,0.547-0.295,0.643C87.291,406.968,87.232,406.978,87.174,406.978z M85.804,397.164
				c-0.018,0-0.037-0.001-0.056-0.003c-0.274-0.03-0.472-0.277-0.442-0.552c0.151-1.367,0.456-2.714,0.905-4.003
				c0.091-0.261,0.377-0.4,0.637-0.307c0.261,0.091,0.398,0.376,0.308,0.637c-0.425,1.218-0.712,2.49-0.855,3.782
				C86.273,396.975,86.056,397.164,85.804,397.164z M89.563,388.039c-0.108,0-0.217-0.035-0.309-0.107
				c-0.217-0.171-0.254-0.485-0.083-0.702c0.409-0.518,0.847-1.018,1.303-1.485c0.489-0.502,0.994-0.988,1.509-1.464
				c0.203-0.188,0.521-0.176,0.707,0.028c0.188,0.202,0.175,0.519-0.028,0.706c-0.503,0.464-0.995,0.938-1.472,1.428
				c-0.431,0.441-0.846,0.915-1.232,1.406C89.857,387.974,89.711,388.039,89.563,388.039z M96.885,381.254
				c-0.144,0-0.286-0.062-0.385-0.181c-0.176-0.212-0.147-0.527,0.065-0.704c0.978-0.812,2.019-1.689,3.01-2.597
				c0.204-0.186,0.521-0.172,0.707,0.031c0.187,0.204,0.173,0.521-0.031,0.707c-1.007,0.922-2.06,1.808-3.047,2.628
				C97.111,381.216,96.998,381.254,96.885,381.254z M103.963,374.229c-0.104,0-0.209-0.032-0.298-0.1
				c-0.222-0.165-0.267-0.479-0.102-0.699c0.71-0.951,1.425-2.027,2.188-3.288c0.142-0.235,0.449-0.313,0.687-0.169
				c0.236,0.143,0.312,0.45,0.169,0.686c-0.779,1.289-1.513,2.391-2.242,3.368C104.267,374.159,104.116,374.229,103.963,374.229z
				 M109.139,365.682c-0.082,0-0.166-0.021-0.244-0.064c-0.241-0.135-0.327-0.44-0.192-0.681c0.582-1.04,1.28-2.267,2.038-3.473
				c0.147-0.233,0.458-0.304,0.689-0.156c0.234,0.147,0.304,0.455,0.157,0.69c-0.747,1.186-1.436,2.398-2.012,3.428
				C109.484,365.59,109.314,365.682,109.139,365.682z M114.777,357.455c-0.123,0-0.247-0.045-0.343-0.137
				c-0.201-0.189-0.21-0.506-0.02-0.707c0.443-0.469,0.904-0.916,1.369-1.329c0.538-0.477,1.111-0.935,1.703-1.36
				c0.225-0.162,0.537-0.11,0.698,0.114c0.162,0.225,0.11,0.537-0.114,0.698c-0.565,0.406-1.111,0.842-1.624,1.296
				c-0.443,0.393-0.883,0.82-1.306,1.268C115.042,357.403,114.91,357.455,114.777,357.455z M123.042,352.002
				c-0.199,0-0.388-0.12-0.465-0.317c-0.101-0.257,0.025-0.547,0.282-0.647c1.196-0.471,2.458-0.879,3.859-1.247
				c0.266-0.072,0.54,0.089,0.61,0.356c0.07,0.267-0.089,0.54-0.356,0.61c-1.362,0.358-2.587,0.754-3.747,1.21
				C123.165,351.991,123.103,352.002,123.042,352.002z M132.728,349.605c-0.244,0-0.457-0.178-0.494-0.426
				c-0.04-0.273,0.148-0.527,0.42-0.568c1.164-0.175,2.43-0.339,3.985-0.519c0.276-0.024,0.523,0.165,0.554,0.439
				c0.032,0.274-0.165,0.522-0.439,0.555c-1.544,0.178-2.799,0.341-3.951,0.513C132.777,349.603,132.752,349.605,132.728,349.605z
				 M142.664,348.426c-0.251,0-0.466-0.188-0.496-0.442c-0.032-0.274,0.165-0.522,0.439-0.555c1.549-0.18,2.804-0.345,3.95-0.52
				c0.272-0.045,0.528,0.146,0.569,0.419c0.041,0.272-0.146,0.528-0.419,0.569c-1.158,0.177-2.424,0.344-3.985,0.525
				C142.703,348.425,142.683,348.426,142.664,348.426z M152.51,346.713c-0.22,0-0.422-0.146-0.482-0.37
				c-0.072-0.267,0.086-0.541,0.353-0.612c1.357-0.365,2.577-0.772,3.732-1.244c0.253-0.106,0.547,0.018,0.652,0.273
				c0.105,0.256-0.018,0.548-0.274,0.652c-1.193,0.487-2.452,0.907-3.85,1.283C152.597,346.707,152.553,346.713,152.51,346.713z
				 M161.509,342.524c-0.151,0-0.3-0.068-0.398-0.197c-0.167-0.22-0.124-0.534,0.095-0.701c0.785-0.596,1.527-1.255,2.205-1.957
				c0.219-0.226,0.431-0.457,0.636-0.692c0.181-0.21,0.499-0.23,0.706-0.049c0.208,0.182,0.23,0.497,0.048,0.705
				c-0.216,0.249-0.44,0.492-0.671,0.731c-0.713,0.738-1.493,1.431-2.318,2.059C161.72,342.491,161.614,342.524,161.509,342.524z
				 M167.798,334.859c-0.082,0-0.166-0.021-0.243-0.064c-0.241-0.135-0.328-0.438-0.193-0.68c0.618-1.109,1.177-2.207,1.844-3.527
				c0.124-0.246,0.427-0.343,0.672-0.221c0.246,0.124,0.345,0.425,0.221,0.672c-0.528,1.046-1.186,2.349-1.863,3.563
				C168.144,334.766,167.974,334.859,167.798,334.859z M172.487,326.028c-0.088,0-0.178-0.023-0.259-0.072
				c-0.236-0.144-0.312-0.451-0.169-0.687c0.19-0.313,0.384-0.622,0.583-0.926c0.534-0.818,1.117-1.628,1.733-2.407
				c0.171-0.214,0.485-0.252,0.702-0.082c0.217,0.172,0.253,0.486,0.082,0.703c-0.597,0.755-1.162,1.54-1.68,2.333
				c-0.194,0.296-0.381,0.595-0.565,0.896C172.821,325.942,172.656,326.028,172.487,326.028z M178.88,318.39
				c-0.137,0-0.273-0.056-0.372-0.166c-0.184-0.205-0.167-0.521,0.038-0.706c0.969-0.87,2.024-1.729,3.135-2.553
				c0.221-0.165,0.535-0.118,0.7,0.103c0.164,0.222,0.118,0.535-0.104,0.699c-1.086,0.806-2.117,1.645-3.063,2.494
				C179.119,318.348,178.999,318.39,178.88,318.39z M186.997,312.588c-0.172,0-0.34-0.089-0.433-0.249
				c-0.139-0.238-0.058-0.545,0.181-0.684c1.101-0.64,2.291-1.285,3.537-1.921c0.246-0.127,0.547-0.028,0.672,0.218
				c0.125,0.246,0.028,0.548-0.218,0.673c-1.23,0.627-2.404,1.265-3.489,1.896C187.169,312.567,187.083,312.588,186.997,312.588z
				 M195.938,308.121c-0.192,0-0.376-0.111-0.458-0.299c-0.111-0.253,0.003-0.548,0.256-0.659c1.224-0.538,2.457-1.06,3.692-1.571
				c0.256-0.105,0.548,0.016,0.653,0.271c0.105,0.256-0.016,0.548-0.271,0.653c-1.228,0.509-2.454,1.027-3.671,1.564
				C196.073,308.108,196.005,308.121,195.938,308.121z M205.184,304.304c-0.198,0-0.386-0.119-0.464-0.314
				c-0.103-0.256,0.022-0.547,0.278-0.649l3.706-1.496c0.254-0.104,0.547,0.018,0.652,0.273c0.105,0.256-0.018,0.548-0.273,0.652
				l-3.713,1.498C205.309,304.292,205.246,304.304,205.184,304.304z M214.426,300.483c-0.193,0-0.377-0.113-0.459-0.302
				c-0.109-0.254,0.007-0.548,0.261-0.657c1.223-0.527,2.442-1.062,3.658-1.604c0.251-0.112,0.547,0.001,0.66,0.254
				c0.113,0.252-0.001,0.547-0.253,0.66c-1.22,0.543-2.443,1.079-3.669,1.608C214.559,300.47,214.492,300.483,214.426,300.483z
				 M223.546,296.383c-0.188,0-0.368-0.106-0.453-0.288c-0.117-0.25-0.009-0.548,0.241-0.665c1.206-0.564,2.408-1.137,3.607-1.716
				c0.25-0.121,0.548-0.016,0.667,0.232c0.12,0.249,0.016,0.548-0.233,0.668c-1.202,0.581-2.408,1.155-3.618,1.722
				C223.69,296.368,223.617,296.383,223.546,296.383z M232.536,292.004c-0.183,0-0.358-0.101-0.446-0.274
				c-0.125-0.246-0.026-0.547,0.22-0.672c1.188-0.602,2.372-1.21,3.552-1.826c0.244-0.126,0.547-0.033,0.675,0.212
				c0.127,0.245,0.033,0.547-0.212,0.675c-1.184,0.618-2.372,1.228-3.563,1.832C232.689,291.987,232.612,292.004,232.536,292.004z
				 M241.387,287.35c-0.177,0-0.348-0.094-0.439-0.26c-0.133-0.242-0.044-0.547,0.199-0.679l0.61-0.334
				c0.962-0.527,1.923-1.062,2.881-1.604c0.239-0.136,0.545-0.052,0.681,0.189c0.136,0.24,0.051,0.546-0.189,0.682
				c-0.962,0.544-1.927,1.08-2.893,1.609l-0.611,0.334C241.55,287.33,241.468,287.35,241.387,287.35z M250.06,282.374
				c-0.169,0-0.333-0.085-0.427-0.239c-0.144-0.236-0.069-0.544,0.166-0.688c1.135-0.692,2.26-1.4,3.371-2.125
				c0.233-0.149,0.541-0.086,0.692,0.146c0.15,0.231,0.086,0.541-0.146,0.692c-1.12,0.73-2.253,1.442-3.396,2.141
				C250.239,282.351,250.149,282.374,250.06,282.374z M258.383,276.833c-0.153,0-0.305-0.07-0.403-0.204
				c-0.163-0.223-0.115-0.535,0.107-0.699c1.101-0.808,2.161-1.623,3.152-2.424c0.215-0.175,0.529-0.141,0.703,0.074
				c0.174,0.215,0.141,0.53-0.074,0.703c-1.004,0.811-2.077,1.636-3.189,2.453C258.589,276.802,258.486,276.833,258.383,276.833z
				 M266.073,270.452c-0.133,0-0.265-0.053-0.363-0.156c-0.189-0.2-0.181-0.517,0.02-0.707c0.972-0.921,1.912-1.868,2.795-2.815
				c0.188-0.201,0.505-0.213,0.707-0.025c0.202,0.189,0.213,0.505,0.025,0.707c-0.897,0.963-1.853,1.925-2.84,2.86
				C266.32,270.406,266.196,270.452,266.073,270.452z M341.998,267.713c-0.141,0-0.28-0.06-0.38-0.175
				c-0.846-0.986-1.763-1.943-2.726-2.846c-0.201-0.189-0.212-0.506-0.023-0.707c0.189-0.203,0.506-0.21,0.707-0.023
				c0.989,0.928,1.932,1.912,2.802,2.926c0.18,0.209,0.155,0.524-0.055,0.705C342.229,267.673,342.113,267.713,341.998,267.713z
				 M272.75,263.025c-0.104,0-0.21-0.032-0.3-0.1c-0.221-0.166-0.266-0.48-0.1-0.7c0.792-1.056,1.547-2.152,2.245-3.261
				c0.147-0.233,0.458-0.303,0.689-0.156c0.233,0.147,0.304,0.455,0.156,0.69c-0.712,1.131-1.482,2.25-2.29,3.327
				C273.051,262.955,272.901,263.025,272.75,263.025z M334.563,261.074c-0.099,0-0.197-0.028-0.284-0.089
				c-1.063-0.733-2.19-1.439-3.353-2.097c-0.24-0.137-0.325-0.441-0.189-0.682c0.137-0.242,0.443-0.324,0.682-0.189
				c1.189,0.674,2.342,1.395,3.429,2.146c0.228,0.156,0.284,0.468,0.127,0.695C334.878,260.998,334.721,261.074,334.563,261.074z
				 M325.789,256.313c-0.065,0-0.131-0.013-0.194-0.039c-1.189-0.503-2.435-0.98-3.706-1.421c-0.261-0.091-0.398-0.375-0.309-0.637
				c0.092-0.261,0.375-0.396,0.637-0.309c1.291,0.447,2.559,0.934,3.767,1.444c0.255,0.108,0.374,0.401,0.267,0.655
				C326.169,256.199,325.983,256.313,325.789,256.313z M277.89,254.467c-0.071,0-0.144-0.015-0.212-0.047
				c-0.25-0.117-0.358-0.415-0.241-0.665c0.562-1.202,1.071-2.431,1.516-3.653c0.094-0.259,0.382-0.391,0.641-0.299
				c0.26,0.095,0.394,0.381,0.299,0.641c-0.453,1.249-0.975,2.505-1.549,3.735C278.258,254.361,278.078,254.467,277.89,254.467z
				 M316.303,253.166c-0.04,0-0.082-0.005-0.123-0.016c-1.255-0.318-2.56-0.615-3.878-0.882c-0.272-0.055-0.446-0.318-0.392-0.589
				c0.055-0.271,0.324-0.445,0.589-0.392c1.335,0.27,2.656,0.57,3.927,0.894c0.268,0.067,0.43,0.34,0.361,0.607
				C316.73,253.016,316.527,253.166,316.303,253.166z M306.485,251.282c-0.022,0-0.046-0.002-0.068-0.005
				c-1.294-0.177-2.625-0.333-3.955-0.465c-0.274-0.027-0.475-0.272-0.447-0.547c0.027-0.275,0.259-0.473,0.547-0.448
				c1.342,0.133,2.685,0.292,3.99,0.47c0.273,0.038,0.466,0.29,0.428,0.563C306.945,251.1,306.731,251.282,306.485,251.282z
				 M296.528,250.358c-0.009,0-0.019-0.001-0.028-0.001c-1.327-0.076-2.656-0.14-3.988-0.196c-0.275-0.012-0.489-0.245-0.478-0.521
				c0.012-0.276,0.199-0.506,0.521-0.479c1.336,0.056,2.671,0.121,4.002,0.197c0.276,0.016,0.486,0.252,0.471,0.528
				C297.012,250.152,296.792,250.358,296.528,250.358z M286.538,249.946c-0.005,0-0.011,0-0.017-0.001l-3.999-0.131
				c-0.275-0.009-0.491-0.241-0.482-0.517c0.011-0.276,0.248-0.497,0.518-0.482l3.997,0.131c0.275,0.009,0.492,0.24,0.483,0.516
				C287.029,249.733,286.806,249.946,286.538,249.946z M276.544,249.568c-0.008,0-0.017,0-0.025-0.001
				c-1.336-0.068-2.671-0.146-4.002-0.241c-0.275-0.019-0.483-0.258-0.464-0.534c0.02-0.276,0.288-0.483,0.534-0.463
				c1.325,0.093,2.652,0.171,3.982,0.239c0.275,0.014,0.488,0.249,0.474,0.525C277.029,249.36,276.808,249.568,276.544,249.568z
				 M266.579,248.786c-0.02,0-0.038-0.001-0.058-0.003c-1.372-0.157-2.713-0.335-3.983-0.529c-0.273-0.042-0.461-0.297-0.419-0.57
				c0.042-0.272,0.301-0.46,0.569-0.418c1.259,0.192,2.587,0.369,3.946,0.524c0.274,0.031,0.472,0.279,0.44,0.553
				C267.046,248.598,266.829,248.786,266.579,248.786z M256.719,247.149c-0.036,0-0.073-0.004-0.11-0.012
				c-1.334-0.303-2.647-0.64-3.901-1c-0.266-0.076-0.419-0.353-0.343-0.619c0.076-0.266,0.354-0.419,0.618-0.342
				c1.237,0.355,2.531,0.687,3.847,0.985c0.27,0.062,0.439,0.329,0.377,0.599C257.154,246.992,256.948,247.149,256.719,247.149z
				 M281.068,245.008c-0.034,0-0.068-0.003-0.103-0.01c-0.27-0.056-0.444-0.321-0.388-0.591c0.27-1.302,0.471-2.614,0.598-3.9
				c0.028-0.274,0.276-0.469,0.547-0.448c0.275,0.027,0.476,0.272,0.449,0.547c-0.131,1.32-0.338,2.667-0.615,4.004
				C281.507,244.846,281.299,245.008,281.068,245.008z M247.17,244.213c-0.063,0-0.128-0.012-0.19-0.038
				c-1.308-0.537-2.54-1.12-3.664-1.733c-0.242-0.132-0.331-0.436-0.199-0.679c0.133-0.243,0.437-0.331,0.679-0.199
				c1.091,0.596,2.29,1.164,3.564,1.686c0.255,0.105,0.377,0.397,0.272,0.652C247.553,244.096,247.367,244.213,247.17,244.213z
				 M238.646,239.079c-0.119,0-0.238-0.042-0.334-0.128c-0.441-0.397-0.87-0.814-1.271-1.239c-0.529-0.56-1.03-1.161-1.489-1.787
				c-0.163-0.223-0.115-0.536,0.108-0.699c0.222-0.165,0.536-0.115,0.699,0.108c0.434,0.593,0.908,1.162,1.409,1.691
				c0.384,0.406,0.792,0.804,1.213,1.182c0.206,0.185,0.223,0.5,0.038,0.706C238.919,239.023,238.782,239.079,238.646,239.079z
				 M281.751,235.065c-0.259,0-0.477-0.199-0.498-0.462c-0.101-1.317-0.284-2.627-0.547-3.895c-0.057-0.271,0.117-0.535,0.388-0.591
				c0.267-0.055,0.535,0.117,0.591,0.388c0.271,1.31,0.462,2.662,0.566,4.021c0.021,0.275-0.185,0.516-0.461,0.537
				C281.777,235.065,281.764,235.065,281.751,235.065z M233.29,230.787c-0.217,0-0.416-0.142-0.48-0.36
				c-0.399-1.365-0.604-2.738-0.611-4.08c-0.002-0.276,0.222-0.501,0.497-0.502c0.001,0,0.002,0,0.003,0
				c0.275,0,0.498,0.222,0.5,0.497c0.006,1.249,0.198,2.529,0.571,3.805c0.077,0.265-0.075,0.542-0.34,0.62
				C233.383,230.781,233.336,230.787,233.29,230.787z M279.397,225.394c-0.192,0-0.376-0.112-0.458-0.3
				c-0.534-1.223-1.155-2.385-1.846-3.452c-0.149-0.231-0.084-0.541,0.148-0.691c0.229-0.148,0.541-0.085,0.691,0.148
				c0.72,1.113,1.367,2.322,1.922,3.595c0.11,0.253-0.005,0.548-0.258,0.659C279.532,225.381,279.464,225.394,279.397,225.394z
				 M234.085,221.07c-0.077,0-0.156-0.018-0.229-0.056c-0.245-0.127-0.341-0.429-0.215-0.674c0.618-1.197,1.438-2.319,2.436-3.336
				c0.194-0.198,0.51-0.2,0.707-0.007c0.197,0.193,0.2,0.51,0.007,0.707c-0.928,0.946-1.689,1.987-2.261,3.095
				C234.441,220.971,234.266,221.07,234.085,221.07z M273.587,217.361c-0.114,0-0.229-0.039-0.323-0.119
				c-0.97-0.823-2.048-1.57-3.204-2.22c-0.24-0.136-0.326-0.44-0.19-0.681c0.136-0.241,0.44-0.327,0.681-0.191
				c1.212,0.682,2.343,1.466,3.36,2.331c0.211,0.179,0.236,0.494,0.058,0.705C273.87,217.301,273.729,217.361,273.587,217.361z
				 M241.306,214.402c-0.184,0-0.361-0.102-0.448-0.277c-0.123-0.247-0.022-0.547,0.225-0.67c1.169-0.582,2.443-1.089,3.787-1.509
				c0.262-0.085,0.544,0.064,0.626,0.328c0.083,0.264-0.064,0.544-0.328,0.626c-1.293,0.404-2.517,0.892-3.639,1.45
				C241.457,214.386,241.381,214.402,241.306,214.402z M264.769,212.814c-0.045,0-0.091-0.006-0.137-0.019
				c-1.216-0.346-2.511-0.626-3.848-0.834c-0.272-0.042-0.459-0.298-0.417-0.571c0.042-0.273,0.297-0.455,0.571-0.417
				c1.377,0.214,2.712,0.503,3.967,0.86c0.266,0.076,0.42,0.352,0.344,0.618C265.187,212.67,264.987,212.814,264.769,212.814z
				 M250.889,211.712c-0.252,0-0.468-0.189-0.497-0.445c-0.03-0.274,0.168-0.521,0.442-0.552c1.029-0.113,2.071-0.18,3.098-0.197
				c0.254-0.005,0.513-0.007,0.771-0.007h0.18c0.276,0,0.5,0.224,0.5,0.5c0,0.276-0.224,0.5-0.5,0.5h-0.18
				c-0.252,0-0.503,0.002-0.753,0.007c-0.997,0.017-2.008,0.081-3.006,0.191C250.926,211.711,250.907,211.712,250.889,211.712z"/>
		</g>
		<g>
			<path style="fill:#50448C;" d="M389.918,297.156c-0.704,0-1.408-0.016-2.112-0.046c-0.276-0.013-0.49-0.246-0.478-0.522
				c0.011-0.275,0.236-0.481,0.521-0.478c0.71,0.031,1.415,0.047,2.131,0.046c0.61,0,1.22-0.012,1.828-0.034
				c0.007,0,0.013,0,0.018,0c0.268,0,0.49,0.212,0.5,0.482c0.01,0.276-0.206,0.508-0.481,0.518
				C391.202,297.145,390.59,297.161,389.918,297.156z M397.79,296.517c-0.239,0-0.451-0.173-0.492-0.418
				c-0.046-0.272,0.139-0.53,0.411-0.575c1.303-0.217,2.604-0.493,3.867-0.822c0.269-0.068,0.541,0.093,0.61,0.358
				c0.069,0.268-0.092,0.54-0.358,0.61c-1.293,0.335-2.623,0.618-3.955,0.84C397.845,296.515,397.817,296.517,397.79,296.517z
				 M381.862,296.496c-0.026,0-0.054-0.002-0.08-0.007c-1.313-0.211-2.645-0.478-3.959-0.792c-0.269-0.065-0.435-0.334-0.37-0.603
				c0.064-0.268,0.33-0.438,0.603-0.37c1.29,0.309,2.598,0.57,3.886,0.778c0.272,0.044,0.457,0.3,0.413,0.572
				C382.315,296.322,382.103,296.496,381.862,296.496z M372.19,293.998c-0.056,0-0.112-0.01-0.168-0.029
				c-1.251-0.447-2.512-0.95-3.748-1.494c-0.252-0.112-0.367-0.407-0.255-0.66c0.11-0.252,0.407-0.368,0.658-0.255
				c1.215,0.535,2.453,1.028,3.681,1.468c0.261,0.093,0.396,0.379,0.303,0.639C372.587,293.871,372.395,293.998,372.19,293.998z
				 M407.389,293.788c-0.196,0-0.383-0.116-0.462-0.31c-0.105-0.255,0.016-0.548,0.271-0.652c1.245-0.514,2.446-1.08,3.571-1.685
				c0.242-0.129,0.546-0.04,0.677,0.204c0.131,0.243,0.039,0.546-0.204,0.677c-1.154,0.62-2.387,1.202-3.663,1.728
				C407.517,293.777,407.453,293.788,407.389,293.788z M363.125,289.809c-0.085,0-0.171-0.021-0.249-0.066
				c-1.165-0.671-2.316-1.389-3.424-2.135c-0.229-0.154-0.29-0.466-0.136-0.694c0.155-0.23,0.467-0.288,0.694-0.136
				c1.088,0.733,2.22,1.439,3.363,2.098c0.239,0.138,0.322,0.443,0.185,0.683C363.465,289.719,363.297,289.809,363.125,289.809z
				 M415.998,288.77c-0.145,0-0.288-0.063-0.387-0.183c-0.175-0.214-0.144-0.528,0.069-0.704c1.036-0.85,1.986-1.763,2.823-2.712
				c0.183-0.206,0.498-0.227,0.706-0.044c0.207,0.183,0.227,0.499,0.044,0.706c-0.872,0.989-1.861,1.938-2.939,2.823
				C416.222,288.733,416.11,288.77,415.998,288.77z M354.946,284.076c-0.114,0-0.229-0.039-0.323-0.118
				c-1.031-0.873-2.034-1.788-2.981-2.72c-0.197-0.193-0.199-0.51-0.006-0.707c0.194-0.198,0.511-0.198,0.707-0.006
				c0.93,0.914,1.914,1.812,2.927,2.669c0.211,0.179,0.236,0.494,0.059,0.705C355.229,284.015,355.087,284.076,354.946,284.076z
				 M422.195,281.025c-0.074,0-0.15-0.017-0.221-0.052c-0.248-0.122-0.35-0.422-0.228-0.669c0.553-1.122,1.038-2.313,1.483-3.64
				c0.087-0.262,0.371-0.405,0.633-0.314c0.262,0.088,0.402,0.371,0.315,0.633c-0.459,1.369-0.961,2.601-1.534,3.763
				C422.556,280.922,422.379,281.025,422.195,281.025z M347.965,276.938c-0.145,0-0.291-0.064-0.39-0.186
				c-0.846-1.051-1.655-2.142-2.404-3.244c-0.155-0.229-0.097-0.539,0.132-0.694c0.227-0.153,0.539-0.098,0.694,0.132
				c0.735,1.08,1.528,2.15,2.357,3.18c0.173,0.215,0.139,0.529-0.076,0.703C348.187,276.902,348.076,276.938,347.965,276.938z
				 M425.218,271.522c-0.034,0-0.067-0.003-0.102-0.01c-0.271-0.056-0.444-0.32-0.39-0.591c0.248-1.21,0.467-2.425,0.675-3.634
				l0.049-0.28c0.044-0.273,0.308-0.462,0.574-0.412c0.272,0.045,0.457,0.302,0.412,0.574l-0.05,0.289
				c-0.209,1.218-0.43,2.444-0.68,3.664C425.659,271.359,425.451,271.522,425.218,271.522z M137.551,269.968
				c-0.086,0-0.173-0.023-0.252-0.068c-1.102-0.646-2.07-1.482-2.877-2.484c-0.173-0.215-0.14-0.529,0.076-0.703
				c0.215-0.173,0.53-0.14,0.703,0.076c0.731,0.907,1.607,1.664,2.604,2.248c0.238,0.14,0.318,0.446,0.178,0.685
				C137.89,269.88,137.723,269.968,137.551,269.968z M132.366,262.183c-0.232,0-0.44-0.162-0.489-0.398
				c-0.254-1.22-0.383-2.525-0.383-3.878l0.001-0.203c0.002-0.274,0.226-0.496,0.5-0.496c0.001,0,0.002,0,0.004,0
				c0.276,0.002,0.498,0.228,0.496,0.504l-0.001,0.191c0,1.288,0.122,2.524,0.362,3.679c0.057,0.27-0.117,0.535-0.387,0.591
				C132.434,262.18,132.4,262.183,132.366,262.183z M426.866,261.659c-0.023,0-0.046-0.002-0.069-0.005
				c-0.273-0.038-0.465-0.29-0.427-0.564c0.182-1.313,0.351-2.634,0.503-3.957c0.032-0.274,0.282-0.466,0.555-0.439
				c0.274,0.032,0.471,0.28,0.439,0.555c-0.154,1.331-0.323,2.657-0.507,3.979C427.326,261.479,427.111,261.659,426.866,261.659z
				 M132.846,252.285c-0.044,0-0.089-0.006-0.134-0.019c-0.266-0.073-0.422-0.349-0.349-0.615c0.15-0.543,0.319-1.076,0.505-1.597
				c0.256-0.719,0.54-1.447,0.87-2.226c0.108-0.254,0.401-0.373,0.655-0.266c0.254,0.107,0.373,0.401,0.266,0.655
				c-0.321,0.761-0.599,1.471-0.849,2.172c-0.178,0.498-0.339,1.009-0.483,1.528C133.266,252.139,133.065,252.285,132.846,252.285z
				 M427.947,251.719c-0.014,0-0.026,0-0.039-0.001c-0.275-0.021-0.482-0.262-0.461-0.537c0.102-1.325,0.186-2.652,0.249-3.978
				c0.013-0.275,0.256-0.486,0.522-0.475c0.276,0.013,0.489,0.247,0.476,0.523c-0.064,1.336-0.148,2.672-0.249,4.006
				C428.424,251.52,428.206,251.719,427.947,251.719z M136.752,243.07c-0.071,0-0.142-0.015-0.207-0.048
				c-0.248-0.123-0.359-0.4-0.236-0.648c0.607-1.222,1.193-2.399,1.745-3.585c0.116-0.251,0.412-0.358,0.664-0.242
				c0.251,0.116,0.359,0.414,0.242,0.664c-0.556,1.194-1.145,2.378-1.734,3.564C137.136,242.955,136.945,243.07,136.752,243.07z
				 M428.341,241.728c-0.276,0-0.5-0.224-0.5-0.5c0-1.334-0.023-2.674-0.071-3.982c-0.01-0.276,0.206-0.508,0.482-0.518
				c0.256-0.02,0.508,0.206,0.518,0.481c0.047,1.32,0.071,2.672,0.071,4.019C428.841,241.505,428.618,241.728,428.341,241.728z
				 M140.707,233.924c-0.048,0-0.097-0.007-0.146-0.021c-0.264-0.081-0.413-0.36-0.333-0.624c0.304-0.998,0.533-1.943,0.702-2.889
				c0.055-0.311,0.104-0.622,0.146-0.933c0.038-0.273,0.286-0.464,0.563-0.428c0.273,0.038,0.465,0.29,0.428,0.564
				c-0.044,0.324-0.096,0.649-0.153,0.973c-0.176,0.985-0.415,1.968-0.729,3.004C141.12,233.786,140.921,233.924,140.707,233.924z
				 M427.877,231.74c-0.254,0-0.472-0.193-0.497-0.452c-0.128-1.329-0.286-2.658-0.47-3.951c-0.039-0.273,0.151-0.526,0.425-0.565
				c0.268-0.04,0.526,0.151,0.565,0.425c0.186,1.308,0.346,2.652,0.476,3.995c0.026,0.275-0.175,0.52-0.45,0.546
				C427.91,231.74,427.893,231.74,427.877,231.74z M141.643,224.04c-0.252,0-0.47-0.191-0.497-0.447
				c-0.133-1.261-0.363-2.563-0.682-3.871c-0.065-0.269,0.099-0.539,0.367-0.605c0.268-0.067,0.539,0.098,0.605,0.367
				c0.33,1.351,0.567,2.697,0.705,4.002c0.029,0.275-0.17,0.521-0.444,0.55C141.678,224.039,141.66,224.04,141.643,224.04z
				 M426.341,221.863c-0.229,0-0.437-0.159-0.487-0.393c-0.288-1.31-0.611-2.607-0.96-3.855c-0.074-0.266,0.081-0.542,0.347-0.616
				c0.268-0.076,0.542,0.081,0.616,0.347c0.354,1.266,0.682,2.581,0.974,3.909c0.06,0.27-0.111,0.537-0.381,0.596
				C426.414,221.859,426.378,221.863,426.341,221.863z M139.048,214.419c-0.195,0-0.38-0.115-0.461-0.306
				c-0.492-1.169-1.059-2.375-1.687-3.583c-0.127-0.245-0.032-0.547,0.213-0.674c0.246-0.126,0.546-0.032,0.674,0.213
				c0.64,1.232,1.219,2.462,1.721,3.656c0.107,0.254-0.013,0.548-0.267,0.655C139.178,214.407,139.112,214.419,139.048,214.419z
				 M423.502,212.285c-0.201,0-0.391-0.122-0.467-0.321c-0.474-1.238-0.99-2.467-1.538-3.655c-0.115-0.251-0.006-0.548,0.245-0.664
				c0.248-0.115,0.548-0.006,0.663,0.245c0.557,1.208,1.083,2.459,1.564,3.716c0.099,0.258-0.03,0.547-0.288,0.645
				C423.622,212.274,423.561,212.285,423.502,212.285z M134.319,205.618c-0.165,0-0.325-0.081-0.421-0.229
				c-0.531-0.824-1.076-1.635-1.629-2.43l-0.604-0.861c-0.16-0.226-0.106-0.538,0.119-0.697c0.226-0.16,0.538-0.106,0.697,0.119
				l0.609,0.868c0.56,0.805,1.111,1.626,1.649,2.461c0.149,0.232,0.083,0.541-0.15,0.691
				C134.506,205.593,134.412,205.618,134.319,205.618z M419.151,203.297c-0.169,0-0.335-0.086-0.429-0.243
				c-0.678-1.129-1.405-2.244-2.163-3.314c-0.159-0.225-0.106-0.538,0.119-0.697c0.225-0.158,0.537-0.107,0.697,0.119
				c0.773,1.09,1.514,2.227,2.204,3.377c0.143,0.237,0.066,0.544-0.172,0.686C419.328,203.274,419.239,203.297,419.151,203.297z
				 M128.537,197.462c-0.153,0-0.304-0.07-0.402-0.202l-0.095-0.129c-0.763-1.03-1.527-2.06-2.28-3.095
				c-0.163-0.223-0.113-0.536,0.11-0.699c0.223-0.162,0.536-0.113,0.699,0.11c0.752,1.033,1.514,2.061,2.275,3.088l0.096,0.129
				c0.164,0.222,0.118,0.535-0.104,0.7C128.744,197.43,128.64,197.462,128.537,197.462z M413.223,195.267
				c-0.137,0-0.273-0.056-0.372-0.166c-0.821-0.917-1.718-1.857-2.739-2.876c-0.195-0.195-0.195-0.512-0.001-0.707
				c0.195-0.196,0.513-0.195,0.708-0.001c1.034,1.032,1.942,1.986,2.776,2.917c0.184,0.206,0.167,0.521-0.038,0.706
				C413.462,195.225,413.342,195.267,413.223,195.267z M122.73,189.322c-0.163,0-0.322-0.079-0.418-0.225
				c-0.789-1.199-1.485-2.318-2.125-3.42c-0.139-0.239-0.058-0.545,0.181-0.684c0.238-0.139,0.544-0.059,0.684,0.181
				c0.631,1.086,1.317,2.189,2.096,3.373c0.152,0.23,0.088,0.54-0.143,0.692C122.92,189.295,122.824,189.322,122.73,189.322z
				 M406.126,188.228c-0.122,0-0.244-0.045-0.341-0.134l-0.553-0.515c-0.794-0.738-1.587-1.476-2.373-2.219
				c-0.2-0.189-0.209-0.506-0.02-0.707c0.19-0.201,0.506-0.209,0.707-0.02c0.784,0.741,1.575,1.477,2.366,2.213l0.554,0.515
				c0.202,0.188,0.213,0.504,0.025,0.707C406.393,188.174,406.259,188.228,406.126,188.228z M398.951,181.264
				c-0.134,0-0.267-0.053-0.365-0.158c-0.988-1.056-1.857-2.05-2.655-3.04c-0.173-0.215-0.14-0.53,0.076-0.703
				c0.213-0.173,0.528-0.14,0.703,0.075c0.782,0.97,1.635,1.946,2.607,2.984c0.188,0.202,0.178,0.518-0.023,0.706
				C399.196,181.22,399.073,181.264,398.951,181.264z M117.903,180.58c-0.194,0-0.378-0.113-0.46-0.303
				c-0.39-0.907-0.744-1.819-1.054-2.712c-0.125-0.361-0.244-0.723-0.356-1.086c-0.081-0.264,0.067-0.544,0.331-0.625
				c0.266-0.079,0.544,0.067,0.625,0.331c0.108,0.352,0.223,0.703,0.345,1.053c0.302,0.87,0.648,1.76,1.028,2.645
				c0.109,0.253-0.008,0.548-0.262,0.657C118.036,180.567,117.969,180.58,117.903,180.58z M392.912,173.324
				c-0.172,0-0.34-0.089-0.433-0.25c-0.633-1.095-1.241-2.269-1.859-3.589c-0.117-0.25-0.009-0.548,0.241-0.665
				c0.249-0.117,0.548-0.01,0.665,0.241c0.605,1.294,1.2,2.442,1.818,3.512c0.139,0.239,0.057,0.545-0.183,0.683
				C393.084,173.302,392.997,173.324,392.912,173.324z M115.265,170.971c-0.249,0-0.465-0.186-0.496-0.439
				c-0.162-1.329-0.25-2.691-0.263-4.046c-0.002-0.276,0.219-0.502,0.496-0.504c0.001,0,0.003,0,0.004,0
				c0.274,0,0.498,0.221,0.5,0.496c0.012,1.318,0.098,2.642,0.255,3.934c0.033,0.274-0.162,0.523-0.436,0.557
				C115.305,170.971,115.285,170.971,115.265,170.971z M230.694,165.365c-0.837-0.012-1.715-0.048-2.586-0.144
				c-0.274-0.03-0.473-0.277-0.442-0.552c0.031-0.274,0.278-0.465,0.552-0.442c0.835,0.092,1.683,0.162,2.478,0.138
				c0.477,0,0.952-0.017,1.425-0.05c0.277-0.025,0.515,0.188,0.534,0.463c0.02,0.275-0.188,0.515-0.463,0.534
				C231.694,165.347,231.195,165.365,230.694,165.365z M388.729,164.251c-0.199,0-0.387-0.119-0.465-0.315l-0.479-1.212
				c-0.33-0.835-0.66-1.671-0.997-2.503c-0.103-0.256,0.021-0.547,0.276-0.651c0.254-0.104,0.547,0.02,0.651,0.276
				c0.337,0.835,0.668,1.672,0.999,2.51l0.48,1.21c0.102,0.256-0.023,0.547-0.28,0.649
				C388.853,164.24,388.791,164.251,388.729,164.251z M237.969,163.947c-0.195,0-0.38-0.115-0.461-0.306
				c-0.107-0.255,0.013-0.548,0.267-0.655l0.264-0.114c1.078-0.48,2.124-1.085,3.111-1.795c0.225-0.161,0.538-0.109,0.698,0.113
				c0.161,0.224,0.11,0.537-0.113,0.698c-1.042,0.751-2.149,1.389-3.289,1.897l-0.283,0.123
				C238.1,163.934,238.034,163.947,237.969,163.947z M222.325,163.887c-0.054,0-0.109-0.009-0.163-0.027
				c-1.239-0.428-2.474-0.944-3.669-1.536l0.147-0.485l0.227-0.445c1.227,0.607,2.422,1.107,3.622,1.521
				c0.261,0.09,0.4,0.374,0.31,0.636C222.727,163.758,222.533,163.887,222.325,163.887z M115.435,161.004
				c-0.025,0-0.05-0.002-0.075-0.006c-0.273-0.041-0.461-0.296-0.419-0.569c0.2-1.324,0.473-2.659,0.81-3.968
				c0.069-0.268,0.346-0.429,0.609-0.36c0.268,0.069,0.429,0.341,0.36,0.609c-0.329,1.277-0.594,2.579-0.79,3.869
				C115.891,160.827,115.678,161.004,115.435,161.004z M213.482,159.284c-0.097,0-0.195-0.028-0.281-0.087
				c-1.037-0.708-2.101-1.484-3.254-2.376c-0.219-0.169-0.259-0.483-0.09-0.701c0.169-0.218,0.482-0.259,0.701-0.09
				c1.137,0.879,2.185,1.644,3.206,2.34c0.228,0.156,0.287,0.467,0.131,0.695C213.798,159.208,213.641,159.284,213.482,159.284z
				 M245.754,157.837c-0.11,0-0.222-0.037-0.314-0.111c-0.214-0.174-0.248-0.489-0.074-0.704c0.775-0.957,1.542-2.037,2.28-3.212
				c0.147-0.232,0.455-0.304,0.689-0.157c0.234,0.147,0.304,0.456,0.157,0.689c-0.759,1.208-1.55,2.322-2.35,3.31
				C246.044,157.774,245.9,157.837,245.754,157.837z M384.83,155.046c-0.184,0-0.36-0.102-0.448-0.278
				c-0.209-0.422-0.425-0.841-0.647-1.256c-0.397-0.742-0.825-1.481-1.272-2.197c-0.146-0.234-0.075-0.542,0.159-0.689
				c0.232-0.145,0.542-0.075,0.688,0.16c0.459,0.734,0.898,1.492,1.305,2.253c0.228,0.424,0.448,0.852,0.663,1.284
				c0.122,0.247,0.021,0.547-0.226,0.67C384.981,155.03,384.905,155.046,384.83,155.046z M205.601,153.135
				c-0.114,0-0.228-0.039-0.322-0.118l-1.238-1.046c-0.606-0.513-1.211-1.025-1.817-1.534c-0.212-0.177-0.239-0.493-0.062-0.704
				c0.177-0.21,0.493-0.238,0.704-0.061c0.607,0.51,1.214,1.023,1.821,1.537l1.236,1.045c0.211,0.178,0.238,0.494,0.06,0.704
				C205.885,153.074,205.744,153.135,205.601,153.135z M118.154,151.407c-0.065,0-0.131-0.013-0.195-0.04
				c-0.254-0.107-0.373-0.401-0.266-0.655c0.525-1.242,1.117-2.468,1.758-3.646c0.131-0.243,0.435-0.333,0.678-0.2
				c0.243,0.132,0.333,0.436,0.2,0.678c-0.625,1.149-1.202,2.347-1.715,3.558C118.534,151.292,118.349,151.407,118.154,151.407z
				 M250.942,149.31c-0.073,0-0.147-0.016-0.217-0.05c-0.248-0.121-0.352-0.419-0.232-0.668c0.515-1.064,1.044-2.214,1.662-3.62
				c0.112-0.252,0.408-0.366,0.659-0.256c0.253,0.111,0.368,0.406,0.257,0.659c-0.624,1.417-1.157,2.577-1.678,3.652
				C251.306,149.206,251.128,149.31,250.942,149.31z M197.894,146.764c-0.108,0-0.217-0.035-0.309-0.107
				c-1.043-0.823-2.097-1.634-3.162-2.429c-0.221-0.165-0.267-0.479-0.101-0.7c0.166-0.221,0.479-0.267,0.7-0.101
				c1.072,0.8,2.132,1.616,3.183,2.445c0.217,0.171,0.254,0.485,0.083,0.702C198.188,146.698,198.042,146.764,197.894,146.764z
				 M379.341,146.719c-0.141,0-0.281-0.06-0.38-0.175c-0.846-0.989-1.756-1.957-2.707-2.877c-0.198-0.192-0.204-0.509-0.012-0.707
				c0.193-0.199,0.51-0.203,0.707-0.012c0.974,0.942,1.906,1.934,2.771,2.947c0.18,0.21,0.155,0.525-0.055,0.705
				C379.572,146.68,379.457,146.719,379.341,146.719z M123.14,142.767c-0.105,0-0.211-0.033-0.301-0.102
				c-0.22-0.167-0.264-0.48-0.097-0.7c0.817-1.08,1.695-2.122,2.608-3.098c0.188-0.202,0.505-0.212,0.707-0.023
				c0.202,0.189,0.212,0.505,0.023,0.707c-0.89,0.951-1.745,1.966-2.542,3.018C123.441,142.699,123.292,142.767,123.14,142.767z
				 M189.834,140.848c-0.096,0-0.193-0.028-0.279-0.086c-1.12-0.755-2.245-1.483-3.342-2.163c-0.235-0.145-0.307-0.454-0.162-0.688
				c0.146-0.235,0.454-0.307,0.688-0.162c1.108,0.687,2.244,1.421,3.374,2.184c0.229,0.154,0.29,0.465,0.135,0.694
				C190.152,140.771,189.994,140.848,189.834,140.848z M255.004,140.17c-0.066,0-0.134-0.013-0.199-0.041
				c-0.253-0.11-0.369-0.404-0.26-0.658l1.591-3.67c0.11-0.253,0.401-0.37,0.658-0.26c0.253,0.11,0.369,0.404,0.26,0.658
				l-1.591,3.67C255.38,140.057,255.197,140.17,255.004,140.17z M372.016,139.944c-0.104,0-0.207-0.031-0.296-0.097
				c-1.053-0.773-2.159-1.511-3.289-2.196c-0.235-0.144-0.311-0.451-0.168-0.687c0.143-0.235,0.449-0.312,0.688-0.169
				c1.153,0.7,2.284,1.455,3.361,2.245c0.223,0.164,0.271,0.476,0.107,0.699C372.322,139.873,372.17,139.944,372.016,139.944z
				 M320.698,136.107l-0.077-0.499v-0.5c1.228-0.022,2.46-0.203,3.826-0.551c0.271-0.07,0.54,0.093,0.608,0.361
				c0.068,0.268-0.093,0.54-0.36,0.608C323.252,135.893,321.945,136.084,320.698,136.107z M181.275,135.685
				c-0.079,0-0.159-0.019-0.233-0.058c-1.189-0.629-2.386-1.225-3.558-1.769c-0.25-0.116-0.359-0.414-0.243-0.664
				c0.117-0.251,0.414-0.361,0.664-0.243c1.188,0.552,2.401,1.154,3.605,1.792c0.244,0.129,0.337,0.432,0.208,0.676
				C181.627,135.588,181.454,135.685,181.275,135.685z M130.153,135.682c-0.15,0-0.299-0.067-0.398-0.196
				c-0.168-0.219-0.126-0.533,0.093-0.701c1.078-0.826,2.206-1.593,3.354-2.278c0.237-0.142,0.543-0.064,0.686,0.173
				c0.142,0.237,0.064,0.544-0.173,0.686c-1.115,0.666-2.212,1.411-3.259,2.214C130.366,135.648,130.259,135.682,130.153,135.682z
				 M363.375,134.952c-0.067,0-0.137-0.014-0.202-0.043c-1.202-0.531-2.441-1.018-3.684-1.446c-0.261-0.09-0.399-0.374-0.31-0.636
				c0.091-0.261,0.376-0.4,0.636-0.31c1.268,0.438,2.534,0.935,3.762,1.478c0.253,0.111,0.367,0.407,0.255,0.659
				C363.75,134.842,363.566,134.952,363.375,134.952z M314.787,134.943c-0.066,0-0.132-0.013-0.195-0.04
				c-1.197-0.507-2.396-1.188-3.566-2.02c-0.225-0.16-0.277-0.473-0.117-0.697c0.161-0.225,0.474-0.276,0.697-0.117
				c1.11,0.791,2.246,1.435,3.377,1.914c0.254,0.108,0.373,0.401,0.265,0.656C315.167,134.829,314.981,134.943,314.787,134.943z
				 M330.255,133.629c-0.204,0-0.396-0.126-0.47-0.329c-0.095-0.259,0.039-0.546,0.299-0.641c0.567-0.207,1.136-0.41,1.707-0.601
				c0.707-0.237,1.419-0.453,2.135-0.648c0.27-0.075,0.542,0.085,0.614,0.351c0.072,0.266-0.084,0.541-0.351,0.614
				c-0.698,0.191-1.393,0.4-2.081,0.631c-0.563,0.188-1.123,0.388-1.683,0.592C330.371,133.619,330.312,133.629,330.255,133.629z
				 M353.871,131.904c-0.034,0-0.068-0.003-0.102-0.01c-1.292-0.267-2.605-0.478-3.905-0.629c-0.274-0.032-0.471-0.28-0.439-0.554
				c0.033-0.275,0.287-0.474,0.555-0.439c1.328,0.154,2.671,0.37,3.991,0.642c0.27,0.056,0.445,0.32,0.389,0.591
				C354.311,131.742,354.102,131.904,353.871,131.904z M172.151,131.613c-0.057,0-0.114-0.009-0.17-0.03
				c-1.241-0.449-2.51-0.861-3.772-1.223c-0.265-0.076-0.418-0.353-0.342-0.619c0.076-0.266,0.348-0.42,0.619-0.342
				c1.283,0.368,2.574,0.787,3.836,1.244c0.259,0.094,0.394,0.381,0.3,0.641C172.548,131.487,172.356,131.613,172.151,131.613z
				 M339.942,131.257c-0.25,0-0.466-0.188-0.496-0.442c-0.031-0.274,0.165-0.523,0.439-0.555c1.329-0.155,2.688-0.249,4.036-0.277
				c0.004,0,0.008,0,0.011,0c0.272,0,0.494,0.217,0.5,0.489c0.006,0.276-0.213,0.505-0.489,0.511
				c-1.317,0.028-2.645,0.119-3.942,0.271C339.981,131.256,339.962,131.257,339.942,131.257z M258.981,130.995
				c-0.066,0-0.134-0.013-0.199-0.041c-0.253-0.11-0.369-0.404-0.26-0.658l1.591-3.67c0.11-0.253,0.401-0.371,0.658-0.26
				c0.253,0.109,0.369,0.404,0.26,0.657l-1.591,3.67C259.358,130.883,259.174,130.995,258.981,130.995z M138.858,130.837
				c-0.202,0-0.392-0.123-0.468-0.323c-0.098-0.258,0.032-0.547,0.291-0.645c1.248-0.473,2.546-0.888,3.858-1.233
				c0.268-0.069,0.54,0.089,0.611,0.356c0.07,0.267-0.089,0.541-0.356,0.611c-1.278,0.337-2.542,0.741-3.758,1.202
				C138.977,130.827,138.917,130.837,138.858,130.837z M162.505,129.029c-0.028,0-0.058-0.002-0.087-0.007
				c-1.305-0.229-2.625-0.41-3.925-0.539c-0.275-0.027-0.476-0.272-0.448-0.547c0.027-0.274,0.279-0.469,0.547-0.448
				c1.325,0.131,2.67,0.316,3.999,0.549c0.272,0.048,0.454,0.307,0.406,0.579C162.954,128.858,162.743,129.029,162.505,129.029z
				 M306.87,128.962c-0.136,0-0.27-0.055-0.369-0.163c-0.853-0.934-1.701-1.948-2.592-3.101c-0.169-0.219-0.129-0.533,0.09-0.702
				c0.217-0.167,0.531-0.129,0.701,0.09c0.874,1.131,1.704,2.125,2.539,3.038c0.186,0.204,0.172,0.52-0.031,0.707
				C307.111,128.918,306.991,128.962,306.87,128.962z M148.56,128.525c-0.251,0-0.468-0.189-0.497-0.444
				c-0.031-0.274,0.167-0.522,0.441-0.553c1.319-0.148,2.676-0.24,4.034-0.272c0.256-0.023,0.505,0.212,0.512,0.488
				c0.006,0.276-0.212,0.505-0.488,0.512c-1.328,0.031-2.655,0.121-3.945,0.267C148.597,128.524,148.578,128.525,148.56,128.525z
				 M262.958,121.821c-0.066,0-0.134-0.013-0.198-0.041c-0.254-0.11-0.37-0.404-0.261-0.658l0.934-2.153
				c0.22-0.504,0.442-1.011,0.671-1.519c0.112-0.252,0.409-0.365,0.661-0.251c0.252,0.113,0.364,0.409,0.251,0.661
				c-0.227,0.505-0.447,1.01-0.666,1.509l-0.933,2.151C263.335,121.708,263.151,121.821,262.958,121.821z M300.83,121
				c-0.161,0-0.319-0.078-0.416-0.223c-0.54-0.81-1.066-1.617-1.582-2.409c-0.201-0.309-0.405-0.619-0.616-0.929
				c-0.155-0.228-0.097-0.54,0.132-0.695c0.227-0.153,0.538-0.097,0.694,0.132c0.215,0.316,0.424,0.631,0.628,0.946
				c0.514,0.788,1.038,1.592,1.576,2.399c0.153,0.23,0.091,0.54-0.139,0.693C301.022,120.973,300.925,121,300.83,121z
				 M294.98,112.896c-0.14,0-0.278-0.058-0.377-0.172c-0.896-1.03-1.816-1.988-2.735-2.848c-0.201-0.188-0.212-0.505-0.023-0.707
				c0.189-0.202,0.505-0.212,0.707-0.024c0.943,0.883,1.888,1.866,2.806,2.922c0.182,0.208,0.159,0.524-0.049,0.706
				C295.214,112.855,295.096,112.896,294.98,112.896z M267.28,112.807c-0.088,0-0.176-0.023-0.257-0.071
				c-0.236-0.142-0.315-0.449-0.172-0.686c0.761-1.273,1.522-2.366,2.327-3.341c0.176-0.213,0.492-0.242,0.704-0.067
				c0.213,0.176,0.243,0.491,0.067,0.704c-0.772,0.936-1.506,1.988-2.241,3.218C267.616,112.72,267.45,112.807,267.28,112.807z
				 M287.437,106.394c-0.086,0-0.172-0.022-0.251-0.068c-1.186-0.688-2.377-1.218-3.542-1.575c-0.264-0.081-0.412-0.36-0.332-0.624
				c0.081-0.264,0.356-0.415,0.625-0.332c1.237,0.379,2.5,0.94,3.751,1.667c0.239,0.139,0.32,0.444,0.182,0.683
				C287.777,106.305,287.609,106.394,287.437,106.394z M274.106,105.668c-0.178,0-0.35-0.095-0.439-0.262
				c-0.132-0.243-0.041-0.546,0.201-0.678c0.695-0.375,1.423-0.688,2.165-0.928c0.571-0.186,1.158-0.332,1.745-0.435
				c0.258-0.045,0.53,0.134,0.578,0.406c0.048,0.272-0.134,0.531-0.406,0.579c-0.54,0.095-1.081,0.229-1.608,0.401
				c-0.685,0.222-1.356,0.51-1.997,0.857C274.268,105.648,274.187,105.668,274.106,105.668z"/>
		</g>
		<g>
			<g>
				<path style="fill:#FCA475;" d="M339.286,169.436c1.688-1.688,7.313-3.179,8.866-4.011c1.553-0.832,2.653-2.519,3.754-3.62
					c1.1-1.101,2.005-2.201,2.005-2.984c0-0.783-0.623-1.174-0.623-1.174c1.241-1.241,5.001-3.595,3.9-4.696
					c-1.1-1.1-6.83,4.353-6.83,4.353c0.325-1.663-2.206-0.685-2.206-0.685c0.281-1.419-2.409-0.587-2.409-0.587
					c0-1.272-2.666,0.514-3.717,1.565c-1.052,1.052-1.565,1.761-1.565,2.788c0,1.027-4.793,5.185-4.793,5.185
					C336.498,168.262,339.286,169.436,339.286,169.436z"/>
				<g>
					<path style="fill:#E07E58;" d="M348.993,161.447c-0.059,0-0.116-0.02-0.164-0.061c-0.104-0.09-0.115-0.249-0.025-0.353
						c1.019-1.172,2.183-2.213,3.457-3.094c0.317-0.22,0.656-0.413,1.053-0.318c0.296,0.071,0.548,0.31,0.675,0.64
						c0.103,0.27,0.111,0.557,0.111,0.805c0,0.138-0.112,0.25-0.25,0.25s-0.25-0.112-0.25-0.25c0-0.212-0.006-0.436-0.078-0.626
						c-0.052-0.135-0.165-0.294-0.324-0.332c-0.196-0.043-0.429,0.089-0.652,0.243c-1.24,0.857-2.372,1.871-3.364,3.011
						C349.132,161.418,349.062,161.447,348.993,161.447z"/>
				</g>
				<g>
					<path style="fill:#E07E58;" d="M346.658,162.061c-0.153,0-0.302-0.031-0.434-0.094c-0.388-0.184-0.591-0.637-0.452-1.011
						c0.048-0.13,0.194-0.195,0.321-0.147c0.129,0.048,0.195,0.192,0.147,0.321c-0.048,0.13,0.046,0.313,0.196,0.385
						c0.163,0.077,0.388,0.055,0.588-0.052c0.215-0.115,0.393-0.308,0.553-0.499c0.454-0.544,0.839-1.164,1.21-1.763
						c0.262-0.42,0.531-0.855,0.826-1.267l0.051-0.071c0.156-0.215,0.303-0.419,0.371-0.643c0.06-0.194,0.051-0.452-0.103-0.589
						c-0.127-0.113-0.352-0.143-0.67-0.09c-0.345,0.057-0.679,0.162-0.992,0.311c-0.125,0.06-0.272,0.007-0.333-0.118
						c-0.059-0.125-0.007-0.274,0.118-0.333c0.356-0.169,0.735-0.288,1.125-0.352c0.482-0.08,0.837-0.01,1.084,0.21
						c0.28,0.25,0.378,0.685,0.249,1.108c-0.093,0.304-0.271,0.551-0.444,0.79l-0.05,0.07c-0.285,0.398-0.551,0.826-0.807,1.239
						c-0.382,0.615-0.775,1.25-1.253,1.82c-0.192,0.23-0.41,0.465-0.7,0.62C347.066,162.009,346.858,162.061,346.658,162.061z"/>
				</g>
				<g>
					<path style="fill:#E07E58;" d="M344.921,161.824c-0.014,0-0.027,0-0.041,0c-0.491-0.014-1.017-0.341-1.046-0.864
						c-0.007-0.138,0.099-0.256,0.236-0.263c0.132-0.016,0.255,0.098,0.264,0.236c0.012,0.222,0.305,0.384,0.56,0.392
						c0.113,0.001,0.274-0.012,0.412-0.099c0.154-0.099,0.264-0.281,0.38-0.475l0.033-0.055c0.221-0.364,0.472-0.711,0.714-1.047
						c0.235-0.327,0.479-0.665,0.689-1.011c0.487-0.802,0.701-1.542,0.638-2.2c-0.013-0.139-0.041-0.227-0.085-0.268
						c-0.065-0.062-0.217-0.067-0.345-0.063c-0.495,0.014-0.99,0.078-1.472,0.191c-0.139,0.037-0.27-0.052-0.301-0.186
						c-0.032-0.134,0.052-0.269,0.186-0.3c0.516-0.121,1.045-0.19,1.573-0.205c0.157,0,0.479-0.012,0.701,0.199
						c0.182,0.171,0.224,0.415,0.24,0.584c0.074,0.767-0.164,1.61-0.708,2.507c-0.221,0.363-0.471,0.71-0.712,1.044
						c-0.236,0.328-0.481,0.667-0.691,1.014c-0.166,0.277-0.318,0.53-0.572,0.692C345.391,161.764,345.167,161.824,344.921,161.824z
						"/>
				</g>
				<g>
					<path style="fill:#E07E58;" d="M343.181,161.336c-0.05,0-0.1-0.003-0.149-0.01c-0.078-0.01-0.193-0.035-0.285-0.126
						c-0.074-0.069-0.105-0.159-0.126-0.237c-0.143-0.542-0.052-1.09,0.055-1.606c0.124-0.593,0.272-1.18,0.42-1.766
						c0.033-0.134,0.173-0.213,0.304-0.181c0.134,0.034,0.215,0.169,0.181,0.304c-0.146,0.58-0.292,1.16-0.414,1.745
						c-0.095,0.457-0.177,0.94-0.062,1.377c0.259,0.032,0.541-0.092,0.775-0.33c0.228-0.232,0.386-0.541,0.54-0.865
						c0.517-1.078,0.985-2.238,0.919-3.424c-0.01-0.179-0.053-0.276-0.091-0.292c-0.029-0.014-0.103-0.006-0.13-0.004
						c-0.489,0.042-0.96,0.247-1.324,0.578c-0.103,0.093-0.261,0.084-0.353-0.017c-0.093-0.102-0.085-0.26,0.018-0.353
						c0.444-0.404,1.02-0.654,1.618-0.706c0.115-0.01,0.242-0.012,0.369,0.043c0.24,0.103,0.373,0.347,0.393,0.724
						c0.071,1.297-0.423,2.529-0.968,3.667c-0.174,0.363-0.353,0.713-0.635,1C343.933,161.163,343.548,161.336,343.181,161.336z"/>
				</g>
			</g>
			<path style="fill:#FCA676;" d="M325.444,384.751v10.027c3.913,1.614,7.777,0.196,7.777,0.196l0.783-9.44L325.444,384.751z"/>
			
				<linearGradient id="SVGID_00000134239374173540530490000006107338848147750789_" gradientUnits="userSpaceOnUse" x1="308.8276" y1="396.9863" x2="336.3311" y2="405.9411">
				<stop  offset="0" style="stop-color:#263681"/>
				<stop  offset="0.9959" style="stop-color:#1A1248"/>
			</linearGradient>
			<path style="fill:url(#SVGID_00000134239374173540530490000006107338848147750789_);" d="M308.569,406.713
				c-2.005,0-3.717-2.152-0.293-4.255c3.424-2.103,17.168-7.679,17.168-7.679c2.054,1.125,7.777,0.196,7.777,0.196
				s2.837,7.386,3.424,9c0.587,1.614-1.418,2.201-4.842,2.201C328.379,406.175,308.569,406.713,308.569,406.713z"/>
			<path style="fill:#FCA676;" d="M352.296,385.582l0.772,9.982c4.037,1.607,7.792,0.195,7.792,0.195l0.056-9.397L352.296,385.582z"
				/>
			
				<linearGradient id="SVGID_00000088125916097993004150000015976886172138167217_" gradientUnits="userSpaceOnUse" x1="336.5111" y1="397.7689" x2="364.0147" y2="406.7237">
				<stop  offset="0" style="stop-color:#263681"/>
				<stop  offset="0.9959" style="stop-color:#1A1248"/>
			</linearGradient>
			<path style="fill:url(#SVGID_00000088125916097993004150000015976886172138167217_);" d="M336.252,407.495
				c-2.005,0-3.717-2.152-0.293-4.255c3.424-2.103,17.168-7.679,17.168-7.679c2.054,1.125,7.777,0.196,7.777,0.196
				s2.837,7.386,3.424,9c0.587,1.614-1.418,2.201-4.842,2.201C356.062,406.957,336.252,407.495,336.252,407.495z"/>
			
				<linearGradient id="SVGID_00000106131127869694790210000006133908631393174194_" gradientUnits="userSpaceOnUse" x1="317.63" y1="322.4726" x2="378.5276" y2="342.3002">
				<stop  offset="0" style="stop-color:#263681"/>
				<stop  offset="0.9959" style="stop-color:#1A1248"/>
			</linearGradient>
			<path style="fill:url(#SVGID_00000106131127869694790210000006133908631393174194_);" d="M334.536,271.071
				c-3.913,7.826-12.81,57.284-12.81,65.852c0,8.567,2.397,55.212,2.397,55.212l10.999,0.868c0,0,2.517-54.557,3.952-58.339
				c1.435-3.783,4.435-10.205,4.435-10.205s5.283,50.575,6.196,55.792c0.913,5.217,2.591,13.614,2.591,13.614l9.783-1.043
				c0,0-0.7-51.766-0.178-59.853c0.522-8.087,7.18-51.835,7.18-60.73C364.825,267.983,339.101,268.462,334.536,271.071z"/>
			
				<linearGradient id="SVGID_00000108272062633611096770000006239542728479785358_" gradientUnits="userSpaceOnUse" x1="313.5696" y1="165.1708" x2="344.6065" y2="223.5932">
				<stop  offset="0" style="stop-color:#9571CB"/>
				<stop  offset="0.9959" style="stop-color:#6237C0"/>
			</linearGradient>
			<path style="fill:url(#SVGID_00000108272062633611096770000006239542728479785358_);" d="M351.752,203.561
				c-4.224-3.138-21.678-8.93-26.113-10.848c-4.435-1.919-5.739-3.223-5.739-3.223l20.087-20.087
				c-4.957-2.739-3.783-4.565-3.783-4.565c-16.435,11.348-31.043,21.261-31.826,24.261s-1.174,5.348,6.13,9.522
				c7.304,4.174,28.304,18.391,33,18.391C348.205,217.012,357.535,207.857,351.752,203.561z"/>
			
				<linearGradient id="SVGID_00000114048380408345900900000008077942069434339233_" gradientUnits="userSpaceOnUse" x1="434.4243" y1="643.3447" x2="433.7006" y2="634.0576" gradientTransform="matrix(0.9615 0.275 -0.275 0.9615 119.7385 -536.9753)">
				<stop  offset="0" style="stop-color:#FFC085"/>
				<stop  offset="1" style="stop-color:#FA976E"/>
			</linearGradient>
			<path style="fill:url(#SVGID_00000114048380408345900900000008077942069434339233_);" d="M372.528,185.622
				c-2.474,4.373-6.118,16.127-6.118,16.127c-8.375,0.992-13.221-1.147-14.277-3.048l4.862-12.064L372.528,185.622z"/>
			
				<linearGradient id="SVGID_00000095305040097202800780000001365179649019680447_" gradientUnits="userSpaceOnUse" x1="437.735" y1="675.3969" x2="462.8053" y2="675.3969" gradientTransform="matrix(0.9509 0.3096 -0.3096 0.9509 145.0538 -603.2999)">
				<stop  offset="0" style="stop-color:#FFC085"/>
				<stop  offset="1" style="stop-color:#FA976E"/>
			</linearGradient>
			<path style="fill:url(#SVGID_00000095305040097202800780000001365179649019680447_);" d="M362.424,161.62
				c-5.402,1.891-7.583,5.244-10.863,14.878c-2.147,6.308-5.002,14.81-2.322,15.683c4.602,1.498,16.232-0.195,21.657-4.716
				c5.425-4.522,8.526-12.944,7.631-17.368C377.632,165.673,370.534,158.781,362.424,161.62z"/>
			
				<linearGradient id="SVGID_00000113352135818160448610000003100855995848967331_" gradientUnits="userSpaceOnUse" x1="435.0549" y1="672.4778" x2="466.2416" y2="672.4778" gradientTransform="matrix(0.9509 0.3096 -0.3096 0.9509 145.0538 -603.2999)">
				<stop  offset="0" style="stop-color:#263681"/>
				<stop  offset="0.9959" style="stop-color:#1A1248"/>
			</linearGradient>
			<path style="fill:url(#SVGID_00000113352135818160448610000003100855995848967331_);" d="M364.813,178.532
				c0.88-1.376,2.478-2.212,4.091-1.956c1.535,0.243,2.684,1.316,1.591,3.661c-1.987,4.264-4.142,4.328-4.486,5.385
				c-0.344,1.057-1.039,4.361-0.196,6.02c0.844,1.658,2.843,3.841,3.065,3.913s2.697-9.479,7.147-12.524
				c3.239-0.383,4.97-2.489,4.852-6.54c2.465-2.108,1.985-7.199-1.86-8.451c-0.484-7.344-7.185-10.304-10.052-8.303
				c-5.232-7.442-19.97-1.47-14.465,7.447c2.575,4.172,8.326,0.555,8.326,0.555c0.816,3.38,4.432,2.94,4.432,2.94
				c-3.912,4.475-4.148,7.992-3.438,8.462C364.155,179.364,364.521,178.99,364.813,178.532z"/>
			
				<linearGradient id="SVGID_00000039113598051888964620000003022421102944970670_" gradientUnits="userSpaceOnUse" x1="354.1702" y1="201.8034" x2="353.1919" y2="246.999">
				<stop  offset="0" style="stop-color:#9571CB"/>
				<stop  offset="0.9959" style="stop-color:#6237C0"/>
			</linearGradient>
			<path style="fill:url(#SVGID_00000039113598051888964620000003022421102944970670_);" d="M366.579,201.212
				c-9.065,1.685-14.446-2.51-14.446-2.51s-10.192,3.816-13.597,13.597c-6.635,19.06-4,42.598-4,58.772
				c0,0,25.675-1.103,34.544,3.854c0,0,5.466-53.348,3.447-60.913S369.709,204.342,366.579,201.212z"/>
			<path style="fill:#FFFFFF;" d="M352.345,198.884c-1.367,1.032-2.89,3.152-1.706,3.837c1.185,0.685,14.452,0.344,16.739-0.953
				c-0.32-1.134-0.828-1.182-0.828-1.182C363.301,200.406,353.611,199.515,352.345,198.884z"/>
			<g>
				<path style="fill:#FCA475;" d="M372.528,270.881c-1.497-0.522-2.018-2.217-4.562-2.217c-2.543,0-5.959,1.557-6.693,1.557
					c-0.734,0-1.541,1.711-0.318,2.017c-0.171,0-7.606,2.091-7.606,2.091s-1.614,0.563-1.394,1.541
					c0.22,0.978,1.492,0.905,1.492,0.905c-1.272,0.073-2.073,1.641-1.513,2.201c0.561,0.561,1.928,0.22,1.928,0.22
					c-1.076,0.391-0.929,1.639-0.024,2.054c0.905,0.416,3.253-0.245,3.253-0.245c-1.052,0.391-0.734,2.081,0.856,1.909
					c1.59-0.172,6.986-1.86,8.519-2.088c1.533-0.228,6.799-3.701,7.663-4.565c0.864-0.864,1.663-2.217,1.663-2.217
					S374.676,270.359,372.528,270.881z"/>
				<g>
					<path style="fill:#E07E58;" d="M361.305,272.514c-0.087,0-0.174-0.004-0.261-0.011c-0.174-0.014-0.396-0.047-0.579-0.182
						c-0.247-0.179-0.376-0.499-0.355-0.879c0.03-0.531,0.331-1.034,0.784-1.311c0.118-0.071,0.272-0.035,0.344,0.082
						c0.072,0.118,0.035,0.272-0.082,0.344c-0.311,0.19-0.525,0.549-0.546,0.913c-0.009,0.157,0.025,0.358,0.15,0.448
						c0.082,0.06,0.21,0.077,0.323,0.087c0.675,0.054,1.33-0.146,2.026-0.357c0.544-0.165,1.106-0.336,1.69-0.381
						c0.149-0.024,0.259,0.093,0.268,0.229c0.011,0.138-0.092,0.258-0.229,0.269c-0.529,0.041-1.041,0.196-1.583,0.361
						C362.627,272.317,361.979,272.514,361.305,272.514z"/>
				</g>
				<g>
					<path style="fill:#E07E58;" d="M353.784,276.947c-0.256,0-0.517-0.021-0.778-0.075c-0.199-0.042-0.41-0.098-0.601-0.215
						c-0.494-0.304-0.698-0.979-0.453-1.506c0.058-0.124,0.208-0.178,0.332-0.121c0.125,0.058,0.18,0.207,0.121,0.332
						c-0.136,0.294-0.014,0.699,0.262,0.869c0.126,0.077,0.286,0.118,0.441,0.151c0.613,0.125,1.255,0.044,1.804-0.055
						c0.257-0.046,0.464-0.072,0.657-0.097c0.262-0.033,0.487-0.063,0.777-0.134c1.055-0.257,2.305-0.644,3.521-1.092
						c0.129-0.05,0.272,0.019,0.32,0.148c0.048,0.129-0.019,0.272-0.148,0.32c-1.232,0.454-2.502,0.848-3.573,1.109
						c-0.318,0.077-0.568,0.109-0.833,0.143c-0.186,0.024-0.386,0.05-0.633,0.094C354.628,276.886,354.214,276.947,353.784,276.947z
						"/>
				</g>
				<g>
					<path style="fill:#E07E58;" d="M353.086,279.423c-0.083,0-0.167-0.004-0.251-0.015c-0.442-0.053-0.813-0.267-1.015-0.586
						c-0.233-0.371-0.23-0.882,0.009-1.302c0.188-0.332,0.513-0.609,0.938-0.803c0.121-0.059,0.273-0.002,0.331,0.124
						s0.002,0.274-0.124,0.331c-0.229,0.105-0.538,0.292-0.709,0.594c-0.147,0.259-0.155,0.575-0.021,0.789
						c0.119,0.189,0.363,0.322,0.651,0.356c0.284,0.033,0.578-0.017,0.904-0.081c0.597-0.118,1.244-0.226,1.878-0.331
						c0.346-0.057,0.686-0.113,1.014-0.171c1.73-0.304,3.087-0.592,4.501-1.09c0.131-0.048,0.272,0.022,0.318,0.152
						c0.046,0.13-0.022,0.272-0.152,0.318c-1.446,0.511-2.825,0.804-4.581,1.111c-0.328,0.058-0.671,0.114-1.018,0.172
						c-0.629,0.104-1.271,0.212-1.862,0.328C353.625,279.375,353.356,279.423,353.086,279.423z"/>
				</g>
				<g>
					<path style="fill:#E07E58;" d="M355.031,281.617c-0.23,0-0.461-0.018-0.692-0.057c-0.599-0.1-1.011-0.314-1.26-0.654
						c-0.205-0.282-0.271-0.655-0.178-1.023c0.092-0.368,0.324-0.667,0.638-0.818c0.123-0.061,0.274-0.009,0.334,0.115
						c0.061,0.125,0.009,0.274-0.115,0.334c-0.178,0.086-0.316,0.27-0.372,0.49c-0.055,0.221-0.019,0.448,0.098,0.607
						c0.167,0.229,0.475,0.379,0.938,0.457c0.918,0.153,1.826-0.079,2.786-0.324c0.262-0.066,0.522-0.134,0.784-0.192
						c1.404-0.314,2.722-0.67,3.812-1.027c0.137-0.045,0.273,0.028,0.315,0.159c0.043,0.132-0.028,0.272-0.159,0.315
						c-1.104,0.362-2.439,0.723-3.858,1.041c-0.257,0.058-0.513,0.123-0.77,0.188C356.582,281.42,355.813,281.617,355.031,281.617z"
						/>
				</g>
				<g>
					<path style="fill:#E07E58;" d="M358.037,283.105c-0.202,0-0.404-0.02-0.608-0.066c-0.478-0.108-0.856-0.361-1.068-0.71
						c-0.266-0.441-0.21-1.017,0.129-1.342c0.101-0.094,0.259-0.093,0.353,0.008c0.096,0.1,0.092,0.258-0.008,0.353
						c-0.168,0.161-0.19,0.484-0.047,0.722c0.139,0.229,0.413,0.404,0.753,0.481c0.615,0.143,1.293-0.032,1.892-0.186l3.92-1.014
						c0.134-0.03,0.271,0.047,0.305,0.18c0.034,0.134-0.046,0.27-0.18,0.305l-3.92,1.014
						C359.085,282.971,358.566,283.105,358.037,283.105z"/>
				</g>
			</g>
			
				<linearGradient id="SVGID_00000159459724734522868840000003003742865161445567_" gradientUnits="userSpaceOnUse" x1="381.6415" y1="196.7808" x2="379.098" y2="272.1071">
				<stop  offset="0" style="stop-color:#9571CB"/>
				<stop  offset="0.9959" style="stop-color:#6237C0"/>
			</linearGradient>
			<path style="fill:url(#SVGID_00000159459724734522868840000003003742865161445567_);" d="M367.842,203.561
				c-7.65-1.557-12.854,11.102-4.426,18.567c6.018,5.329,24.962,22.275,24.962,22.275l-15.851,26.478
				c3.329,1.435,2.938,4.044,2.938,4.044s25.826-27.783,26.478-29.739c0.652-1.956-1.957-7.696-6.652-12.391
				C390.596,228.099,376.248,205.273,367.842,203.561z"/>
			<g>
				<path style="fill:#3C4FA0;" d="M345.669,342.225c-0.118,0-0.224-0.084-0.246-0.204c-2.267-12.142-4.747-50.262-4.771-50.645
					c-0.01-0.139,0.095-0.257,0.232-0.266c0.162-0.024,0.258,0.096,0.266,0.232c0.025,0.384,2.504,38.474,4.766,50.586
					c0.025,0.136-0.065,0.267-0.2,0.292C345.699,342.224,345.683,342.225,345.669,342.225z"/>
			</g>
			
				<linearGradient id="SVGID_00000075861958228554508500000004967590553115197064_" gradientUnits="userSpaceOnUse" x1="399.3192" y1="455.0272" x2="386.4983" y2="490.4424" gradientTransform="matrix(0.9833 0.1817 -0.1817 0.9833 61.2502 -362.791)">
				<stop  offset="0" style="stop-color:#263681"/>
				<stop  offset="0.9959" style="stop-color:#1A1248"/>
			</linearGradient>
			<path style="fill:url(#SVGID_00000075861958228554508500000004967590553115197064_);" d="M350.224,178.97
				c1.736-0.534,3.661,1.389,4.671,2.858c1.011,1.469,4.246,1.26,8.995-5.331l1.111,1.702c-2.707,4.071-4.449,13.085-6.149,13.766
				c-1.7,0.682-7.21,1.587-9.811,0.625c-2.601-0.962-2.802-2.762-2.287-5.552C347.271,184.248,349.386,180.044,350.224,178.97z"/>
			
				<linearGradient id="SVGID_00000066492929675776826570000004175714198768327854_" gradientUnits="userSpaceOnUse" x1="348.9275" y1="182.5951" x2="353.4645" y2="182.5951">
				<stop  offset="0" style="stop-color:#FFC085"/>
				<stop  offset="1" style="stop-color:#FA976E"/>
			</linearGradient>
			<path style="fill:url(#SVGID_00000066492929675776826570000004175714198768327854_);" d="M349.847,181.029
				c1.149,0.656,3.859,1.545,3.6,2.143c-0.685,1.581-4.172,1.033-4.456-0.009C348.706,182.122,349.456,181.225,349.847,181.029z"/>
			<g>
				<path style="fill:#50448C;" d="M388.044,244.863c-0.098,0-0.196-0.038-0.27-0.114c-6.213-6.417-12.967-12.407-20.075-17.805
					l-0.248-0.188c-3.431-2.604-6.978-5.295-8.304-9.37c-0.064-0.197,0.044-0.409,0.24-0.473c0.201-0.064,0.408,0.044,0.473,0.24
					c1.253,3.852,4.705,6.472,8.044,9.005l0.248,0.188c7.139,5.421,13.922,11.437,20.161,17.881c0.144,0.149,0.14,0.386-0.009,0.53
					C388.232,244.827,388.137,244.863,388.044,244.863z"/>
			</g>
		</g>
		<g>
			<g>
				
					<linearGradient id="SVGID_00000124854512945251299930000008008794885291995018_" gradientUnits="userSpaceOnUse" x1="191.6879" y1="115.9708" x2="192.1225" y2="198.1422">
					<stop  offset="0" style="stop-color:#9571CB"/>
					<stop  offset="0.9959" style="stop-color:#6237C0"/>
				</linearGradient>
				<circle style="fill:url(#SVGID_00000124854512945251299930000008008794885291995018_);" cx="191.918" cy="159.57" r="39.952"/>
				
					<linearGradient id="SVGID_00000088106914625398889880000014195033798553351825_" gradientUnits="userSpaceOnUse" x1="191.7199" y1="122.0315" x2="192.0942" y2="192.7804">
					<stop  offset="0" style="stop-color:#F5F0FF"/>
					<stop  offset="0.9959" style="stop-color:#D2C1F7"/>
				</linearGradient>
				<circle style="fill:url(#SVGID_00000088106914625398889880000014195033798553351825_);" cx="191.918" cy="159.57" r="34.399"/>
				<g>
					<g>
						
							<linearGradient id="SVGID_00000101093368823845380950000005795178784329227420_" gradientUnits="userSpaceOnUse" x1="192.8883" y1="159.8877" x2="190.4605" y2="144.0357">
							<stop  offset="0" style="stop-color:#263681"/>
							<stop  offset="0.9959" style="stop-color:#1A1248"/>
						</linearGradient>
						<path style="fill:url(#SVGID_00000101093368823845380950000005795178784329227420_);" d="M201.628,158.801h-19.419v-10
							c0-3.521,2.854-6.375,6.375-6.375h6.668c3.521,0,6.375,2.854,6.375,6.375V158.801z"/>
						
							<linearGradient id="SVGID_00000072270190009553973630000000963396058482113179_" gradientUnits="userSpaceOnUse" x1="191.9186" y1="134.9143" x2="191.9186" y2="149.1769">
							<stop  offset="0" style="stop-color:#FFC085"/>
							<stop  offset="1" style="stop-color:#FA976E"/>
						</linearGradient>
						<path style="fill:url(#SVGID_00000072270190009553973630000000963396058482113179_);" d="M197.608,140.322
							c0,1.328-0.46,2.555-1.226,3.525c-1.044,1.314-2.657,2.161-4.467,2.161c-1.81,0-3.423-0.847-4.46-2.161
							c-0.766-0.971-1.226-2.197-1.226-3.525c0-0.657,0.109-1.285,0.314-1.869c0.212-0.606,0.518-1.168,0.912-1.664
							c1.036-1.314,2.65-2.161,4.46-2.161c1.81,0,3.423,0.847,4.467,2.161c0.394,0.496,0.701,1.058,0.912,1.664
							C197.499,139.037,197.608,139.665,197.608,140.322z"/>
					</g>
					<g>
						<g>
							
								<linearGradient id="SVGID_00000114783348835246534570000018084726191015886240_" gradientUnits="userSpaceOnUse" x1="177.4554" y1="147.7189" x2="171.4161" y2="168.5687">
								<stop  offset="0" style="stop-color:#9571CB"/>
								<stop  offset="0.9959" style="stop-color:#6237C0"/>
							</linearGradient>
							<path style="fill:url(#SVGID_00000114783348835246534570000018084726191015886240_);" d="M183.682,165.197h-19.419v-10
								c0-3.521,2.854-6.375,6.375-6.375h6.668c3.521,0,6.375,2.854,6.375,6.375V165.197z"/>
							
								<linearGradient id="SVGID_00000003791248148495500490000011983174779165140155_" gradientUnits="userSpaceOnUse" x1="173.9729" y1="141.3107" x2="173.9729" y2="155.5734">
								<stop  offset="0" style="stop-color:#FFC085"/>
								<stop  offset="1" style="stop-color:#FA976E"/>
							</linearGradient>
							<path style="fill:url(#SVGID_00000003791248148495500490000011983174779165140155_);" d="M179.663,146.718
								c0,1.329-0.46,2.555-1.226,3.526c-1.044,1.314-2.657,2.161-4.467,2.161c-1.81,0-3.423-0.847-4.46-2.161
								c-0.766-0.971-1.226-2.197-1.226-3.526c0-0.657,0.109-1.285,0.314-1.869c0.212-0.606,0.518-1.168,0.912-1.664
								c1.036-1.314,2.65-2.161,4.46-2.161c1.81,0,3.423,0.847,4.467,2.161c0.394,0.496,0.701,1.058,0.912,1.664
								C179.553,145.434,179.663,146.061,179.663,146.718z"/>
						</g>
						<g>
							
								<linearGradient id="SVGID_00000147899731467722750530000006768747818150371263_" gradientUnits="userSpaceOnUse" x1="208.772" y1="148.807" x2="210.5002" y2="166.5823">
								<stop  offset="0.0041" style="stop-color:#F2830B"/>
								<stop  offset="1" style="stop-color:#FAAD1E"/>
							</linearGradient>
							<path style="fill:url(#SVGID_00000147899731467722750530000006768747818150371263_);" d="M219.573,165.197h-19.419v-10
								c0-3.521,2.854-6.375,6.375-6.375h6.668c3.521,0,6.375,2.854,6.375,6.375V165.197z"/>
							
								<linearGradient id="SVGID_00000018942930175594684690000005663672066028775871_" gradientUnits="userSpaceOnUse" x1="209.8642" y1="141.3107" x2="209.8642" y2="155.5734">
								<stop  offset="0" style="stop-color:#FFC085"/>
								<stop  offset="1" style="stop-color:#FA976E"/>
							</linearGradient>
							<path style="fill:url(#SVGID_00000018942930175594684690000005663672066028775871_);" d="M215.554,146.718
								c0,1.329-0.46,2.555-1.226,3.526c-1.044,1.314-2.657,2.161-4.467,2.161s-3.423-0.847-4.46-2.161
								c-0.766-0.971-1.226-2.197-1.226-3.526c0-0.657,0.109-1.285,0.314-1.869c0.212-0.606,0.518-1.168,0.912-1.664
								c1.036-1.314,2.65-2.161,4.46-2.161s3.423,0.847,4.467,2.161c0.394,0.496,0.701,1.058,0.912,1.664
								C215.444,145.434,215.554,146.061,215.554,146.718z"/>
						</g>
					</g>
					<g>
						
							<linearGradient id="SVGID_00000092437982604548042960000012135328636869040831_" gradientUnits="userSpaceOnUse" x1="192.8883" y1="172.1299" x2="190.4605" y2="156.2779">
							<stop  offset="0" style="stop-color:#9571CB"/>
							<stop  offset="0.9959" style="stop-color:#6237C0"/>
						</linearGradient>
						<path style="fill:url(#SVGID_00000092437982604548042960000012135328636869040831_);" d="M201.628,171.043h-19.419v-10
							c0-3.521,2.854-6.375,6.375-6.375h6.668c3.521,0,6.375,2.854,6.375,6.375V171.043z"/>
						
							<linearGradient id="SVGID_00000032615618405126675110000001745185712234118285_" gradientUnits="userSpaceOnUse" x1="191.9186" y1="147.1565" x2="191.9186" y2="161.4191">
							<stop  offset="0" style="stop-color:#FFC085"/>
							<stop  offset="1" style="stop-color:#FA976E"/>
						</linearGradient>
						<path style="fill:url(#SVGID_00000032615618405126675110000001745185712234118285_);" d="M197.608,152.564
							c0,1.328-0.46,2.555-1.226,3.526c-1.044,1.314-2.657,2.161-4.467,2.161c-1.81,0-3.423-0.847-4.46-2.161
							c-0.766-0.971-1.226-2.197-1.226-3.526c0-0.657,0.109-1.285,0.314-1.869c0.212-0.606,0.518-1.168,0.912-1.664
							c1.036-1.314,2.65-2.161,4.46-2.161c1.81,0,3.423,0.847,4.467,2.161c0.394,0.496,0.701,1.058,0.912,1.664
							C197.499,151.279,197.608,151.907,197.608,152.564z"/>
					</g>
					<g>
						<g>
							
								<linearGradient id="SVGID_00000150808778199321210100000001060622288636572594_" gradientUnits="userSpaceOnUse" x1="177.4554" y1="159.9611" x2="171.4161" y2="180.8109">
								<stop  offset="0.0041" style="stop-color:#F2830B"/>
								<stop  offset="1" style="stop-color:#FAAD1E"/>
							</linearGradient>
							<path style="fill:url(#SVGID_00000150808778199321210100000001060622288636572594_);" d="M183.682,177.44h-19.419v-10
								c0-3.521,2.854-6.375,6.375-6.375h6.668c3.521,0,6.375,2.854,6.375,6.375V177.44z"/>
							
								<linearGradient id="SVGID_00000054988864338191426980000012388133384895343767_" gradientUnits="userSpaceOnUse" x1="173.9729" y1="153.5529" x2="173.9729" y2="167.8156">
								<stop  offset="0" style="stop-color:#FFC085"/>
								<stop  offset="1" style="stop-color:#FA976E"/>
							</linearGradient>
							<path style="fill:url(#SVGID_00000054988864338191426980000012388133384895343767_);" d="M179.663,158.961
								c0,1.328-0.46,2.555-1.226,3.526c-1.044,1.314-2.657,2.161-4.467,2.161c-1.81,0-3.423-0.847-4.46-2.161
								c-0.766-0.971-1.226-2.197-1.226-3.526c0-0.657,0.109-1.285,0.314-1.869c0.212-0.606,0.518-1.168,0.912-1.664
								c1.036-1.314,2.65-2.161,4.46-2.161c1.81,0,3.423,0.847,4.467,2.161c0.394,0.496,0.701,1.058,0.912,1.664
								C179.553,157.676,179.663,158.304,179.663,158.961z"/>
						</g>
						<g>
							
								<linearGradient id="SVGID_00000141446303073359491220000012216169240406798237_" gradientUnits="userSpaceOnUse" x1="208.772" y1="161.0492" x2="210.5002" y2="178.8245">
								<stop  offset="0" style="stop-color:#9571CB"/>
								<stop  offset="0.9959" style="stop-color:#6237C0"/>
							</linearGradient>
							<path style="fill:url(#SVGID_00000141446303073359491220000012216169240406798237_);" d="M219.573,177.44h-19.419v-10
								c0-3.521,2.854-6.375,6.375-6.375h6.668c3.521,0,6.375,2.854,6.375,6.375V177.44z"/>
							
								<linearGradient id="SVGID_00000170959136896899287850000015097932377055458715_" gradientUnits="userSpaceOnUse" x1="209.8642" y1="153.5529" x2="209.8642" y2="167.8156">
								<stop  offset="0" style="stop-color:#FFC085"/>
								<stop  offset="1" style="stop-color:#FA976E"/>
							</linearGradient>
							<path style="fill:url(#SVGID_00000170959136896899287850000015097932377055458715_);" d="M215.554,158.961
								c0,1.328-0.46,2.555-1.226,3.526c-1.044,1.314-2.657,2.161-4.467,2.161s-3.423-0.847-4.46-2.161
								c-0.766-0.971-1.226-2.197-1.226-3.526c0-0.657,0.109-1.285,0.314-1.869c0.212-0.606,0.518-1.168,0.912-1.664
								c1.036-1.314,2.65-2.161,4.46-2.161s3.423,0.847,4.467,2.161c0.394,0.496,0.701,1.058,0.912,1.664
								C215.444,157.676,215.554,158.304,215.554,158.961z"/>
						</g>
					</g>
					<g>
						
							<linearGradient id="SVGID_00000147196802105729147960000001245294161732783508_" gradientUnits="userSpaceOnUse" x1="192.8883" y1="184.3571" x2="190.4605" y2="168.5051">
							<stop  offset="0" style="stop-color:#263681"/>
							<stop  offset="0.9959" style="stop-color:#1A1248"/>
						</linearGradient>
						<path style="fill:url(#SVGID_00000147196802105729147960000001245294161732783508_);" d="M201.628,183.27h-19.419v-10
							c0-3.521,2.854-6.375,6.375-6.375h6.668c3.521,0,6.375,2.854,6.375,6.375V183.27z"/>
						
							<linearGradient id="SVGID_00000082337507521773218100000004034352330808470206_" gradientUnits="userSpaceOnUse" x1="191.9186" y1="159.3837" x2="191.9186" y2="173.6463">
							<stop  offset="0" style="stop-color:#FFC085"/>
							<stop  offset="1" style="stop-color:#FA976E"/>
						</linearGradient>
						<path style="fill:url(#SVGID_00000082337507521773218100000004034352330808470206_);" d="M197.608,164.791
							c0,1.328-0.46,2.555-1.226,3.525c-1.044,1.314-2.657,2.161-4.467,2.161c-1.81,0-3.423-0.847-4.46-2.161
							c-0.766-0.971-1.226-2.197-1.226-3.525c0-0.657,0.109-1.285,0.314-1.869c0.212-0.606,0.518-1.168,0.912-1.664
							c1.036-1.314,2.65-2.16,4.46-2.16c1.81,0,3.423,0.847,4.467,2.16c0.394,0.496,0.701,1.058,0.912,1.664
							C197.499,163.507,197.608,164.134,197.608,164.791z"/>
					</g>
				</g>
			</g>
			<g>
				
					<linearGradient id="SVGID_00000036947688036373783100000016323696814044538270_" gradientUnits="userSpaceOnUse" x1="114.9565" y1="407.4953" x2="114.9565" y2="382.8912">
					<stop  offset="0.0041" style="stop-color:#6237C0"/>
					<stop  offset="1" style="stop-color:#9571CB"/>
				</linearGradient>
				
					<rect x="108.043" y="382.891" style="fill:url(#SVGID_00000036947688036373783100000016323696814044538270_);" width="13.826" height="24.604"/>
				
					<linearGradient id="SVGID_00000127002242499079575710000007763979448479386294_" gradientUnits="userSpaceOnUse" x1="134.5217" y1="394.329" x2="134.5217" y2="369.7248" gradientTransform="matrix(1 0 0 1.7458 0 -280.9243)">
					<stop  offset="0.0041" style="stop-color:#6237C0"/>
					<stop  offset="1" style="stop-color:#9571CB"/>
				</linearGradient>
				
					<rect x="127.609" y="364.541" style="fill:url(#SVGID_00000127002242499079575710000007763979448479386294_);" width="13.826" height="42.954"/>
				
					<linearGradient id="SVGID_00000047048018854271625070000008832965723254113920_" gradientUnits="userSpaceOnUse" x1="134.6906" y1="365.5116" x2="134.3971" y2="360.4247">
					<stop  offset="0.0041" style="stop-color:#F2830B"/>
					<stop  offset="1" style="stop-color:#FAAD1E"/>
				</linearGradient>
				
					<rect x="127.609" y="360.628" style="fill:url(#SVGID_00000047048018854271625070000008832965723254113920_);" width="13.826" height="3.913"/>
				
					<linearGradient id="SVGID_00000155105758129509008210000017918079072752145792_" gradientUnits="userSpaceOnUse" x1="154.0869" y1="396.3265" x2="154.0869" y2="371.7222" gradientTransform="matrix(1 0 0 1.5705 0 -214.9355)">
					<stop  offset="0.0041" style="stop-color:#6237C0"/>
					<stop  offset="1" style="stop-color:#9571CB"/>
				</linearGradient>
				
					<rect x="147.174" y="368.854" style="fill:url(#SVGID_00000155105758129509008210000017918079072752145792_);" width="13.826" height="38.641"/>
				
					<linearGradient id="SVGID_00000169557922824928683120000000414470084954786190_" gradientUnits="userSpaceOnUse" x1="173.6521" y1="393.6899" x2="173.6521" y2="369.0854" gradientTransform="matrix(1 0 0 1.82 0 -309.0203)">
					<stop  offset="0.0041" style="stop-color:#6237C0"/>
					<stop  offset="1" style="stop-color:#9571CB"/>
				</linearGradient>
				
					<rect x="166.739" y="362.715" style="fill:url(#SVGID_00000169557922824928683120000000414470084954786190_);" width="13.826" height="44.78"/>
				
					<linearGradient id="SVGID_00000113329117460305759550000009401473777551107733_" gradientUnits="userSpaceOnUse" x1="193.2173" y1="385.9506" x2="193.2173" y2="361.3465" gradientTransform="matrix(1 0 0 3.2938 0 -863.7488)">
					<stop  offset="0.0041" style="stop-color:#6237C0"/>
					<stop  offset="1" style="stop-color:#9571CB"/>
				</linearGradient>
				
					<rect x="186.304" y="326.454" style="fill:url(#SVGID_00000113329117460305759550000009401473777551107733_);" width="13.826" height="81.041"/>
				
					<linearGradient id="SVGID_00000106865322848492585550000002572416775348422563_" gradientUnits="userSpaceOnUse" x1="193.8397" y1="345.5251" x2="192.758" y2="326.7753">
					<stop  offset="0.0041" style="stop-color:#F2830B"/>
					<stop  offset="1" style="stop-color:#FAAD1E"/>
				</linearGradient>
				
					<rect x="186.304" y="326.454" style="fill:url(#SVGID_00000106865322848492585550000002572416775348422563_);" width="13.826" height="16.565"/>
				
					<linearGradient id="SVGID_00000176037951739508211000000008483107156177174193_" gradientUnits="userSpaceOnUse" x1="115.282" y1="392.6745" x2="114.7163" y2="382.8688">
					<stop  offset="0.0041" style="stop-color:#F2830B"/>
					<stop  offset="1" style="stop-color:#FAAD1E"/>
				</linearGradient>
				
					<rect x="108.043" y="382.891" style="fill:url(#SVGID_00000176037951739508211000000008483107156177174193_);" width="13.826" height="8.283"/>
			</g>
			<g>
				
					<linearGradient id="SVGID_00000148660234729959676570000002342324441950308246_" gradientUnits="userSpaceOnUse" x1="266.7461" y1="156.8459" x2="264.1946" y2="112.6208">
					<stop  offset="0.0041" style="stop-color:#F2830B"/>
					<stop  offset="1" style="stop-color:#FAAD1E"/>
				</linearGradient>
				<path style="fill:url(#SVGID_00000148660234729959676570000002342324441950308246_);" d="M286.467,145.691
					c-3.822,6.628-10.982,11.087-19.182,11.087c-12.231,0-22.149-9.917-22.149-22.149s9.917-22.149,22.149-22.149
					c5.547,0,10.619,2.04,14.497,5.41l-14.497,16.739L286.467,145.691z"/>
				
					<linearGradient id="SVGID_00000088833918174749329740000000524133679143372733_" gradientUnits="userSpaceOnUse" x1="281.0114" y1="105.9199" x2="277.788" y2="141.3777">
					<stop  offset="0" style="stop-color:#9571CB"/>
					<stop  offset="0.9959" style="stop-color:#6237C0"/>
				</linearGradient>
				<path style="fill:url(#SVGID_00000088833918174749329740000000524133679143372733_);" d="M289.425,134.629
					c0,4.031-1.072,7.805-2.959,11.062l-19.182-11.062l14.497-16.738C286.466,121.946,289.425,127.945,289.425,134.629z"/>
			</g>
			
				<linearGradient id="SVGID_00000124159682600546847080000002762202403899844769_" gradientUnits="userSpaceOnUse" x1="153.823" y1="297.6956" x2="148.4133" y2="256.2827">
				<stop  offset="0.0041" style="stop-color:#F2830B"/>
				<stop  offset="1" style="stop-color:#FAAD1E"/>
			</linearGradient>
			<path style="fill:url(#SVGID_00000124159682600546847080000002762202403899844769_);" d="M175.399,279.074v-1.715
				c0-1.641-1.152-3.057-2.759-3.391l-0.005-0.001c-1.216-0.253-2.177-1.147-2.586-2.32c-0.246-0.705-0.53-1.392-0.851-2.058
				c-0.539-1.12-0.493-2.432,0.188-3.471l0.001-0.002c0.9-1.372,0.713-3.188-0.447-4.349l-1.213-1.213
				c-1.161-1.161-2.976-1.347-4.349-0.447l-0.002,0.001c-1.04,0.682-2.351,0.727-3.472,0.188c-0.666-0.321-1.353-0.605-2.058-0.851
				c-1.173-0.409-2.067-1.37-2.32-2.586l-0.001-0.004c-0.334-1.607-1.75-2.759-3.391-2.759h-1.715c-1.641,0-3.057,1.152-3.391,2.759
				l-0.001,0.005c-0.253,1.216-1.147,2.177-2.32,2.586c-0.705,0.246-1.392,0.53-2.058,0.851c-1.12,0.539-2.432,0.493-3.471-0.189
				l-0.002-0.001c-1.372-0.9-3.188-0.713-4.349,0.447l-1.213,1.213c-1.16,1.16-1.347,2.976-0.447,4.349l0,0
				c0.682,1.04,0.727,2.352,0.188,3.472c-0.321,0.667-0.606,1.355-0.852,2.06c-0.409,1.173-1.37,2.067-2.586,2.32l-0.002,0
				c-1.607,0.334-2.759,1.75-2.759,3.391v1.715c0,1.641,1.152,3.057,2.759,3.391l0.003,0.001c1.216,0.253,2.177,1.147,2.586,2.32
				c0.246,0.705,0.531,1.393,0.852,2.06c0.539,1.12,0.493,2.432-0.188,3.471l-0.001,0.001c-0.9,1.372-0.713,3.188,0.447,4.349
				l1.213,1.213c1.161,1.16,2.976,1.347,4.349,0.447l0.001,0c1.04-0.682,2.351-0.727,3.471-0.188
				c0.667,0.321,1.354,0.605,2.059,0.852c1.173,0.409,2.067,1.37,2.32,2.586l0.001,0.004c0.334,1.607,1.75,2.759,3.391,2.759h1.715
				c1.641,0,3.057-1.152,3.391-2.759l0.001-0.003c0.253-1.216,1.147-2.177,2.32-2.586c0.705-0.246,1.393-0.531,2.059-0.852
				c1.12-0.539,2.432-0.494,3.472,0.188l0.001,0c1.372,0.9,3.188,0.713,4.349-0.447l1.213-1.213c1.16-1.16,1.347-2.976,0.447-4.349
				l-0.002-0.003c-0.682-1.039-0.727-2.351-0.188-3.471c0.32-0.666,0.605-1.353,0.851-2.057c0.409-1.173,1.37-2.067,2.586-2.32
				l0.006-0.001C174.247,282.131,175.399,280.715,175.399,279.074z M149.822,286.612c-3.525-0.586-6.365-3.433-6.943-6.96
				c-0.955-5.823,4.015-10.791,9.85-9.832c3.532,0.581,6.38,3.429,6.956,6.962C160.635,282.616,155.647,287.58,149.822,286.612z"/>
			
				<linearGradient id="SVGID_00000152254475097847286370000014700894137907339653_" gradientUnits="userSpaceOnUse" x1="193.4545" y1="252.3948" x2="190.6564" y2="283.9208">
				<stop  offset="0" style="stop-color:#9571CB"/>
				<stop  offset="0.9959" style="stop-color:#6237C0"/>
			</linearGradient>
			<path style="fill:url(#SVGID_00000152254475097847286370000014700894137907339653_);" d="M211.94,270.413v-1.424
				c0-1.362-0.956-2.538-2.29-2.815l-0.004-0.001c-1.01-0.21-1.807-0.952-2.147-1.925c-0.204-0.585-0.44-1.155-0.706-1.708
				c-0.447-0.93-0.41-2.019,0.156-2.881l0.001-0.002c0.747-1.139,0.592-2.646-0.371-3.61l-1.007-1.007
				c-0.963-0.963-2.471-1.118-3.61-0.371l-0.001,0.001c-0.863,0.566-1.952,0.604-2.882,0.156c-0.553-0.266-1.123-0.502-1.708-0.707
				c-0.974-0.34-1.716-1.137-1.926-2.147l-0.001-0.004c-0.277-1.334-1.453-2.29-2.815-2.29h-1.424c-1.362,0-2.538,0.956-2.815,2.29
				l-0.001,0.004c-0.21,1.01-0.952,1.807-1.926,2.147c-0.585,0.204-1.156,0.44-1.708,0.706c-0.93,0.447-2.018,0.409-2.881-0.157
				l-0.001-0.001c-1.139-0.747-2.646-0.592-3.61,0.371l-1.007,1.007c-0.963,0.963-1.118,2.47-0.371,3.61l0,0
				c0.566,0.863,0.604,1.952,0.156,2.882c-0.266,0.554-0.503,1.124-0.707,1.71c-0.34,0.974-1.137,1.716-2.147,1.926l-0.002,0
				c-1.334,0.277-2.29,1.453-2.29,2.815v1.424c0,1.362,0.956,2.538,2.29,2.815l0.003,0.001c1.009,0.21,1.807,0.952,2.147,1.926
				c0.204,0.586,0.441,1.156,0.707,1.71c0.447,0.93,0.41,2.019-0.156,2.882l0,0.001c-0.747,1.139-0.592,2.646,0.371,3.61
				l1.007,1.007c0.963,0.963,2.47,1.118,3.61,0.371l0.001,0c0.863-0.566,1.952-0.604,2.881-0.156
				c0.553,0.266,1.124,0.502,1.709,0.707c0.974,0.34,1.716,1.137,1.926,2.147l0.001,0.003c0.277,1.334,1.453,2.29,2.815,2.29h1.424
				c1.362,0,2.538-0.956,2.815-2.29l0.001-0.003c0.21-1.009,0.952-1.807,1.925-2.147c0.585-0.204,1.156-0.441,1.709-0.707
				c0.93-0.448,2.019-0.41,2.882,0.156l0.001,0c1.139,0.747,2.646,0.592,3.61-0.371l1.007-1.007c0.963-0.963,1.118-2.47,0.371-3.61
				l-0.001-0.002c-0.566-0.863-0.604-1.952-0.156-2.881c0.266-0.553,0.502-1.123,0.706-1.708c0.34-0.973,1.137-1.716,2.147-1.926
				l0.005-0.001C210.984,272.95,211.94,271.775,211.94,270.413z M190.71,276.669c-2.926-0.487-5.284-2.85-5.764-5.777
				c-0.792-4.834,3.333-8.957,8.176-8.161c2.931,0.482,5.296,2.846,5.773,5.779C199.685,273.353,195.544,277.473,190.71,276.669z"/>
			<g>
				
					<linearGradient id="SVGID_00000093164190131664824760000009103352209608553150_" gradientUnits="userSpaceOnUse" x1="139.4503" y1="169.2294" x2="123.6457" y2="223.3992">
					<stop  offset="0" style="stop-color:#FFE14D"/>
					<stop  offset="1" style="stop-color:#F7A523"/>
				</linearGradient>
				<circle style="fill:url(#SVGID_00000093164190131664824760000009103352209608553150_);" cx="127.609" cy="209.816" r="22.444"/>
				
					<linearGradient id="SVGID_00000110456974240595627120000010546082087041109892_" gradientUnits="userSpaceOnUse" x1="137.5655" y1="175.6895" x2="124.2765" y2="221.2373">
					<stop  offset="0" style="stop-color:#FAAD1E"/>
					<stop  offset="0.9959" style="stop-color:#F2830B"/>
				</linearGradient>
				<circle style="fill:url(#SVGID_00000110456974240595627120000010546082087041109892_);" cx="127.609" cy="209.816" r="18.871"/>
				<g>
					<path style="fill:#FFC431;" d="M130.123,205.075c0-1.396-1.225-2.279-3.076-2.279c-1.823,0-3.22,0.798-4.131,2.108
						l-3.447-2.023c1.538-2.336,4.216-3.817,8.062-3.817c4.273,0,7.236,1.909,7.236,5.271c0,4.558-4.786,5.071-4.786,8.09h-4.302
						C125.679,208.436,130.123,207.553,130.123,205.075z M125.109,216.983c0-1.453,1.14-2.535,2.734-2.535
						c1.596,0,2.735,1.083,2.735,2.535c0,1.425-1.14,2.593-2.735,2.593C126.249,219.576,125.109,218.408,125.109,216.983z"/>
				</g>
			</g>
			<g>
				
					<linearGradient id="SVGID_00000097480241114507190890000014205986175821506990_" gradientUnits="userSpaceOnUse" x1="339.0599" y1="110.0533" x2="329.708" y2="142.1068">
					<stop  offset="0" style="stop-color:#FFE14D"/>
					<stop  offset="1" style="stop-color:#F7A523"/>
				</linearGradient>
				<circle style="fill:url(#SVGID_00000097480241114507190890000014205986175821506990_);" cx="332.053" cy="134.069" r="13.28"/>
				
					<linearGradient id="SVGID_00000142879441385529838570000006803384134601778089_" gradientUnits="userSpaceOnUse" x1="337.9446" y1="113.8759" x2="330.0812" y2="140.8275">
					<stop  offset="0" style="stop-color:#FAAD1E"/>
					<stop  offset="0.9959" style="stop-color:#F2830B"/>
				</linearGradient>
				<circle style="fill:url(#SVGID_00000142879441385529838570000006803384134601778089_);" cx="332.053" cy="134.069" r="11.167"/>
				<g>
					<g>
						<path style="fill:#FFC431;" d="M330.819,137.182c-0.369,0-0.741-0.04-1.111-0.12c-1.346-0.294-2.498-1.095-3.242-2.255
							c-1.536-2.395-0.838-5.594,1.557-7.13c2.395-1.536,5.594-0.837,7.13,1.557l0,0c1.537,2.395,0.837,5.594-1.558,7.13
							C332.754,136.903,331.796,137.182,330.819,137.182z M330.804,128.635c-0.626,0-1.259,0.173-1.823,0.535
							c-1.571,1.008-2.029,3.106-1.021,4.677c0.488,0.761,1.244,1.287,2.127,1.48c0.883,0.193,1.789,0.03,2.55-0.458
							c1.571-1.008,2.029-3.106,1.022-4.678C333.013,129.184,331.919,128.635,330.804,128.635z"/>
					</g>
					<g>
						<path style="fill:#FFC431;" d="M336.576,141.895c-0.292,0-0.578-0.144-0.748-0.408l-3.459-5.392
							c-0.265-0.413-0.144-0.962,0.268-1.226c0.411-0.264,0.961-0.145,1.226,0.268l3.459,5.392c0.265,0.413,0.145,0.962-0.268,1.227
							C336.906,141.85,336.74,141.895,336.576,141.895z"/>
					</g>
				</g>
			</g>
		</g>
		<g>
			
				<linearGradient id="SVGID_00000045577265220263701570000005357008405061657510_" gradientUnits="userSpaceOnUse" x1="124.3774" y1="311.854" x2="129.9397" y2="324.2146">
				<stop  offset="0" style="stop-color:#9571CB"/>
				<stop  offset="0.9959" style="stop-color:#6237C0"/>
			</linearGradient>
			<path style="fill:url(#SVGID_00000045577265220263701570000005357008405061657510_);" d="M127.158,309.68L127.158,309.68
				c0.787,4.245,4.108,7.565,8.352,8.352l0,0v0c-4.245,0.787-7.565,4.108-8.352,8.352l0,0l0,0c-0.787-4.245-4.108-7.565-8.352-8.352
				v0l0,0C123.05,317.246,126.371,313.925,127.158,309.68L127.158,309.68z"/>
			
				<linearGradient id="SVGID_00000130605868294354178570000009434276519236605885_" gradientUnits="userSpaceOnUse" x1="393.6152" y1="347.3709" x2="399.1775" y2="359.7315">
				<stop  offset="0" style="stop-color:#9571CB"/>
				<stop  offset="0.9959" style="stop-color:#6237C0"/>
			</linearGradient>
			<path style="fill:url(#SVGID_00000130605868294354178570000009434276519236605885_);" d="M396.395,345.197L396.395,345.197
				c0.787,4.244,4.108,7.565,8.352,8.352h0h0c-4.244,0.787-7.565,4.108-8.352,8.352l0,0l0,0c-0.787-4.245-4.108-7.565-8.352-8.352
				l0,0l0,0C392.288,352.762,395.609,349.442,396.395,345.197L396.395,345.197z"/>
			
				<linearGradient id="SVGID_00000098931609337701676210000002572481116264245894_" gradientUnits="userSpaceOnUse" x1="399.2626" y1="203.2747" x2="404.8248" y2="215.6353">
				<stop  offset="0" style="stop-color:#9571CB"/>
				<stop  offset="0.9959" style="stop-color:#6237C0"/>
			</linearGradient>
			<path style="fill:url(#SVGID_00000098931609337701676210000002572481116264245894_);" d="M402.043,201.101L402.043,201.101
				c0.787,4.244,4.108,7.565,8.352,8.352l0,0l0,0c-4.245,0.787-7.565,4.108-8.352,8.352l0,0l0,0
				c-0.787-4.245-4.108-7.565-8.352-8.352l0,0l0,0C397.935,208.666,401.256,205.345,402.043,201.101L402.043,201.101z"/>
			
				<linearGradient id="SVGID_00000098939236608010455930000010848632925244493753_" gradientUnits="userSpaceOnUse" x1="229.0906" y1="97.498" x2="234.6528" y2="109.8585">
				<stop  offset="0" style="stop-color:#9571CB"/>
				<stop  offset="0.9959" style="stop-color:#6237C0"/>
			</linearGradient>
			<path style="fill:url(#SVGID_00000098939236608010455930000010848632925244493753_);" d="M231.871,95.324L231.871,95.324
				c0.787,4.244,4.108,7.565,8.352,8.352l0,0l0,0c-4.244,0.787-7.565,4.108-8.352,8.352l0,0l0,0
				c-0.787-4.244-4.108-7.565-8.352-8.352l0,0l0,0C227.763,102.889,231.084,99.569,231.871,95.324L231.871,95.324z"/>
			
				<linearGradient id="SVGID_00000141428199912474010830000010650886144010187933_" gradientUnits="userSpaceOnUse" x1="284.8503" y1="171.8364" x2="288.5652" y2="180.0919">
				<stop  offset="0" style="stop-color:#9571CB"/>
				<stop  offset="0.9959" style="stop-color:#6237C0"/>
			</linearGradient>
			<path style="fill:url(#SVGID_00000141428199912474010830000010650886144010187933_);" d="M286.707,170.385L286.707,170.385
				c0.526,2.835,2.743,5.053,5.578,5.578l0,0l0,0c-2.835,0.526-5.053,2.743-5.578,5.578v0v0c-0.526-2.835-2.743-5.053-5.578-5.578
				l0,0l0,0C283.964,175.437,286.182,173.219,286.707,170.385L286.707,170.385z"/>
			
				<linearGradient id="SVGID_00000025410547990091996470000001288967123561272197_" gradientUnits="userSpaceOnUse" x1="106.1865" y1="254.627" x2="109.9015" y2="262.8824">
				<stop  offset="0" style="stop-color:#9571CB"/>
				<stop  offset="0.9959" style="stop-color:#6237C0"/>
			</linearGradient>
			<path style="fill:url(#SVGID_00000025410547990091996470000001288967123561272197_);" d="M108.043,253.175L108.043,253.175
				c0.526,2.835,2.744,5.053,5.578,5.578l0,0l0,0c-2.835,0.526-5.053,2.743-5.578,5.578l0,0l0,0
				c-0.526-2.835-2.744-5.053-5.578-5.578l0,0l0,0C105.3,258.228,107.518,256.01,108.043,253.175L108.043,253.175z"/>
		</g>
	</g>
</g>
</svg>
