<svg version="1.1" id="Layer_1" xmlns="http://www.w3.org/2000/svg" xmlns:xlink="http://www.w3.org/1999/xlink" x="0px" y="0px"
	 width="100%" viewBox="0 0 512 512" enable-background="new 0 0 512 512" xml:space="preserve">
<path fill="#FFFFFF" opacity="1.000000" stroke="none" 
	d="
M337.000000,513.000000 
	C224.693954,513.000000 112.887901,513.000000 1.040925,513.000000 
	C1.040925,342.402252 1.040925,171.804504 1.040925,1.103379 
	C171.556061,1.103379 342.112183,1.103379 512.834167,1.103379 
	C512.834167,171.666534 512.834167,342.333252 512.834167,513.000000 
	C454.471161,513.000000 395.985565,513.000000 337.000000,513.000000 
M341.207428,387.078552 
	C336.829956,386.967377 334.816406,388.979401 335.069611,393.465637 
	C335.275238,397.108978 335.167328,400.774109 335.098724,404.427734 
	C335.030457,408.063293 336.483398,410.032806 340.360931,410.021790 
	C356.973999,409.974640 373.587280,409.986694 390.200409,410.011353 
	C393.787903,410.016693 395.284119,408.291626 395.157776,404.758240 
	C395.033173,401.273987 395.144958,397.781647 395.132355,394.292908 
	C395.108948,387.814209 394.747223,387.447113 388.026184,386.025940 
	C386.796295,374.736145 389.995575,364.546204 394.639282,354.323975 
	C400.683807,341.018188 405.135284,327.076935 406.075073,312.282318 
	C406.663452,303.019531 407.429871,293.765137 407.837891,284.494751 
	C408.205841,276.134766 400.908447,265.070343 391.935699,265.330994 
	C390.982880,262.540466 390.030060,259.749969 389.045715,256.193542 
	C386.663208,250.439972 384.280701,244.686401 381.704681,238.465469 
	C374.216614,242.809799 367.654572,246.694168 361.017822,250.446426 
	C353.781677,254.537567 353.824860,254.438782 349.518219,247.483383 
	C348.043854,245.102264 346.540588,242.160568 344.269165,240.986145 
	C340.803131,239.194046 336.428192,237.340759 332.844910,237.939972 
	C322.623383,239.649292 318.374146,249.040634 322.832428,258.467743 
	C324.506561,262.007782 326.536469,265.379578 328.547852,269.093353 
	C323.146149,272.227631 318.521912,275.681885 313.344086,277.750580 
	C303.365051,281.737488 299.066589,288.142365 300.848969,299.084351 
	C301.787109,304.843475 301.014740,310.881256 301.014740,317.048218 
	C305.401642,317.048218 308.968811,316.591949 312.355621,317.177979 
	C315.670746,317.751617 319.243378,318.772369 321.917542,320.691406 
	C326.730560,324.145233 328.064972,330.442596 326.180969,335.960541 
	C323.779907,342.992767 318.206970,345.367554 311.488525,345.857697 
	C308.105957,346.104462 304.690521,345.900757 301.414734,345.900757 
	C301.414734,357.089996 301.414734,367.325012 301.414734,377.504944 
	C309.924042,378.427032 324.139618,375.712677 335.874817,371.050018 
	C337.871979,370.286438 339.869110,369.522888 341.989899,369.731293 
	C341.992096,375.472290 341.994293,381.213257 341.207428,387.078552 
M151.951309,262.270447 
	C154.215912,258.442474 153.193283,255.805115 149.241989,253.846893 
	C145.829376,252.155640 142.589813,250.111603 139.295929,248.185593 
	C136.442734,246.517258 134.281799,247.149658 132.644226,249.986084 
	C124.265678,264.498352 115.876747,279.004669 107.477104,293.504761 
	C105.842751,296.326080 106.283012,298.505768 109.222878,300.142151 
	C111.976860,301.675079 114.661354,303.332397 117.386696,304.917328 
	C124.159805,308.856201 124.162155,308.852173 129.330765,303.431305 
	C138.786285,308.252350 146.581635,314.639618 152.633224,323.716217 
	C166.895294,345.107422 187.029770,359.981964 209.337463,372.092560 
	C217.599106,376.577698 226.970062,374.180725 231.765427,367.019592 
	C234.836655,367.674438 237.907883,368.329285 241.608109,369.448151 
	C247.650391,370.171204 253.692673,370.894257 260.462677,371.704407 
	C260.462677,360.397247 260.462677,350.126526 260.462677,339.184937 
	C264.695160,339.184937 268.315491,339.272369 271.930206,339.167450 
	C280.448608,338.920288 286.208374,333.189972 286.224243,325.059265 
	C286.240082,316.922089 280.470123,311.123138 272.003754,310.879395 
	C268.384949,310.775208 264.760681,310.862000 260.535858,310.862000 
	C260.535858,308.622009 260.535919,307.000977 260.535889,305.379913 
	C260.535736,297.713776 260.612701,290.046234 260.469055,282.382782 
	C260.440948,280.882507 260.016510,278.645721 258.997437,278.024994 
	C250.380768,272.776672 241.583618,267.824677 232.683167,262.692902 
	C230.689529,266.051086 229.040222,268.929413 227.295700,271.748840 
	C222.312622,279.802368 214.348877,282.096802 206.849823,277.682495 
	C200.231232,273.786469 198.431778,265.276794 202.611008,257.518677 
	C204.233383,254.506958 205.911423,251.525238 207.726868,248.234894 
	C198.325684,242.816330 189.443192,237.696732 180.135529,232.332077 
	C174.305725,242.519287 170.426422,252.806580 168.669037,264.698853 
	C168.417068,267.104645 168.165100,269.510437 167.208267,271.944977 
	C162.064255,268.977570 156.920242,266.010162 151.951309,262.270447 
M355.095703,161.496658 
	C356.929321,164.985794 359.469147,165.028015 362.550812,163.153137 
	C365.526611,161.342651 368.610474,159.710876 371.615967,157.947891 
	C376.664551,154.986420 376.996918,153.881302 374.145874,148.918091 
	C367.615448,137.549469 361.012848,126.222290 354.483490,114.853043 
	C346.295654,100.595871 348.543030,102.063583 335.309296,109.560135 
	C328.313782,113.522911 328.333588,113.557892 330.429932,120.984581 
	C323.939148,123.835266 317.667297,127.504852 310.898224,129.314636 
	C303.600769,131.265701 295.808441,131.290314 288.283447,132.480576 
	C267.532257,135.762909 249.167099,145.098206 231.280029,155.489014 
	C223.326630,160.109253 220.839798,168.378906 223.879913,177.798050 
	C221.794556,180.163269 219.709198,182.528488 217.018768,185.108658 
	C213.295807,189.937927 209.572845,194.767212 205.545609,199.991180 
	C215.261383,205.645920 224.249954,210.877426 233.548859,216.289551 
	C231.461288,220.043335 229.507278,223.299850 227.799438,226.680740 
	C224.072235,234.059204 226.511810,242.388031 233.356949,246.068665 
	C240.462463,249.889297 248.380035,247.639359 252.773804,240.518753 
	C254.739883,237.332474 256.645447,234.108856 258.684906,230.725647 
	C266.938660,235.508652 274.649384,240.087463 282.491852,244.428253 
	C284.056427,245.294250 286.608856,246.159592 287.882080,245.480606 
	C296.645233,240.807434 305.189545,235.723862 313.999603,230.660049 
	C311.956726,227.079651 310.049469,223.960526 308.358582,220.728226 
	C304.497528,213.347336 306.647339,205.015167 313.304749,201.151581 
	C320.483978,196.985184 328.445038,199.127853 333.106995,206.562180 
	C335.028412,209.626190 336.788269,212.791489 338.849457,216.298416 
	C348.192322,210.897385 357.181244,205.700989 366.433960,200.352081 
	C360.609375,189.682724 352.874054,181.384094 343.530518,173.587097 
	C341.732819,172.332214 339.935150,171.077347 338.505646,169.287903 
	C343.949646,166.475174 349.393616,163.662445 355.095703,161.496658 
z"/>
<path fill="#FFBF32" opacity="1.000000" stroke="none" 
	d="
M169.049301,264.003296 
	C170.426422,252.806580 174.305725,242.519287 180.135529,232.332077 
	C189.443192,237.696732 198.325684,242.816330 207.726868,248.234894 
	C205.911423,251.525238 204.233383,254.506958 202.611008,257.518677 
	C198.431778,265.276794 200.231232,273.786469 206.849823,277.682495 
	C214.348877,282.096802 222.312622,279.802368 227.295700,271.748840 
	C229.040222,268.929413 230.689529,266.051086 232.683167,262.692902 
	C241.583618,267.824677 250.380768,272.776672 258.997437,278.024994 
	C260.016510,278.645721 260.440948,280.882507 260.469055,282.382782 
	C260.612701,290.046234 260.535736,297.713776 260.535889,305.379913 
	C260.535919,307.000977 260.535858,308.622009 260.535858,310.862000 
	C264.760681,310.862000 268.384949,310.775208 272.003754,310.879395 
	C280.470123,311.123138 286.240082,316.922089 286.224243,325.059265 
	C286.208374,333.189972 280.448608,338.920288 271.930206,339.167450 
	C268.315491,339.272369 264.695160,339.184937 260.462677,339.184937 
	C260.462677,350.126526 260.462677,360.397247 260.462677,371.704407 
	C253.692673,370.894257 247.650391,370.171204 241.339081,368.843201 
	C243.638947,362.870728 239.764999,360.585144 236.113754,358.628174 
	C229.125687,354.882812 221.725143,351.869568 214.903290,347.859344 
	C200.899017,339.626801 189.792389,328.615021 183.998108,313.001526 
	C184.000000,313.000000 184.003189,312.996338 184.376175,312.997620 
	C186.226471,313.688629 187.644089,314.590363 189.192841,315.026398 
	C193.107986,316.128723 197.058533,317.705048 201.037933,317.842041 
	C207.369766,318.060028 213.512314,312.884705 215.565933,306.742554 
	C217.464981,301.062744 215.245926,291.297760 210.616653,288.478180 
	C196.885651,280.115021 182.921982,272.133850 169.049301,264.003296 
z"/>
<path fill="#FA6F86" opacity="1.000000" stroke="none" 
	d="
M343.982697,174.060715 
	C352.874054,181.384094 360.609375,189.682724 366.433960,200.352081 
	C357.181244,205.700989 348.192322,210.897385 338.849457,216.298416 
	C336.788269,212.791489 335.028412,209.626190 333.106995,206.562180 
	C328.445038,199.127853 320.483978,196.985184 313.304749,201.151581 
	C306.647339,205.015167 304.497528,213.347336 308.358582,220.728226 
	C310.049469,223.960526 311.956726,227.079651 313.999603,230.660049 
	C305.189545,235.723862 296.645233,240.807434 287.882080,245.480606 
	C286.608856,246.159592 284.056427,245.294250 282.491852,244.428253 
	C274.649384,240.087463 266.938660,235.508652 258.684906,230.725647 
	C256.645447,234.108856 254.739883,237.332474 252.773804,240.518753 
	C248.380035,247.639359 240.462463,249.889297 233.356949,246.068665 
	C226.511810,242.388031 224.072235,234.059204 227.799438,226.680740 
	C229.507278,223.299850 231.461288,220.043335 233.548859,216.289551 
	C224.249954,210.877426 215.261383,205.645920 205.545609,199.991180 
	C209.572845,194.767212 213.295807,189.937927 217.685532,185.129578 
	C222.290497,189.845978 226.217911,187.759537 230.239883,185.218552 
	C239.070557,179.639542 247.702347,173.681061 256.869354,168.715744 
	C267.786133,162.802689 285.097443,161.008942 295.313080,163.830109 
	C293.005554,165.225571 290.858429,166.458374 288.777313,167.793976 
	C279.847443,173.524948 277.614746,182.376877 282.770416,191.475769 
	C286.967987,198.883774 297.141357,201.635971 305.494812,197.175842 
	C315.453766,191.858505 325.250549,186.229141 335.005463,180.542618 
	C338.178955,178.692642 341.000305,176.238510 343.982697,174.060715 
z"/>
<path fill="#88C8FE" opacity="1.000000" stroke="none" 
	d="
M335.173859,371.178619 
	C324.139618,375.712677 309.924042,378.427032 301.414734,377.504944 
	C301.414734,367.325012 301.414734,357.089996 301.414734,345.900757 
	C304.690521,345.900757 308.105957,346.104462 311.488525,345.857697 
	C318.206970,345.367554 323.779907,342.992767 326.180969,335.960541 
	C328.064972,330.442596 326.730560,324.145233 321.917542,320.691406 
	C319.243378,318.772369 315.670746,317.751617 312.355621,317.177979 
	C308.968811,316.591949 305.401642,317.048218 301.014740,317.048218 
	C301.014740,310.881256 301.787109,304.843475 300.848969,299.084351 
	C299.066589,288.142365 303.365051,281.737488 313.344086,277.750580 
	C318.521912,275.681885 323.146149,272.227631 328.547852,269.093353 
	C326.536469,265.379578 324.506561,262.007782 322.832428,258.467743 
	C318.374146,249.040634 322.623383,239.649292 332.844910,237.939972 
	C336.428192,237.340759 340.803131,239.194046 344.269165,240.986145 
	C346.540588,242.160568 348.043854,245.102264 349.518219,247.483383 
	C353.824860,254.438782 353.781677,254.537567 361.017822,250.446426 
	C367.654572,246.694168 374.216614,242.809799 381.704681,238.465469 
	C384.280701,244.686401 386.663208,250.439972 388.675751,256.600647 
	C383.519989,257.525848 381.778656,260.515808 382.030243,264.950134 
	C382.302155,269.742798 382.404938,274.576050 383.134338,279.306366 
	C385.945984,297.540405 381.475220,314.176300 372.447571,329.857819 
	C371.475861,331.545624 370.040039,332.966187 368.003662,335.543213 
	C368.003662,331.812347 368.007843,329.655060 368.002960,327.497803 
	C367.979004,316.945770 361.590424,310.023560 351.842560,309.984406 
	C340.898224,309.940460 334.061707,316.641510 334.013336,327.600464 
	C333.955994,340.590759 333.955322,353.581787 334.043671,366.571686 
	C334.054138,368.109833 334.779755,369.643097 335.173859,371.178619 
z"/>
<path fill="#FCD4A9" opacity="1.000000" stroke="none" 
	d="
M230.997803,366.943604 
	C226.970062,374.180725 217.599106,376.577698 209.337463,372.092560 
	C187.029770,359.981964 166.895294,345.107422 152.633224,323.716217 
	C146.581635,314.639618 138.786285,308.252350 129.184097,302.786652 
	C130.246445,299.966156 131.395615,297.754425 132.674881,295.620697 
	C138.044586,286.664490 143.453232,277.731628 149.155579,268.987671 
	C163.647568,277.128754 177.861969,285.018768 192.000748,293.042053 
	C197.702301,296.277496 204.200867,298.761383 205.992889,306.390411 
	C202.477173,310.113495 198.778931,310.805847 194.584122,308.303925 
	C191.446198,306.432434 188.186401,304.753784 185.129440,302.761292 
	C182.187454,300.843719 178.787079,299.782867 176.594345,302.655945 
	C174.825226,304.973907 173.277954,309.061707 174.119949,311.508148 
	C179.013199,325.725586 187.565033,337.675873 198.700577,347.789642 
	C208.164673,356.385315 219.379761,361.996521 230.997803,366.943604 
z"/>
<path fill="#FCD3A9" opacity="1.000000" stroke="none" 
	d="
M224.263657,177.254639 
	C220.839798,168.378906 223.326630,160.109253 231.280029,155.489014 
	C249.167099,145.098206 267.532257,135.762909 288.283447,132.480576 
	C295.808441,131.290314 303.600769,131.265701 310.898224,129.314636 
	C317.667297,127.504852 323.939148,123.835266 331.085571,121.136200 
	C338.138000,132.513596 344.534790,143.739349 350.585938,155.015289 
	C338.705719,161.924072 327.268921,168.954849 315.602966,175.582306 
	C307.495605,180.188126 300.176971,186.733978 289.885742,186.604858 
	C288.041718,179.881897 289.035461,177.357529 294.433258,174.261627 
	C297.319885,172.606033 300.179626,170.897751 303.121887,169.346725 
	C305.972473,167.844009 308.263153,165.960449 307.553284,162.389496 
	C306.771698,158.457718 304.342682,155.717133 300.310608,155.077927 
	C282.968872,152.328781 266.014374,154.255829 250.163330,161.614868 
	C241.069794,165.836639 232.867279,171.977631 224.263657,177.254639 
z"/>
<path fill="#FBD4AA" opacity="1.000000" stroke="none" 
	d="
M392.127594,266.085968 
	C400.908447,265.070343 408.205841,276.134766 407.837891,284.494751 
	C407.429871,293.765137 406.663452,303.019531 406.075073,312.282318 
	C405.135284,327.076935 400.683807,341.018188 394.639282,354.323975 
	C389.995575,364.546204 386.796295,374.736145 387.560028,386.556152 
	C374.356598,387.032776 361.619293,386.979218 348.892365,386.510315 
	C348.615021,383.480743 348.094940,380.868103 348.077820,378.252167 
	C347.973907,362.351562 347.783691,346.446320 348.093781,330.551788 
	C348.174347,326.421326 349.937164,322.323669 351.298462,318.160980 
	C357.474609,319.665955 359.579987,322.075073 359.797913,327.752319 
	C359.931885,331.242096 359.902130,334.743103 359.807068,338.235291 
	C359.722046,341.357574 359.723297,344.448639 363.385345,345.580170 
	C367.152130,346.743988 370.762939,346.259216 373.335754,343.000061 
	C384.291016,329.122406 391.458252,313.468506 392.829498,295.805695 
	C393.592560,285.976532 392.425049,275.997467 392.127594,266.085968 
z"/>
<path fill="#E44166" opacity="1.000000" stroke="none" 
	d="
M224.071777,177.526337 
	C232.867279,171.977631 241.069794,165.836639 250.163330,161.614868 
	C266.014374,154.255829 282.968872,152.328781 300.310608,155.077927 
	C304.342682,155.717133 306.771698,158.457718 307.553284,162.389496 
	C308.263153,165.960449 305.972473,167.844009 303.121887,169.346725 
	C300.179626,170.897751 297.319885,172.606033 294.433258,174.261627 
	C289.035461,177.357529 288.041718,179.881897 289.989258,186.946655 
	C294.674225,191.791367 297.997711,192.139420 303.142120,189.257492 
	C314.783142,182.736160 326.469513,176.295792 338.137451,169.822479 
	C339.935150,171.077347 341.732819,172.332214 343.756592,173.823914 
	C341.000305,176.238510 338.178955,178.692642 335.005463,180.542618 
	C325.250549,186.229141 315.453766,191.858505 305.494812,197.175842 
	C297.141357,201.635971 286.967987,198.883774 282.770416,191.475769 
	C277.614746,182.376877 279.847443,173.524948 288.777313,167.793976 
	C290.858429,166.458374 293.005554,165.225571 295.313080,163.830109 
	C285.097443,161.008942 267.786133,162.802689 256.869354,168.715744 
	C247.702347,173.681061 239.070557,179.639542 230.239883,185.218552 
	C226.217911,187.759537 222.290497,189.845978 217.988068,185.022110 
	C219.709198,182.528488 221.794556,180.163269 224.071777,177.526337 
z"/>
<path fill="#E4A92A" opacity="1.000000" stroke="none" 
	d="
M231.381622,366.981598 
	C219.379761,361.996521 208.164673,356.385315 198.700577,347.789642 
	C187.565033,337.675873 179.013199,325.725586 174.119949,311.508148 
	C173.277954,309.061707 174.825226,304.973907 176.594345,302.655945 
	C178.787079,299.782867 182.187454,300.843719 185.129440,302.761292 
	C188.186401,304.753784 191.446198,306.432434 194.584122,308.303925 
	C198.778931,310.805847 202.477173,310.113495 206.294586,306.171539 
	C209.399689,299.693817 207.767578,295.877594 201.713165,292.310394 
	C190.376587,285.630951 179.172394,278.726868 167.913116,271.916229 
	C168.165100,269.510437 168.417068,267.104645 168.859161,264.351074 
	C182.921982,272.133850 196.885651,280.115021 210.616653,288.478180 
	C215.245926,291.297760 217.464981,301.062744 215.565933,306.742554 
	C213.512314,312.884705 207.369766,318.060028 201.037933,317.842041 
	C197.058533,317.705048 193.107986,316.128723 189.192841,315.026398 
	C187.644089,314.590363 186.226471,313.688629 184.324127,312.855499 
	C183.810211,312.662659 183.721344,312.613220 183.632492,312.563782 
	C183.753738,312.710205 183.874985,312.856598 183.996231,313.003021 
	C189.792389,328.615021 200.899017,339.626801 214.903290,347.859344 
	C221.725143,351.869568 229.125687,354.882812 236.113754,358.628174 
	C239.764999,360.585144 243.638947,362.870728 241.024582,368.611206 
	C237.907883,368.329285 234.836655,367.674438 231.381622,366.981598 
z"/>
<path fill="#62B8FD" opacity="1.000000" stroke="none" 
	d="
M392.031647,265.708496 
	C392.425049,275.997467 393.592560,285.976532 392.829498,295.805695 
	C391.458252,313.468506 384.291016,329.122406 373.335754,343.000061 
	C370.762939,346.259216 367.152130,346.743988 363.385345,345.580170 
	C359.723297,344.448639 359.722046,341.357574 359.807068,338.235291 
	C359.902130,334.743103 359.931885,331.242096 359.797913,327.752319 
	C359.579987,322.075073 357.474609,319.665955 350.936646,318.096008 
	C344.247528,319.766113 342.311676,322.269897 342.226807,328.869141 
	C342.055817,342.165192 341.980835,355.462524 341.866241,368.759338 
	C339.869110,369.522888 337.871979,370.286438 335.524353,371.114319 
	C334.779755,369.643097 334.054138,368.109833 334.043671,366.571686 
	C333.955322,353.581787 333.955994,340.590759 334.013336,327.600464 
	C334.061707,316.641510 340.898224,309.940460 351.842560,309.984406 
	C361.590424,310.023560 367.979004,316.945770 368.002960,327.497803 
	C368.007843,329.655060 368.003662,331.812347 368.003662,335.543213 
	C370.040039,332.966187 371.475861,331.545624 372.447571,329.857819 
	C381.475220,314.176300 385.945984,297.540405 383.134338,279.306366 
	C382.404938,274.576050 382.302155,269.742798 382.030243,264.950134 
	C381.778656,260.515808 383.519989,257.525848 388.691528,256.983612 
	C390.030060,259.749969 390.982880,262.540466 392.031647,265.708496 
z"/>
<path fill="#E44166" opacity="1.000000" stroke="none" 
	d="
M350.931580,154.965118 
	C344.534790,143.739349 338.138000,132.513596 331.456940,121.105705 
	C328.333588,113.557892 328.313782,113.522911 335.309296,109.560135 
	C348.543030,102.063583 346.295654,100.595871 354.483490,114.853043 
	C361.012848,126.222290 367.615448,137.549469 374.145874,148.918091 
	C376.996918,153.881302 376.664551,154.986420 371.615967,157.947891 
	C368.610474,159.710876 365.526611,161.342651 362.550812,163.153137 
	C359.469147,165.028015 356.929321,164.985794 354.865204,160.882812 
	C353.400330,158.501007 352.165955,156.733063 350.931580,154.965118 
z"/>
<path fill="#FFBF32" opacity="1.000000" stroke="none" 
	d="
M148.847610,268.790192 
	C143.453232,277.731628 138.044586,286.664490 132.674881,295.620697 
	C131.395615,297.754425 130.246445,299.966156 129.010971,302.486786 
	C124.162155,308.852173 124.159805,308.856201 117.386696,304.917328 
	C114.661354,303.332397 111.976860,301.675079 109.222878,300.142151 
	C106.283012,298.505768 105.842751,296.326080 107.477104,293.504761 
	C115.876747,279.004669 124.265678,264.498352 132.644226,249.986084 
	C134.281799,247.149658 136.442734,246.517258 139.295929,248.185593 
	C142.589813,250.111603 145.829376,252.155640 149.241989,253.846893 
	C153.193283,255.805115 154.215912,258.442474 151.620087,262.869995 
	C150.475113,265.243103 149.661362,267.016663 148.847610,268.790192 
z"/>
<path fill="#62B8FD" opacity="1.000000" stroke="none" 
	d="
M348.882019,386.925690 
	C361.619293,386.979218 374.356598,387.032776 387.562073,387.021179 
	C394.747223,387.447113 395.108948,387.814209 395.132355,394.292908 
	C395.144958,397.781647 395.033173,401.273987 395.157776,404.758240 
	C395.284119,408.291626 393.787903,410.016693 390.200409,410.011353 
	C373.587280,409.986694 356.973999,409.974640 340.360931,410.021790 
	C336.483398,410.032806 335.030457,408.063293 335.098724,404.427734 
	C335.167328,400.774109 335.275238,397.108978 335.069611,393.465637 
	C334.816406,388.979401 336.829956,386.967377 342.031433,387.089966 
	C344.864288,387.042786 346.873138,386.984253 348.882019,386.925690 
z"/>
<path fill="#F0B171" opacity="1.000000" stroke="none" 
	d="
M348.892365,386.510315 
	C346.873138,386.984253 344.864288,387.042786 342.425964,387.027802 
	C341.994293,381.213257 341.992096,375.472290 341.928070,369.245300 
	C341.980835,355.462524 342.055817,342.165192 342.226807,328.869141 
	C342.311676,322.269897 344.247528,319.766113 350.565460,318.145996 
	C349.937164,322.323669 348.174347,326.421326 348.093781,330.551788 
	C347.783691,346.446320 347.973907,362.351562 348.077820,378.252167 
	C348.094940,380.868103 348.615021,383.480743 348.892365,386.510315 
z"/>
<path fill="#F0B171" opacity="1.000000" stroke="none" 
	d="
M149.155579,268.987671 
	C149.661362,267.016663 150.475113,265.243103 151.532562,263.256165 
	C156.920242,266.010162 162.064255,268.977570 167.560699,271.930603 
	C179.172394,278.726868 190.376587,285.630951 201.713165,292.310394 
	C207.767578,295.877594 209.399689,299.693817 206.485336,305.869537 
	C204.200867,298.761383 197.702301,296.277496 192.000748,293.042053 
	C177.861969,285.018768 163.647568,277.128754 149.155579,268.987671 
z"/>
<path fill="#F0B171" opacity="1.000000" stroke="none" 
	d="
M350.585968,155.015289 
	C352.165955,156.733063 353.400330,158.501007 354.736145,160.559326 
	C349.393616,163.662445 343.949646,166.475174 338.321533,169.555191 
	C326.469513,176.295792 314.783142,182.736160 303.142120,189.257492 
	C297.997711,192.139420 294.674225,191.791367 290.190613,187.288147 
	C300.176971,186.733978 307.495605,180.188126 315.602966,175.582306 
	C327.268921,168.954849 338.705719,161.924072 350.585968,155.015289 
z"/>
<path fill="#FFBF32" opacity="1.000000" stroke="none" 
	d="
M183.998108,313.001526 
	C183.874985,312.856598 183.753738,312.710205 183.632492,312.563782 
	C183.721344,312.613220 183.810211,312.662659 183.951141,312.854218 
	C184.003189,312.996338 184.000000,313.000000 183.998108,313.001526 
z"/>
</svg>