<svg version="1.1" id="Layer_1" xmlns="http://www.w3.org/2000/svg" xmlns:xlink="http://www.w3.org/1999/xlink" x="0px" y="0px"
	 width="100%" viewBox="0 0 512 512" enable-background="new 0 0 512 512" xml:space="preserve">
<path fill="#FFFFFF" opacity="1.000000" stroke="none" 
	d="
M356.000000,513.000000 
	C237.362167,513.000000 119.224319,513.000000 1.043242,513.000000 
	C1.043242,342.403809 1.043242,171.807602 1.043242,1.105696 
	C171.554504,1.105696 342.109100,1.105696 512.831848,1.105696 
	C512.831848,171.666534 512.831848,342.333252 512.831848,513.000000 
	C460.807526,513.000000 408.653778,513.000000 356.000000,513.000000 
M262.259827,122.342621 
	C261.355316,120.874893 260.450806,119.407158 259.546295,117.939430 
	C258.572021,119.711403 257.597717,121.483368 255.734695,123.275810 
	C245.426956,123.289635 235.119202,123.305489 224.811462,123.316101 
	C221.552917,123.319450 218.796005,124.176971 218.012360,127.804741 
	C217.236450,131.396698 219.285736,133.369751 222.277069,134.751068 
	C223.871094,135.487122 225.399155,136.366013 227.361954,137.392136 
	C225.521774,138.388443 224.261871,139.202393 222.901825,139.780884 
	C219.543716,141.209274 217.040466,143.209885 218.089722,147.310059 
	C219.108704,151.291931 222.386856,151.336243 225.666306,151.328873 
	C235.974060,151.305725 246.281921,151.333588 256.724854,152.203003 
	C256.775787,155.710648 256.826691,159.218277 256.115265,162.763885 
	C252.642883,163.406708 251.004120,165.572968 251.047729,169.023453 
	C251.106110,173.641602 251.240265,178.258789 251.134781,183.807877 
	C251.057755,195.419754 250.980728,207.031616 250.163574,218.810928 
	C245.233673,219.878021 245.496155,223.774170 245.495178,227.472183 
	C245.483627,271.463196 245.485245,315.454193 245.497391,359.445221 
	C245.497787,360.900177 245.646271,362.355103 245.721924,363.740417 
	C273.811127,363.740417 301.527039,363.740417 329.894318,363.740417 
	C329.894318,356.207031 329.894318,349.041626 329.894318,341.876190 
	C330.304474,341.695465 330.714661,341.514740 331.124817,341.334015 
	C333.354248,343.757324 335.583160,346.181152 337.813324,348.603790 
	C340.232178,351.231476 342.950958,352.201141 346.686310,350.558075 
	C351.662750,359.851074 360.921112,361.542175 366.429474,353.825165 
	C368.103546,351.479858 368.775635,347.978088 368.826263,344.987640 
	C369.130005,327.058563 369.118591,309.124146 369.952667,291.084625 
	C373.963654,289.028046 375.406372,284.640930 373.994263,278.820770 
	C373.075897,275.035431 370.175385,274.734467 367.026062,274.804901 
	C365.703857,274.834503 364.379211,274.753113 363.063385,273.934875 
	C363.080139,272.330322 363.096924,270.725800 364.031799,269.048065 
	C369.326782,268.977234 374.621735,268.906433 380.606750,269.135468 
	C385.929749,270.790924 391.252716,272.446381 396.723297,274.918213 
	C397.732056,276.619049 398.740814,278.319855 399.749573,280.020691 
	C400.577423,278.323792 401.855652,276.698364 402.138672,274.915009 
	C402.713837,271.290833 402.751373,267.581329 403.751312,263.832153 
	C407.415436,262.963104 411.220734,262.356293 412.867340,258.189331 
	C415.428680,251.707565 410.762329,246.687805 402.241058,245.917633 
	C402.228729,241.661667 402.410889,237.390198 402.074219,233.160034 
	C401.984344,232.030670 400.307587,231.027618 399.359375,229.966583 
	C398.518250,230.967346 397.487579,231.869781 396.900116,233.002151 
	C396.482605,233.807007 396.662537,234.921783 395.824921,235.891693 
	C390.522186,237.649246 385.219452,239.406799 378.996765,241.044083 
	C370.511597,241.027710 362.026123,240.963959 353.541321,241.012283 
	C348.242279,241.042465 346.355438,242.910645 346.238190,248.211456 
	C346.138855,252.701584 346.253845,257.196045 346.206543,261.687866 
	C346.164398,265.692200 347.640259,268.460083 351.942963,269.921387 
	C351.977936,271.526703 352.012878,273.131989 351.273712,274.800476 
	C347.270203,275.596680 345.965057,278.287140 346.011658,282.070587 
	C346.089569,288.398041 346.154572,294.728485 346.032501,301.053925 
	C345.992950,303.102325 345.349915,305.139069 344.417877,306.797943 
	C335.379211,297.661469 324.056671,296.190765 311.222839,297.005219 
	C310.158264,296.957764 309.093658,296.910309 308.294739,296.264557 
	C313.264465,291.803619 316.762573,286.327209 317.705078,279.758301 
	C318.198151,276.321808 319.154266,274.627197 322.573639,273.521973 
	C326.842957,272.142090 328.989319,268.725861 329.164642,263.989410 
	C329.345459,259.104645 327.487732,255.131821 323.193207,253.499649 
	C319.738007,252.186462 318.819855,250.114105 318.283691,246.144318 
	C318.244873,242.323608 318.902557,238.319839 317.960663,234.736526 
	C317.111908,231.507645 315.193542,227.709900 312.555115,225.959930 
	C304.444397,220.580399 289.622467,224.379684 284.469086,232.678528 
	C282.690460,227.320587 278.815125,224.744751 273.565704,223.179153 
	C273.563049,221.896439 273.560364,220.613708 273.774597,218.374725 
	C273.805725,202.417465 273.888428,186.460052 273.840851,170.503021 
	C273.823456,164.670410 271.857452,162.952972 265.212097,162.942001 
	C264.218719,162.858871 263.225342,162.775726 262.224670,161.830231 
	C262.301086,158.215302 262.377533,154.600372 262.867035,150.288208 
	C262.706787,141.253433 262.546539,132.218674 262.259827,122.342621 
M206.756454,262.848450 
	C212.251083,259.668335 216.940338,255.663467 217.517380,248.912338 
	C217.967545,243.645279 218.145203,238.237411 217.471252,233.017731 
	C216.287674,223.850830 208.604675,218.075119 199.525391,218.747223 
	C190.889862,219.386475 184.562469,226.268387 184.072617,235.332443 
	C183.476059,246.371140 183.463104,257.112427 195.236008,263.169220 
	C195.326462,263.215790 195.304230,263.481415 194.450485,263.361237 
	C181.130142,262.539795 171.787521,267.875397 167.555969,281.194366 
	C159.956573,266.323578 153.366653,262.226685 139.653152,262.839142 
	C144.362030,259.903473 149.220215,256.678589 149.848419,250.770584 
	C150.526627,244.392334 150.705933,237.798752 149.866608,231.462860 
	C148.838943,223.705109 141.243332,218.438065 133.217239,218.679031 
	C125.092522,218.922943 117.777367,224.979462 117.189835,232.962875 
	C116.338455,244.531311 115.001991,256.588196 128.184326,263.189362 
	C128.291458,263.243011 128.301956,263.489624 127.474754,263.347412 
	C108.464241,263.197357 100.090149,271.526978 100.088623,290.593842 
	C100.086807,313.228973 100.088181,335.864136 100.088173,358.499268 
	C100.088173,360.268890 100.088181,362.038513 100.088181,363.829376 
	C122.796883,363.829376 144.896698,363.829376 167.500031,363.933899 
	C167.667862,363.899078 167.835709,363.864227 168.909714,364.084473 
	C190.696701,364.084473 212.483673,364.084473 234.354874,364.084473 
	C234.441772,362.403961 234.552582,361.248108 234.553802,360.092133 
	C234.579208,336.095917 234.650894,312.099548 234.587570,288.103546 
	C234.543228,271.299835 223.723541,261.892456 206.756454,262.848450 
M308.981934,203.498718 
	C306.628571,206.481537 306.596375,209.561508 309.682251,211.777573 
	C314.783508,215.441025 317.327209,210.301422 320.584198,208.023285 
	C350.485443,224.237305 376.234985,220.554550 392.914520,197.741394 
	C407.686401,177.537369 405.104004,148.990173 386.944641,131.746780 
	C368.647034,114.372116 340.367157,113.176445 320.719360,128.813614 
	C301.802277,143.869217 293.710022,173.706284 312.470398,199.738632 
	C311.504883,200.786331 310.502808,201.873688 308.981934,203.498718 
M186.383835,194.944275 
	C185.454300,195.887695 184.481918,196.793076 183.603500,197.781906 
	C181.256821,200.423508 181.111633,203.306900 183.607986,205.744598 
	C186.127579,208.204987 189.081955,207.888626 191.597763,205.522171 
	C194.369217,202.915222 197.119934,200.255753 199.598465,197.377060 
	C201.748993,194.879303 201.703064,191.647507 198.992188,189.993607 
	C197.197617,188.898712 194.035873,188.984497 191.934937,189.758987 
	C189.951279,190.490250 188.554260,192.812790 186.383835,194.944275 
M144.399963,190.996628 
	C141.643417,188.113083 138.466415,186.844879 135.403976,190.128220 
	C132.393494,193.355850 133.826233,196.468643 136.694748,199.181198 
	C138.857346,201.226212 140.862961,203.438080 143.040039,205.466675 
	C145.564056,207.818588 148.441833,208.206757 151.015930,205.773239 
	C153.809464,203.132263 153.426804,200.175064 150.863266,197.483749 
	C148.924347,195.448135 146.903870,193.490189 144.399963,190.996628 
M166.625015,173.948883 
	C163.285507,174.535980 161.856201,176.661499 161.845963,179.910522 
	C161.835464,183.236389 161.837051,186.562347 161.843979,189.888229 
	C161.851761,193.620270 163.517334,196.081802 167.429688,196.021515 
	C171.322159,195.961563 172.916367,193.392822 172.962418,189.736115 
	C173.002197,186.576996 172.999786,183.416656 172.963257,180.257462 
	C172.920959,176.599518 171.335449,174.237793 166.625015,173.948883 
z"/>
<path fill="#0B5178" opacity="1.000000" stroke="none" 
	d="
M166.996521,363.829376 
	C144.896698,363.829376 122.796883,363.829376 100.088181,363.829376 
	C100.088181,362.038513 100.088173,360.268890 100.088173,358.499268 
	C100.088181,335.864136 100.086807,313.228973 100.088623,290.593842 
	C100.090149,271.526978 108.464241,263.197357 128.251770,263.644104 
	C132.588928,263.842987 136.149063,263.745117 139.709213,263.647278 
	C153.366653,262.226685 159.956573,266.323578 167.555969,281.194366 
	C171.787521,267.875397 181.130142,262.539795 195.231445,263.649536 
	C199.573761,263.840393 203.135086,263.742950 206.696426,263.645508 
	C223.723541,261.892456 234.543228,271.299835 234.587570,288.103546 
	C234.650894,312.099548 234.579208,336.095917 234.553802,360.092133 
	C234.552582,361.248108 234.441772,362.403961 234.354874,364.084473 
	C212.483673,364.084473 190.696701,364.084473 168.458755,363.499573 
	C168.007797,336.664276 168.007797,310.413849 168.007797,284.163452 
	C167.670700,284.164551 167.333618,284.165649 166.996521,284.166718 
	C166.996521,310.720947 166.996521,337.275146 166.996521,363.829376 
z"/>
<path fill="#C80B50" opacity="1.000000" stroke="none" 
	d="
M273.557678,219.330994 
	C273.560364,220.613708 273.563049,221.896439 273.230530,223.637512 
	C265.383667,226.079987 262.363342,229.822266 262.189880,237.532013 
	C262.081268,242.358032 262.095306,247.186829 261.686646,252.081421 
	C253.306824,254.395187 251.117874,257.454010 251.074524,266.900024 
	C250.822647,272.875031 252.923615,277.454681 258.123749,279.283020 
	C261.205200,280.366394 262.300323,282.012573 262.734222,284.681122 
	C265.266998,300.258850 278.689850,309.958069 294.516388,307.835144 
	C301.565582,306.889587 308.213654,304.023834 312.012177,297.143097 
	C324.056671,296.190765 335.379211,297.661469 344.867249,307.362091 
	C345.606537,309.681824 346.135895,311.435822 346.147827,313.193298 
	C346.231537,325.501587 346.208405,337.810638 346.219421,350.119446 
	C342.950958,352.201141 340.232178,351.231476 337.813324,348.603790 
	C335.583160,346.181152 333.354248,343.757324 331.124817,341.334015 
	C330.714661,341.514740 330.304474,341.695465 329.894318,341.876190 
	C329.894318,349.041626 329.894318,356.207031 329.894318,363.740417 
	C301.527039,363.740417 273.811127,363.740417 245.721924,363.740417 
	C245.646271,362.355103 245.497787,360.900177 245.497391,359.445221 
	C245.485245,315.454193 245.483627,271.463196 245.495178,227.472183 
	C245.496155,223.774170 245.233673,219.878021 250.991302,218.855530 
	C259.065247,219.043762 266.311462,219.187378 273.557678,219.330994 
z"/>
<path fill="#FAB402" opacity="1.000000" stroke="none" 
	d="
M309.241333,203.229889 
	C310.502808,201.873688 311.504883,200.786331 312.470398,199.738632 
	C293.710022,173.706284 301.802277,143.869217 320.719360,128.813614 
	C340.367157,113.176445 368.647034,114.372116 386.944641,131.746780 
	C405.104004,148.990173 407.686401,177.537369 392.914520,197.741394 
	C376.234985,220.554550 350.485443,224.237305 320.584198,208.023285 
	C317.327209,210.301422 314.783508,215.441025 309.682251,211.777573 
	C306.596375,209.561508 306.628571,206.481537 309.241333,203.229889 
M324.072327,161.565659 
	C325.208191,166.016632 325.495605,170.936264 327.644989,174.827393 
	C333.239807,184.955856 339.548126,194.699005 345.774628,204.466553 
	C349.790009,210.765472 354.325897,210.885498 358.508606,204.691956 
	C364.158813,196.325439 369.970032,187.989532 374.673615,179.091492 
	C377.438263,173.861496 378.189148,167.567001 379.866791,160.865295 
	C382.335358,141.699738 366.392426,128.211517 350.728333,128.965500 
	C334.810242,129.731705 323.572479,142.947784 324.072327,161.565659 
z"/>
<path fill="#EBC59F" opacity="1.000000" stroke="none" 
	d="
M251.084427,266.450104 
	C251.117874,257.454010 253.306824,254.395187 261.864807,252.443726 
	C262.410583,259.802307 262.410583,266.865631 262.410583,274.291870 
	C266.942352,273.564148 267.888397,271.104797 267.936188,268.070801 
	C268.006989,263.575012 267.936371,259.077240 267.964325,254.580536 
	C268.003204,248.324829 269.359680,246.768326 275.484955,246.693649 
	C285.476501,246.571838 295.471008,246.602432 305.463409,246.679062 
	C310.813141,246.720062 312.683685,248.585602 312.798218,253.865356 
	C312.902954,258.693115 312.816284,263.524811 312.837799,268.354645 
	C312.851837,271.506531 313.926025,273.790405 318.422272,274.161682 
	C318.422272,264.960175 318.422272,256.027161 318.422272,247.094162 
	C318.819855,250.114105 319.738007,252.186462 323.193207,253.499649 
	C327.487732,255.131821 329.345459,259.104645 329.164642,263.989410 
	C328.989319,268.725861 326.842957,272.142090 322.573639,273.521973 
	C319.154266,274.627197 318.198151,276.321808 317.705078,279.758301 
	C316.762573,286.327209 313.264465,291.803619 307.818054,296.670898 
	C286.735291,308.969147 267.612152,300.561859 262.473419,277.409363 
	C262.227478,276.301331 261.386841,274.588165 260.604614,274.456665 
	C255.762741,273.642731 253.347885,270.187317 251.084427,266.450104 
M287.089874,290.962891 
	C296.561066,291.707397 303.281494,287.270538 303.936737,279.544556 
	C304.062469,278.061768 302.883942,276.468414 302.307129,274.926086 
	C301.088684,276.090118 299.188507,277.054535 298.778351,278.455200 
	C297.498596,282.825562 294.943848,285.716949 290.433746,285.718750 
	C285.723328,285.720612 282.975189,282.870178 281.862335,278.160980 
	C281.559204,276.878204 279.704987,275.961945 278.562622,274.877472 
	C277.867218,276.329620 276.437866,277.872070 276.603577,279.218231 
	C277.317871,285.022430 280.823425,288.796509 287.089874,290.962891 
M290.382690,277.155396 
	C290.707428,277.092804 291.310242,277.052124 291.317169,276.964508 
	C291.713257,271.933136 292.059845,266.897827 292.411316,261.862915 
	C290.991699,261.906189 289.057098,261.383728 288.259338,262.110046 
	C286.580261,263.638672 287.791656,274.835510 290.382690,277.155396 
z"/>
<path fill="#F0C7A1" opacity="1.000000" stroke="none" 
	d="
M346.452881,350.338745 
	C346.208405,337.810638 346.231537,325.501587 346.147827,313.193298 
	C346.135895,311.435822 345.606537,309.681824 345.149780,307.553680 
	C345.349915,305.139069 345.992950,303.102325 346.032501,301.053925 
	C346.154572,294.728485 346.089569,288.398041 346.011658,282.070587 
	C345.965057,278.287140 347.270203,275.596680 352.093567,274.765717 
	C354.363312,275.476318 355.813202,276.221649 357.263062,276.967010 
	C355.715759,278.464050 354.168457,279.961121 352.072693,281.988831 
	C351.627808,289.853607 353.041962,291.679382 360.307770,290.954498 
	C363.585663,291.052551 366.399231,291.122009 369.212769,291.191498 
	C369.118591,309.124146 369.130005,327.058563 368.826263,344.987640 
	C368.775635,347.978088 368.103546,351.479858 366.429474,353.825165 
	C360.921112,361.542175 351.662750,359.851074 346.452881,350.338745 
z"/>
<path fill="#0F537A" opacity="1.000000" stroke="none" 
	d="
M318.352966,246.619232 
	C318.422272,256.027161 318.422272,264.960175 318.422272,274.161682 
	C313.926025,273.790405 312.851837,271.506531 312.837799,268.354645 
	C312.816284,263.524811 312.902954,258.693115 312.798218,253.865356 
	C312.683685,248.585602 310.813141,246.720062 305.463409,246.679062 
	C295.471008,246.602432 285.476501,246.571838 275.484955,246.693649 
	C269.359680,246.768326 268.003204,248.324829 267.964325,254.580536 
	C267.936371,259.077240 268.006989,263.575012 267.936188,268.070801 
	C267.888397,271.104797 266.942352,273.564148 262.410583,274.291870 
	C262.410583,266.865631 262.410583,259.802307 262.232422,252.376694 
	C262.095306,247.186829 262.081268,242.358032 262.189880,237.532013 
	C262.363342,229.822266 265.383667,226.079987 273.234772,224.022690 
	C278.815125,224.744751 282.690460,227.320587 284.469086,232.678528 
	C289.622467,224.379684 304.444397,220.580399 312.555115,225.959930 
	C315.193542,227.709900 317.111908,231.507645 317.960663,234.736526 
	C318.902557,238.319839 318.244873,242.323608 318.352966,246.619232 
z"/>
<path fill="#0F537A" opacity="1.000000" stroke="none" 
	d="
M139.681183,263.243195 
	C136.149063,263.745117 132.588928,263.842987 128.693176,263.793488 
	C128.301956,263.489624 128.291458,263.243011 128.184326,263.189362 
	C115.001991,256.588196 116.338455,244.531311 117.189835,232.962875 
	C117.777367,224.979462 125.092522,218.922943 133.217239,218.679031 
	C141.243332,218.438065 148.838943,223.705109 149.866608,231.462860 
	C150.705933,237.798752 150.526627,244.392334 149.848419,250.770584 
	C149.220215,256.678589 144.362030,259.903473 139.681183,263.243195 
z"/>
<path fill="#0F537A" opacity="1.000000" stroke="none" 
	d="
M206.726440,263.246979 
	C203.135086,263.742950 199.573761,263.840393 195.673508,263.791260 
	C195.304230,263.481415 195.326462,263.215790 195.236008,263.169220 
	C183.463104,257.112427 183.476059,246.371140 184.072617,235.332443 
	C184.562469,226.268387 190.889862,219.386475 199.525391,218.747223 
	C208.604675,218.075119 216.287674,223.850830 217.471252,233.017731 
	C218.145203,238.237411 217.967545,243.645279 217.517380,248.912338 
	C216.940338,255.663467 212.251083,259.668335 206.726440,263.246979 
z"/>
<path fill="#C80B50" opacity="1.000000" stroke="none" 
	d="
M256.589752,151.341690 
	C246.281921,151.333588 235.974060,151.305725 225.666306,151.328873 
	C222.386856,151.336243 219.108704,151.291931 218.089722,147.310059 
	C217.040466,143.209885 219.543716,141.209274 222.901825,139.780884 
	C224.261871,139.202393 225.521774,138.388443 227.361954,137.392136 
	C225.399155,136.366013 223.871094,135.487122 222.277069,134.751068 
	C219.285736,133.369751 217.236450,131.396698 218.012360,127.804741 
	C218.796005,124.176971 221.552917,123.319450 224.811462,123.316101 
	C235.119202,123.305489 245.426956,123.289635 256.256989,123.703491 
	C256.716095,133.201355 256.652924,142.271515 256.589752,151.341690 
z"/>
<path fill="#03A1C8" opacity="1.000000" stroke="none" 
	d="
M351.913910,269.113281 
	C347.640259,268.460083 346.164398,265.692200 346.206543,261.687866 
	C346.253845,257.196045 346.138855,252.701584 346.238190,248.211456 
	C346.355438,242.910645 348.242279,241.042465 353.541321,241.012283 
	C362.026123,240.963959 370.511597,241.027710 379.465149,241.561264 
	C379.927917,250.997498 379.922302,259.916534 379.916718,268.835602 
	C374.621735,268.906433 369.326782,268.977234 363.108826,269.037109 
	C358.761902,269.055206 355.337891,269.084229 351.913910,269.113281 
z"/>
<path fill="#F0C7A1" opacity="1.000000" stroke="none" 
	d="
M273.666138,218.852859 
	C266.311462,219.187378 259.065247,219.043762 251.361389,218.771820 
	C250.980728,207.031616 251.057755,195.419754 251.586761,183.441116 
	C255.864120,183.686081 259.714020,184.828186 263.503021,184.653015 
	C265.056427,184.581207 267.752899,181.647430 267.730286,180.046692 
	C267.650024,174.373886 266.620697,168.714478 265.951019,163.050003 
	C271.857452,162.952972 273.823456,164.670410 273.840851,170.503021 
	C273.888428,186.460052 273.805725,202.417465 273.666138,218.852859 
z"/>
<path fill="#FAB402" opacity="1.000000" stroke="none" 
	d="
M380.261719,268.985535 
	C379.922302,259.916534 379.927917,250.997498 379.925110,241.621399 
	C385.219452,239.406799 390.522186,237.649246 396.276550,236.366562 
	C396.677368,249.261581 396.626526,261.681732 396.575714,274.101868 
	C391.252716,272.446381 385.929749,270.790924 380.261719,268.985535 
z"/>
<path fill="#CEAA89" opacity="1.000000" stroke="none" 
	d="
M265.581543,162.996002 
	C266.620697,168.714478 267.650024,174.373886 267.730286,180.046692 
	C267.752899,181.647430 265.056427,184.581207 263.503021,184.653015 
	C259.714020,184.828186 255.864120,183.686081 251.690308,182.975372 
	C251.240265,178.258789 251.106110,173.641602 251.047729,169.023453 
	C251.004120,165.572968 252.642883,163.406708 256.942780,162.752350 
	C259.257507,162.724747 260.744751,162.708664 262.231964,162.692581 
	C263.225342,162.775726 264.218719,162.858871 265.581543,162.996002 
z"/>
<path fill="#A4062D" opacity="1.000000" stroke="none" 
	d="
M251.074524,266.900024 
	C253.347885,270.187317 255.762741,273.642731 260.604614,274.456665 
	C261.386841,274.588165 262.227478,276.301331 262.473419,277.409363 
	C267.612152,300.561859 286.735291,308.969147 307.685242,296.970093 
	C309.093658,296.910309 310.158264,296.957764 311.617493,297.074158 
	C308.213654,304.023834 301.565582,306.889587 294.516388,307.835144 
	C278.689850,309.958069 265.266998,300.258850 262.734222,284.681122 
	C262.300323,282.012573 261.205200,280.366394 258.123749,279.283020 
	C252.923615,277.454681 250.822647,272.875031 251.074524,266.900024 
z"/>
<path fill="#0B5178" opacity="1.000000" stroke="none" 
	d="
M396.649506,274.510040 
	C396.626526,261.681732 396.677368,249.261581 396.651978,236.369843 
	C396.662537,234.921783 396.482605,233.807007 396.900116,233.002151 
	C397.487579,231.869781 398.518250,230.967346 399.359375,229.966583 
	C400.307587,231.027618 401.984344,232.030670 402.074219,233.160034 
	C402.410889,237.390198 402.228729,241.661667 402.161743,246.838211 
	C402.391815,253.141525 402.701172,258.524261 403.010498,263.907013 
	C402.751373,267.581329 402.713837,271.290833 402.138672,274.915009 
	C401.855652,276.698364 400.577423,278.323792 399.749573,280.020691 
	C398.740814,278.319855 397.732056,276.619049 396.649506,274.510040 
z"/>
<path fill="#CEAA89" opacity="1.000000" stroke="none" 
	d="
M369.582703,291.138062 
	C366.399231,291.122009 363.585663,291.052551 360.185120,290.595276 
	C355.459259,283.598145 357.085693,276.313934 363.055664,274.722229 
	C364.379211,274.753113 365.703857,274.834503 367.026062,274.804901 
	C370.175385,274.734467 373.075897,275.035431 373.994263,278.820770 
	C375.406372,284.640930 373.963654,289.028046 369.582703,291.138062 
z"/>
<path fill="#03A1C8" opacity="1.000000" stroke="none" 
	d="
M186.641510,194.689835 
	C188.554260,192.812790 189.951279,190.490250 191.934937,189.758987 
	C194.035873,188.984497 197.197617,188.898712 198.992188,189.993607 
	C201.703064,191.647507 201.748993,194.879303 199.598465,197.377060 
	C197.119934,200.255753 194.369217,202.915222 191.597763,205.522171 
	C189.081955,207.888626 186.127579,208.204987 183.607986,205.744598 
	C181.111633,203.306900 181.256821,200.423508 183.603500,197.781906 
	C184.481918,196.793076 185.454300,195.887695 186.641510,194.689835 
z"/>
<path fill="#FAB402" opacity="1.000000" stroke="none" 
	d="
M144.659821,191.247162 
	C146.903870,193.490189 148.924347,195.448135 150.863266,197.483749 
	C153.426804,200.175064 153.809464,203.132263 151.015930,205.773239 
	C148.441833,208.206757 145.564056,207.818588 143.040039,205.466675 
	C140.862961,203.438080 138.857346,201.226212 136.694748,199.181198 
	C133.826233,196.468643 132.393494,193.355850 135.403976,190.128220 
	C138.466415,186.844879 141.643417,188.113083 144.659821,191.247162 
z"/>
<path fill="#C80B50" opacity="1.000000" stroke="none" 
	d="
M167.031662,173.931274 
	C171.335449,174.237793 172.920959,176.599518 172.963257,180.257462 
	C172.999786,183.416656 173.002197,186.576996 172.962418,189.736115 
	C172.916367,193.392822 171.322159,195.961563 167.429688,196.021515 
	C163.517334,196.081802 161.851761,193.620270 161.843979,189.888229 
	C161.837051,186.562347 161.835464,183.236389 161.845963,179.910522 
	C161.856201,176.661499 163.285507,174.535980 167.031662,173.931274 
z"/>
<path fill="#0C5179" opacity="1.000000" stroke="none" 
	d="
M262.228333,162.261414 
	C260.744751,162.708664 259.257507,162.724747 257.323975,162.733368 
	C256.826691,159.218277 256.775787,155.710648 256.657288,151.772339 
	C256.652924,142.271515 256.716095,133.201355 256.701355,123.693253 
	C257.597717,121.483368 258.572021,119.711403 259.546295,117.939430 
	C260.450806,119.407158 261.355316,120.874893 262.208374,123.194077 
	C262.255920,133.025513 262.354919,142.005478 262.453979,150.985443 
	C262.377533,154.600372 262.301086,158.215302 262.228333,162.261414 
z"/>
<path fill="#03A1C8" opacity="1.000000" stroke="none" 
	d="
M403.380920,263.869568 
	C402.701172,258.524261 402.391815,253.141525 402.179688,247.294037 
	C410.762329,246.687805 415.428680,251.707565 412.867340,258.189331 
	C411.220734,262.356293 407.415436,262.963104 403.380920,263.869568 
z"/>
<path fill="#0F537A" opacity="1.000000" stroke="none" 
	d="
M363.059509,274.328552 
	C357.085693,276.313934 355.459259,283.598145 359.720764,290.566650 
	C353.041962,291.679382 351.627808,289.853607 352.072693,281.988831 
	C354.168457,279.961121 355.715759,278.464050 357.263062,276.967010 
	C355.813202,276.221649 354.363312,275.476318 352.480652,274.734131 
	C352.012878,273.131989 351.977936,271.526703 351.928436,269.517334 
	C355.337891,269.084229 358.761902,269.055206 362.649780,269.073700 
	C363.096924,270.725800 363.080139,272.330322 363.059509,274.328552 
z"/>
<path fill="#0F537A" opacity="1.000000" stroke="none" 
	d="
M167.248276,363.881653 
	C166.996521,337.275146 166.996521,310.720947 166.996521,284.166718 
	C167.333618,284.165649 167.670700,284.164551 168.007797,284.163452 
	C168.007797,310.413849 168.007797,336.664276 168.005676,363.372009 
	C167.835709,363.864227 167.667862,363.899078 167.248276,363.881653 
z"/>
<path fill="#CEAA89" opacity="1.000000" stroke="none" 
	d="
M262.660492,150.636826 
	C262.354919,142.005478 262.255920,133.025513 262.271606,123.614716 
	C262.546539,132.218674 262.706787,141.253433 262.660492,150.636826 
z"/>
<path fill="#C90D4F" opacity="1.000000" stroke="none" 
	d="
M324.207092,160.679077 
	C323.572479,142.947784 334.810242,129.731705 350.728333,128.965500 
	C366.392426,128.211517 382.335358,141.699738 379.620178,161.587830 
	C374.692291,176.209229 366.315948,187.990326 357.881927,199.730789 
	C353.973694,205.171234 350.466431,205.239395 346.538727,199.870056 
	C337.607391,187.660522 329.158508,175.162399 324.207092,160.679077 
M335.471466,156.748886 
	C335.515961,157.184952 335.560425,157.621017 335.413208,158.462967 
	C335.443024,158.785217 335.591949,159.037140 335.849701,159.975128 
	C337.663544,168.524689 344.578888,174.236557 352.661835,173.861511 
	C360.898895,173.479309 367.299896,167.571335 368.746399,158.728516 
	C369.349182,148.831772 362.313721,140.530029 352.959198,140.099808 
	C343.764160,139.676926 336.265533,146.617920 335.471466,156.748886 
z"/>
<path fill="#DC9103" opacity="1.000000" stroke="none" 
	d="
M324.139709,161.122375 
	C329.158508,175.162399 337.607391,187.660522 346.538727,199.870056 
	C350.466431,205.239395 353.973694,205.171234 357.881927,199.730789 
	C366.315948,187.990326 374.692291,176.209229 379.609680,162.030823 
	C378.189148,167.567001 377.438263,173.861496 374.673615,179.091492 
	C369.970032,187.989532 364.158813,196.325439 358.508606,204.691956 
	C354.325897,210.885498 349.790009,210.765472 345.774628,204.466553 
	C339.548126,194.699005 333.239807,184.955856 327.644989,174.827393 
	C325.495605,170.936264 325.208191,166.016632 324.139709,161.122375 
z"/>
<path fill="#0F537A" opacity="1.000000" stroke="none" 
	d="
M286.687103,290.874939 
	C280.823425,288.796509 277.317871,285.022430 276.603577,279.218231 
	C276.437866,277.872070 277.867218,276.329620 278.562622,274.877472 
	C279.704987,275.961945 281.559204,276.878204 281.862335,278.160980 
	C282.975189,282.870178 285.723328,285.720612 290.433746,285.718750 
	C294.943848,285.716949 297.498596,282.825562 298.778351,278.455200 
	C299.188507,277.054535 301.088684,276.090118 302.307129,274.926086 
	C302.883942,276.468414 304.062469,278.061768 303.936737,279.544556 
	C303.281494,287.270538 296.561066,291.707397 286.687103,290.874939 
z"/>
<path fill="#0C5179" opacity="1.000000" stroke="none" 
	d="
M289.934082,277.108521 
	C287.791656,274.835510 286.580261,263.638672 288.259338,262.110046 
	C289.057098,261.383728 290.991699,261.906189 292.411316,261.862915 
	C292.059845,266.897827 291.713257,271.933136 291.317169,276.964508 
	C291.310242,277.052124 290.707428,277.092804 289.934082,277.108521 
z"/>
<path fill="#FAB402" opacity="1.000000" stroke="none" 
	d="
M335.604889,158.057083 
	C335.560425,157.621017 335.515961,157.184952 335.830627,156.306763 
	C337.608673,154.249207 339.032410,152.638077 340.445526,151.017624 
	C344.896912,145.913086 350.634186,144.887848 356.783508,146.505829 
	C363.290009,148.217773 367.267548,152.614410 368.310699,159.417923 
	C367.299896,167.571335 360.898895,173.479309 352.661835,173.861511 
	C344.578888,174.236557 337.663544,168.524689 335.882996,159.390182 
	C335.895172,158.521378 335.791382,158.271988 335.604889,158.057083 
z"/>
<path fill="#DC9103" opacity="1.000000" stroke="none" 
	d="
M368.528564,159.073212 
	C367.267548,152.614410 363.290009,148.217773 356.783508,146.505829 
	C350.634186,144.887848 344.896912,145.913086 340.445526,151.017624 
	C339.032410,152.638077 337.608673,154.249207 335.924133,155.989258 
	C336.265533,146.617920 343.764160,139.676926 352.959198,140.099808 
	C362.313721,140.530029 369.349182,148.831772 368.528564,159.073212 
z"/>
<path fill="#DC9103" opacity="1.000000" stroke="none" 
	d="
M335.509033,158.260025 
	C335.791382,158.271988 335.895172,158.521378 335.888123,159.011993 
	C335.591949,159.037140 335.443024,158.785217 335.509033,158.260025 
z"/>
</svg>