<?xml version="1.0" encoding="utf-8"?>
<!-- Generator: Adobe Illustrator 27.5.0, SVG Export Plug-In . SVG Version: 6.00 Build 0)  -->
<svg version="1.1" id="Capa_1" xmlns="http://www.w3.org/2000/svg" xmlns:xlink="http://www.w3.org/1999/xlink" x="0px" y="0px"
	 viewBox="0 0 425.2 425.2" style="enable-background:new 0 0 425.2 425.2;" xml:space="preserve">
<g>
	<rect x="0.001" y="0" style="fill:#FFFFFF;" width="425.197" height="425.2"/>
	<path style="fill:#BCE1E5;" d="M388.646,287.964h-54.597c9.71,0,17.582-9.574,17.582-21.382c0-11.809-7.872-21.382-17.582-21.382
		h42.568c9.71,0,17.582-9.573,17.582-21.382c0-11.809-7.872-21.381-17.582-21.381h-8.031c5.257-3.697,8.801-10.591,8.801-18.505
		c0-8.914-4.486-16.547-10.861-19.757h20.578c9.711,0,17.584-9.573,17.584-21.382c0-11.809-7.873-21.382-17.584-21.382h-54.596
		c9.709,0,17.58-9.573,17.58-21.381c0-11.809-7.871-21.381-17.58-21.381h42.566c9.711,0,17.582-9.573,17.582-21.382
		c0-11.809-7.871-21.382-17.582-21.382H30.988c-9.71,0-17.582,9.573-17.582,21.382c0,11.809,7.873,21.382,17.582,21.382h22.211
		c-9.711,0-17.584,9.572-17.584,21.381c0,11.808,7.873,21.381,17.584,21.381h-10.18c-9.711,0-17.584,9.573-17.584,21.382
		c0,11.809,7.873,21.382,17.584,21.382h30.757c-6.376,3.21-10.863,10.843-10.863,19.757c0,7.914,3.545,14.808,8.801,18.505H32.531
		c-9.711,0-17.582,9.572-17.582,21.381c0,11.809,7.871,21.382,17.582,21.382H54.74c-9.709,0-17.582,9.572-17.582,21.382
		c0,11.808,7.873,21.382,17.582,21.382H44.562c-9.71,0-17.584,9.572-17.584,21.381s7.874,21.381,17.584,21.381H75.32
		c-6.376,3.211-10.865,10.844-10.865,19.758c0,11.809,7.873,21.382,17.582,21.382h279.311c9.711,0,17.582-9.573,17.582-21.382
		c0-8.914-4.486-16.547-10.861-19.758h20.578c9.709,0,17.582-9.572,17.582-21.381S398.355,287.964,388.646,287.964z"/>
</g>
<path style="fill:#C0C2C4;" d="M90.547,387.861c0-8.191,52.089-14.831,116.342-14.831c64.254,0,113.97,9.635,113.97,17.825
	s-49.716,11.837-113.97,11.837C142.636,402.692,90.547,396.053,90.547,387.861z"/>
<g>
	<g>
		<polygon style="fill:#3E0D00;" points="106.403,267.765 85.788,280.635 85.788,396.104 106.403,383.813 		"/>
		<polygon style="fill:#3E0D00;" points="339.412,267.751 318.8,280.635 318.8,396.104 339.412,383.801 		"/>
		<rect x="85.788" y="280.635" style="fill:#582100;" width="233.012" height="8.243"/>
		<polygon style="fill:#71300D;" points="106.389,267.765 85.788,280.635 318.8,280.635 339.404,267.765 		"/>
		<rect x="315.689" y="280.635" style="fill:#572000;" width="3.111" height="115.47"/>
		<rect x="85.788" y="280.635" style="fill:#572000;" width="3.111" height="115.47"/>
	</g>
	<g>
		<path style="fill:#00010D;" d="M259.058,385.992c0,2.784-2.255,5.042-5.04,5.042c-2.783,0-5.041-2.258-5.041-5.042
			c0-2.783,2.258-5.039,5.041-5.039C256.803,380.953,259.058,383.209,259.058,385.992z"/>
		
			<line style="fill:none;stroke:#00010D;stroke-width:3.6881;stroke-miterlimit:10;" x1="254.018" y1="368.436" x2="254.018" y2="382.06"/>
		<rect x="275.446" y="254.814" style="fill:#28313B;" width="6.394" height="53.108"/>
		<path style="fill:#1B232D;" d="M287.004,262.245c0,1.545-1.576,2.798-3.519,2.798h-9.684c-1.941,0-3.518-1.253-3.518-2.798l0,0
			c0-1.543,1.577-2.796,3.518-2.796h9.684C285.428,259.449,287.004,260.702,287.004,262.245L287.004,262.245z"/>
		<path style="fill:#1B232D;" d="M287.004,269.486c0,1.544-1.576,2.797-3.519,2.797h-9.684c-1.941,0-3.518-1.253-3.518-2.797l0,0
			c0-1.546,1.577-2.798,3.518-2.798h9.684C285.428,266.689,287.004,267.94,287.004,269.486L287.004,269.486z"/>
		<path style="fill:#1B232D;" d="M287.004,276.725c0,1.545-1.576,2.797-3.519,2.797h-9.684c-1.941,0-3.518-1.252-3.518-2.797l0,0
			c0-1.544,1.577-2.796,3.518-2.796h9.684C285.428,273.929,287.004,275.181,287.004,276.725L287.004,276.725z"/>
		<path style="fill:#1B232D;" d="M287.004,283.904c0,1.543-1.576,2.796-3.519,2.796h-9.684c-1.941,0-3.518-1.253-3.518-2.796l0,0
			c0-1.545,1.577-2.798,3.518-2.798h9.684C285.428,281.107,287.004,282.359,287.004,283.904L287.004,283.904z"/>
		<path style="fill:#1B232D;" d="M287.004,291.145c0,1.544-1.576,2.797-3.519,2.797h-9.684c-1.941,0-3.518-1.253-3.518-2.797l0,0
			c0-1.545,1.577-2.797,3.518-2.797h9.684C285.428,288.348,287.004,289.6,287.004,291.145L287.004,291.145z"/>
		<path style="fill:#1B232D;" d="M287.004,297.783c0,1.543-1.576,2.795-3.519,2.795h-9.684c-1.941,0-3.518-1.252-3.518-2.795l0,0
			c0-1.545,1.577-2.799,3.518-2.799h9.684C285.428,294.984,287.004,296.238,287.004,297.783L287.004,297.783z"/>
		<path style="fill:#D83633;" d="M286.252,313.257c0,6.112-4.955,11.066-11.067,11.066h-42.334c-6.111,0-11.066-4.954-11.066-11.066
			l0,0c0-6.114,4.954-11.067,11.066-11.067h42.334C281.297,302.19,286.252,307.143,286.252,313.257L286.252,313.257z"/>
		<path style="fill:#D1D3D4;" d="M275.185,302.19h-0.078c0.449,1.204,0.706,2.502,0.706,3.863c0,6.112-4.956,11.067-11.066,11.067
			h-42.255c1.567,4.203,5.608,7.203,10.358,7.203h42.334c6.112,0,11.067-4.954,11.067-11.066
			C286.252,307.143,281.297,302.19,275.185,302.19z"/>
		<path style="fill:#D83633;" d="M301.784,243.764c0,8.148-6.606,14.754-14.753,14.754H257.09c-8.146,0-14.752-6.606-14.752-14.754
			v-14.745c0-8.148,6.606-14.752,14.752-14.752h29.941c8.147,0,14.753,6.604,14.753,14.752V243.764z"/>
		<path style="fill:#D1D3D4;" d="M288.619,214.354c2.02,2.362,3.248,5.425,3.248,8.776v13.511c0,7.465-6.051,13.518-13.519,13.518
			h-27.431c-3.042,0-5.841-1.018-8.098-2.713c1.637,6.364,7.396,11.072,14.27,11.072h29.941c8.147,0,14.753-6.606,14.753-14.754
			v-14.745C301.784,221.407,296.02,215.148,288.619,214.354z"/>
		<rect x="250.778" y="324.323" style="fill:#151D27;" width="6.481" height="45.32"/>
		
			<line style="fill:none;stroke:#151D27;stroke-width:3.6881;stroke-miterlimit:10;" x1="253.285" y1="368.436" x2="232.959" y2="385.647"/>
		
			<line style="fill:none;stroke:#151D27;stroke-width:3.6881;stroke-miterlimit:10;" x1="255.278" y1="368.436" x2="275.602" y2="385.647"/>
		<path style="fill:#151D27;" d="M236.938,387.863c0,2.782-2.256,5.036-5.039,5.036c-2.785,0-5.041-2.254-5.041-5.036
			c0-2.785,2.256-5.041,5.041-5.041C234.682,382.822,236.938,385.078,236.938,387.863z"/>
		<path style="fill:#151D27;" d="M280.645,387.863c0,2.782-2.259,5.036-5.043,5.036c-2.783,0-5.04-2.254-5.04-5.036
			c0-2.785,2.257-5.041,5.04-5.041C278.386,382.822,280.645,385.078,280.645,387.863z"/>
	</g>
	<g>
		<polygon style="fill:#F9A374;" points="246.773,205.292 233.637,205.292 233.637,195.249 246.773,189.498 		"/>
		<path style="fill:#E6E7E8;" d="M239.077,202.98c-3.079-2.168-3.574-6.257-1.827-9.313l-3.613,1.582v10.043h13.136v-0.665
			C244.085,205.035,241.134,204.429,239.077,202.98z"/>
	</g>
	<path style="fill:#E6E7E8;" d="M269.538,286.446l3.137-72.685c-0.844-11.192-8.647-12.208-8.647-12.208l-18.516-1.957l-6.304,4.207
		l-5.83-3.763l-15.138,9.945c0,0-2.296,1.772-3.998,9.585l3.979,66.875H269.538z"/>
	<polygon style="fill:#D83633;" points="242.089,203.804 236.848,203.804 233.505,210.003 237.124,215.41 237.339,215.423 
		241.363,215.423 244.91,210.001 	"/>
	<polygon style="fill:#98221E;" points="237.124,215.41 236.152,272.698 240.862,280.846 245.285,272.353 241.363,215.423 	"/>
	<path style="fill:#003F54;" d="M270.974,286.446l1.701-73.372c-0.844-11.193-8.647-12.208-8.647-12.208l-17.036-1.873l4.069,87.454
		H270.974z"/>
	<path style="fill:#003F54;" d="M233.014,286.446l0.365-86.405l-15.138,9.945c0,0-2.296,1.772-3.998,9.585l3.979,66.875H233.014z"/>
	<path style="fill:#181421;" d="M218.223,286.446h52.751c0,0,7.349,29.224-28.312,26.649
		C242.662,313.096,214.051,313.994,218.223,286.446z"/>
	<polygon style="fill:#181421;" points="218.223,286.446 174.882,294.139 184.628,382.828 195.727,382.828 194.486,308.663 
		226.411,308.663 	"/>
	<polygon style="fill:#FFFFFF;" points="231.19,201.46 233.706,198.498 239.209,203.804 229.309,213.116 	"/>
	<polygon style="fill:#FFFFFF;" points="249.017,199.186 246.773,196.582 239.209,203.804 250.778,213.116 	"/>
	<g>
		<g>
			<path style="fill:#F9A374;" d="M254.042,171.529c-0.245,3.744,1.47,6.899,3.822,7.049c2.353,0.152,4.457-2.755,4.696-6.499
				c0.24-3.741-1.472-6.897-3.828-7.049C256.38,164.879,254.28,167.79,254.042,171.529z"/>
			<g>
				<path style="fill:#C8825F;" d="M257.374,170.194c0,0,0.006-0.209,0.053-0.553c0.044-0.346,0.162-0.838,0.377-1.372
					c0.224-0.516,0.616-1.122,1.197-1.203c0.143-0.021,0.295-0.013,0.451,0.011c0.025,0.012,0.187,0.047,0.237,0.074
					c0.055,0.036,0.109,0.047,0.18,0.096c0.263,0.165,0.492,0.436,0.661,0.753c0.182,0.311,0.316,0.665,0.411,1.021
					c0.087,0.354,0.163,0.728,0.156,1.053c-0.022,0.374,0.006,0.755-0.033,1.083c-0.035,0.334-0.064,0.648-0.096,0.94
					c-0.053,0.295-0.092,0.569-0.125,0.811c-0.03,0.245-0.094,0.45-0.123,0.624c-0.074,0.345-0.107,0.55-0.107,0.55
					s0.097-0.181,0.247-0.504c0.067-0.165,0.175-0.357,0.257-0.593c0.085-0.235,0.184-0.501,0.28-0.795
					c0.087-0.298,0.157-0.635,0.235-0.989c0.082-0.356,0.092-0.713,0.135-1.094c0.032-0.434-0.011-0.845-0.113-1.264
					c-0.1-0.414-0.244-0.828-0.461-1.222c-0.22-0.384-0.529-0.755-0.948-1.007c-0.094-0.064-0.23-0.116-0.353-0.163
					c-0.134-0.044-0.169-0.042-0.33-0.076c-0.234-0.023-0.468-0.018-0.7,0.032c-0.469,0.104-0.829,0.427-1.044,0.749
					c-0.227,0.324-0.343,0.663-0.425,0.971c-0.155,0.622-0.134,1.149-0.112,1.508C257.314,169.999,257.374,170.194,257.374,170.194z
					"/>
			</g>
			<path style="fill:#C8825F;" d="M257.374,170.194c0,0-0.267-0.374,1.24-0.599c0,0,1.73,0.106,0.979,2.023
				c-0.163,0.412-0.294,0.835-0.344,1.279c-0.07,0.625,0.313,1.435-0.021,2.015c-0.433,0.752-1.822,0.468-2.009-0.331
				c-0.143-0.61,0.499-1.736,0.799-2.206C258.017,172.374,258.928,170.944,257.374,170.194z"/>
			<g>
				<path style="fill:#C8825F;" d="M257.208,174.501c0.003,0.002-0.049,0.031-0.104,0.109c-0.064,0.078-0.13,0.201-0.176,0.363
					c-0.033,0.081-0.038,0.169-0.045,0.267c-0.007,0.099-0.021,0.205,0.013,0.307c0.025,0.103,0.042,0.217,0.079,0.325
					c0.042,0.103,0.108,0.196,0.166,0.295c0.069,0.091,0.123,0.199,0.209,0.265c0.078,0.074,0.173,0.132,0.253,0.192
					c0.163,0.133,0.339,0.2,0.499,0.227c0.314,0.08,0.531,0.058,0.531,0.058s-0.114-0.213-0.296-0.424
					c-0.045-0.057-0.094-0.112-0.149-0.162c-0.047-0.063-0.086-0.135-0.136-0.194c-0.049-0.06-0.092-0.129-0.152-0.183
					c-0.061-0.055-0.082-0.133-0.125-0.196c-0.105-0.118-0.163-0.254-0.238-0.386c-0.04-0.063-0.065-0.129-0.092-0.195
					c-0.021-0.068-0.066-0.133-0.085-0.195C257.267,174.724,257.208,174.501,257.208,174.501z"/>
			</g>
		</g>
		<path style="fill:#F9A374;" d="M214.601,158.257c0,0-2.691,28.122,11.077,36.975c0,0,6.879,6.761,15.141,0.838
			c0,0,12.26-6.613,14.28-11.657c0,0,10.584-45.664-15.113-47.139C239.985,137.274,218.041,132.195,214.601,158.257z"/>
		<path style="fill:#E6E7E8;" d="M239.985,137.274c0,0-1.741-0.404-4.324-0.399c4.559,1.77,8.047,5.553,10.373,10.162
			c3.298,6.531,5.567,14.558,5.948,21.883c0.501,9.719-4.489,19.637-13.233,24.342c-3.645,1.961-8.204,3.811-12.391,2.545
			c1.928,1.5,7.736,5.085,14.461,0.263c0,0,12.26-6.613,14.28-11.657C255.099,184.414,265.683,138.75,239.985,137.274z"/>
		<g>
			<g>
				<path style="fill:#2E2E2F;" d="M240.594,165.156c0,1.224,0.993,2.216,2.216,2.216c1.225,0,2.215-0.992,2.215-2.216
					c0-1.222-0.99-2.216-2.215-2.216C241.587,162.94,240.594,163.935,240.594,165.156z"/>
				<path style="fill:#FFFFFF;" d="M242.68,163.739c-0.177,0.248,0.079,0.739,0.577,1.097c0.496,0.355,1.042,0.444,1.221,0.196
					c0.18-0.248-0.077-0.738-0.574-1.098C243.407,163.579,242.859,163.49,242.68,163.739z"/>
			</g>
			<path style="fill:#3C2415;" d="M238.589,157.735c0,0-0.964,0.323-1.067,1.407c0,0,0.043,1.29,1.119,1.178
				c0,0,7.934-1.024,10.997,0.946C249.638,161.267,249.268,155.448,238.589,157.735z"/>
		</g>
		<g>
			<g>
				<path style="fill:#2E2E2F;" d="M227.266,165.156c0,1.224-0.992,2.216-2.214,2.216c-1.225,0-2.216-0.992-2.216-2.216
					c0-1.222,0.991-2.216,2.216-2.216C226.274,162.94,227.266,163.935,227.266,165.156z"/>
				<path style="fill:#FFFFFF;" d="M225.18,163.739c0.179,0.248-0.08,0.739-0.577,1.097c-0.496,0.355-1.042,0.444-1.222,0.196
					c-0.178-0.248,0.079-0.738,0.574-1.098C224.453,163.579,225.002,163.49,225.18,163.739z"/>
			</g>
			<path style="fill:#3C2415;" d="M229.27,157.735c0,0,0.967,0.323,1.067,1.407c0,0-0.045,1.29-1.119,1.178
				c0,0-7.934-1.024-10.996,0.946C218.223,161.267,218.593,155.448,229.27,157.735z"/>
		</g>
		<g>
			<g>
				<path style="fill:#D78E65;" d="M232.302,170.224c-0.001,0-0.278,0.932-0.76,2.225c-0.241,0.639-0.523,1.384-0.824,2.183
					c-0.072,0.198-0.145,0.4-0.219,0.604l-0.118,0.305c-0.011,0.028-0.059,0.155-0.04,0.101l-0.03,0.127
					c-0.091,0.383-0.131,0.798-0.135,1.19c0.006,0.393,0.058,0.768,0.178,1.089c0.115,0.328,0.324,0.571,0.574,0.787
					c0.52,0.414,1.291,0.574,1.942,0.633c0.664,0.069,1.245,0.036,1.653,0.033c0.412-0.014,0.647-0.022,0.647-0.022
					s-0.216,0.098-0.595,0.27c-0.389,0.147-0.949,0.359-1.681,0.472c-0.718,0.095-1.664,0.15-2.628-0.386
					c-0.474-0.264-0.888-0.718-1.138-1.23c-0.261-0.513-0.373-1.069-0.397-1.603c-0.025-0.537,0.03-1.052,0.141-1.561l0.052-0.205
					c0.054-0.162,0.054-0.138,0.083-0.216l0.133-0.322c0.093-0.211,0.184-0.42,0.275-0.626c0.211-0.396,0.411-0.78,0.616-1.133
					c0.227-0.343,0.427-0.674,0.643-0.96C231.52,170.821,232.303,170.224,232.302,170.224z"/>
			</g>
		</g>
		<path style="fill:#FFFFFF;" d="M227.58,183.675h12.35c0,0-0.221,4.565-6.175,5.04C233.755,188.715,228.313,189.024,227.58,183.675
			z"/>
		<g>
			<path style="fill:#CD8861;" d="M226.557,183.675c0,0,0.935-0.114,2.338-0.211c1.403-0.093,3.274-0.155,5.145-0.158
				c1.871,0.002,3.742,0.063,5.145,0.157c1.403,0.097,2.338,0.212,2.338,0.212s-0.936,0.115-2.338,0.212
				c-1.403,0.094-3.274,0.154-5.145,0.157c-1.871-0.003-3.741-0.064-5.145-0.158C227.492,183.789,226.557,183.675,226.557,183.675z"
				/>
		</g>
		<g>
			<g>
				<path style="fill:#CD8861;" d="M227.731,184.448c0,0,0.045,0.254,0.204,0.664c0.081,0.204,0.186,0.448,0.345,0.705
					c0.153,0.259,0.352,0.534,0.595,0.804c0.238,0.275,0.544,0.524,0.885,0.755c0.174,0.111,0.367,0.202,0.554,0.308
					c0.2,0.084,0.403,0.169,0.611,0.255c0.217,0.062,0.438,0.126,0.661,0.189c0.229,0.042,0.462,0.085,0.697,0.128
					c0.462,0.055,0.983,0.11,1.447,0.102c0.97-0.01,1.944-0.191,2.792-0.506c0.849-0.315,1.579-0.777,2.082-1.312
					c0.511-0.524,0.845-1.061,1.036-1.457c0.199-0.393,0.289-0.635,0.289-0.635s-0.012,0.063-0.035,0.18
					c-0.023,0.118-0.05,0.294-0.122,0.507c-0.064,0.216-0.156,0.477-0.294,0.763c-0.132,0.29-0.315,0.605-0.565,0.913
					c-0.489,0.621-1.227,1.243-2.147,1.638c-0.914,0.407-1.967,0.617-3.026,0.644c-0.552,0.002-1.044-0.064-1.57-0.135
					c-0.256-0.053-0.512-0.098-0.759-0.165c-0.243-0.084-0.484-0.166-0.721-0.248c-0.227-0.111-0.453-0.21-0.664-0.327
					c-0.2-0.139-0.402-0.263-0.583-0.405c-0.355-0.295-0.663-0.605-0.894-0.931c-0.478-0.645-0.657-1.294-0.753-1.731
					C227.71,184.707,227.731,184.448,227.731,184.448z"/>
			</g>
		</g>
		<g>
			<g>
				<path style="fill:#D1D3D4;" d="M229.309,185.842c0,0,0.556-0.059,1.39-0.104c0.834-0.05,1.945-0.068,3.057-0.081
					c1.111,0.012,2.223,0.03,3.057,0.081c0.833,0.044,1.389,0.104,1.389,0.104s-0.556,0.06-1.389,0.104
					c-0.834,0.051-1.945,0.068-3.057,0.081c-1.111-0.013-2.223-0.031-3.057-0.081C229.866,185.9,229.309,185.842,229.309,185.842z"
					/>
			</g>
			<g>
				<path style="fill:#D1D3D4;" d="M231.887,184.448c0,0,0.06,0.194,0.104,0.484c0.051,0.291,0.068,0.678,0.081,1.065
					c-0.013,0.388-0.029,0.775-0.08,1.065c-0.045,0.29-0.104,0.484-0.104,0.484s-0.059-0.194-0.104-0.484
					c-0.05-0.291-0.067-0.678-0.08-1.065c0.013-0.388,0.03-0.775,0.081-1.065C231.828,184.642,231.887,184.448,231.887,184.448z"/>
			</g>
			<g>
				<path style="fill:#D1D3D4;" d="M234.884,184.448c0,0,0.059,0.194,0.104,0.484c0.05,0.291,0.068,0.678,0.08,1.065
					c-0.012,0.388-0.03,0.775-0.08,1.065c-0.044,0.29-0.104,0.484-0.104,0.484s-0.06-0.194-0.104-0.484
					c-0.051-0.291-0.068-0.678-0.08-1.065c0.012-0.388,0.031-0.775,0.08-1.065C234.825,184.642,234.884,184.448,234.884,184.448z"/>
			</g>
		</g>
		<path style="fill:#3C2415;" d="M214.601,158.577c-0.195,2.162-0.359,4.413-0.201,6.579c0,0-5.701-18.363,6.225-30.778
			c7.046-7.338,19.306-5.778,19.306-5.778c15.977,0.769,20.864,15.982,20.864,15.982c2.673,11.709-1.013,20.591-1.013,20.591
			c-2.024-0.307-2.516,0-2.516,0l-0.528,8.912h-1.324v-9.699c-0.121-6.258-4.672-6.281-4.672-6.281
			c0.829-2.664,0.577-5.379-0.363-8.026c-0.666-1.876-2.959-3.779-4.968-4.009c-0.508-0.058-1.688,0.384-1.83,0.955
			c-1.288,5.105-12.937,4.257-13,4.249c-1.673-0.238-3.468-0.712-4.855-1.707c-0.712-0.512-1.28-1.081-1.542-1.957
			c-0.282-0.949,0.081-2.001-0.849-2.727c-0.825-0.644-2.466-0.732-3.297-0.069c0,0-4.578,4.315-2.734,11.2
			C217.303,156.015,214.836,155.956,214.601,158.577z"/>
		<g>
			<path style="fill:#CD8861;" d="M231.656,189.883c0,0,0.25-0.018,0.583-0.04c0.168-0.012,0.357-0.014,0.555-0.017
				c0.2-0.016,0.407,0.011,0.617-0.01c0.21,0.009,0.417,0.01,0.617,0.006c0.198-0.001,0.391,0.025,0.556,0.021
				c0.334,0.014,0.588,0.067,0.588,0.067s-0.179,0.164-0.496,0.346c-0.156,0.1-0.356,0.156-0.573,0.211
				c-0.216,0.069-0.455,0.08-0.694,0.086c-0.239,0.005-0.477-0.036-0.694-0.084c-0.217-0.052-0.413-0.132-0.574-0.216
				C231.82,190.076,231.656,189.883,231.656,189.883z"/>
		</g>
	</g>
	<path style="fill:#0A0313;" d="M195.663,382.828h-11.058c0,0-3.506,2.641-9.839,3.483c0,0-3.059,0.003-3.691,2.428
		c0,0-0.422,1.478,0,3.062c0,0,8.439,2.461,16.829,0c0,0,1.585-1.035,1.742,0.228h6.018
		C195.663,392.029,196.88,387.4,195.663,382.828z"/>
	<path style="fill:#0A0313;" d="M222.032,382.828h-11.058c0,0-3.505,2.641-9.836,3.483c0,0-3.061,0.003-3.693,2.428
		c0,0-0.424,1.478,0,3.062c0,0,8.439,2.461,16.828,0c0,0,1.585-1.035,1.742,0.228h6.017
		C222.032,392.029,223.247,387.4,222.032,382.828z"/>
	<path style="fill:#23202D;" d="M248.154,313.055h-17.856l-8.439,69.773h-10.953l-3.869-82.609l34.771-13.773h29.166
		c0,0,2.351,10.373-2.858,18.261C268.115,304.707,261.68,313.762,248.154,313.055z"/>
	<g>
		<path style="fill:none;stroke:#003F54;stroke-width:14.7523;stroke-miterlimit:10;" d="M221.785,217.732
			c0,0-2.929,47.249-61.352,46.549"/>
		<g>
			<g>
				<g>
					<path style="fill:#F9A374;" d="M149.823,260.484c0,0-1.911-1.303-3.181-0.984l-6.156,6.565l-1.08,0.946
						c0,0,2.013,0.914,3.954-0.946C143.36,266.065,147.942,260.936,149.823,260.484z"/>
					<path style="fill:#F9A374;" d="M153.591,260.484c0,0-1.909-1.303-3.179-0.984l-6.159,6.565l-1.078,0.946
						c0,0,2.015,0.914,3.955-0.946C147.13,266.065,151.711,260.936,153.591,260.484z"/>
					<path style="fill:#F9A374;" d="M146.977,259.612c0,0-1.911-1.301-3.18-0.984l-6.157,6.564l-1.079,0.949
						c0,0,2.013,0.912,3.955-0.949C140.516,265.191,145.098,260.063,146.977,259.612z"/>
				</g>
				<path style="fill:#F9A374;" d="M160.504,265.51c0,0-4.458,2.032-6.949,2.257c0,0-2.001,0.647-5.051,2.991
					c0,0-1.947,1.067-1.615-2.043c0,0,2.731-3.139,5.349-3.908c0,0-4.621-6.562-8.441-6.179c0,0,6.131-1.48,9.096-0.815
					c0,0,1.715,0.191,7.611,0V265.51z"/>
			</g>
		</g>
	</g>
	<g>
		<g>
			<g>
				<path style="fill:#A7A9AC;" d="M138.254,267.342h16.234c0,0-2.485-4.23-2.485-10.705c0-6.478-10.701-8.778-10.701,0
					C141.303,265.414,138.254,267.342,138.254,267.342z"/>
				<path style="fill:#BCBEC0;" d="M200.392,258.266c0,2.418-0.846,2.578-3.182,2.578H91.83c-2.334,0-2.994-0.16-2.994-2.578
					v-73.069c0-2.418,0.659-2.896,2.994-2.896H197.21c2.337,0,3.182,0.479,3.182,2.896V258.266z"/>
				<path style="fill:#D1D3D4;" d="M130.104,271.816v0.87c0,0.768,0.547,1.388,1.224,1.388h29.853c0.675,0,1.224-0.62,1.224-1.388
					v-0.87H130.104z"/>
				<rect x="91.545" y="185.624" style="fill:#58595B;" width="105.95" height="67.643"/>
				<rect x="93.287" y="186.847" style="fill:#249DC3;" width="102.467" height="65.197"/>
				<path style="fill:#56B9D6;" d="M153.174,225.202c-29.736,19.478-59.956,26.743-59.956,26.743l0.138-65.2l102.467,0.199
					C195.823,186.945,182.909,205.723,153.174,225.202z"/>
				<polygon style="fill:#BCBEC0;" points="138.254,267.342 154.489,267.342 162.403,271.816 130.104,271.816 				"/>
			</g>
		</g>
		<g>
			<path style="fill:#95979A;" d="M153.625,225.425c0,2.678-4.034,4.853-9.012,4.853c-4.978,0-9.013-2.175-9.013-4.853
				c0-2.682,4.035-4.854,9.013-4.854C149.591,220.571,153.625,222.743,153.625,225.425z"/>
			<path style="fill:#95979A;" d="M147.693,228.994c0,1.643-1.379,2.973-3.082,2.973c-1.7,0-3.081-1.33-3.081-2.973
				c0-1.646,1.38-2.977,3.081-2.977C146.314,226.018,147.693,227.349,147.693,228.994z"/>
			<path style="fill:#F7941D;" d="M169.573,179.696c0-13.786-11.175-22.926-24.962-22.926c-13.785,0-24.956,9.14-24.956,22.926
				c0,11.763,9.684,17.121,12.601,25.222c2.266,6.295,0.091,9.493,1.596,9.493c3.444,0,18.941,0,21.522,0
				c1.095,0-1.716-2.526,0.549-8.546C159,197.686,169.573,191.172,169.573,179.696z"/>
			<path style="fill:#E5CBC7;" d="M133.305,172.295c1.281-6.215,4.405-11.166,8.811-15.422
				c-12.613,1.033-22.461,9.879-22.461,22.823c0,11.763,9.684,17.121,12.601,25.222c2.266,6.295,0.091,9.493,1.596,9.493h12.916
				C136.503,203.592,130.314,186.807,133.305,172.295z"/>
			<polygon style="fill:#BEC0C2;" points="155.374,214.411 133.852,214.411 135.299,226.732 154.29,226.732 			"/>
			<polygon style="fill:#A3A5A8;" points="146.473,224.87 154.377,225.748 154.531,223.991 			"/>
			<polygon style="fill:#A3A5A8;" points="148.705,221.36 154.711,221.946 154.815,220.774 			"/>
			<polygon style="fill:#A3A5A8;" points="143.582,218.116 154.997,218.698 155.1,217.53 			"/>
			<polygon style="fill:#A3A5A8;" points="142.928,224.007 135.063,224.726 134.904,223.38 			"/>
			<polygon style="fill:#A3A5A8;" points="141.17,220.36 134.619,220.946 134.482,219.776 			"/>
			<polygon style="fill:#A3A5A8;" points="145.82,217.251 134.241,217.733 134.117,216.667 			"/>
			<path style="fill:#FCAF17;" d="M168.034,179.065c0,7.682-4.553,13.908-10.169,13.908c-5.617,0-10.171-6.227-10.171-13.908
				c0-7.683,4.555-13.908,10.171-13.908C163.481,165.157,168.034,171.383,168.034,179.065z"/>
		</g>
	</g>
	<g>
		<path style="fill:none;stroke:#003F54;stroke-width:15.3255;stroke-miterlimit:10;" d="M266.747,212.634
			c-4.555-9.86,37.887,64.949-56.785,54.772"/>
		<g>
			<path style="fill:#E1956A;" d="M204.251,262.997l-4.939-0.989c0,0-6.472,1.557-7.483,2.396c-1.005,0.838,0.163,1.905,0.163,1.905
				l1.329-0.46l4.462-1.25l3.472,0.688C201.254,265.288,204.247,265.469,204.251,262.997z"/>
			<path style="fill:#F9A374;" d="M201.994,271.876c6.62-1.633,7.566,1.328,7.566,1.328l0.6-8.338
				c-1.606-1.896-6.18-1.922-6.18-1.922l-6.842,0.366c0,0-4.04,2.793-4.893,3.813c-0.85,1.021,0.478,1.844,0.478,1.844l1.231-0.711
				l3.12-2.369l3.878,0.422l-4.043,0.464l-3.019,2.891c-1.576,1.496,0.158,2.388,0.158,2.388l3.697-3.307l5.642,0.886
				c-1.866,0.408-4.987,1.156-4.987,1.156s-0.536,1.464,0.915,1.464L201.994,271.876z"/>
		</g>
		<g>
			<path style="fill:#00212F;" d="M262.52,222.36c0,0,0.288,0.582,0.688,1.646c0.386,1.066,0.927,2.604,1.372,4.509
				c0.228,0.951,0.44,1.991,0.6,3.105c0.165,1.111,0.3,2.294,0.349,3.525c0.047,1.23,0.064,2.51-0.058,3.807
				c-0.087,1.298-0.324,2.607-0.602,3.907c-0.341,1.285-0.736,2.564-1.293,3.758c-0.507,1.216-1.22,2.313-1.936,3.338
				c-0.364,0.509-0.776,0.971-1.16,1.433c-0.417,0.435-0.846,0.839-1.25,1.241c-0.442,0.36-0.872,0.712-1.287,1.052
				c-0.431,0.317-0.876,0.584-1.286,0.859c-0.833,0.529-1.653,0.924-2.378,1.25c-0.745,0.288-1.37,0.584-1.919,0.743
				c-1.09,0.333-1.713,0.5-1.713,0.5s0.583-0.293,1.603-0.766c0.515-0.224,1.094-0.596,1.776-0.965
				c0.348-0.176,0.672-0.441,1.036-0.677c0.355-0.251,0.755-0.472,1.114-0.784c0.367-0.301,0.766-0.591,1.146-0.93
				c0.369-0.348,0.751-0.707,1.144-1.077c0.355-0.405,0.73-0.81,1.092-1.24c0.323-0.462,0.703-0.895,1.018-1.386
				c0.637-0.977,1.226-2.032,1.695-3.165c0.505-1.116,0.856-2.32,1.164-3.529c0.276-1.22,0.519-2.454,0.618-3.691
				c0.123-1.233,0.187-2.458,0.18-3.646c-0.015-2.377-0.213-4.605-0.482-6.506c-0.276-1.898-0.555-3.486-0.818-4.583
				C262.685,222.987,262.52,222.36,262.52,222.36z"/>
		</g>
	</g>
</g>
<g>
	<path style="fill:none;stroke:#003D5B;stroke-width:1.0661;stroke-miterlimit:10;stroke-dasharray:3.1984;" d="M333.402,308.858
		c22.431-27.459,35.891-62.534,35.891-100.756c0-88.023-71.357-159.38-159.38-159.38c-88.023,0-159.381,71.357-159.381,159.38
		c0,38.222,13.461,73.297,35.893,100.756"/>
	
		<ellipse transform="matrix(0.0277 -0.9996 0.9996 0.0277 154.9927 259.0683)" style="fill:#D7DF23;" cx="210.676" cy="49.857" rx="34.081" ry="34.081"/>
	<path style="fill:#249DC3;" d="M282.811,94.247c0,18.822,15.257,34.081,34.08,34.081c18.822,0,34.081-15.258,34.081-34.081
		s-15.259-34.081-34.081-34.081C298.068,60.166,282.811,75.424,282.811,94.247z"/>
	<path style="fill:#949AA8;" d="M52.068,94.247c0,18.822,15.258,34.081,34.08,34.081s34.081-15.258,34.081-34.081
		s-15.259-34.081-34.081-34.081S52.068,75.424,52.068,94.247z"/>
	<path style="fill:#93C1BD;" d="M335.213,206.418c0,18.822,15.258,34.081,34.08,34.081c18.822,0,34.081-15.259,34.081-34.081
		c0-18.822-15.259-34.081-34.081-34.081C350.471,172.337,335.213,187.596,335.213,206.418z"/>
	
		<ellipse transform="matrix(0.2298 -0.9732 0.9732 0.2298 -161.9739 208.1733)" style="fill:#289FAA;" cx="50.532" cy="206.418" rx="34.081" ry="34.081"/>
	<g>
		<path style="fill:#2599A3;" d="M237.166,49.946c0,14.18-11.493,25.674-25.673,25.674s-25.675-11.494-25.675-25.674
			c0-14.179,11.495-25.674,25.675-25.674S237.166,35.767,237.166,49.946z"/>
		<g>
			<path style="fill:#A7C3D2;" d="M219.115,26.482c2.879,1.727,3.885,4.943,4.175,8.214c0.089,1,1.256,1.316,1.837,0.497
				c1.114-1.566,3.235,1.193,3.931,1.91c0.521,0.489,0.965,1.043,1.335,1.662l-0.862,2.324c-0.378-0.485-0.691-1.01-0.941-1.57
				c-0.563-1.128-1.375-3.567-3.096-3.398c-1.87,0.182-3.648,1.095-5.169,2.161c-0.398,0.279-0.942,0.709-1.079,1.207
				c-0.302,1.1,1.994,4.694-1.316,4.609c-0.729-0.018-1.021,0.751-0.763,1.33c1.034,2.311,4.148,3.371,4.088,6.12
				c-0.011,0.526,0.544,0.97,1.056,0.804c0.591-0.19,1.004-0.359,1.575-0.609c0.624-0.317,1.268-0.594,1.927-0.827
				c0.958-0.001,1.443,0.392,1.458,1.178c-0.771,0.496-1.186,0.752-1.394,1.7c-0.358,1.639-1.075,3.093-1.297,4.802
				c-0.444,3.425-0.416,6.239-2.934,8.925c-0.431,0.459-0.006,1.195,0.608,1.044c1.389-0.341,2.57-1.354,3.992-1.54
				c0.263-0.034,0.502-0.157,0.572-0.436c0.248-0.975,2.045-4.49,3.447-4.373c-0.074,1.11,1.669,1.515,1.993,0.325
				c1.064-3.902,3.028-7.463,4.308-11.282c0.02-0.435,0.032-0.873,0.032-1.313c0-11.502-7.566-21.23-17.992-24.497
				C218.414,25.389,218.152,26.125,219.115,26.482z"/>
			<path style="fill:#A7C3D2;" d="M194.296,33.917c0.226-0.161,0.454-0.301,0.684-0.436c-0.412,1.409-1.045,2.709-0.742,4.233
				c0.307,1.542,2.045,3.161,2.987,4.378c0.577,0.746,1.196,1.437,1.902,2.061c1.061,0.938,0.033,0.94-0.903,1.913
				c-0.735,0.761-1.528,2.076-0.809,3.14c0.989,1.459,0.548,2.839,0.984,4.425c0.516,1.873,3.607,4.454,1.017,6.441
				c-1.17,0.896-0.114,2.375-0.194,3.521c-0.113,1.611,0.242,3.254,0.837,4.769c-0.033,0.425-0.044,0.86-0.026,1.302
				c0.049,1.186,1.878,1.194,1.848,0c-0.115-4.541,2.767-6.947,5.738-9.917c2.206-2.205,5.089-3.294,7.268-5.414
				c1.098-1.065,0.939-2.747-0.035-3.802c-0.586-0.635-1.605-0.975-2.363-1.335c-0.504-0.239-0.994-0.491-1.48-0.764
				c-1.05-0.59,0.145-0.581,0.762-0.846c0.811-0.348,0.604-1.766-0.25-1.907c-2.734-0.453-4.476-2.651-7.044-3.454
				c-1.013-0.316-1.979-0.449-3.031-0.534c-1.937-0.156-2.083-1.051-2.05-2.885c0.016-0.852-0.902-1.264-1.6-0.918
				c-0.083,0.042-0.165,0.083-0.248,0.124c-1.203-3.856,5.066-4.469,5.153-1.613c0.038,1.226,1.847,1.525,2.165,0.293
				c0.491-1.893,2.256-4.69,4.774-3.142c0.63,0.388,1.56-0.108,1.519-0.872c-0.039-0.737,0.008-1.439,0.07-2.15
				c0.36,0.064,0.72,0.129,1.079,0.211c0.903,0.205,1.591-0.88,0.913-1.569c-0.782-0.795-3.896-1.732-5.128-2.631
				c2.715-0.448,4.978-0.066,7.734-0.354c0.534-0.056,0.866-0.812,0.834-1.226c-1.671-0.342-2.991-0.078-4.763-0.078
				c-6.603,0-12.621,2.494-17.17,6.589c-0.419,0.448-0.835,0.911-1.252,1.388C193,33.402,193.635,34.387,194.296,33.917z"/>
			<path style="fill:#FFFFFF;" d="M193.892,33.31c0.225-0.16,0.453-0.301,0.684-0.437c-0.413,1.409-1.045,2.709-0.742,4.233
				c0.307,1.542,2.045,3.161,2.987,4.378c0.577,0.746,1.197,1.437,1.902,2.06c1.062,0.938,0.033,0.941-0.904,1.913
				c-0.733,0.761-1.527,2.076-0.807,3.14c0.988,1.459,0.548,2.839,0.983,4.424c0.516,1.874,3.606,4.455,1.017,6.441
				c-1.169,0.896-0.114,2.375-0.193,3.521c-0.115,1.611,0.241,3.254,0.837,4.769c-0.033,0.425-0.043,0.859-0.025,1.301
				c0.048,1.185,1.877,1.194,1.846,0c-0.114-4.541,2.768-6.947,5.738-9.916c2.206-2.206,5.089-3.294,7.27-5.415
				c1.094-1.065,0.936-2.747-0.038-3.802c-0.586-0.635-1.604-0.975-2.364-1.335c-0.503-0.239-0.993-0.491-1.48-0.764
				c-1.049-0.591,0.145-0.582,0.764-0.846c0.811-0.348,0.604-1.766-0.249-1.907c-2.735-0.453-4.478-2.651-7.046-3.453
				c-1.013-0.317-1.978-0.45-3.03-0.534c-1.938-0.157-2.083-1.052-2.05-2.885c0.015-0.852-0.904-1.264-1.6-0.918
				c-0.083,0.042-0.166,0.083-0.249,0.124c-1.203-3.856,5.065-4.469,5.154-1.613c0.037,1.226,1.847,1.525,2.166,0.293
				c0.489-1.893,2.255-4.689,4.772-3.142c0.631,0.388,1.56-0.107,1.52-0.872c-0.039-0.737,0.009-1.439,0.069-2.15
				c0.36,0.064,0.721,0.128,1.079,0.211c0.903,0.205,1.592-0.879,0.914-1.569c-0.783-0.794-3.896-1.731-5.128-2.631
				c2.714-0.447,5.429,0.026,8.184-0.262c0.535-0.056,0.825-0.46,0.794-0.875c-1.671-0.342-3.402-0.521-5.173-0.521
				c-6.603,0-12.621,2.494-17.17,6.589c-0.419,0.448-0.835,0.911-1.251,1.388C192.595,32.794,193.232,33.779,193.892,33.31z"/>
			<path style="fill:#FFFFFF;" d="M219.082,26.157c3.345,1.623,4.468,5.05,4.777,8.539c0.089,1,1.255,1.316,1.837,0.497
				c1.114-1.566,3.234,1.193,3.931,1.91c0.52,0.489,0.966,1.043,1.334,1.662l-0.862,2.324c-0.378-0.485-0.691-1.01-0.94-1.57
				c-0.564-1.128-1.377-3.567-3.097-3.398c-1.868,0.182-3.648,1.095-5.168,2.161c-0.397,0.279-0.942,0.709-1.079,1.207
				c-0.303,1.1,1.994,4.694-1.316,4.609c-0.729-0.018-1.021,0.751-0.764,1.33c1.035,2.311,4.148,3.371,4.089,6.12
				c-0.012,0.526,0.542,0.97,1.055,0.804c0.591-0.19,1.005-0.359,1.575-0.609c0.625-0.317,1.266-0.594,1.927-0.827
				c0.959-0.001,1.444,0.392,1.459,1.178c-0.771,0.496-1.187,0.752-1.394,1.7c-0.359,1.639-1.076,3.093-1.297,4.802
				c-0.443,3.425-0.416,6.239-2.934,8.925c-0.43,0.459-0.007,1.195,0.608,1.044c1.389-0.341,2.57-1.354,3.991-1.54
				c0.264-0.034,0.504-0.157,0.572-0.436c0.248-0.975,2.045-4.49,3.447-4.373c-0.074,1.11,1.67,1.515,1.993,0.325
				c1.065-3.902,3.03-7.463,4.308-11.282c0.021-0.435,0.031-0.873,0.031-1.313c0-11.712-7.846-21.587-18.566-24.67
				C218.585,25.631,218.73,25.985,219.082,26.157z"/>
		</g>
	</g>
	<g>
		
			<polygon style="fill:#93CED4;stroke:#000000;stroke-width:1.7719;stroke-linecap:round;stroke-linejoin:round;stroke-miterlimit:10;" points="
			331.801,98.43 300.847,98.43 293.168,78.939 334.057,78.939 		"/>
		
			<polyline style="fill:none;stroke:#000000;stroke-width:1.7719;stroke-linecap:round;stroke-linejoin:round;stroke-miterlimit:10;" points="
			302.028,107.093 330.772,107.093 334.373,76.769 338.943,75.396 		"/>
		
			<path style="fill:#93CED4;stroke:#000000;stroke-width:1.4423;stroke-linecap:round;stroke-linejoin:round;stroke-miterlimit:10;" d="
			M308.918,110.538c0,1.903-1.542,3.445-3.444,3.445c-1.903,0-3.445-1.542-3.445-3.445s1.542-3.445,3.445-3.445
			C307.376,107.093,308.918,108.635,308.918,110.538z"/>
		<path d="M306.851,110.538c0,0.761-0.616,1.378-1.377,1.378c-0.762,0-1.379-0.617-1.379-1.378c0-0.761,0.617-1.378,1.379-1.378
			C306.234,109.16,306.851,109.777,306.851,110.538z"/>
		
			<path style="fill:#93CED4;stroke:#000000;stroke-width:1.4423;stroke-linecap:round;stroke-linejoin:round;stroke-miterlimit:10;" d="
			M330.182,110.538c0,1.903-1.542,3.445-3.445,3.445s-3.445-1.542-3.445-3.445s1.542-3.445,3.445-3.445
			S330.182,108.635,330.182,110.538z"/>
		<path d="M328.114,110.538c0,0.761-0.617,1.378-1.378,1.378s-1.377-0.617-1.377-1.378c0-0.761,0.616-1.378,1.377-1.378
			S328.114,109.777,328.114,110.538z"/>
		<path d="M340.616,76.183c0,0.924-0.751,1.674-1.673,1.674c-0.926,0-1.674-0.75-1.674-1.674c0-0.924,0.748-1.673,1.674-1.673
			C339.865,74.51,340.616,75.259,340.616,76.183z"/>
		
			<line style="fill:none;stroke:#000000;stroke-width:1.7719;stroke-linecap:round;stroke-linejoin:round;stroke-miterlimit:10;" x1="332.958" y1="88.685" x2="297.007" y2="88.685"/>
		
			<line style="fill:none;stroke:#000000;stroke-width:1.7719;stroke-linecap:round;stroke-linejoin:round;stroke-miterlimit:10;" x1="314.982" y1="78.939" x2="314.982" y2="97.839"/>
		
			<line style="fill:none;stroke:#000000;stroke-width:1.7719;stroke-linecap:round;stroke-linejoin:round;stroke-miterlimit:10;" x1="301.24" y1="78.939" x2="307.54" y2="97.839"/>
		
			<line style="fill:none;stroke:#000000;stroke-width:1.7719;stroke-linecap:round;stroke-linejoin:round;stroke-miterlimit:10;" x1="324.865" y1="78.939" x2="323.291" y2="97.839"/>
		
			<line style="fill:none;stroke:#000000;stroke-width:1.7719;stroke-linecap:round;stroke-linejoin:round;stroke-miterlimit:10;" x1="333.612" y1="82.778" x2="294.743" y2="82.778"/>
		
			<line style="fill:none;stroke:#000000;stroke-width:1.7719;stroke-linecap:round;stroke-linejoin:round;stroke-miterlimit:10;" x1="332.302" y1="94.099" x2="299.173" y2="94.099"/>
	</g>
	<g>
		<path style="fill:#EE332A;" d="M398.215,206.007c0.213,14.894-11.689,27.14-26.584,27.351
			c-14.895,0.212-27.141-11.69-27.352-26.585c-0.211-14.894,11.69-27.14,26.585-27.352
			C385.759,179.21,398.005,191.113,398.215,206.007z"/>
		<path style="fill:#FFFFFF;" d="M370.931,184.112c-12.304,0.175-22.137,10.291-21.962,22.595
			c0.175,12.305,10.291,22.137,22.595,21.962c12.305-0.176,22.137-10.291,21.962-22.595
			C393.351,193.77,383.235,183.938,370.931,184.112z M371.505,224.5c-10.003,0.142-18.225-7.852-18.366-17.852
			c-0.143-10.001,7.851-18.224,17.852-18.366c10.001-0.142,18.224,7.851,18.366,17.852
			C389.498,216.135,381.506,224.357,371.505,224.5z"/>
		<path style="fill:#FFFFFF;" d="M371.047,192.362c-7.746,0.11-13.938,6.48-13.828,14.228c0.111,7.746,6.48,13.938,14.227,13.828
			c7.748-0.109,13.939-6.48,13.83-14.227C385.165,198.444,378.795,192.253,371.047,192.362z M371.382,215.863
			c-5.231,0.074-9.534-4.106-9.608-9.338c-0.074-5.232,4.107-9.534,9.34-9.608c5.23-0.075,9.533,4.106,9.607,9.339
			C380.795,211.488,376.613,215.789,371.382,215.863z"/>
		<path style="fill:#FFFFFF;" d="M371.178,201.439c-2.734,0.039-4.92,2.287-4.881,5.021c0.037,2.734,2.285,4.919,5.021,4.881
			c2.733-0.039,4.918-2.287,4.879-5.021C376.16,203.585,373.91,201.4,371.178,201.439z M371.275,208.345
			c-1.08,0.015-1.967-0.847-1.982-1.927c-0.016-1.079,0.848-1.966,1.926-1.982c1.08-0.016,1.968,0.847,1.982,1.926
			C373.217,207.442,372.354,208.329,371.275,208.345z"/>
		<g>
			<polygon style="fill:#F9A45A;" points="395.85,221.164 396.57,225.478 397.691,226.12 397.626,224.335 398.781,226.745 
				401.359,228.222 401.378,226.204 402.422,228.831 404.683,230.126 403.963,225.814 			"/>
			<polygon style="fill:#DA844D;" points="396.313,220.354 400.637,219.016 402.498,219.674 400.947,220.303 403.195,220.482 
				405.166,221.613 404.264,222.075 406.386,222.311 408.749,223.665 404.427,225.004 			"/>
			<path style="fill:#603913;" d="M371.039,206.909c-0.355-0.205-0.127-1.124,0.555-0.788l34.19,19.34
				c0.357,0.203,0.48,0.658,0.275,1.016l0,0c-0.204,0.357-0.659,0.48-1.017,0.275L371.039,206.909z"/>
		</g>
	</g>
	<g>
		<path style="fill:#FFC421;" d="M67.911,227.954c0,1.896-1.536,3.434-3.432,3.434H36.586c-1.895,0-3.432-1.537-3.432-3.434v-26.517
			c0-1.895,1.537-3.433,3.432-3.433h27.894c1.896,0,3.432,1.538,3.432,3.433V227.954z"/>
		<path style="fill:#FFD31C;" d="M65.64,228.264c0,1.726-1.337,3.124-2.984,3.124H38.411c-1.648,0-2.984-1.398-2.984-3.124v-23.844
			c0-1.726,1.336-3.124,2.984-3.124h24.244c1.647,0,2.984,1.398,2.984,3.124V228.264z"/>
		<path style="fill:#D1D3D4;" d="M50.532,179.125c-6.385,0-11.574,5.11-11.709,11.463v7.417h3.969v-7.417
			c0.134-4.165,3.542-7.502,7.74-7.502s7.607,3.337,7.743,7.502v7.417h3.967v-7.417C62.107,184.235,56.918,179.125,50.532,179.125z"
			/>
		<path style="fill:#E49723;" d="M54.354,212.804c0-2.11-1.71-3.821-3.821-3.821c-2.109,0-3.82,1.711-3.82,3.821
			c0,1.433,0.789,2.68,1.956,3.335l-0.919,5.847h5.344l-0.728-5.827C53.551,215.508,54.354,214.25,54.354,212.804z"/>
		<path style="fill:#D27D21;" d="M47.998,212.804c0-1.89,1.375-3.456,3.179-3.763c-0.21-0.036-0.425-0.059-0.645-0.059
			c-2.109,0-3.82,1.711-3.82,3.821c0,1.433,0.789,2.68,1.956,3.335l-0.919,5.847h1.286l0.92-5.847
			C48.788,215.484,47.998,214.237,47.998,212.804z"/>
	</g>
	<g>
		
			<rect x="72.957" y="66.997" transform="matrix(0.5394 -0.8421 0.8421 0.5394 -38.5606 113.6637)" style="fill:#51693C;" width="23.312" height="50.161"/>
		<polygon style="fill:#445F37;" points="57.994,88.265 70.018,69.492 111.241,95.896 		"/>
		<path style="fill:#6F8A52;" d="M101.42,108.994l5.587-8.724c-2.462-1.577-3.376-4.546-2.04-6.63L74.683,74.242
			c-1.336,2.085-4.415,2.497-6.876,0.919l-5.588,8.724c2.462,1.577,3.376,4.545,2.04,6.629l30.285,19.398
			C95.88,107.829,98.958,107.417,101.42,108.994z"/>
		<path style="fill:#E8E2C3;" d="M101.002,108.402l5.293-8.264c-2.393-1.531-3.304-4.373-2.04-6.349l-29.41-18.838
			c-1.266,1.974-4.229,2.334-6.62,0.802l-5.293,8.264c2.392,1.531,3.303,4.373,2.04,6.348l29.41,18.838
			C95.647,107.229,98.61,106.871,101.002,108.402z"/>
		<path style="fill:#51693C;" d="M93.764,97.939c-3.319,5.184-10.108,6.762-15.164,3.525c-5.053-3.237-6.458-10.064-3.138-15.248
			c3.319-5.184,10.108-6.762,15.163-3.525C95.68,85.929,97.085,92.755,93.764,97.939z"/>
		<g>
			<path style="fill:#E8E2C3;" d="M86.996,97.24c-0.616,0.963-1.449,1.539-2.498,1.73c-1.049,0.191-2.207-0.028-3.473-0.656
				l-1.09,1.698l-0.662-0.425l1.087-1.698c-1.184-0.759-2.182-1.865-2.992-3.32l1.625-2.538l0.313,0.2
				c-0.931,2.083-0.463,3.787,1.405,5.111l3.513-5.484c-1.524-2.719-1.841-4.775-0.948-6.168c0.541-0.846,1.286-1.336,2.235-1.472
				c0.949-0.135,1.995,0.108,3.138,0.73l0.8-1.249l0.664,0.425l-0.813,1.269c1.25,0.8,2.079,1.81,2.492,3.027l-1.374,2.147
				l-0.313-0.2c0.37-0.92,0.471-1.722,0.304-2.407c-0.167-0.685-0.632-1.391-1.396-2.119l-3.087,4.82
				c1.011,1.713,1.576,3.111,1.689,4.193C87.686,95.69,87.479,96.485,86.996,97.24z M85.448,89.945l2.888-4.508
				c-0.589-0.285-1.219-0.34-1.89-0.164c-0.671,0.175-1.154,0.491-1.445,0.946C84.509,86.986,84.658,88.228,85.448,89.945z
				 M85.186,96.714c0.626-0.976,0.46-2.349-0.5-4.119l-3.312,5.172c0.726,0.355,1.438,0.435,2.133,0.237
				C84.201,97.808,84.762,97.377,85.186,96.714z"/>
		</g>
	</g>
</g>
</svg>
