<svg version="1.1" id="Layer_1" xmlns="http://www.w3.org/2000/svg" xmlns:xlink="http://www.w3.org/1999/xlink" x="0px" y="0px"
	 width="100%" viewBox="0 0 512 512" enable-background="new 0 0 512 512" xml:space="preserve">
<path fill="#FFFFFF" opacity="1.000000" stroke="none" 
	d="
M339.000000,513.000000 
	C226.027451,513.000000 113.554893,513.000000 1.041169,513.000000 
	C1.041169,342.402435 1.041169,171.804840 1.041169,1.103623 
	C171.555893,1.103623 342.111877,1.103623 512.833923,1.103623 
	C512.833923,171.666534 512.833923,342.333252 512.833923,513.000000 
	C455.138153,513.000000 397.319061,513.000000 339.000000,513.000000 
M342.892670,232.966309 
	C351.867279,232.793854 355.113739,229.518707 355.164886,220.500229 
	C355.179016,218.010605 355.043854,215.520142 355.079681,212.150909 
	C354.468262,199.199463 360.605103,188.918488 367.631653,178.726654 
	C372.508362,171.653107 377.371643,164.224548 380.349548,156.248459 
	C392.225006,124.440865 373.587585,92.085190 340.445679,86.812561 
	C330.432037,83.953690 320.433838,84.771111 310.478241,87.064903 
	C279.994324,94.088432 263.831085,120.172897 270.939606,150.611618 
	C273.458862,161.399109 279.179077,170.479050 285.649963,179.184937 
	C293.136200,189.256866 298.783905,199.974915 298.024780,213.953308 
	C298.016174,215.937439 298.000000,217.921570 298.000244,219.905701 
	C298.001465,229.695999 301.232941,232.961258 311.046356,233.930008 
	C311.054688,236.922638 310.931274,239.922806 311.101654,242.906189 
	C311.370422,247.613266 313.603149,250.831787 318.598694,251.230881 
	C321.044159,251.426239 323.532349,251.086975 326.907074,251.144257 
	C328.732544,251.155273 330.558533,251.198639 332.383423,251.171555 
	C339.322327,251.068573 341.888489,248.464096 341.969788,241.472961 
	C342.002563,238.652512 342.026306,235.831940 342.892670,232.966309 
M199.970383,280.393524 
	C200.774811,279.583069 201.544159,278.733917 202.388977,277.968018 
	C213.647812,267.760895 219.441589,254.870285 221.738159,239.707474 
	C231.164688,223.123077 227.533203,206.156311 224.118317,189.263336 
	C218.902435,189.263336 214.503067,189.808273 210.289017,189.155975 
	C199.788330,187.530548 189.395905,185.218201 178.914246,183.453415 
	C170.386444,182.017593 162.181671,182.094803 156.666351,190.544037 
	C156.169342,191.305435 154.858704,191.863922 153.883972,191.934158 
	C144.890045,192.582138 140.516937,195.489090 138.630768,203.979416 
	C135.907455,216.237976 136.958832,228.376694 141.917175,240.915802 
	C143.242035,257.026184 150.313126,270.034332 162.993530,280.770538 
	C161.973846,288.280853 156.952850,293.119934 150.867905,297.851654 
	C146.906525,298.916504 142.945145,299.981354 138.197067,301.039856 
	C131.024216,303.140930 123.732941,304.909027 116.702156,307.409515 
	C99.956093,313.365326 94.539597,320.341125 94.258949,338.050232 
	C93.876732,362.168213 94.192802,386.298737 94.357368,410.422882 
	C94.397789,416.348572 95.011589,422.270325 95.376663,428.445404 
	C104.542244,428.445404 113.324722,428.445404 122.975349,428.739655 
	C126.947418,428.646820 130.919495,428.553955 135.830170,428.597870 
	C148.921219,428.554626 162.012253,428.511383 175.976501,428.746460 
	C179.946732,428.634308 183.916977,428.522156 188.820618,428.581665 
	C203.847672,428.581665 218.874741,428.581665 234.260086,428.581665 
	C234.260086,426.129852 234.260056,424.655731 234.260086,423.181580 
	C234.260696,401.907349 234.226517,380.632996 234.278976,359.358887 
	C234.299988,350.836304 237.201599,348.020081 245.482544,346.449158 
	C257.332977,344.201111 269.081757,341.417419 281.404724,339.451324 
	C280.313629,343.607544 280.384888,348.825470 277.819000,351.634552 
	C275.005188,354.715057 269.759064,355.573792 265.401794,357.475342 
	C265.401794,363.798340 265.401794,370.688721 265.401794,377.624542 
	C271.730072,378.826508 277.289551,378.833099 280.548645,386.565704 
	C283.912598,394.547180 277.671082,397.977783 275.911194,403.721741 
	C279.940002,407.534302 283.908081,411.289429 288.234253,415.697083 
	C289.762695,415.857880 291.598206,416.633575 292.757172,416.054657 
	C295.366455,414.751434 297.640533,412.777069 300.786224,411.095886 
	C309.569061,413.325500 316.475220,417.278351 316.226044,427.847076 
	C316.220337,428.090668 316.587830,428.343018 316.790436,428.603088 
	C321.549927,428.603088 326.304230,428.603088 331.875183,428.699890 
	C333.485443,428.699890 335.095673,428.699890 337.620911,428.699890 
	C335.608276,416.989471 343.579498,413.761353 352.613403,411.115387 
	C354.979645,412.537170 357.345917,413.958923 360.114868,415.848297 
	C361.645630,415.937805 363.761414,416.718903 364.609650,416.001434 
	C369.133850,412.174774 373.340973,407.973236 377.067169,404.458496 
	C376.355621,398.359528 369.110046,395.979980 371.756561,389.850281 
	C373.744354,385.246246 374.368774,379.548645 380.835266,378.551880 
	C381.179749,378.469055 381.524261,378.386230 382.759186,378.267181 
	C387.321014,378.452301 388.739563,376.171295 388.256500,371.836273 
	C387.910461,368.731079 387.820190,365.502045 388.272400,362.424744 
	C389.021759,357.325348 386.834076,355.444824 381.646332,355.266998 
	C381.077789,355.225677 380.509277,355.184357 379.215363,354.970093 
	C377.936615,354.314697 376.218109,353.985352 375.451019,352.950592 
	C370.695892,346.536438 370.693848,340.883057 375.092377,334.256226 
	C375.881134,333.067902 376.548157,331.798859 376.894653,331.208771 
	C371.814850,326.136139 367.155548,321.483398 362.264191,316.598938 
	C361.427917,317.250275 360.278534,318.145477 358.436981,319.116669 
	C356.278595,320.444244 354.120209,321.771851 351.341614,322.755951 
	C343.242432,320.472382 336.927032,316.605560 337.144592,306.870117 
	C337.154022,306.447174 336.744232,306.014862 336.434692,305.397339 
	C334.660278,305.397339 332.860107,305.397339 330.191895,305.126648 
	C328.060944,305.041016 325.929962,304.955383 324.034332,304.223236 
	C329.743866,294.308197 335.821533,284.582153 341.041779,274.415894 
	C344.939178,266.825806 341.594818,258.880951 333.833679,254.706421 
	C325.887024,250.432159 317.484589,252.358719 312.847137,259.593506 
	C310.159088,263.787048 307.727081,268.149902 304.935059,272.270782 
	C294.847198,287.159912 282.228302,298.745697 264.002563,302.661316 
	C250.555878,305.550232 237.246460,303.950836 223.318848,300.748047 
	C219.271606,299.672180 215.224380,298.596283 210.709045,297.089111 
	C204.721954,293.342255 201.096527,287.981628 199.970383,280.393524 
M252.322693,98.127312 
	C254.630981,99.441864 256.812195,101.355164 259.287933,101.880516 
	C261.249939,102.296860 264.262177,101.683090 265.580109,100.330368 
	C267.752838,98.100327 266.815002,95.352226 264.111359,93.640450 
	C261.728271,92.131638 259.246582,90.778984 256.813202,89.349228 
	C250.626160,85.713974 247.798935,85.539078 246.156021,89.054169 
	C243.564606,94.598602 248.524902,95.693367 252.322693,98.127312 
M387.087250,96.072121 
	C387.016022,101.576622 389.486694,104.177002 393.476196,102.307327 
	C397.811279,100.275703 402.067627,97.882019 405.855896,94.988441 
	C407.097229,94.040291 407.760925,90.278862 406.908539,89.158623 
	C405.801392,87.703690 402.365875,86.436951 400.898743,87.131165 
	C396.161713,89.372620 391.867493,92.549767 387.087250,96.072121 
M255.055374,177.600037 
	C252.892685,178.843430 250.696381,180.032471 248.575775,181.343903 
	C245.890411,183.004593 244.203659,185.217117 246.152390,188.368286 
	C247.947830,191.271622 250.511139,191.662247 253.457611,189.906647 
	C256.743378,187.948914 260.078552,186.074203 263.385162,184.151215 
	C266.172272,182.530365 267.723999,180.317230 265.921539,177.164536 
	C264.031708,173.858948 261.274414,173.839142 258.265564,175.706375 
	C257.418243,176.232193 256.540131,176.708389 255.055374,177.600037 
M404.920135,143.729828 
	C408.568573,143.694748 412.370697,144.262802 415.805023,143.387589 
	C417.718750,142.899857 419.020386,140.010361 420.597839,138.203217 
	C418.882477,136.766617 417.335205,134.451813 415.415161,134.084274 
	C411.892975,133.410049 408.148621,133.963150 404.501251,133.856628 
	C401.061981,133.756180 397.874359,134.144775 397.722961,138.452118 
	C397.576721,142.612732 400.525543,143.653793 404.920135,143.729828 
M394.598358,186.876709 
	C396.623352,187.998749 398.560394,189.764465 400.698792,190.056702 
	C402.722626,190.333298 405.987915,189.679337 406.811584,188.301468 
	C407.642303,186.911819 406.873016,183.206924 405.521118,182.134445 
	C401.933289,179.288162 397.804138,176.950714 393.566498,175.190475 
	C392.067505,174.567825 388.701935,175.627625 387.879669,176.961670 
	C387.023193,178.351135 387.610596,181.395721 388.666779,182.985947 
	C389.744476,184.608505 392.159637,185.342728 394.598358,186.876709 
M232.963425,137.704590 
	C232.583160,140.821213 233.796875,143.221771 236.962738,143.453583 
	C241.730530,143.802643 246.608643,143.984116 251.302338,143.297134 
	C252.999435,143.048752 255.489868,140.054443 255.434418,138.385696 
	C255.383011,136.838974 252.571732,134.387939 250.703583,134.099838 
	C246.496689,133.451080 242.095596,133.624420 237.827560,134.030762 
	C236.185638,134.187088 234.690552,135.885880 232.963425,137.704590 
z"/>
<path fill="#2B92FA" opacity="1.000000" stroke="none" 
	d="
M224.005707,301.087708 
	C237.246460,303.950836 250.555878,305.550232 264.002563,302.661316 
	C282.228302,298.745697 294.847198,287.159912 304.935059,272.270782 
	C307.727081,268.149902 310.159088,263.787048 312.847137,259.593506 
	C317.484589,252.358719 325.887024,250.432159 333.833679,254.706421 
	C341.594818,258.880951 344.939178,266.825806 341.041779,274.415894 
	C335.821533,284.582153 329.743866,294.308197 323.494690,304.613953 
	C320.830841,305.004669 318.706604,305.004669 316.370728,305.004669 
	C315.782104,308.038544 315.694489,310.783600 314.668701,313.116028 
	C313.692566,315.335541 312.115784,317.750824 310.123230,318.956421 
	C307.081757,320.796722 303.455200,321.670074 299.888184,322.671173 
	C297.552612,320.948883 295.307831,319.633606 293.285339,318.036865 
	C291.019073,316.247620 289.289948,316.343750 287.532471,319.032227 
	C283.269348,322.821014 279.319061,326.497559 275.477051,330.073334 
	C277.632233,333.583130 279.253113,336.222809 280.873962,338.862427 
	C269.081757,341.417419 257.332977,344.201111 245.482544,346.449158 
	C237.201599,348.020081 234.299988,350.836304 234.278976,359.358887 
	C234.226517,380.632996 234.260696,401.907349 234.260086,423.181580 
	C234.260056,424.655731 234.260086,426.129852 234.260086,428.581665 
	C218.874741,428.581665 203.847672,428.581665 188.373871,428.068909 
	C187.927139,393.888184 187.927139,360.220184 187.927139,326.584991 
	C189.276779,326.290405 189.914581,326.165863 190.545059,326.011383 
	C205.209732,322.418091 216.821579,314.724579 224.005707,301.087708 
z"/>
<path fill="#2C93FA" opacity="1.000000" stroke="none" 
	d="
M175.103302,428.468109 
	C162.012253,428.511383 148.921219,428.554626 135.380783,428.098389 
	C134.949738,402.269836 134.990433,376.940735 134.966980,351.611755 
	C134.962479,346.748108 131.895370,342.988647 128.328979,343.129639 
	C124.888695,343.265656 122.042725,346.845734 122.039803,351.459137 
	C122.023575,377.121216 122.077370,402.783325 122.107208,428.445404 
	C113.324722,428.445404 104.542244,428.445404 95.376663,428.445404 
	C95.011589,422.270325 94.397789,416.348572 94.357368,410.422882 
	C94.192802,386.298737 93.876732,362.168213 94.258949,338.050232 
	C94.539597,320.341125 99.956093,313.365326 116.702156,307.409515 
	C123.732941,304.909027 131.024216,303.140930 138.616058,301.392029 
	C146.878189,315.692902 159.308533,323.139465 175.103302,326.768188 
	C175.103302,360.643311 175.103302,394.555725 175.103302,428.468109 
z"/>
<path fill="#FFEB87" opacity="1.000000" stroke="none" 
	d="
M298.126434,213.033752 
	C298.783905,199.974915 293.136200,189.256866 285.649963,179.184937 
	C279.179077,170.479050 273.458862,161.399109 270.939606,150.611618 
	C263.831085,120.172897 279.994324,94.088432 310.478241,87.064903 
	C320.433838,84.771111 330.432037,83.953690 341.022064,87.246979 
	C353.897644,93.942642 364.430054,102.068687 369.024536,115.720314 
	C376.055603,136.611694 371.515961,155.611801 358.588043,172.873734 
	C349.677185,184.771927 341.917297,196.966812 343.573608,212.886337 
	C342.450653,212.916016 341.696960,212.876495 340.950317,212.380676 
	C340.959015,199.765823 341.102203,187.604645 340.878357,175.450241 
	C340.808746,171.672211 341.814850,169.570007 345.357361,167.695877 
	C356.374451,161.867355 362.098938,152.190598 362.824982,139.911148 
	C363.330872,131.355652 357.435486,125.475014 350.161560,127.266747 
	C346.760376,128.104538 343.304779,130.697784 340.951355,133.425171 
	C334.992004,140.331573 332.952148,148.996506 332.059387,157.855362 
	C331.709656,161.326035 330.460388,162.742157 326.878510,163.039734 
	C320.944946,163.532654 321.654266,159.064194 321.096710,155.786774 
	C319.510468,146.462448 317.023376,137.556946 310.043152,130.695282 
	C306.149750,126.868004 300.576721,125.884621 296.746979,127.885490 
	C292.775696,129.960281 289.888977,135.669876 290.428802,140.549606 
	C291.784973,152.808304 297.688904,162.183716 308.557220,168.099503 
	C311.328094,169.607727 312.223663,171.339996 312.197693,174.361618 
	C312.087463,187.184402 312.196350,200.009048 311.750549,212.895660 
	C306.892761,212.983444 302.509583,213.008606 298.126434,213.033752 
z"/>
<path fill="#FDC72F" opacity="1.000000" stroke="none" 
	d="
M281.139343,339.156891 
	C279.253113,336.222809 277.632233,333.583130 275.477051,330.073334 
	C279.319061,326.497559 283.269348,322.821014 287.862366,319.169098 
	C290.314026,320.320129 292.000519,321.818146 293.967102,322.466187 
	C295.852600,323.087524 298.028687,322.826996 300.077087,322.953979 
	C303.455200,321.670074 307.081757,320.796722 310.123230,318.956421 
	C312.115784,317.750824 313.692566,315.335541 314.668701,313.116028 
	C315.694489,310.783600 315.782104,308.038544 316.370728,305.004669 
	C318.706604,305.004669 320.830841,305.004669 323.377045,304.937195 
	C325.929962,304.955383 328.060944,305.041016 330.619263,305.649689 
	C331.457367,308.580078 331.784149,311.005524 332.297577,313.390778 
	C333.186523,317.520752 346.918579,325.438934 351.078461,324.231598 
	C351.451080,324.123474 351.670990,323.489288 351.961823,323.099426 
	C354.120209,321.771851 356.278595,320.444244 359.077820,319.211700 
	C363.673767,322.996826 367.628906,326.686951 371.881104,330.654236 
	C365.414551,336.995850 363.408356,342.976257 368.027771,350.386322 
	C370.825745,354.874542 374.247009,356.785065 379.940735,355.143005 
	C380.509277,355.184357 381.077789,355.225677 381.829529,355.957275 
	C381.964752,363.866150 381.916748,371.084808 381.868744,378.303436 
	C381.524261,378.386230 381.179749,378.469055 380.238464,378.290833 
	C376.153168,379.007629 371.158203,378.870087 369.455322,381.170044 
	C364.092621,388.412903 363.336029,396.338074 371.321045,402.811737 
	C367.100067,407.381775 363.406097,411.381226 359.712158,415.380707 
	C357.345917,413.958923 354.979645,412.537170 352.133911,410.710449 
	C351.276245,409.998657 350.763763,409.347748 350.539490,409.435303 
	C345.072968,411.569031 339.286591,413.215607 334.370544,416.261597 
	C332.438293,417.458771 332.410370,421.802429 331.624664,424.742432 
	C331.291077,425.990601 331.238708,427.313934 331.058533,428.603088 
	C326.304230,428.603088 321.549927,428.603088 316.790436,428.603088 
	C316.587830,428.343018 316.220337,428.090668 316.226044,427.847076 
	C316.475220,417.278351 309.569061,413.325500 300.237244,410.800415 
	C298.098267,410.495697 296.278015,409.984070 294.967560,410.584686 
	C292.451019,411.738037 290.223541,413.522095 287.876160,415.044525 
	C283.908081,411.289429 279.940002,407.534302 275.911194,403.721741 
	C277.671082,397.977783 283.912598,394.547180 280.548645,386.565704 
	C277.289551,378.833099 271.730072,378.826508 265.401794,377.624542 
	C265.401794,370.688721 265.401794,363.798340 265.401794,357.475342 
	C269.759064,355.573792 275.005188,354.715057 277.819000,351.634552 
	C280.384888,348.825470 280.313629,343.607544 281.139343,339.156891 
M321.331512,335.299103 
	C309.153046,335.269104 299.972351,340.851685 294.069489,351.154510 
	C287.806213,362.086365 288.258911,373.395264 294.815521,384.183350 
	C300.285217,393.183014 309.060730,397.116425 319.673340,398.610138 
	C320.950165,398.481018 322.244965,398.145355 323.501099,398.254486 
	C336.930206,399.421021 347.306213,394.131165 353.894684,382.624573 
	C360.491791,371.103027 359.780396,359.324341 352.007629,348.447388 
	C344.659576,338.164673 334.157562,334.725922 321.331512,335.299103 
z"/>
<path fill="#1D1C1C" opacity="1.000000" stroke="none" 
	d="
M141.920929,240.046509 
	C136.958832,228.376694 135.907455,216.237976 138.630768,203.979416 
	C140.516937,195.489090 144.890045,192.582138 153.883972,191.934158 
	C154.858704,191.863922 156.169342,191.305435 156.666351,190.544037 
	C162.181671,182.094803 170.386444,182.017593 178.914246,183.453415 
	C189.395905,185.218201 199.788330,187.530548 210.289017,189.155975 
	C214.503067,189.808273 218.902435,189.263336 224.118317,189.263336 
	C227.533203,206.156311 231.164688,223.123077 221.373840,239.435318 
	C219.796555,235.083557 218.887405,230.879822 217.285507,226.959106 
	C215.669312,223.003342 212.553986,220.723450 207.493347,221.377838 
	C203.798721,221.912811 200.487885,222.297241 197.291901,223.125137 
	C184.692978,226.388809 172.256912,227.317627 159.702774,222.531738 
	C154.351120,220.491608 152.104492,222.029724 149.287659,227.196091 
	C146.924667,231.530045 144.383316,235.766754 141.920929,240.046509 
z"/>
<path fill="#FFCEC0" opacity="1.000000" stroke="none" 
	d="
M141.919052,240.481155 
	C144.383316,235.766754 146.924667,231.530045 149.287659,227.196091 
	C152.104492,222.029724 154.351120,220.491608 159.702774,222.531738 
	C172.256912,227.317627 184.692978,226.388809 197.291901,223.125137 
	C200.487885,222.297241 203.798721,221.912811 207.507309,221.886505 
	C207.974121,226.775604 208.099091,231.105591 207.987015,235.429443 
	C207.595779,250.522720 203.530365,264.501129 194.966476,277.033905 
	C188.959732,285.824463 184.325256,287.747498 174.381607,284.961090 
	C170.439972,283.856598 166.797043,281.686066 163.018112,280.000885 
	C150.313126,270.034332 143.242035,257.026184 141.919052,240.481155 
z"/>
<path fill="#0263D9" opacity="1.000000" stroke="none" 
	d="
M175.539902,428.607300 
	C175.103302,394.555725 175.103302,360.643311 175.103302,326.768188 
	C159.308533,323.139465 146.878189,315.692902 139.009415,301.395203 
	C142.945145,299.981354 146.906525,298.916504 151.364380,298.172546 
	C164.426163,316.616180 188.667206,318.656464 202.398849,307.038574 
	C205.530472,303.772522 208.353806,300.646454 211.177124,297.520386 
	C215.224380,298.596283 219.271606,299.672180 223.662277,300.917877 
	C216.821579,314.724579 205.209732,322.418091 190.545059,326.011383 
	C189.914581,326.165863 189.276779,326.290405 187.927139,326.584991 
	C187.927139,360.220184 187.927139,393.888184 187.907166,427.983093 
	C183.916977,428.522156 179.946732,428.634308 175.539902,428.607300 
z"/>
<path fill="#FCB0A0" opacity="1.000000" stroke="none" 
	d="
M202.090546,307.178497 
	C188.667206,318.656464 164.426163,316.616180 151.753418,298.130798 
	C156.952850,293.119934 161.973846,288.280853 163.005829,280.385712 
	C166.797043,281.686066 170.439972,283.856598 174.381607,284.961090 
	C184.325256,287.747498 188.959732,285.824463 194.966476,277.033905 
	C203.530365,264.501129 207.595779,250.522720 207.987015,235.429443 
	C208.099091,231.105591 207.974121,226.775604 207.943848,221.939743 
	C212.553986,220.723450 215.669312,223.003342 217.285507,226.959106 
	C218.887405,230.879822 219.796555,235.083557 221.053680,239.552338 
	C219.441589,254.870285 213.647812,267.760895 202.388977,277.968018 
	C201.544159,278.733917 200.774811,279.583069 199.506683,280.717285 
	C197.547119,281.688080 196.106857,282.577423 194.544769,282.936035 
	C190.154373,283.944092 189.074631,286.752930 191.110596,290.252869 
	C194.488174,296.059021 198.402390,301.553009 202.090546,307.178497 
z"/>
<path fill="#FCDC38" opacity="1.000000" stroke="none" 
	d="
M343.942902,212.817139 
	C341.917297,196.966812 349.677185,184.771927 358.588043,172.873734 
	C371.515961,155.611801 376.055603,136.611694 369.024536,115.720314 
	C364.430054,102.068687 353.897644,93.942642 341.394012,87.441330 
	C373.587585,92.085190 392.225006,124.440865 380.349548,156.248459 
	C377.371643,164.224548 372.508362,171.653107 367.631653,178.726654 
	C360.605103,188.918488 354.468262,199.199463 354.571777,212.579071 
	C350.711945,213.052841 347.360016,213.098465 344.019440,213.056854 
	C344.030762,212.969604 343.942902,212.817139 343.942902,212.817139 
z"/>
<path fill="#0263D9" opacity="1.000000" stroke="none" 
	d="
M122.541275,428.592529 
	C122.077370,402.783325 122.023575,377.121216 122.039803,351.459137 
	C122.042725,346.845734 124.888695,343.265656 128.328979,343.129639 
	C131.895370,342.988647 134.962479,346.748108 134.966980,351.611755 
	C134.990433,376.940735 134.949738,402.269836 134.911469,428.029968 
	C130.919495,428.553955 126.947418,428.646820 122.541275,428.592529 
z"/>
<path fill="#7986BE" opacity="1.000000" stroke="none" 
	d="
M340.943268,212.836960 
	C341.696960,212.876495 342.450653,212.916016 343.573608,212.886337 
	C343.942902,212.817139 344.030762,212.969604 344.011780,213.505035 
	C344.616791,221.172913 343.757782,227.820923 337.428589,232.857910 
	C334.679718,232.949493 332.359467,233.005096 329.568909,233.039764 
	C323.052948,233.015930 317.007263,233.013000 310.961609,233.010071 
	C301.232941,232.961258 298.001465,229.695999 298.000244,219.905701 
	C298.000000,217.921570 298.016174,215.937439 298.075623,213.493530 
	C302.509583,213.008606 306.892761,212.983444 312.179565,212.956116 
	C316.080811,212.914902 319.078339,212.875839 322.516357,212.898010 
	C325.655823,212.918427 328.354828,212.877625 331.500244,212.897110 
	C334.945557,212.917252 337.944397,212.877106 340.943268,212.836960 
z"/>
<path fill="#5D689E" opacity="1.000000" stroke="none" 
	d="
M311.003967,233.470032 
	C317.007263,233.013000 323.052948,233.015930 329.554535,233.497375 
	C329.659271,239.879333 331.763611,246.361404 326.001190,250.989655 
	C323.532349,251.086975 321.044159,251.426239 318.598694,251.230881 
	C313.603149,250.831787 311.370422,247.613266 311.101654,242.906189 
	C310.931274,239.922806 311.054688,236.922638 311.003967,233.470032 
z"/>
<path fill="#F0998A" opacity="1.000000" stroke="none" 
	d="
M202.398865,307.038574 
	C198.402390,301.553009 194.488174,296.059021 191.110596,290.252869 
	C189.074631,286.752930 190.154373,283.944092 194.544769,282.936035 
	C196.106857,282.577423 197.547119,281.688080 199.399353,281.050415 
	C201.096527,287.981628 204.721954,293.342255 210.943085,297.304749 
	C208.353806,300.646454 205.530472,303.772522 202.398865,307.038574 
z"/>
<path fill="#F9AF07" opacity="1.000000" stroke="none" 
	d="
M359.913513,415.614502 
	C363.406097,411.381226 367.100067,407.381775 371.321045,402.811737 
	C363.336029,396.338074 364.092621,388.412903 369.455322,381.170044 
	C371.158203,378.870087 376.153168,379.007629 380.102783,378.044495 
	C374.368774,379.548645 373.744354,385.246246 371.756561,389.850281 
	C369.110046,395.979980 376.355621,398.359528 377.067169,404.458496 
	C373.340973,407.973236 369.133850,412.174774 364.609650,416.001434 
	C363.761414,416.718903 361.645630,415.937805 359.913513,415.614502 
z"/>
<path fill="#F9AF07" opacity="1.000000" stroke="none" 
	d="
M379.578064,355.056549 
	C374.247009,356.785065 370.825745,354.874542 368.027771,350.386322 
	C363.408356,342.976257 365.414551,336.995850 371.881104,330.654236 
	C367.628906,326.686951 363.673767,322.996826 359.423889,319.173706 
	C360.278534,318.145477 361.427917,317.250275 362.264191,316.598938 
	C367.155548,321.483398 371.814850,326.136139 376.894653,331.208771 
	C376.548157,331.798859 375.881134,333.067902 375.092377,334.256226 
	C370.693848,340.883057 370.695892,346.536438 375.451019,352.950592 
	C376.218109,353.985352 377.936615,354.314697 379.578064,355.056549 
z"/>
<path fill="#5D689E" opacity="1.000000" stroke="none" 
	d="
M337.857208,232.821930 
	C343.757782,227.820923 344.616791,221.172913 344.000458,213.592285 
	C347.360016,213.098465 350.711945,213.052841 354.520508,213.018646 
	C355.043854,215.520142 355.179016,218.010605 355.164886,220.500229 
	C355.113739,229.518707 351.867279,232.793854 342.054688,232.986984 
	C340.096863,232.945755 338.977051,232.883835 337.857208,232.821930 
z"/>
<path fill="#FCDC3D" opacity="1.000000" stroke="none" 
	d="
M251.993759,97.963448 
	C248.524902,95.693367 243.564606,94.598602 246.156021,89.054169 
	C247.798935,85.539078 250.626160,85.713974 256.813202,89.349228 
	C259.246582,90.778984 261.728271,92.131638 264.111359,93.640450 
	C266.815002,95.352226 267.752838,98.100327 265.580109,100.330368 
	C264.262177,101.683090 261.249939,102.296860 259.287933,101.880516 
	C256.812195,101.355164 254.630981,99.441864 251.993759,97.963448 
z"/>
<path fill="#FCDC3D" opacity="1.000000" stroke="none" 
	d="
M387.244934,95.719193 
	C391.867493,92.549767 396.161713,89.372620 400.898743,87.131165 
	C402.365875,86.436951 405.801392,87.703690 406.908539,89.158623 
	C407.760925,90.278862 407.097229,94.040291 405.855896,94.988441 
	C402.067627,97.882019 397.811279,100.275703 393.476196,102.307327 
	C389.486694,104.177002 387.016022,101.576622 387.244934,95.719193 
z"/>
<path fill="#FCDC3D" opacity="1.000000" stroke="none" 
	d="
M255.365753,177.403687 
	C256.540131,176.708389 257.418243,176.232193 258.265564,175.706375 
	C261.274414,173.839142 264.031708,173.858948 265.921539,177.164536 
	C267.723999,180.317230 266.172272,182.530365 263.385162,184.151215 
	C260.078552,186.074203 256.743378,187.948914 253.457611,189.906647 
	C250.511139,191.662247 247.947830,191.271622 246.152390,188.368286 
	C244.203659,185.217117 245.890411,183.004593 248.575775,181.343903 
	C250.696381,180.032471 252.892685,178.843430 255.365753,177.403687 
z"/>
<path fill="#4B5787" opacity="1.000000" stroke="none" 
	d="
M337.428589,232.857910 
	C338.977051,232.883835 340.096863,232.945755 341.635437,233.009552 
	C342.026306,235.831940 342.002563,238.652512 341.969788,241.472961 
	C341.888489,248.464096 339.322327,251.068573 332.383423,251.171555 
	C330.558533,251.198639 328.732544,251.155273 326.454132,251.066956 
	C331.763611,246.361404 329.659271,239.879333 330.024841,233.518311 
	C332.359467,233.005096 334.679718,232.949493 337.428589,232.857910 
z"/>
<path fill="#FCDC3D" opacity="1.000000" stroke="none" 
	d="
M404.483582,143.728577 
	C400.525543,143.653793 397.576721,142.612732 397.722961,138.452118 
	C397.874359,134.144775 401.061981,133.756180 404.501251,133.856628 
	C408.148621,133.963150 411.892975,133.410049 415.415161,134.084274 
	C417.335205,134.451813 418.882477,136.766617 420.597839,138.203232 
	C419.020386,140.010361 417.718750,142.899857 415.805023,143.387589 
	C412.370697,144.262802 408.568573,143.694748 404.483582,143.728577 
z"/>
<path fill="#FCDC38" opacity="1.000000" stroke="none" 
	d="
M394.293823,186.671295 
	C392.159637,185.342728 389.744476,184.608505 388.666779,182.985947 
	C387.610596,181.395721 387.023193,178.351135 387.879669,176.961670 
	C388.701935,175.627625 392.067505,174.567825 393.566498,175.190475 
	C397.804138,176.950714 401.933289,179.288162 405.521118,182.134445 
	C406.873016,183.206924 407.642303,186.911819 406.811584,188.301468 
	C405.987915,189.679337 402.722626,190.333298 400.698792,190.056702 
	C398.560394,189.764465 396.623352,187.998749 394.293823,186.671295 
z"/>
<path fill="#FCDC3D" opacity="1.000000" stroke="none" 
	d="
M233.045990,137.293213 
	C234.690552,135.885880 236.185638,134.187088 237.827560,134.030762 
	C242.095596,133.624420 246.496689,133.451080 250.703583,134.099838 
	C252.571732,134.387939 255.383011,136.838974 255.434418,138.385696 
	C255.489868,140.054443 252.999435,143.048752 251.302338,143.297134 
	C246.608643,143.984116 241.730530,143.802643 236.962738,143.453583 
	C233.796875,143.221771 232.583160,140.821213 233.045990,137.293213 
z"/>
<path fill="#F9AF07" opacity="1.000000" stroke="none" 
	d="
M382.313965,378.285309 
	C381.916748,371.084808 381.964752,363.866150 382.042297,356.155334 
	C386.834076,355.444824 389.021759,357.325348 388.272400,362.424744 
	C387.820190,365.502045 387.910461,368.731079 388.256500,371.836273 
	C388.739563,376.171295 387.321014,378.452301 382.313965,378.285309 
z"/>
<path fill="#F9AF0A" opacity="1.000000" stroke="none" 
	d="
M331.466858,428.651489 
	C331.238708,427.313934 331.291077,425.990601 331.624664,424.742432 
	C332.410370,421.802429 332.438293,417.458771 334.370544,416.261597 
	C339.286591,413.215607 345.072968,411.569031 350.539490,409.435303 
	C350.763763,409.347748 351.276245,409.998657 351.805908,410.598511 
	C343.579498,413.761353 335.608276,416.989471 337.620911,428.699890 
	C335.095673,428.699890 333.485443,428.699890 331.466858,428.651489 
z"/>
<path fill="#F9AF0A" opacity="1.000000" stroke="none" 
	d="
M351.651733,322.927673 
	C351.670990,323.489288 351.451080,324.123474 351.078461,324.231598 
	C346.918579,325.438934 333.186523,317.520752 332.297577,313.390778 
	C331.784149,311.005524 331.457367,308.580078 331.053284,305.785034 
	C332.860107,305.397339 334.660278,305.397339 336.434692,305.397339 
	C336.744232,306.014862 337.154022,306.447174 337.144592,306.870117 
	C336.927032,316.605560 343.242432,320.472382 351.651733,322.927673 
z"/>
<path fill="#F9AF0A" opacity="1.000000" stroke="none" 
	d="
M288.055206,415.370789 
	C290.223541,413.522095 292.451019,411.738037 294.967560,410.584686 
	C296.278015,409.984070 298.098267,410.495697 299.869629,410.790405 
	C297.640533,412.777069 295.366455,414.751434 292.757172,416.054657 
	C291.598206,416.633575 289.762695,415.857880 288.055206,415.370789 
z"/>
<path fill="#F9AF0A" opacity="1.000000" stroke="none" 
	d="
M299.888184,322.671173 
	C298.028687,322.826996 295.852600,323.087524 293.967102,322.466187 
	C292.000519,321.818146 290.314026,320.320129 288.175171,319.056824 
	C289.289948,316.343750 291.019073,316.247620 293.285339,318.036865 
	C295.307831,319.633606 297.552612,320.948883 299.888184,322.671173 
z"/>
<path fill="#FF8A4A" opacity="1.000000" stroke="none" 
	d="
M340.950317,212.380676 
	C337.944397,212.877106 334.945557,212.917252 331.492950,212.441223 
	C331.039215,198.826599 331.039215,185.728180 331.039215,172.315125 
	C329.549927,172.529938 328.680969,172.910156 327.965546,172.718185 
	C322.210541,171.173904 321.888184,174.383865 321.979034,178.853638 
	C322.209229,190.177338 322.068207,201.508560 322.075867,212.836777 
	C319.078339,212.875839 316.080811,212.914902 312.654236,212.893494 
	C312.196350,200.009048 312.087463,187.184402 312.197693,174.361618 
	C312.223663,171.339996 311.328094,169.607727 308.557220,168.099503 
	C297.688904,162.183716 291.784973,152.808304 290.428802,140.549606 
	C289.888977,135.669876 292.775696,129.960281 296.746979,127.885490 
	C300.576721,125.884621 306.149750,126.868004 310.043152,130.695282 
	C317.023376,137.556946 319.510468,146.462448 321.096710,155.786774 
	C321.654266,159.064194 320.944946,163.532654 326.878510,163.039734 
	C330.460388,162.742157 331.709656,161.326035 332.059387,157.855362 
	C332.952148,148.996506 334.992004,140.331573 340.951355,133.425171 
	C343.304779,130.697784 346.760376,128.104538 350.161560,127.266747 
	C357.435486,125.475014 363.330872,131.355652 362.824982,139.911148 
	C362.098938,152.190598 356.374451,161.867355 345.357361,167.695877 
	C341.814850,169.570007 340.808746,171.672211 340.878357,175.450241 
	C341.102203,187.604645 340.959015,199.765823 340.950317,212.380676 
M343.502258,149.153015 
	C342.948822,151.900726 342.395386,154.648453 341.686066,158.169922 
	C349.837952,153.378479 354.161041,144.092026 352.010315,136.817291 
	C346.747437,139.042847 345.548676,143.939743 343.502258,149.153015 
M307.856689,143.856995 
	C306.021759,141.459793 304.186829,139.062576 302.126465,136.370850 
	C298.361481,142.677094 303.724915,154.088943 311.809601,157.396774 
	C310.477570,152.720688 309.314056,148.636154 307.856689,143.856995 
z"/>
<path fill="#F3F3FD" opacity="1.000000" stroke="none" 
	d="
M321.901520,335.768921 
	C334.157562,334.725922 344.659576,338.164673 352.007629,348.447388 
	C359.780396,359.324341 360.491791,371.103027 353.894684,382.624573 
	C347.306213,394.131165 336.930206,399.421021 323.501099,398.254486 
	C322.244965,398.145355 320.950165,398.481018 319.202881,398.479797 
	C318.267853,397.932373 317.872772,397.343536 317.328491,397.123199 
	C302.193817,390.996796 293.929474,378.938477 295.121613,364.655334 
	C296.337341,350.089355 306.344482,339.295044 321.901520,335.768921 
z"/>
<path fill="#F9AF0A" opacity="1.000000" stroke="none" 
	d="
M321.616516,335.533997 
	C306.344482,339.295044 296.337341,350.089355 295.121613,364.655334 
	C293.929474,378.938477 302.193817,390.996796 317.328491,397.123199 
	C317.872772,397.343536 318.267853,397.932373 318.864197,398.673340 
	C309.060730,397.116425 300.285217,393.183014 294.815521,384.183350 
	C288.258911,373.395264 287.806213,362.086365 294.069489,351.154510 
	C299.972351,340.851685 309.153046,335.269104 321.616516,335.533997 
z"/>
<path fill="#FFE885" opacity="1.000000" stroke="none" 
	d="
M322.516357,212.898010 
	C322.068207,201.508560 322.209229,190.177338 321.979034,178.853638 
	C321.888184,174.383865 322.210541,171.173904 327.965546,172.718185 
	C328.680969,172.910156 329.549927,172.529938 331.039215,172.315125 
	C331.039215,185.728180 331.039215,198.826599 331.046509,212.380920 
	C328.354828,212.877625 325.655823,212.918427 322.516357,212.898010 
z"/>
<path fill="#FFE885" opacity="1.000000" stroke="none" 
	d="
M343.645691,148.782928 
	C345.548676,143.939743 346.747437,139.042847 352.010315,136.817291 
	C354.161041,144.092026 349.837952,153.378479 341.686066,158.169922 
	C342.395386,154.648453 342.948822,151.900726 343.645691,148.782928 
z"/>
<path fill="#FFE885" opacity="1.000000" stroke="none" 
	d="
M308.003601,144.204300 
	C309.314056,148.636154 310.477570,152.720688 311.809601,157.396774 
	C303.724915,154.088943 298.361481,142.677094 302.126465,136.370850 
	C304.186829,139.062576 306.021759,141.459793 308.003601,144.204300 
z"/>
</svg>