<svg version="1.1" id="Layer_1" xmlns="http://www.w3.org/2000/svg" xmlns:xlink="http://www.w3.org/1999/xlink" x="0px" y="0px"
	 width="100%" viewBox="0 0 512 512" enable-background="new 0 0 512 512" xml:space="preserve">
<path fill="#FFFFFF" opacity="1.000000" stroke="none" 
	d="
M347.000000,513.000000 
	C231.361435,513.000000 116.222862,513.000000 1.042144,513.000000 
	C1.042144,342.403076 1.042144,171.806137 1.042144,1.104599 
	C171.555237,1.104599 342.110565,1.104599 512.832947,1.104599 
	C512.832947,171.666534 512.832947,342.333252 512.832947,513.000000 
	C457.806061,513.000000 402.653046,513.000000 347.000000,513.000000 
M130.997757,249.179749 
	C130.979431,247.404724 130.961105,245.629715 130.923721,242.935760 
	C130.922897,235.442322 130.921387,227.948898 130.921356,220.455460 
	C130.921280,202.138168 130.956589,183.820770 130.891861,165.503708 
	C130.879471,162.001907 131.702927,159.515335 136.026077,159.179459 
	C136.026077,161.572144 136.022980,163.561920 136.026535,165.551697 
	C136.076172,193.356171 136.126724,221.160629 136.048172,249.899109 
	C136.042664,260.932861 136.037155,271.966644 135.242783,283.091705 
	C127.185051,284.197540 120.185646,287.173279 115.827644,294.501953 
	C106.089500,310.878265 116.203262,329.123016 136.029800,331.926544 
	C136.022415,333.961182 136.015015,335.995850 135.071671,338.110016 
	C123.884583,338.293152 112.697495,338.476318 100.676285,338.846985 
	C87.131088,341.310944 78.069534,351.929626 77.928322,365.613190 
	C77.871788,371.091492 77.983643,376.571503 77.967697,382.958527 
	C77.967697,385.866058 77.967697,388.773621 77.967697,391.685303 
	C86.007706,391.685303 93.223000,391.685303 100.813156,391.685303 
	C100.813156,388.217926 100.813156,385.102539 100.892128,381.056122 
	C101.094612,363.676392 101.094612,363.676392 105.095474,361.923370 
	C105.095474,372.044006 105.095474,381.861969 105.095474,392.249054 
	C120.614273,392.249054 135.363693,392.249054 149.934906,392.917664 
	C148.360535,396.693146 145.846420,400.365692 145.419189,404.266785 
	C144.668869,411.118073 145.196075,418.109222 145.066879,425.942383 
	C145.066879,428.866241 145.066879,431.790131 145.066879,434.742310 
	C153.028732,434.742310 160.381393,434.742310 167.877487,434.742310 
	C167.877487,431.292206 167.877487,428.171509 168.035278,424.120667 
	C168.200790,406.873016 168.200790,406.873016 172.314545,404.914276 
	C172.314545,415.078064 172.314545,424.949005 172.314545,434.867126 
	C193.072845,434.867126 213.156418,434.867126 233.930450,434.867126 
	C233.930450,424.767853 233.930450,414.937866 233.930450,405.107910 
	C234.546967,404.927887 235.163498,404.747864 235.780014,404.567810 
	C236.551620,406.383148 237.848480,408.157684 237.993195,410.021667 
	C238.378662,414.986725 238.268127,419.990265 238.261795,425.887146 
	C238.261795,428.808197 238.261795,431.729248 238.261795,434.740692 
	C246.233368,434.740692 253.575394,434.740692 261.144806,434.740692 
	C261.144806,431.289764 261.144806,428.169373 261.360260,424.678497 
	C261.360260,424.678497 261.270233,424.259491 261.594635,423.479980 
	C261.425232,417.735321 261.255829,411.990662 261.105011,405.396973 
	C259.814240,401.295715 258.523499,397.194458 258.125854,393.044708 
	C262.160919,393.044708 266.196014,393.044708 271.110107,393.044708 
	C264.106720,403.494019 266.373535,414.426971 266.080963,425.944550 
	C266.080963,428.851593 266.080963,431.758667 266.080963,434.719055 
	C274.072998,434.719055 281.283051,434.719055 288.950287,434.719055 
	C288.950287,431.298584 288.950287,428.194702 289.033051,424.146515 
	C289.043640,419.483734 288.794250,414.798798 289.189087,410.168762 
	C289.353577,408.239777 290.890198,406.427765 291.802887,404.562561 
	C292.498199,404.788940 293.193542,405.015289 293.888855,405.241669 
	C293.888855,415.073334 293.888855,424.904999 293.888855,434.665466 
	C314.601044,434.665466 334.480377,434.665466 354.813782,434.665466 
	C354.813782,429.479736 354.813782,424.680145 354.813782,419.880524 
	C354.813782,414.983551 354.813782,410.086609 354.813782,405.189636 
	C355.501831,404.990692 356.189850,404.791748 356.877899,404.592773 
	C357.636322,406.206177 358.946503,407.784882 359.050659,409.439453 
	C359.374451,414.583038 359.240662,419.755371 359.182098,425.839508 
	C359.182098,428.758179 359.182098,431.676849 359.182098,434.720886 
	C367.120483,434.720886 374.331543,434.720886 382.099243,434.720886 
	C382.099243,431.303467 382.099243,428.199615 382.298950,424.362000 
	C382.355499,424.114868 382.412018,423.867737 382.730621,422.950134 
	C382.626373,417.772797 382.522125,412.595459 382.245117,406.552521 
	C380.778870,402.061554 379.312622,397.570618 378.807404,392.967957 
	C386.769501,392.958069 394.744476,392.672394 402.688904,393.042114 
	C407.427277,393.262665 409.096985,391.930969 408.860077,387.018890 
	C408.465088,378.831085 408.752319,370.610382 408.752319,362.403564 
	C409.597473,361.781860 410.442627,361.160187 411.287750,360.538513 
	C411.910248,362.065735 412.532745,363.592987 413.065948,366.028473 
	C413.105133,371.000122 413.144348,375.971741 413.049225,381.555511 
	C413.104126,381.966278 413.159027,382.377075 413.136230,383.736816 
	C413.136230,386.521881 413.136230,389.306976 413.136230,392.357635 
	C420.999512,392.357635 428.383423,392.357635 436.014893,392.357635 
	C436.014893,388.956451 436.014893,385.825623 436.276459,381.179871 
	C436.470093,380.175629 436.663727,379.171387 436.625427,378.868805 
	C436.454132,375.058990 436.282837,371.249176 436.111511,367.439362 
	C436.347565,367.474854 436.602722,367.469452 436.810181,367.566254 
	C436.891663,367.604218 436.866394,367.871002 436.517975,366.853058 
	C436.348145,365.200684 436.185547,363.547516 436.007294,361.896057 
	C434.799225,350.703674 423.971405,339.662811 412.984680,339.087738 
	C405.036469,338.671722 397.046265,339.059143 388.128510,338.959229 
	C381.167786,339.011078 374.207031,339.062897 366.295197,338.917236 
	C359.491455,338.928619 352.687683,338.940033 345.381256,338.552551 
	C335.166138,324.609039 320.803986,322.051849 308.622498,332.411316 
	C305.573273,335.004425 303.592834,338.854309 300.386719,341.912262 
	C298.381470,341.166534 296.401550,339.863464 294.366638,339.770966 
	C285.306427,339.359039 276.230530,339.293457 266.207855,338.982269 
	C259.165436,338.997467 252.123032,339.012665 244.136902,338.940765 
	C237.707977,338.979218 231.279068,339.017670 224.338333,338.653595 
	C218.362793,329.272644 209.798248,325.316681 198.801331,325.469330 
	C198.774734,299.962372 198.748138,274.455414 198.943970,248.041580 
	C198.943970,218.457443 198.943970,188.873306 198.943970,158.898132 
	C203.233841,159.947952 203.721252,162.661743 203.710052,165.854874 
	C203.664429,178.853180 203.736038,191.851929 203.672409,204.850067 
	C203.647766,209.884308 205.156158,214.037964 209.764023,216.556351 
	C214.307373,219.039474 218.646072,218.307358 222.953430,215.682617 
	C231.571136,210.431335 240.271805,205.316208 248.831131,201.056732 
	C248.823715,203.388123 248.809036,205.719528 248.810059,208.050919 
	C248.815506,220.374100 252.202713,223.772247 264.501984,223.772934 
	C310.966278,223.775513 357.430542,223.774323 403.894836,223.772324 
	C405.393402,223.772263 406.899841,223.843231 408.389191,223.719559 
	C415.770111,223.106735 419.969727,218.758850 419.980743,211.384384 
	C420.031738,177.244049 420.033630,143.103531 419.981110,108.963203 
	C419.969177,101.216614 415.672485,96.820694 407.909912,96.810432 
	C358.947632,96.745689 309.985199,96.747375 261.022919,96.805458 
	C252.889145,96.815102 248.861176,101.016121 248.832031,109.291451 
	C248.765732,128.110092 248.820175,146.929123 248.791901,165.747940 
	C248.789169,167.562851 248.551208,169.377411 248.023636,171.399780 
	C247.690170,171.903458 247.356720,172.407135 246.335342,173.075119 
	C240.217026,176.824036 234.098709,180.572968 227.121384,184.848236 
	C227.121384,176.221191 227.404022,168.760971 227.058243,161.330017 
	C226.470657,148.702576 217.407822,138.151031 204.959671,136.057861 
	C198.464127,134.965622 191.755325,135.141754 185.725220,134.779938 
	C182.621017,142.613251 179.771149,149.804749 176.210114,156.951431 
	C175.973175,156.934967 175.736221,156.918518 175.563553,156.105408 
	C175.169785,154.056305 175.267349,151.723282 174.281128,150.016525 
	C172.155655,146.338181 170.837112,143.094849 173.908737,139.176208 
	C175.817459,136.741150 174.589630,135.154175 171.551636,135.163620 
	C168.059280,135.174500 164.567123,135.250961 160.152039,135.158630 
	C156.649292,135.284866 153.146530,135.411087 148.764053,135.411530 
	C145.267517,135.380890 141.770874,135.314316 138.274475,135.325592 
	C118.833344,135.388336 107.143188,147.042923 107.124336,166.378342 
	C107.099152,192.194489 107.086365,218.010635 107.018303,244.714340 
	C107.020248,246.494949 107.022194,248.275558 107.037636,250.828613 
	C108.283669,258.577698 112.400696,262.225586 119.640373,261.995117 
	C126.330986,261.782135 130.394058,257.505829 130.997757,249.179749 
M169.167755,127.731636 
	C169.972748,127.526413 170.767944,127.263565 171.584198,127.124504 
	C187.369751,124.435097 196.001190,109.006294 190.121033,93.970215 
	C185.752197,82.798721 172.476364,76.338806 161.058105,79.828430 
	C148.387100,83.700920 141.001419,95.684059 143.774261,107.871162 
	C146.545319,120.050407 154.657089,126.642250 169.167755,127.731636 
M398.513336,295.132446 
	C390.835693,284.201599 378.575745,280.663818 367.522614,286.189636 
	C357.017242,291.441620 351.903717,303.797363 355.628326,314.929626 
	C360.005432,328.012115 374.408234,334.672058 387.122742,329.492859 
	C400.347290,324.105865 405.413605,309.603729 398.513336,295.132446 
M253.886322,283.981049 
	C245.963943,285.163910 240.102615,289.229584 236.140869,296.243500 
	C230.184204,306.789276 233.889954,320.863586 244.582428,327.720825 
	C254.407074,334.021545 269.246277,331.317261 275.971680,321.992126 
	C281.737183,313.997986 282.763153,305.474487 278.236053,296.658600 
	C273.368195,287.179138 265.207306,283.361786 253.886322,283.981049 
z"/>
<path fill="#47738C" opacity="1.000000" stroke="none" 
	d="
M248.422440,171.192123 
	C248.551208,169.377411 248.789169,167.562851 248.791901,165.747940 
	C248.820175,146.929123 248.765732,128.110092 248.832031,109.291451 
	C248.861176,101.016121 252.889145,96.815102 261.022919,96.805458 
	C309.985199,96.747375 358.947632,96.745689 407.909912,96.810432 
	C415.672485,96.820694 419.969177,101.216614 419.981110,108.963203 
	C420.033630,143.103531 420.031738,177.244049 419.980743,211.384384 
	C419.969727,218.758850 415.770111,223.106735 408.389191,223.719559 
	C406.899841,223.843231 405.393402,223.772263 403.894836,223.772324 
	C357.430542,223.774323 310.966278,223.775513 264.501984,223.772934 
	C252.202713,223.772247 248.815506,220.374100 248.810059,208.050919 
	C248.809036,205.719528 248.823715,203.388123 249.039001,200.291138 
	C252.481216,197.167953 255.715546,194.810364 259.303528,192.435913 
	C260.801971,191.649551 261.946747,190.880035 263.418152,190.005310 
	C267.848755,186.998901 269.288452,182.942307 269.194885,177.955475 
	C275.683563,173.006882 281.854370,168.190796 288.011169,163.356873 
	C294.037262,158.625580 300.085876,153.921753 306.050873,149.114395 
	C308.833405,146.871902 310.088715,143.958771 307.598083,140.862732 
	C305.244446,137.936981 302.234436,137.833252 299.233917,140.185043 
	C297.923096,141.212448 296.610992,142.238342 295.293243,143.256851 
	C283.976624,152.003738 272.658569,160.748764 260.906799,169.314316 
	C257.530701,169.600784 254.588791,170.067291 251.245087,170.615753 
	C250.036362,170.862488 249.229401,171.027298 248.422440,171.192123 
z"/>
<path fill="#1C234B" opacity="1.000000" stroke="none" 
	d="
M258.949890,192.452774 
	C255.715546,194.810364 252.481216,197.167953 249.092560,199.835205 
	C240.271805,205.316208 231.571136,210.431335 222.953430,215.682617 
	C218.646072,218.307358 214.307373,219.039474 209.764023,216.556351 
	C205.156158,214.037964 203.647766,209.884308 203.672409,204.850067 
	C203.736038,191.851929 203.664429,178.853180 203.710052,165.854874 
	C203.721252,162.661743 203.233841,159.947952 198.943970,158.898132 
	C198.943970,188.873306 198.943970,218.457443 198.382141,248.502075 
	C188.530563,248.983749 179.240814,249.004944 169.581924,249.015228 
	C168.479431,248.946808 167.746109,248.889282 167.009064,248.373642 
	C167.003983,228.028015 166.972794,208.140381 167.045273,188.253128 
	C167.052917,186.159164 167.670990,184.067429 168.052765,181.610245 
	C170.401367,174.548721 172.703064,167.851639 175.310272,160.995605 
	C176.050949,159.556519 176.486115,158.276398 176.921280,156.996262 
	C179.771149,149.804749 182.621017,142.613251 185.725220,134.779938 
	C191.755325,135.141754 198.464127,134.965622 204.959671,136.057861 
	C217.407822,138.151031 226.470657,148.702576 227.058243,161.330017 
	C227.404022,168.760971 227.121384,176.221191 227.121384,184.848236 
	C234.098709,180.572968 240.217026,176.824036 246.768707,173.332596 
	C251.117996,179.877640 255.033951,186.165207 258.949890,192.452774 
M189.081833,172.007019 
	C185.584854,172.012558 182.075974,171.863007 178.599045,172.129791 
	C177.699921,172.198776 176.282745,173.534378 176.230560,174.359421 
	C176.178802,175.178040 177.498077,176.779007 178.302155,176.836685 
	C181.945023,177.098022 185.626495,177.063141 189.274841,176.831619 
	C190.155991,176.775711 191.596497,175.605499 191.644318,174.873520 
	C191.703384,173.969406 190.576996,172.987823 189.081833,172.007019 
z"/>
<path fill="#272F5D" opacity="1.000000" stroke="none" 
	d="
M168.005844,181.974670 
	C167.670990,184.067429 167.052917,186.159164 167.045273,188.253128 
	C166.972794,208.140381 167.003983,228.028015 166.679688,248.450531 
	C165.682480,249.058990 165.010941,249.132446 163.852875,249.145645 
	C154.303238,249.045303 145.240158,249.005203 136.177063,248.965118 
	C136.126724,221.160629 136.076172,193.356171 136.026535,165.551697 
	C136.022980,163.561920 136.026077,161.572144 136.026077,159.179459 
	C131.702927,159.515335 130.879471,162.001907 130.891861,165.503708 
	C130.956589,183.820770 130.921280,202.138168 130.921356,220.455460 
	C130.921387,227.948898 130.922897,235.442322 130.472931,243.464813 
	C122.370834,243.938171 114.719551,243.882477 107.068260,243.826782 
	C107.086365,218.010635 107.099152,192.194489 107.124336,166.378342 
	C107.143188,147.042923 118.833344,135.388336 138.274475,135.325592 
	C141.770874,135.314316 145.267517,135.380890 149.241852,135.471588 
	C149.719650,135.531631 149.731781,135.601761 149.778076,136.020081 
	C153.168610,144.969254 156.512848,153.500076 159.910828,162.418854 
	C162.644974,169.196091 165.325409,175.585388 168.005844,181.974670 
z"/>
<path fill="#FE3E3D" opacity="1.000000" stroke="none" 
	d="
M257.232727,393.093201 
	C258.523499,397.194458 259.814240,401.295715 261.065002,406.257263 
	C261.106720,412.831543 261.188477,418.545502 261.270233,424.259491 
	C261.270233,424.259491 261.360260,424.678497 260.772949,424.863403 
	C252.908676,425.025024 245.631744,425.001770 238.354797,424.978516 
	C238.268127,419.990265 238.378662,414.986725 237.993195,410.021667 
	C237.848480,408.157684 236.551620,406.383148 235.780014,404.567810 
	C235.163498,404.747864 234.546967,404.927887 233.930450,405.107910 
	C233.930450,414.937866 233.930450,424.767853 233.930450,434.867126 
	C213.156418,434.867126 193.072845,434.867126 172.314545,434.867126 
	C172.314545,424.949005 172.314545,415.078064 172.314545,404.914276 
	C168.200790,406.873016 168.200790,406.873016 167.496262,424.582520 
	C159.700897,425.043549 152.444565,425.042664 145.188232,425.041809 
	C145.196075,418.109222 144.668869,411.118073 145.419189,404.266785 
	C145.846420,400.365692 148.360535,396.693146 150.327759,392.420105 
	C155.849319,388.569672 160.978043,385.216827 166.472488,381.911804 
	C167.583588,381.906158 168.328949,381.852661 169.535095,381.853424 
	C175.159943,381.923737 180.328049,381.825470 185.486374,382.006165 
	C187.907303,382.090942 190.622009,382.120483 192.664261,383.197601 
	C200.286179,387.217438 207.298035,386.671387 214.471863,381.342590 
	C217.253403,381.151672 219.605652,381.056946 222.254883,381.057861 
	C222.752548,381.208130 222.953232,381.262756 223.284744,381.477356 
	C223.892410,381.530670 224.369263,381.424011 225.112854,381.247467 
	C225.561310,381.149628 225.743011,381.121674 226.182999,381.129120 
	C226.613907,381.144348 226.786530,381.124207 227.412354,381.133789 
	C230.576187,381.249908 233.286789,381.336365 236.156067,381.566010 
	C236.314758,381.709229 236.729172,381.816742 236.729172,381.816742 
	C236.729172,381.816742 237.142075,381.703125 237.540894,381.753723 
	C239.850555,382.241943 242.047058,382.222321 243.618103,383.203827 
	C248.153503,386.037201 252.436874,389.273987 256.904053,392.547913 
	C256.988861,392.743500 257.232727,393.093201 257.232727,393.093201 
z"/>
<path fill="#79BEFE" opacity="1.000000" stroke="none" 
	d="
M257.679291,393.068970 
	C257.232727,393.093201 256.988861,392.743500 257.391663,392.552490 
	C265.360779,392.759430 272.645294,392.959778 278.362274,386.226562 
	C280.270386,383.979279 284.139099,383.396759 287.524719,382.013306 
	C289.288239,381.717926 290.638641,381.462402 292.439636,381.325836 
	C296.552582,381.499725 300.214905,381.558594 303.877319,381.608582 
	C308.479675,381.671387 312.822174,381.636749 317.278015,384.120392 
	C323.199463,387.420807 329.508606,386.344177 335.474365,382.035889 
	C343.611542,381.980835 351.280670,381.945404 359.350922,381.932861 
	C367.711578,382.527496 372.639648,388.030212 377.846405,393.079651 
	C379.312622,397.570618 380.778870,402.061554 382.269470,407.402466 
	C382.352081,413.375122 382.410309,418.497894 382.468536,423.620636 
	C382.412018,423.867737 382.355499,424.114868 381.720276,424.735016 
	C373.855835,425.044220 366.570129,424.980408 359.284424,424.916565 
	C359.240662,419.755371 359.374451,414.583038 359.050659,409.439453 
	C358.946503,407.784882 357.636322,406.206177 356.877899,404.592773 
	C356.189850,404.791748 355.501831,404.990692 354.813782,405.189636 
	C354.813782,410.086609 354.813782,414.983551 354.813782,419.880524 
	C354.813782,424.680145 354.813782,429.479736 354.813782,434.665466 
	C334.480377,434.665466 314.601044,434.665466 293.888855,434.665466 
	C293.888855,424.904999 293.888855,415.073334 293.888855,405.241669 
	C293.193542,405.015289 292.498199,404.788940 291.802887,404.562561 
	C290.890198,406.427765 289.353577,408.239777 289.189087,410.168762 
	C288.794250,414.798798 289.043640,419.483734 288.528320,424.625427 
	C280.735504,425.083038 273.447479,425.061676 266.159424,425.040344 
	C266.373535,414.426971 264.106720,403.494019 271.110107,393.044708 
	C266.196014,393.044708 262.160919,393.044708 257.679291,393.068970 
z"/>
<path fill="#7ABEFD" opacity="1.000000" stroke="none" 
	d="
M166.106750,381.863953 
	C160.978043,385.216827 155.849319,388.569672 150.416870,392.085785 
	C135.363693,392.249054 120.614273,392.249054 105.095474,392.249054 
	C105.095474,381.861969 105.095474,372.044006 105.095474,361.923370 
	C101.094612,363.676392 101.094612,363.676392 100.402832,381.546600 
	C92.615311,382.041626 85.317078,382.046204 78.018852,382.050751 
	C77.983643,376.571503 77.871788,371.091492 77.928322,365.613190 
	C78.069534,351.929626 87.131088,341.310944 101.503387,338.786896 
	C105.486603,338.711945 108.642899,338.669006 111.798798,338.688324 
	C117.701477,338.724426 123.361549,338.631134 129.148666,341.422333 
	C132.632141,343.102509 137.749847,341.762817 142.068192,341.241760 
	C146.550858,340.700897 150.934830,339.386017 155.402267,338.656525 
	C157.669266,338.286407 160.024979,338.459595 162.830811,338.294006 
	C163.651337,338.161346 163.981628,338.121796 164.651245,338.068359 
	C165.439682,338.106873 165.888809,338.159241 166.618744,338.388794 
	C168.086060,338.559998 169.272568,338.554047 170.815979,338.666687 
	C174.291382,339.870239 177.409897,340.955200 180.471375,342.500732 
	C178.671494,352.069183 179.707458,360.501801 186.859695,367.168701 
	C189.127319,369.282501 191.892639,370.862335 194.271271,373.051392 
	C194.060364,375.973175 194.008377,378.530151 193.493042,381.150330 
	C185.744446,381.106384 178.459167,380.999268 171.121704,380.436768 
	C170.058716,373.779877 173.485199,366.504395 167.773834,361.440582 
	C167.218140,361.526459 166.662445,361.612335 166.106750,361.698212 
	C166.106750,368.420135 166.106750,375.142029 166.106750,381.863953 
z"/>
<path fill="#57C6A6" opacity="1.000000" stroke="none" 
	d="
M378.326904,393.023804 
	C372.639648,388.030212 367.711578,382.527496 359.053314,381.663269 
	C357.376770,381.254761 356.400513,381.053284 355.420990,381.036102 
	C347.342102,380.894379 348.077148,382.305939 347.883392,373.647491 
	C347.797424,369.805756 347.192108,365.975647 346.554321,362.121521 
	C346.113464,362.151184 345.940857,362.199585 345.610352,361.965057 
	C349.054779,354.170898 348.646790,346.583527 345.883942,338.951447 
	C352.687683,338.940033 359.491455,338.928619 366.955383,339.290710 
	C375.866882,344.424774 382.640900,344.242981 389.074768,339.088257 
	C397.046265,339.059143 405.036469,338.671722 412.984680,339.087738 
	C423.971405,339.662811 434.799225,350.703674 436.007294,361.896057 
	C436.185547,363.547516 436.348145,365.200684 436.726654,367.519409 
	C436.909332,371.512909 436.883331,374.840027 436.857330,378.167145 
	C436.663727,379.171387 436.470093,380.175629 435.676697,381.950867 
	C427.789276,382.743866 420.501587,382.765839 413.213928,382.787842 
	C413.159027,382.377075 413.104126,381.966278 413.365173,380.928680 
	C413.505859,375.241302 413.330566,370.180786 413.155243,365.120239 
	C412.532745,363.592987 411.910248,362.065735 411.287750,360.538513 
	C410.442627,361.160187 409.597473,361.781860 408.752319,362.403564 
	C408.752319,370.610382 408.465088,378.831085 408.860077,387.018890 
	C409.096985,391.930969 407.427277,393.262665 402.688904,393.042114 
	C394.744476,392.672394 386.769501,392.958069 378.326904,393.023804 
z"/>
<path fill="#262E5C" opacity="1.000000" stroke="none" 
	d="
M287.111572,382.053192 
	C284.139099,383.396759 280.270386,383.979279 278.362274,386.226562 
	C272.645294,392.959778 265.360779,392.759430 257.306824,392.356934 
	C252.436874,389.273987 248.153503,386.037201 243.618103,383.203827 
	C242.047058,382.222321 239.850555,382.241943 237.387054,381.598145 
	C236.548859,381.223236 236.269867,381.233521 235.997391,381.422791 
	C233.286789,381.336365 230.576187,381.249908 227.382111,380.656860 
	C226.655533,374.192596 226.412399,368.234924 225.842621,362.146332 
	C225.050751,362.065338 224.585541,362.115265 224.194946,361.796356 
	C228.249664,354.068665 227.430222,346.585266 224.850143,339.056152 
	C231.279068,339.017670 237.707977,338.979218 244.811859,339.261169 
	C253.724701,344.429810 260.238403,344.285889 267.160278,339.102722 
	C276.230530,339.293457 285.306427,339.359039 294.366638,339.770966 
	C296.401550,339.863464 298.381470,341.166534 300.824982,342.469696 
	C299.208069,355.894409 302.808472,366.065491 315.101868,372.526581 
	C315.091644,375.655090 315.095703,378.342621 314.640259,381.163910 
	C306.829468,381.268097 299.478180,381.238525 292.111328,380.722534 
	C292.092072,375.742828 292.393890,371.218323 291.939209,366.771118 
	C291.748749,364.908234 289.954071,363.209412 288.888763,361.436005 
	C288.296356,361.706177 287.703979,361.976349 287.111572,362.246521 
	C287.111572,368.848724 287.111572,375.450958 287.111572,382.053192 
z"/>
<path fill="#38426E" opacity="1.000000" stroke="none" 
	d="
M180.528412,342.040161 
	C177.409897,340.955200 174.291382,339.870239 170.758698,338.573822 
	C170.344528,338.362366 170.124969,338.356232 170.161530,337.866333 
	C170.202240,326.391785 170.238892,315.406982 170.203278,304.422424 
	C170.143372,285.956909 170.037567,267.491547 169.951080,249.026123 
	C179.240814,249.004944 188.530563,248.983749 198.270920,248.955505 
	C198.748138,274.455414 198.774734,299.962372 198.512527,326.114502 
	C189.646805,328.751404 184.377716,334.573700 180.528412,342.040161 
z"/>
<path fill="#FFB79F" opacity="1.000000" stroke="none" 
	d="
M168.752960,127.782059 
	C154.657089,126.642250 146.545319,120.050407 143.774261,107.871162 
	C141.001419,95.684059 148.387100,83.700920 161.058105,79.828430 
	C172.476364,76.338806 185.752197,82.798721 190.121033,93.970215 
	C196.001190,109.006294 187.369751,124.435097 171.584198,127.124504 
	C170.767944,127.263565 169.972748,127.526413 168.752960,127.782059 
z"/>
<path fill="#813B1D" opacity="1.000000" stroke="none" 
	d="
M398.707977,295.452942 
	C405.413605,309.603729 400.347290,324.105865 387.122742,329.492859 
	C374.408234,334.672058 360.005432,328.012115 355.628326,314.929626 
	C351.903717,303.797363 357.017242,291.441620 367.522614,286.189636 
	C378.575745,280.663818 390.835693,284.201599 398.707977,295.452942 
z"/>
<path fill="#FEB69E" opacity="1.000000" stroke="none" 
	d="
M136.048294,331.059326 
	C116.203262,329.123016 106.089500,310.878265 115.827644,294.501953 
	C120.185646,287.173279 127.185051,284.197540 136.021317,283.123657 
	C144.812714,284.044739 151.531097,287.241364 155.989578,294.226135 
	C165.763519,309.538177 155.931046,330.003479 136.048294,331.059326 
z"/>
<path fill="#FEB69E" opacity="1.000000" stroke="none" 
	d="
M315.116150,372.085632 
	C302.808472,366.065491 299.208069,355.894409 301.192200,342.576843 
	C303.592834,338.854309 305.573273,335.004425 308.622498,332.411316 
	C320.803986,322.051849 335.166138,324.609039 345.632599,338.752014 
	C348.646790,346.583527 349.054779,354.170898 345.448181,362.185394 
	C344.603668,363.726410 343.763367,364.764191 342.606720,365.940491 
	C336.081116,372.159210 328.637512,374.709351 319.770996,373.643066 
	C318.060883,372.972504 316.588501,372.529083 315.116150,372.085632 
z"/>
<path fill="#FFB79F" opacity="1.000000" stroke="none" 
	d="
M254.329758,283.962280 
	C265.207306,283.361786 273.368195,287.179138 278.236053,296.658600 
	C282.763153,305.474487 281.737183,313.997986 275.971680,321.992126 
	C269.246277,331.317261 254.407074,334.021545 244.582428,327.720825 
	C233.889954,320.863586 230.184204,306.789276 236.140869,296.243500 
	C240.102615,289.229584 245.963943,285.163910 254.329758,283.962280 
z"/>
<path fill="#B96747" opacity="1.000000" stroke="none" 
	d="
M180.471375,342.500732 
	C184.377716,334.573700 189.646805,328.751404 198.510803,326.612244 
	C209.798248,325.316681 218.362793,329.272644 224.594238,338.854858 
	C227.430222,346.585266 228.249664,354.068665 224.062225,362.093750 
	C223.178558,363.609894 222.502213,364.459808 221.558655,365.462830 
	C215.349274,372.398193 207.646561,374.449738 198.743332,373.720581 
	C197.146118,373.244110 195.788147,372.965332 194.430191,372.686554 
	C191.892639,370.862335 189.127319,369.282501 186.859695,367.168701 
	C179.707458,360.501801 178.671494,352.069183 180.471375,342.500732 
z"/>
<path fill="#424C82" opacity="1.000000" stroke="none" 
	d="
M136.039047,331.492920 
	C155.931046,330.003479 165.763519,309.538177 155.989578,294.226135 
	C151.531097,287.241364 144.812714,284.044739 136.415741,283.078003 
	C136.037155,271.966644 136.042664,260.932861 136.112610,249.432114 
	C145.240158,249.005203 154.303238,249.045303 163.866699,249.600433 
	C164.348709,279.437744 164.330322,308.760010 164.311935,338.082245 
	C163.981628,338.121796 163.651337,338.161346 162.434326,338.262848 
	C153.034286,338.226715 144.520950,338.128601 136.007614,338.030487 
	C136.015015,335.995850 136.022415,333.961182 136.039047,331.492920 
z"/>
<path fill="#FD4242" opacity="1.000000" stroke="none" 
	d="
M168.052765,181.610245 
	C165.325409,175.585388 162.644974,169.196091 160.002716,162.003845 
	C159.722885,158.445450 158.159592,154.896118 159.316711,153.081085 
	C163.022919,147.267593 162.866730,141.797058 160.327850,135.896240 
	C160.806900,135.764069 160.990280,135.580902 161.074890,135.298950 
	C164.567123,135.250961 168.059280,135.174500 171.551636,135.163620 
	C174.589630,135.154175 175.817459,136.741150 173.908737,139.176208 
	C170.837112,143.094849 172.155655,146.338181 174.281128,150.016525 
	C175.267349,151.723282 175.169785,154.056305 175.375214,156.755219 
	C175.126175,158.654861 175.065475,159.904709 175.004761,161.154556 
	C172.703064,167.851639 170.401367,174.548721 168.052765,181.610245 
z"/>
<path fill="#874427" opacity="1.000000" stroke="none" 
	d="
M413.175079,383.262329 
	C420.501587,382.765839 427.789276,382.743866 435.545898,382.708313 
	C436.014893,385.825623 436.014893,388.956451 436.014893,392.357635 
	C428.383423,392.357635 420.999512,392.357635 413.136230,392.357635 
	C413.136230,389.306976 413.136230,386.521881 413.175079,383.262329 
z"/>
<path fill="#FBB7A1" opacity="1.000000" stroke="none" 
	d="
M130.971024,250.069885 
	C130.394058,257.505829 126.330986,261.782135 119.640373,261.995117 
	C112.400696,262.225586 108.283669,258.577698 107.496216,250.409317 
	C115.626869,250.016647 123.298943,250.043259 130.971024,250.069885 
z"/>
<path fill="#B96747" opacity="1.000000" stroke="none" 
	d="
M145.127548,425.492096 
	C152.444565,425.042664 159.700897,425.043549 167.417358,425.047607 
	C167.877487,428.171509 167.877487,431.292206 167.877487,434.742310 
	C160.381393,434.742310 153.028732,434.742310 145.066879,434.742310 
	C145.066879,431.790131 145.066879,428.866241 145.127548,425.492096 
z"/>
<path fill="#B96747" opacity="1.000000" stroke="none" 
	d="
M238.308304,425.432831 
	C245.631744,425.001770 252.908676,425.025024 260.665222,425.048645 
	C261.144806,428.169373 261.144806,431.289764 261.144806,434.740692 
	C253.575394,434.740692 246.233368,434.740692 238.261795,434.740692 
	C238.261795,431.729248 238.261795,428.808197 238.308304,425.432831 
z"/>
<path fill="#FBB7A1" opacity="1.000000" stroke="none" 
	d="
M77.993271,382.504639 
	C85.317078,382.046204 92.615311,382.041626 100.363342,382.012115 
	C100.813156,385.102539 100.813156,388.217926 100.813156,391.685303 
	C93.223000,391.685303 86.007706,391.685303 77.967697,391.685303 
	C77.967697,388.773621 77.967697,385.866058 77.993271,382.504639 
z"/>
<path fill="#FBB7A1" opacity="1.000000" stroke="none" 
	d="
M266.120178,425.492432 
	C273.447479,425.061676 280.735504,425.083038 288.486938,425.097595 
	C288.950287,428.194702 288.950287,431.298584 288.950287,434.719055 
	C281.283051,434.719055 274.072998,434.719055 266.080963,434.719055 
	C266.080963,431.758667 266.080963,428.851593 266.120178,425.492432 
z"/>
<path fill="#FBB7A1" opacity="1.000000" stroke="none" 
	d="
M359.233246,425.378052 
	C366.570129,424.980408 373.855835,425.044220 381.620422,425.101898 
	C382.099243,428.199615 382.099243,431.303467 382.099243,434.720886 
	C374.331543,434.720886 367.120483,434.720886 359.182098,434.720886 
	C359.182098,431.676849 359.182098,428.758179 359.233246,425.378052 
z"/>
<path fill="#FAF7F8" opacity="1.000000" stroke="none" 
	d="
M130.984390,249.624817 
	C123.298943,250.043259 115.626869,250.016647 107.489464,250.023102 
	C107.022194,248.275558 107.020248,246.494949 107.043282,244.270554 
	C114.719551,243.882477 122.370834,243.938171 130.482452,243.924286 
	C130.961105,245.629715 130.979431,247.404724 130.984390,249.624817 
z"/>
<path fill="#E5EAEE" opacity="1.000000" stroke="none" 
	d="
M259.303528,192.435913 
	C255.033951,186.165207 251.117996,179.877640 247.112671,173.250443 
	C247.356720,172.407135 247.690170,171.903458 248.223038,171.295959 
	C249.229401,171.027298 250.036362,170.862488 251.414154,170.972137 
	C255.687164,177.534592 259.389343,183.822556 263.091522,190.110535 
	C261.946747,190.880035 260.801971,191.649551 259.303528,192.435913 
z"/>
<path fill="#FBB7A1" opacity="1.000000" stroke="none" 
	d="
M135.539642,338.070251 
	C144.520950,338.128601 153.034286,338.226715 161.944107,338.356018 
	C160.024979,338.459595 157.669266,338.286407 155.402267,338.656525 
	C150.934830,339.386017 146.550858,340.700897 142.068192,341.241760 
	C137.749847,341.762817 132.632141,343.102509 129.148666,341.422333 
	C123.361549,338.631134 117.701477,338.724426 111.798798,338.688324 
	C108.642899,338.669006 105.486603,338.711945 101.920448,338.693146 
	C112.697495,338.476318 123.884583,338.293152 135.539642,338.070251 
z"/>
<path fill="#FBB7A1" opacity="1.000000" stroke="none" 
	d="
M266.684082,339.042480 
	C260.238403,344.285889 253.724701,344.429810 245.283722,339.304749 
	C252.123032,339.012665 259.165436,338.997467 266.684082,339.042480 
z"/>
<path fill="#813B1D" opacity="1.000000" stroke="none" 
	d="
M388.601624,339.023743 
	C382.640900,344.242981 375.866882,344.424774 367.430908,339.389435 
	C374.207031,339.062897 381.167786,339.011078 388.601624,339.023743 
z"/>
<path fill="#B96747" opacity="1.000000" stroke="none" 
	d="
M261.432434,423.869751 
	C261.188477,418.545502 261.106720,412.831543 261.055695,406.681763 
	C261.255829,411.990662 261.425232,417.735321 261.432434,423.869751 
z"/>
<path fill="#FBB7A1" opacity="1.000000" stroke="none" 
	d="
M382.599579,423.285400 
	C382.410309,418.497894 382.352081,413.375122 382.355865,407.835266 
	C382.522125,412.595459 382.626373,417.772797 382.599579,423.285400 
z"/>
<path fill="#874427" opacity="1.000000" stroke="none" 
	d="
M436.741394,378.517975 
	C436.883331,374.840027 436.909332,371.512909 436.912537,368.109680 
	C436.866394,367.871002 436.891663,367.604218 436.810181,367.566254 
	C436.602722,367.469452 436.347565,367.474854 436.111511,367.439362 
	C436.282837,371.249176 436.454132,375.058990 436.741394,378.517975 
z"/>
<path fill="#679D7E" opacity="1.000000" stroke="none" 
	d="
M413.110596,365.574341 
	C413.330566,370.180786 413.505859,375.241302 413.432373,380.622620 
	C413.144348,375.971741 413.105133,371.000122 413.110596,365.574341 
z"/>
<path fill="#A2BFBF" opacity="1.000000" stroke="none" 
	d="
M160.613464,135.228790 
	C160.990280,135.580902 160.806900,135.764069 159.858490,135.864990 
	C156.038742,135.788300 152.885254,135.695023 149.731781,135.601761 
	C149.731781,135.601761 149.719650,135.531631 149.681717,135.534470 
	C153.146530,135.411087 156.649292,135.284866 160.613464,135.228790 
z"/>
<path fill="#FAF7F8" opacity="1.000000" stroke="none" 
	d="
M175.310272,160.995605 
	C175.065475,159.904709 175.126175,158.654861 175.343063,157.153534 
	C175.736221,156.918518 175.973175,156.934967 176.565704,156.973846 
	C176.486115,158.276398 176.050949,159.556519 175.310272,160.995605 
z"/>
<path fill="#FA8B48" opacity="1.000000" stroke="none" 
	d="
M261.340942,169.494354 
	C272.658569,160.748764 283.976624,152.003738 295.293243,143.256851 
	C296.610992,142.238342 297.923096,141.212448 299.233917,140.185043 
	C302.234436,137.833252 305.244446,137.936981 307.598083,140.862732 
	C310.088715,143.958771 308.833405,146.871902 306.050873,149.114395 
	C300.085876,153.921753 294.037262,158.625580 288.011169,163.356873 
	C281.854370,168.190796 275.683563,173.006882 268.944336,177.716003 
	C266.026825,174.898956 263.683868,172.196655 261.340942,169.494354 
z"/>
<path fill="#FBB7A1" opacity="1.000000" stroke="none" 
	d="
M260.906799,169.314301 
	C263.683868,172.196655 266.026825,174.898956 268.620300,177.840744 
	C269.288452,182.942307 267.848755,186.998901 263.418152,190.005310 
	C259.389343,183.822556 255.687164,177.534592 251.815918,170.890213 
	C254.588791,170.067291 257.530701,169.600784 260.906799,169.314301 
z"/>
<path fill="#FFFFFF" opacity="1.000000" stroke="none" 
	d="
M164.651245,338.068359 
	C164.330322,308.760010 164.348709,279.437744 164.353241,249.660706 
	C165.010941,249.132446 165.682480,249.058990 166.683395,248.908630 
	C167.746109,248.889282 168.479431,248.946808 169.581924,249.015228 
	C170.037567,267.491547 170.143372,285.956909 170.203278,304.422424 
	C170.238892,315.406982 170.202240,326.391785 169.776855,337.812866 
	C168.349747,338.236725 167.343842,338.224182 166.337936,338.211609 
	C165.888809,338.159241 165.439682,338.106873 164.651245,338.068359 
z"/>
<path fill="#262E5C" opacity="1.000000" stroke="none" 
	d="
M189.522339,172.023376 
	C190.576996,172.987823 191.703384,173.969406 191.644318,174.873520 
	C191.596497,175.605499 190.155991,176.775711 189.274841,176.831619 
	C185.626495,177.063141 181.945023,177.098022 178.302155,176.836685 
	C177.498077,176.779007 176.178802,175.178040 176.230560,174.359421 
	C176.282745,173.534378 177.699921,172.198776 178.599045,172.129791 
	C182.075974,171.863007 185.584854,172.012558 189.522339,172.023376 
z"/>
<path fill="#FAF7F8" opacity="1.000000" stroke="none" 
	d="
M149.778076,136.020081 
	C152.885254,135.695023 156.038742,135.788300 159.661591,135.912811 
	C162.866730,141.797058 163.022919,147.267593 159.316711,153.081085 
	C158.159592,154.896118 159.722885,158.445450 159.948990,161.615906 
	C156.512848,153.500076 153.168610,144.969254 149.778076,136.020081 
z"/>
<path fill="#272F5D" opacity="1.000000" stroke="none" 
	d="
M198.982605,373.918304 
	C207.646561,374.449738 215.349274,372.398193 221.602844,365.897400 
	C221.928787,371.106628 221.943344,376.034424 221.957901,380.962250 
	C219.605652,381.056946 217.253403,381.151672 214.011200,381.252716 
	C208.396561,381.168243 203.671875,381.077484 198.942383,380.547089 
	C198.952606,378.044403 198.967606,375.981354 198.982605,373.918304 
z"/>
<path fill="#B2635B" opacity="1.000000" stroke="none" 
	d="
M198.947174,380.986725 
	C203.671875,381.077484 208.396561,381.168243 213.581924,381.348877 
	C207.298035,386.671387 200.286179,387.217438 192.664261,383.197601 
	C190.622009,382.120483 187.907303,382.090942 185.486374,382.006165 
	C180.328049,381.825470 175.159943,381.923737 169.743774,381.658142 
	C170.052414,381.236450 170.613159,381.064301 171.173904,380.892151 
	C178.459167,380.999268 185.744446,381.106384 193.902374,381.250305 
	C196.165741,381.187012 197.556458,381.086884 198.947174,380.986725 
z"/>
<path fill="#FAF7F8" opacity="1.000000" stroke="none" 
	d="
M171.121704,380.436768 
	C170.613159,381.064301 170.052414,381.236450 169.283005,381.603882 
	C168.328949,381.852661 167.583588,381.906158 166.472473,381.911804 
	C166.106750,375.142029 166.106750,368.420135 166.106750,361.698212 
	C166.662445,361.612335 167.218140,361.526459 167.773834,361.440582 
	C173.485199,366.504395 170.058716,373.779877 171.121704,380.436768 
z"/>
<path fill="#FFFFFF" opacity="1.000000" stroke="none" 
	d="
M222.254883,381.057861 
	C221.943344,376.034424 221.928787,371.106628 221.870056,365.744263 
	C222.502213,364.459808 223.178558,363.609894 223.987625,362.462585 
	C224.585541,362.115265 225.050751,362.065338 225.791031,362.583313 
	C226.018982,369.132080 225.971848,375.112915 225.924728,381.093750 
	C225.743011,381.121674 225.561310,381.149628 224.836288,381.160034 
	C223.913300,381.200775 223.533600,381.259094 223.153915,381.317413 
	C222.953232,381.262756 222.752548,381.208130 222.254883,381.057861 
z"/>
<path fill="#B2635B" opacity="1.000000" stroke="none" 
	d="
M226.182999,381.129120 
	C225.971848,375.112915 226.018982,369.132080 226.117706,362.714233 
	C226.412399,368.234924 226.655533,374.192596 226.928894,380.627197 
	C226.786530,381.124207 226.613907,381.144348 226.182999,381.129120 
z"/>
<path fill="#B2635B" opacity="1.000000" stroke="none" 
	d="
M223.284744,381.477356 
	C223.533600,381.259094 223.913300,381.200775 224.569550,381.229919 
	C224.369263,381.424011 223.892410,381.530670 223.284744,381.477356 
z"/>
<path fill="#B2635B" opacity="1.000000" stroke="none" 
	d="
M236.156067,381.566040 
	C236.269867,381.233521 236.548859,381.223236 236.988235,381.547546 
	C237.142075,381.703125 236.729172,381.816742 236.729172,381.816742 
	C236.729172,381.816742 236.314758,381.709229 236.156067,381.566040 
z"/>
<path fill="#FBB7A1" opacity="1.000000" stroke="none" 
	d="
M292.126892,381.208984 
	C299.478180,381.238525 306.829468,381.268097 314.950073,381.284058 
	C317.139160,381.209747 318.558899,381.149017 320.443665,381.144043 
	C325.555756,381.236084 330.202820,381.272339 334.865784,381.500183 
	C334.881683,381.691742 335.006256,382.055481 335.006256,382.055481 
	C329.508606,386.344177 323.199463,387.420807 317.278015,384.120392 
	C312.822174,381.636749 308.479675,381.671387 303.877319,381.608582 
	C300.214905,381.558594 296.552582,381.499725 292.473022,381.321472 
	C292.055847,381.198181 292.126892,381.208984 292.126892,381.208984 
z"/>
<path fill="#FAF7F8" opacity="1.000000" stroke="none" 
	d="
M292.111328,380.722565 
	C292.126892,381.208984 292.055847,381.198181 292.022430,381.202515 
	C290.638641,381.462402 289.288239,381.717926 287.524719,382.013306 
	C287.111572,375.450958 287.111572,368.848724 287.111572,362.246521 
	C287.703979,361.976349 288.296356,361.706177 288.888763,361.436005 
	C289.954071,363.209412 291.748749,364.908234 291.939209,366.771118 
	C292.393890,371.218323 292.092072,375.742828 292.111328,380.722565 
z"/>
<path fill="#A2BFBF" opacity="1.000000" stroke="none" 
	d="
M335.474365,382.035889 
	C335.006256,382.055481 334.881683,381.691742 335.311310,381.395386 
	C338.152679,381.060242 340.564453,381.021454 343.405670,381.025146 
	C344.859741,380.027008 346.709747,379.030914 346.768646,377.938263 
	C347.051819,372.686554 346.851349,367.408783 346.822571,362.140259 
	C347.192108,365.975647 347.797424,369.805756 347.883392,373.647491 
	C348.077148,382.305939 347.342102,380.894379 355.420990,381.036102 
	C356.400513,381.053284 357.376770,381.254761 358.652161,381.640381 
	C351.280670,381.945404 343.611542,381.980835 335.474365,382.035889 
z"/>
<path fill="#FAF7F8" opacity="1.000000" stroke="none" 
	d="
M198.942383,380.547089 
	C197.556458,381.086884 196.165741,381.187012 194.365707,381.187134 
	C194.008377,378.530151 194.060364,375.973175 194.271271,373.051392 
	C195.788147,372.965332 197.146118,373.244110 198.743347,373.720581 
	C198.967606,375.981354 198.952606,378.044403 198.942383,380.547089 
z"/>
<path fill="#FBB7A1" opacity="1.000000" stroke="none" 
	d="
M166.618744,338.388794 
	C167.343842,338.224182 168.349747,338.236725 169.740311,338.302734 
	C170.124969,338.356232 170.344528,338.362366 170.401794,338.455200 
	C169.272568,338.554047 168.086060,338.559998 166.618744,338.388794 
z"/>
<path fill="#FFFFFF" opacity="1.000000" stroke="none" 
	d="
M346.554321,362.121521 
	C346.851349,367.408783 347.051819,372.686554 346.768646,377.938263 
	C346.709747,379.030914 344.859741,380.027008 343.419037,380.560974 
	C342.976288,375.303528 342.949646,370.552765 342.923035,365.801971 
	C343.763367,364.764191 344.603668,363.726410 345.606140,362.468292 
	C345.940857,362.199585 346.113464,362.151184 346.554321,362.121521 
z"/>
<path fill="#FAF7F8" opacity="1.000000" stroke="none" 
	d="
M319.978668,381.088287 
	C318.558899,381.149017 317.139160,381.209747 315.409546,381.150330 
	C315.095703,378.342621 315.091644,375.655090 315.101868,372.526581 
	C316.588501,372.529083 318.060883,372.972504 319.758423,374.097168 
	C319.981964,376.881683 319.980316,378.984985 319.978668,381.088287 
z"/>
<path fill="#57C6A6" opacity="1.000000" stroke="none" 
	d="
M320.443665,381.144043 
	C319.980316,378.984985 319.981964,376.881683 319.996216,374.324280 
	C328.637512,374.709351 336.081116,372.159210 342.606689,365.940491 
	C342.949646,370.552765 342.976288,375.303528 342.989563,380.518494 
	C340.564453,381.021454 338.152679,381.060242 335.295410,381.203796 
	C330.202820,381.272339 325.555756,381.236084 320.443665,381.144043 
z"/>
</svg>